M48
;DRILL file {KiCad 5.0.2-bee76a0~70~ubuntu18.04.1} date dom 10 fev 2019 19:22:45 -02
;FORMAT={3:3/ absolute / metric / suppress leading zeros}
FMAT,2
METRIC,TZ
T1C0.800
T2C0.900
T3C1.200
T4C3.300
%
G90
G05
T1
X161036Y-114554
X123698Y-114808
X133858Y-114808
X144780Y-104902
X139740Y-116332
X142240Y-116332
X133350Y-104180
X133350Y-106680
X150876Y-111252
X161036Y-111252
X123698Y-118110
X133858Y-118110
X150876Y-114554
X137160Y-104902
X137160Y-107442
X137160Y-109982
X137160Y-112522
X144780Y-107442
X144780Y-109982
X144780Y-112522
T2
X127508Y-107442
X127508Y-109982
T3
X125984Y-90424
X131064Y-90424
X150876Y-90424
X155956Y-90424
T4
X118872Y-86868
X118872Y-130556
X162814Y-86868
X162814Y-130556
T0
M30
