G04 #@! TF.GenerationSoftware,KiCad,Pcbnew,5.0.2-bee76a0~70~ubuntu18.04.1*
G04 #@! TF.CreationDate,2019-02-10T19:22:37-02:00*
G04 #@! TF.ProjectId,555-Oscilador-pisca-r01,3535352d-4f73-4636-996c-61646f722d70,rev?*
G04 #@! TF.SameCoordinates,Original*
G04 #@! TF.FileFunction,Copper,L2,Bot*
G04 #@! TF.FilePolarity,Positive*
%FSLAX46Y46*%
G04 Gerber Fmt 4.6, Leading zero omitted, Abs format (unit mm)*
G04 Created by KiCad (PCBNEW 5.0.2-bee76a0~70~ubuntu18.04.1) date dom 10 fev 2019 19:22:37 -02*
%MOMM*%
%LPD*%
G01*
G04 APERTURE LIST*
G04 #@! TA.AperFunction,ComponentPad*
%ADD10C,1.600000*%
G04 #@! TD*
G04 #@! TA.AperFunction,ComponentPad*
%ADD11O,1.600000X1.600000*%
G04 #@! TD*
G04 #@! TA.AperFunction,ComponentPad*
%ADD12O,1.800000X3.600000*%
G04 #@! TD*
G04 #@! TA.AperFunction,Conductor*
%ADD13C,0.100000*%
G04 #@! TD*
G04 #@! TA.AperFunction,ComponentPad*
%ADD14C,1.800000*%
G04 #@! TD*
G04 #@! TA.AperFunction,ComponentPad*
%ADD15R,1.800000X1.800000*%
G04 #@! TD*
G04 #@! TA.AperFunction,ComponentPad*
%ADD16R,2.400000X1.600000*%
G04 #@! TD*
G04 #@! TA.AperFunction,ComponentPad*
%ADD17O,2.400000X1.600000*%
G04 #@! TD*
G04 #@! TA.AperFunction,ViaPad*
%ADD18C,3.500000*%
G04 #@! TD*
G04 #@! TA.AperFunction,Conductor*
%ADD19C,1.000000*%
G04 #@! TD*
G04 #@! TA.AperFunction,Conductor*
%ADD20C,0.254000*%
G04 #@! TD*
G04 APERTURE END LIST*
D10*
G04 #@! TO.P,R4,1*
G04 #@! TO.N,Net-(R1-Pad2)*
X161036000Y-111252000D03*
D11*
G04 #@! TO.P,R4,2*
G04 #@! TO.N,Net-(C1-Pad1)*
X150876000Y-111252000D03*
G04 #@! TD*
D12*
G04 #@! TO.P,J2,2*
G04 #@! TO.N,GND*
X155956000Y-90424000D03*
D13*
G04 #@! TD*
G04 #@! TO.N,VDC*
G04 #@! TO.C,J2*
G36*
X151550504Y-88625204D02*
X151574773Y-88628804D01*
X151598571Y-88634765D01*
X151621671Y-88643030D01*
X151643849Y-88653520D01*
X151664893Y-88666133D01*
X151684598Y-88680747D01*
X151702777Y-88697223D01*
X151719253Y-88715402D01*
X151733867Y-88735107D01*
X151746480Y-88756151D01*
X151756970Y-88778329D01*
X151765235Y-88801429D01*
X151771196Y-88825227D01*
X151774796Y-88849496D01*
X151776000Y-88874000D01*
X151776000Y-91974000D01*
X151774796Y-91998504D01*
X151771196Y-92022773D01*
X151765235Y-92046571D01*
X151756970Y-92069671D01*
X151746480Y-92091849D01*
X151733867Y-92112893D01*
X151719253Y-92132598D01*
X151702777Y-92150777D01*
X151684598Y-92167253D01*
X151664893Y-92181867D01*
X151643849Y-92194480D01*
X151621671Y-92204970D01*
X151598571Y-92213235D01*
X151574773Y-92219196D01*
X151550504Y-92222796D01*
X151526000Y-92224000D01*
X150226000Y-92224000D01*
X150201496Y-92222796D01*
X150177227Y-92219196D01*
X150153429Y-92213235D01*
X150130329Y-92204970D01*
X150108151Y-92194480D01*
X150087107Y-92181867D01*
X150067402Y-92167253D01*
X150049223Y-92150777D01*
X150032747Y-92132598D01*
X150018133Y-92112893D01*
X150005520Y-92091849D01*
X149995030Y-92069671D01*
X149986765Y-92046571D01*
X149980804Y-92022773D01*
X149977204Y-91998504D01*
X149976000Y-91974000D01*
X149976000Y-88874000D01*
X149977204Y-88849496D01*
X149980804Y-88825227D01*
X149986765Y-88801429D01*
X149995030Y-88778329D01*
X150005520Y-88756151D01*
X150018133Y-88735107D01*
X150032747Y-88715402D01*
X150049223Y-88697223D01*
X150067402Y-88680747D01*
X150087107Y-88666133D01*
X150108151Y-88653520D01*
X150130329Y-88643030D01*
X150153429Y-88634765D01*
X150177227Y-88628804D01*
X150201496Y-88625204D01*
X150226000Y-88624000D01*
X151526000Y-88624000D01*
X151550504Y-88625204D01*
X151550504Y-88625204D01*
G37*
D14*
G04 #@! TO.P,J2,1*
G04 #@! TO.N,VDC*
X150876000Y-90424000D03*
G04 #@! TD*
D13*
G04 #@! TO.N,Net-(J1-Pad1)*
G04 #@! TO.C,J1*
G36*
X126658504Y-88625204D02*
X126682773Y-88628804D01*
X126706571Y-88634765D01*
X126729671Y-88643030D01*
X126751849Y-88653520D01*
X126772893Y-88666133D01*
X126792598Y-88680747D01*
X126810777Y-88697223D01*
X126827253Y-88715402D01*
X126841867Y-88735107D01*
X126854480Y-88756151D01*
X126864970Y-88778329D01*
X126873235Y-88801429D01*
X126879196Y-88825227D01*
X126882796Y-88849496D01*
X126884000Y-88874000D01*
X126884000Y-91974000D01*
X126882796Y-91998504D01*
X126879196Y-92022773D01*
X126873235Y-92046571D01*
X126864970Y-92069671D01*
X126854480Y-92091849D01*
X126841867Y-92112893D01*
X126827253Y-92132598D01*
X126810777Y-92150777D01*
X126792598Y-92167253D01*
X126772893Y-92181867D01*
X126751849Y-92194480D01*
X126729671Y-92204970D01*
X126706571Y-92213235D01*
X126682773Y-92219196D01*
X126658504Y-92222796D01*
X126634000Y-92224000D01*
X125334000Y-92224000D01*
X125309496Y-92222796D01*
X125285227Y-92219196D01*
X125261429Y-92213235D01*
X125238329Y-92204970D01*
X125216151Y-92194480D01*
X125195107Y-92181867D01*
X125175402Y-92167253D01*
X125157223Y-92150777D01*
X125140747Y-92132598D01*
X125126133Y-92112893D01*
X125113520Y-92091849D01*
X125103030Y-92069671D01*
X125094765Y-92046571D01*
X125088804Y-92022773D01*
X125085204Y-91998504D01*
X125084000Y-91974000D01*
X125084000Y-88874000D01*
X125085204Y-88849496D01*
X125088804Y-88825227D01*
X125094765Y-88801429D01*
X125103030Y-88778329D01*
X125113520Y-88756151D01*
X125126133Y-88735107D01*
X125140747Y-88715402D01*
X125157223Y-88697223D01*
X125175402Y-88680747D01*
X125195107Y-88666133D01*
X125216151Y-88653520D01*
X125238329Y-88643030D01*
X125261429Y-88634765D01*
X125285227Y-88628804D01*
X125309496Y-88625204D01*
X125334000Y-88624000D01*
X126634000Y-88624000D01*
X126658504Y-88625204D01*
X126658504Y-88625204D01*
G37*
D14*
G04 #@! TD*
G04 #@! TO.P,J1,1*
G04 #@! TO.N,Net-(J1-Pad1)*
X125984000Y-90424000D03*
D12*
G04 #@! TO.P,J1,2*
G04 #@! TO.N,GND*
X131064000Y-90424000D03*
G04 #@! TD*
D10*
G04 #@! TO.P,C2,2*
G04 #@! TO.N,GND*
X139740000Y-116332000D03*
G04 #@! TO.P,C2,1*
G04 #@! TO.N,Net-(C2-Pad1)*
X142240000Y-116332000D03*
G04 #@! TD*
G04 #@! TO.P,C1,1*
G04 #@! TO.N,Net-(C1-Pad1)*
X133350000Y-106680000D03*
G04 #@! TO.P,C1,2*
G04 #@! TO.N,GND*
X133350000Y-104180000D03*
G04 #@! TD*
D15*
G04 #@! TO.P,D3,1*
G04 #@! TO.N,GND*
X127508000Y-107442000D03*
D14*
G04 #@! TO.P,D3,2*
G04 #@! TO.N,Net-(D3-Pad2)*
X127508000Y-109982000D03*
G04 #@! TD*
D16*
G04 #@! TO.P,U1,1*
G04 #@! TO.N,GND*
X137160000Y-104902000D03*
D17*
G04 #@! TO.P,U1,5*
G04 #@! TO.N,Net-(C2-Pad1)*
X144780000Y-112522000D03*
G04 #@! TO.P,U1,2*
G04 #@! TO.N,Net-(C1-Pad1)*
X137160000Y-107442000D03*
G04 #@! TO.P,U1,6*
X144780000Y-109982000D03*
G04 #@! TO.P,U1,3*
G04 #@! TO.N,Net-(R2-Pad2)*
X137160000Y-109982000D03*
G04 #@! TO.P,U1,7*
G04 #@! TO.N,Net-(R1-Pad2)*
X144780000Y-107442000D03*
G04 #@! TO.P,U1,4*
G04 #@! TO.N,VDC*
X137160000Y-112522000D03*
G04 #@! TO.P,U1,8*
X144780000Y-104902000D03*
G04 #@! TD*
D10*
G04 #@! TO.P,R3,1*
G04 #@! TO.N,Net-(J1-Pad1)*
X123698000Y-118110000D03*
D11*
G04 #@! TO.P,R3,2*
G04 #@! TO.N,Net-(R2-Pad2)*
X133858000Y-118110000D03*
G04 #@! TD*
G04 #@! TO.P,R2,2*
G04 #@! TO.N,Net-(R2-Pad2)*
X133858000Y-114808000D03*
D10*
G04 #@! TO.P,R2,1*
G04 #@! TO.N,Net-(D3-Pad2)*
X123698000Y-114808000D03*
G04 #@! TD*
G04 #@! TO.P,R1,1*
G04 #@! TO.N,VDC*
X161036000Y-114554000D03*
D11*
G04 #@! TO.P,R1,2*
G04 #@! TO.N,Net-(R1-Pad2)*
X150876000Y-114554000D03*
G04 #@! TD*
D18*
G04 #@! TO.N,*
X118872000Y-130556000D03*
X162814000Y-130556000D03*
X162814000Y-86868000D03*
X118872000Y-86868000D03*
G04 #@! TD*
D19*
G04 #@! TO.N,VDC*
X161036000Y-114554000D02*
X163068000Y-114554000D01*
X163068000Y-114554000D02*
X163830000Y-113792000D01*
X163830000Y-104648000D02*
X163830000Y-113792000D01*
X158456000Y-99274000D02*
X163830000Y-104648000D01*
X137160000Y-112522000D02*
X137560000Y-112522000D01*
X137560000Y-112522000D02*
X139954000Y-112522000D01*
X139954000Y-112522000D02*
X140970000Y-111506000D01*
X140970000Y-111506000D02*
X140970000Y-108312000D01*
X140970000Y-105918000D02*
X140970000Y-108312000D01*
X144780000Y-104902000D02*
X141986000Y-104902000D01*
X141986000Y-104902000D02*
X140970000Y-105918000D01*
X145180000Y-104902000D02*
X144780000Y-104902000D01*
X150876000Y-99206000D02*
X145180000Y-104902000D01*
X150876000Y-90424000D02*
X150876000Y-99206000D01*
X150944000Y-99274000D02*
X150876000Y-99206000D01*
X158456000Y-99274000D02*
X150944000Y-99274000D01*
G04 #@! TO.N,Net-(R2-Pad2)*
X133858000Y-118110000D02*
X133858000Y-114808000D01*
X137160000Y-109982000D02*
X134620000Y-109982000D01*
X133858000Y-110744000D02*
X133858000Y-114808000D01*
X134620000Y-109982000D02*
X133858000Y-110744000D01*
G04 #@! TO.N,Net-(D3-Pad2)*
X123698000Y-113792000D02*
X127508000Y-109982000D01*
X123698000Y-114808000D02*
X123698000Y-113792000D01*
G04 #@! TO.N,Net-(J1-Pad1)*
X125985001Y-94370001D02*
X120142000Y-100213002D01*
X125985001Y-91870001D02*
X125985001Y-94370001D01*
X120142000Y-100213002D02*
X120142000Y-114554000D01*
X120142000Y-114554000D02*
X123698000Y-118110000D01*
G04 #@! TO.N,Net-(C1-Pad1)*
X134112000Y-107442000D02*
X133350000Y-106680000D01*
X137160000Y-107442000D02*
X134112000Y-107442000D01*
X131064000Y-118872000D02*
X131064000Y-108966000D01*
X136652000Y-118872000D02*
X135382000Y-120142000D01*
X136652000Y-116078000D02*
X136652000Y-118872000D01*
X135382000Y-120142000D02*
X132334000Y-120142000D01*
X138430000Y-114300000D02*
X136652000Y-116078000D01*
X140462000Y-114300000D02*
X138430000Y-114300000D01*
X144780000Y-109982000D02*
X144191070Y-109982000D01*
X131064000Y-108966000D02*
X133350000Y-106680000D01*
X143937070Y-110236000D02*
X143256000Y-110236000D01*
X132334000Y-120142000D02*
X131064000Y-118872000D01*
X143256000Y-110236000D02*
X142494000Y-110998000D01*
X142494000Y-110998000D02*
X142494000Y-112268000D01*
X144191070Y-109982000D02*
X143937070Y-110236000D01*
X142494000Y-112268000D02*
X140462000Y-114300000D01*
X146980000Y-109982000D02*
X144780000Y-109982000D01*
X150876000Y-111252000D02*
X148250000Y-111252000D01*
X148250000Y-111252000D02*
X146980000Y-109982000D01*
G04 #@! TO.N,GND*
X131065001Y-101895001D02*
X133350000Y-104180000D01*
X131065001Y-91870001D02*
X131065001Y-101895001D01*
X127508000Y-105542000D02*
X131065001Y-101984999D01*
X131065001Y-101984999D02*
X131065001Y-101895001D01*
X127508000Y-107442000D02*
X127508000Y-105542000D01*
X134072000Y-104902000D02*
X133350000Y-104180000D01*
X137160000Y-104902000D02*
X134072000Y-104902000D01*
X128778000Y-107442000D02*
X129540000Y-108204000D01*
X127508000Y-107442000D02*
X128778000Y-107442000D01*
X129540000Y-108204000D02*
X129540000Y-120904000D01*
X129540000Y-120904000D02*
X130810000Y-122174000D01*
X139740000Y-120356000D02*
X139740000Y-116332000D01*
X130810000Y-122174000D02*
X137922000Y-122174000D01*
X137922000Y-122174000D02*
X139740000Y-120356000D01*
X140208000Y-87122000D02*
X137160000Y-90170000D01*
X154775320Y-87122000D02*
X140208000Y-87122000D01*
X137160000Y-90170000D02*
X137160000Y-104902000D01*
X155956000Y-90424000D02*
X155956000Y-88302680D01*
X155956000Y-88302680D02*
X154775320Y-87122000D01*
G04 #@! TO.N,Net-(C2-Pad1)*
X142240000Y-115062000D02*
X144780000Y-112522000D01*
X142240000Y-116332000D02*
X142240000Y-115062000D01*
G04 #@! TO.N,Net-(R1-Pad2)*
X152400000Y-107442000D02*
X144780000Y-107442000D01*
X153670000Y-108712000D02*
X152400000Y-107442000D01*
X150876000Y-114554000D02*
X153670000Y-111760000D01*
X161036000Y-111252000D02*
X153670000Y-111252000D01*
X153670000Y-111760000D02*
X153670000Y-111252000D01*
X153670000Y-111252000D02*
X153670000Y-108712000D01*
G04 #@! TD*
D20*
G04 #@! TO.N,GND*
G36*
X161463006Y-84846095D02*
X160792095Y-85517006D01*
X160429000Y-86393594D01*
X160429000Y-87342406D01*
X160792095Y-88218994D01*
X161463006Y-88889905D01*
X162339594Y-89253000D01*
X163288406Y-89253000D01*
X164164994Y-88889905D01*
X164835905Y-88218994D01*
X164873000Y-88129439D01*
X164873000Y-104166016D01*
X164818006Y-104083711D01*
X164648289Y-103829711D01*
X164553522Y-103766390D01*
X159337613Y-98550482D01*
X159274289Y-98455711D01*
X158898855Y-98204854D01*
X158567783Y-98139000D01*
X158456000Y-98116765D01*
X158344217Y-98139000D01*
X152011000Y-98139000D01*
X152011000Y-92708536D01*
X152160586Y-92608586D01*
X152355126Y-92317435D01*
X152423440Y-91974000D01*
X152423440Y-90551000D01*
X154421000Y-90551000D01*
X154421000Y-91451000D01*
X154586446Y-92028752D01*
X154960394Y-92499212D01*
X155485914Y-92790756D01*
X155591260Y-92815036D01*
X155829000Y-92694378D01*
X155829000Y-90551000D01*
X156083000Y-90551000D01*
X156083000Y-92694378D01*
X156320740Y-92815036D01*
X156426086Y-92790756D01*
X156951606Y-92499212D01*
X157325554Y-92028752D01*
X157491000Y-91451000D01*
X157491000Y-90551000D01*
X156083000Y-90551000D01*
X155829000Y-90551000D01*
X154421000Y-90551000D01*
X152423440Y-90551000D01*
X152423440Y-89397000D01*
X154421000Y-89397000D01*
X154421000Y-90297000D01*
X155829000Y-90297000D01*
X155829000Y-88153622D01*
X156083000Y-88153622D01*
X156083000Y-90297000D01*
X157491000Y-90297000D01*
X157491000Y-89397000D01*
X157325554Y-88819248D01*
X156951606Y-88348788D01*
X156426086Y-88057244D01*
X156320740Y-88032964D01*
X156083000Y-88153622D01*
X155829000Y-88153622D01*
X155591260Y-88032964D01*
X155485914Y-88057244D01*
X154960394Y-88348788D01*
X154586446Y-88819248D01*
X154421000Y-89397000D01*
X152423440Y-89397000D01*
X152423440Y-88874000D01*
X152355126Y-88530565D01*
X152160586Y-88239414D01*
X151869435Y-88044874D01*
X151526000Y-87976560D01*
X150226000Y-87976560D01*
X149882565Y-88044874D01*
X149591414Y-88239414D01*
X149396874Y-88530565D01*
X149328560Y-88874000D01*
X149328560Y-91974000D01*
X149396874Y-92317435D01*
X149591414Y-92608586D01*
X149741000Y-92708536D01*
X149741001Y-98735867D01*
X145009869Y-103467000D01*
X144238667Y-103467000D01*
X143820091Y-103550260D01*
X143495717Y-103767000D01*
X142097783Y-103767000D01*
X141986000Y-103744765D01*
X141874217Y-103767000D01*
X141543145Y-103832854D01*
X141167711Y-104083711D01*
X141104389Y-104178479D01*
X140246481Y-105036387D01*
X140151711Y-105099711D01*
X139928438Y-105433864D01*
X139900854Y-105475146D01*
X139812765Y-105918000D01*
X139835000Y-106029783D01*
X139835001Y-108200217D01*
X139835000Y-111035868D01*
X139483869Y-111387000D01*
X138444283Y-111387000D01*
X138242242Y-111252000D01*
X138594577Y-111016577D01*
X138911740Y-110541909D01*
X139023113Y-109982000D01*
X138911740Y-109422091D01*
X138594577Y-108947423D01*
X138242242Y-108712000D01*
X138594577Y-108476577D01*
X138911740Y-108001909D01*
X139023113Y-107442000D01*
X138911740Y-106882091D01*
X138594577Y-106407423D01*
X138488082Y-106336265D01*
X138719698Y-106240327D01*
X138898327Y-106061699D01*
X138995000Y-105828310D01*
X138995000Y-105187750D01*
X138836250Y-105029000D01*
X137287000Y-105029000D01*
X137287000Y-105049000D01*
X137033000Y-105049000D01*
X137033000Y-105029000D01*
X135483750Y-105029000D01*
X135325000Y-105187750D01*
X135325000Y-105828310D01*
X135421673Y-106061699D01*
X135600302Y-106240327D01*
X135761265Y-106307000D01*
X134748731Y-106307000D01*
X134566534Y-105867138D01*
X134162862Y-105463466D01*
X134097701Y-105436475D01*
X134104005Y-105433864D01*
X134178139Y-105187745D01*
X133350000Y-104359605D01*
X132521861Y-105187745D01*
X132595995Y-105433864D01*
X132602746Y-105436290D01*
X132537138Y-105463466D01*
X132133466Y-105867138D01*
X131915000Y-106394561D01*
X131915000Y-106509868D01*
X130340480Y-108084389D01*
X130245712Y-108147711D01*
X130061247Y-108423783D01*
X129994854Y-108523146D01*
X129906765Y-108966000D01*
X129929001Y-109077788D01*
X129929000Y-118760217D01*
X129906765Y-118872000D01*
X129933618Y-119007000D01*
X129994854Y-119314854D01*
X130245711Y-119690289D01*
X130340482Y-119753613D01*
X131452389Y-120865521D01*
X131515711Y-120960289D01*
X131891145Y-121211146D01*
X132333999Y-121299235D01*
X132445782Y-121277000D01*
X135270217Y-121277000D01*
X135382000Y-121299235D01*
X135493783Y-121277000D01*
X135824855Y-121211146D01*
X136200289Y-120960289D01*
X136263613Y-120865518D01*
X137375521Y-119753611D01*
X137470289Y-119690289D01*
X137721146Y-119314855D01*
X137787000Y-118983783D01*
X137787000Y-118983782D01*
X137809235Y-118872001D01*
X137787000Y-118760218D01*
X137787000Y-117339745D01*
X138911861Y-117339745D01*
X138985995Y-117585864D01*
X139523223Y-117778965D01*
X140093454Y-117751778D01*
X140494005Y-117585864D01*
X140568139Y-117339745D01*
X139740000Y-116511605D01*
X138911861Y-117339745D01*
X137787000Y-117339745D01*
X137787000Y-116548131D01*
X138334069Y-116001063D01*
X138293035Y-116115223D01*
X138320222Y-116685454D01*
X138486136Y-117086005D01*
X138732255Y-117160139D01*
X139560395Y-116332000D01*
X139546252Y-116317858D01*
X139725858Y-116138252D01*
X139740000Y-116152395D01*
X139754142Y-116138252D01*
X139933748Y-116317858D01*
X139919605Y-116332000D01*
X140747745Y-117160139D01*
X140993864Y-117086005D01*
X140996290Y-117079254D01*
X141023466Y-117144862D01*
X141427138Y-117548534D01*
X141954561Y-117767000D01*
X142525439Y-117767000D01*
X143052862Y-117548534D01*
X143456534Y-117144862D01*
X143675000Y-116617439D01*
X143675000Y-116046561D01*
X143456534Y-115519138D01*
X143422264Y-115484868D01*
X144950132Y-113957000D01*
X145321333Y-113957000D01*
X145739909Y-113873740D01*
X146214577Y-113556577D01*
X146531740Y-113081909D01*
X146643113Y-112522000D01*
X146531740Y-111962091D01*
X146214577Y-111487423D01*
X145862242Y-111252000D01*
X146064283Y-111117000D01*
X146509869Y-111117000D01*
X147368389Y-111975521D01*
X147431711Y-112070289D01*
X147755409Y-112286577D01*
X147807145Y-112321146D01*
X148249999Y-112409235D01*
X148361782Y-112387000D01*
X149991717Y-112387000D01*
X150316091Y-112603740D01*
X150734667Y-112687000D01*
X151017333Y-112687000D01*
X151167798Y-112657071D01*
X150698718Y-113126151D01*
X150316091Y-113202260D01*
X149841423Y-113519423D01*
X149524260Y-113994091D01*
X149412887Y-114554000D01*
X149524260Y-115113909D01*
X149841423Y-115588577D01*
X150316091Y-115905740D01*
X150734667Y-115989000D01*
X151017333Y-115989000D01*
X151435909Y-115905740D01*
X151910577Y-115588577D01*
X152227740Y-115113909D01*
X152303849Y-114731282D01*
X154393521Y-112641610D01*
X154488289Y-112578289D01*
X154616104Y-112387000D01*
X160141604Y-112387000D01*
X160223138Y-112468534D01*
X160750561Y-112687000D01*
X161321439Y-112687000D01*
X161848862Y-112468534D01*
X162252534Y-112064862D01*
X162471000Y-111537439D01*
X162471000Y-110966561D01*
X162252534Y-110439138D01*
X161848862Y-110035466D01*
X161321439Y-109817000D01*
X160750561Y-109817000D01*
X160223138Y-110035466D01*
X160141604Y-110117000D01*
X154805000Y-110117000D01*
X154805000Y-108823782D01*
X154827235Y-108711999D01*
X154739146Y-108269145D01*
X154658006Y-108147711D01*
X154488289Y-107893711D01*
X154393521Y-107830389D01*
X153281613Y-106718482D01*
X153218289Y-106623711D01*
X152842855Y-106372854D01*
X152511783Y-106307000D01*
X152400000Y-106284765D01*
X152288217Y-106307000D01*
X146064283Y-106307000D01*
X145862242Y-106172000D01*
X146214577Y-105936577D01*
X146531740Y-105461909D01*
X146607849Y-105079282D01*
X151278132Y-100409000D01*
X157985869Y-100409000D01*
X162695000Y-105118132D01*
X162695001Y-113321868D01*
X162597869Y-113419000D01*
X161930396Y-113419000D01*
X161848862Y-113337466D01*
X161321439Y-113119000D01*
X160750561Y-113119000D01*
X160223138Y-113337466D01*
X159819466Y-113741138D01*
X159601000Y-114268561D01*
X159601000Y-114839439D01*
X159819466Y-115366862D01*
X160223138Y-115770534D01*
X160750561Y-115989000D01*
X161321439Y-115989000D01*
X161848862Y-115770534D01*
X161930396Y-115689000D01*
X162956217Y-115689000D01*
X163068000Y-115711235D01*
X163179783Y-115689000D01*
X163510855Y-115623146D01*
X163886289Y-115372289D01*
X163949613Y-115277519D01*
X164553521Y-114673611D01*
X164648289Y-114610289D01*
X164873001Y-114273984D01*
X164873001Y-129294563D01*
X164835905Y-129205006D01*
X164164994Y-128534095D01*
X163288406Y-128171000D01*
X162339594Y-128171000D01*
X161463006Y-128534095D01*
X160792095Y-129205006D01*
X160429000Y-130081594D01*
X160429000Y-131030406D01*
X160792095Y-131906994D01*
X161463006Y-132577905D01*
X161552561Y-132615000D01*
X120133439Y-132615000D01*
X120222994Y-132577905D01*
X120893905Y-131906994D01*
X121257000Y-131030406D01*
X121257000Y-130081594D01*
X120893905Y-129205006D01*
X120222994Y-128534095D01*
X119346406Y-128171000D01*
X118397594Y-128171000D01*
X117521006Y-128534095D01*
X116850095Y-129205006D01*
X116813000Y-129294561D01*
X116813000Y-100213002D01*
X118984765Y-100213002D01*
X119007000Y-100324785D01*
X119007001Y-114442212D01*
X118984765Y-114554000D01*
X119072854Y-114996854D01*
X119127165Y-115078136D01*
X119323712Y-115372289D01*
X119418480Y-115435611D01*
X122263000Y-118280132D01*
X122263000Y-118395439D01*
X122481466Y-118922862D01*
X122885138Y-119326534D01*
X123412561Y-119545000D01*
X123983439Y-119545000D01*
X124510862Y-119326534D01*
X124914534Y-118922862D01*
X125133000Y-118395439D01*
X125133000Y-117824561D01*
X124914534Y-117297138D01*
X124510862Y-116893466D01*
X123983439Y-116675000D01*
X123868132Y-116675000D01*
X123436132Y-116243000D01*
X123983439Y-116243000D01*
X124510862Y-116024534D01*
X124914534Y-115620862D01*
X125133000Y-115093439D01*
X125133000Y-114522561D01*
X124968854Y-114126277D01*
X127578132Y-111517000D01*
X127813330Y-111517000D01*
X128377507Y-111283310D01*
X128809310Y-110851507D01*
X129043000Y-110287330D01*
X129043000Y-109676670D01*
X128809310Y-109112493D01*
X128632956Y-108936139D01*
X128767699Y-108880327D01*
X128946327Y-108701698D01*
X129043000Y-108468309D01*
X129043000Y-107727750D01*
X128884250Y-107569000D01*
X127635000Y-107569000D01*
X127635000Y-107589000D01*
X127381000Y-107589000D01*
X127381000Y-107569000D01*
X126131750Y-107569000D01*
X125973000Y-107727750D01*
X125973000Y-108468309D01*
X126069673Y-108701698D01*
X126248301Y-108880327D01*
X126383044Y-108936139D01*
X126206690Y-109112493D01*
X125973000Y-109676670D01*
X125973000Y-109911868D01*
X122974480Y-112910389D01*
X122879712Y-112973711D01*
X122628854Y-113349145D01*
X122628854Y-113349146D01*
X122540765Y-113792000D01*
X122563000Y-113903783D01*
X122563000Y-113913604D01*
X122481466Y-113995138D01*
X122263000Y-114522561D01*
X122263000Y-115069869D01*
X121277000Y-114083869D01*
X121277000Y-106415691D01*
X125973000Y-106415691D01*
X125973000Y-107156250D01*
X126131750Y-107315000D01*
X127381000Y-107315000D01*
X127381000Y-106065750D01*
X127635000Y-106065750D01*
X127635000Y-107315000D01*
X128884250Y-107315000D01*
X129043000Y-107156250D01*
X129043000Y-106415691D01*
X128946327Y-106182302D01*
X128767699Y-106003673D01*
X128534310Y-105907000D01*
X127793750Y-105907000D01*
X127635000Y-106065750D01*
X127381000Y-106065750D01*
X127222250Y-105907000D01*
X126481690Y-105907000D01*
X126248301Y-106003673D01*
X126069673Y-106182302D01*
X125973000Y-106415691D01*
X121277000Y-106415691D01*
X121277000Y-103963223D01*
X131903035Y-103963223D01*
X131930222Y-104533454D01*
X132096136Y-104934005D01*
X132342255Y-105008139D01*
X133170395Y-104180000D01*
X133529605Y-104180000D01*
X134357745Y-105008139D01*
X134603864Y-104934005D01*
X134796965Y-104396777D01*
X134776889Y-103975690D01*
X135325000Y-103975690D01*
X135325000Y-104616250D01*
X135483750Y-104775000D01*
X137033000Y-104775000D01*
X137033000Y-103625750D01*
X137287000Y-103625750D01*
X137287000Y-104775000D01*
X138836250Y-104775000D01*
X138995000Y-104616250D01*
X138995000Y-103975690D01*
X138898327Y-103742301D01*
X138719698Y-103563673D01*
X138486309Y-103467000D01*
X137445750Y-103467000D01*
X137287000Y-103625750D01*
X137033000Y-103625750D01*
X136874250Y-103467000D01*
X135833691Y-103467000D01*
X135600302Y-103563673D01*
X135421673Y-103742301D01*
X135325000Y-103975690D01*
X134776889Y-103975690D01*
X134769778Y-103826546D01*
X134603864Y-103425995D01*
X134357745Y-103351861D01*
X133529605Y-104180000D01*
X133170395Y-104180000D01*
X132342255Y-103351861D01*
X132096136Y-103425995D01*
X131903035Y-103963223D01*
X121277000Y-103963223D01*
X121277000Y-103172255D01*
X132521861Y-103172255D01*
X133350000Y-104000395D01*
X134178139Y-103172255D01*
X134104005Y-102926136D01*
X133566777Y-102733035D01*
X132996546Y-102760222D01*
X132595995Y-102926136D01*
X132521861Y-103172255D01*
X121277000Y-103172255D01*
X121277000Y-100683133D01*
X126708522Y-95251612D01*
X126803290Y-95188290D01*
X127054147Y-94812856D01*
X127120001Y-94481784D01*
X127142236Y-94370002D01*
X127120001Y-94258220D01*
X127120001Y-92707867D01*
X127268586Y-92608586D01*
X127463126Y-92317435D01*
X127531440Y-91974000D01*
X127531440Y-90551000D01*
X129529000Y-90551000D01*
X129529000Y-91451000D01*
X129694446Y-92028752D01*
X130068394Y-92499212D01*
X130593914Y-92790756D01*
X130699260Y-92815036D01*
X130937000Y-92694378D01*
X130937000Y-90551000D01*
X131191000Y-90551000D01*
X131191000Y-92694378D01*
X131428740Y-92815036D01*
X131534086Y-92790756D01*
X132059606Y-92499212D01*
X132433554Y-92028752D01*
X132599000Y-91451000D01*
X132599000Y-90551000D01*
X131191000Y-90551000D01*
X130937000Y-90551000D01*
X129529000Y-90551000D01*
X127531440Y-90551000D01*
X127531440Y-89397000D01*
X129529000Y-89397000D01*
X129529000Y-90297000D01*
X130937000Y-90297000D01*
X130937000Y-88153622D01*
X131191000Y-88153622D01*
X131191000Y-90297000D01*
X132599000Y-90297000D01*
X132599000Y-89397000D01*
X132433554Y-88819248D01*
X132059606Y-88348788D01*
X131534086Y-88057244D01*
X131428740Y-88032964D01*
X131191000Y-88153622D01*
X130937000Y-88153622D01*
X130699260Y-88032964D01*
X130593914Y-88057244D01*
X130068394Y-88348788D01*
X129694446Y-88819248D01*
X129529000Y-89397000D01*
X127531440Y-89397000D01*
X127531440Y-88874000D01*
X127463126Y-88530565D01*
X127268586Y-88239414D01*
X126977435Y-88044874D01*
X126634000Y-87976560D01*
X125334000Y-87976560D01*
X124990565Y-88044874D01*
X124699414Y-88239414D01*
X124504874Y-88530565D01*
X124436560Y-88874000D01*
X124436560Y-91974000D01*
X124504874Y-92317435D01*
X124699414Y-92608586D01*
X124850001Y-92709205D01*
X124850002Y-93899868D01*
X119418482Y-99331389D01*
X119323711Y-99394713D01*
X119108464Y-99716854D01*
X119072854Y-99770148D01*
X118984765Y-100213002D01*
X116813000Y-100213002D01*
X116813000Y-88129439D01*
X116850095Y-88218994D01*
X117521006Y-88889905D01*
X118397594Y-89253000D01*
X119346406Y-89253000D01*
X120222994Y-88889905D01*
X120893905Y-88218994D01*
X121257000Y-87342406D01*
X121257000Y-86393594D01*
X120893905Y-85517006D01*
X120222994Y-84846095D01*
X120133439Y-84809000D01*
X161552561Y-84809000D01*
X161463006Y-84846095D01*
X161463006Y-84846095D01*
G37*
X161463006Y-84846095D02*
X160792095Y-85517006D01*
X160429000Y-86393594D01*
X160429000Y-87342406D01*
X160792095Y-88218994D01*
X161463006Y-88889905D01*
X162339594Y-89253000D01*
X163288406Y-89253000D01*
X164164994Y-88889905D01*
X164835905Y-88218994D01*
X164873000Y-88129439D01*
X164873000Y-104166016D01*
X164818006Y-104083711D01*
X164648289Y-103829711D01*
X164553522Y-103766390D01*
X159337613Y-98550482D01*
X159274289Y-98455711D01*
X158898855Y-98204854D01*
X158567783Y-98139000D01*
X158456000Y-98116765D01*
X158344217Y-98139000D01*
X152011000Y-98139000D01*
X152011000Y-92708536D01*
X152160586Y-92608586D01*
X152355126Y-92317435D01*
X152423440Y-91974000D01*
X152423440Y-90551000D01*
X154421000Y-90551000D01*
X154421000Y-91451000D01*
X154586446Y-92028752D01*
X154960394Y-92499212D01*
X155485914Y-92790756D01*
X155591260Y-92815036D01*
X155829000Y-92694378D01*
X155829000Y-90551000D01*
X156083000Y-90551000D01*
X156083000Y-92694378D01*
X156320740Y-92815036D01*
X156426086Y-92790756D01*
X156951606Y-92499212D01*
X157325554Y-92028752D01*
X157491000Y-91451000D01*
X157491000Y-90551000D01*
X156083000Y-90551000D01*
X155829000Y-90551000D01*
X154421000Y-90551000D01*
X152423440Y-90551000D01*
X152423440Y-89397000D01*
X154421000Y-89397000D01*
X154421000Y-90297000D01*
X155829000Y-90297000D01*
X155829000Y-88153622D01*
X156083000Y-88153622D01*
X156083000Y-90297000D01*
X157491000Y-90297000D01*
X157491000Y-89397000D01*
X157325554Y-88819248D01*
X156951606Y-88348788D01*
X156426086Y-88057244D01*
X156320740Y-88032964D01*
X156083000Y-88153622D01*
X155829000Y-88153622D01*
X155591260Y-88032964D01*
X155485914Y-88057244D01*
X154960394Y-88348788D01*
X154586446Y-88819248D01*
X154421000Y-89397000D01*
X152423440Y-89397000D01*
X152423440Y-88874000D01*
X152355126Y-88530565D01*
X152160586Y-88239414D01*
X151869435Y-88044874D01*
X151526000Y-87976560D01*
X150226000Y-87976560D01*
X149882565Y-88044874D01*
X149591414Y-88239414D01*
X149396874Y-88530565D01*
X149328560Y-88874000D01*
X149328560Y-91974000D01*
X149396874Y-92317435D01*
X149591414Y-92608586D01*
X149741000Y-92708536D01*
X149741001Y-98735867D01*
X145009869Y-103467000D01*
X144238667Y-103467000D01*
X143820091Y-103550260D01*
X143495717Y-103767000D01*
X142097783Y-103767000D01*
X141986000Y-103744765D01*
X141874217Y-103767000D01*
X141543145Y-103832854D01*
X141167711Y-104083711D01*
X141104389Y-104178479D01*
X140246481Y-105036387D01*
X140151711Y-105099711D01*
X139928438Y-105433864D01*
X139900854Y-105475146D01*
X139812765Y-105918000D01*
X139835000Y-106029783D01*
X139835001Y-108200217D01*
X139835000Y-111035868D01*
X139483869Y-111387000D01*
X138444283Y-111387000D01*
X138242242Y-111252000D01*
X138594577Y-111016577D01*
X138911740Y-110541909D01*
X139023113Y-109982000D01*
X138911740Y-109422091D01*
X138594577Y-108947423D01*
X138242242Y-108712000D01*
X138594577Y-108476577D01*
X138911740Y-108001909D01*
X139023113Y-107442000D01*
X138911740Y-106882091D01*
X138594577Y-106407423D01*
X138488082Y-106336265D01*
X138719698Y-106240327D01*
X138898327Y-106061699D01*
X138995000Y-105828310D01*
X138995000Y-105187750D01*
X138836250Y-105029000D01*
X137287000Y-105029000D01*
X137287000Y-105049000D01*
X137033000Y-105049000D01*
X137033000Y-105029000D01*
X135483750Y-105029000D01*
X135325000Y-105187750D01*
X135325000Y-105828310D01*
X135421673Y-106061699D01*
X135600302Y-106240327D01*
X135761265Y-106307000D01*
X134748731Y-106307000D01*
X134566534Y-105867138D01*
X134162862Y-105463466D01*
X134097701Y-105436475D01*
X134104005Y-105433864D01*
X134178139Y-105187745D01*
X133350000Y-104359605D01*
X132521861Y-105187745D01*
X132595995Y-105433864D01*
X132602746Y-105436290D01*
X132537138Y-105463466D01*
X132133466Y-105867138D01*
X131915000Y-106394561D01*
X131915000Y-106509868D01*
X130340480Y-108084389D01*
X130245712Y-108147711D01*
X130061247Y-108423783D01*
X129994854Y-108523146D01*
X129906765Y-108966000D01*
X129929001Y-109077788D01*
X129929000Y-118760217D01*
X129906765Y-118872000D01*
X129933618Y-119007000D01*
X129994854Y-119314854D01*
X130245711Y-119690289D01*
X130340482Y-119753613D01*
X131452389Y-120865521D01*
X131515711Y-120960289D01*
X131891145Y-121211146D01*
X132333999Y-121299235D01*
X132445782Y-121277000D01*
X135270217Y-121277000D01*
X135382000Y-121299235D01*
X135493783Y-121277000D01*
X135824855Y-121211146D01*
X136200289Y-120960289D01*
X136263613Y-120865518D01*
X137375521Y-119753611D01*
X137470289Y-119690289D01*
X137721146Y-119314855D01*
X137787000Y-118983783D01*
X137787000Y-118983782D01*
X137809235Y-118872001D01*
X137787000Y-118760218D01*
X137787000Y-117339745D01*
X138911861Y-117339745D01*
X138985995Y-117585864D01*
X139523223Y-117778965D01*
X140093454Y-117751778D01*
X140494005Y-117585864D01*
X140568139Y-117339745D01*
X139740000Y-116511605D01*
X138911861Y-117339745D01*
X137787000Y-117339745D01*
X137787000Y-116548131D01*
X138334069Y-116001063D01*
X138293035Y-116115223D01*
X138320222Y-116685454D01*
X138486136Y-117086005D01*
X138732255Y-117160139D01*
X139560395Y-116332000D01*
X139546252Y-116317858D01*
X139725858Y-116138252D01*
X139740000Y-116152395D01*
X139754142Y-116138252D01*
X139933748Y-116317858D01*
X139919605Y-116332000D01*
X140747745Y-117160139D01*
X140993864Y-117086005D01*
X140996290Y-117079254D01*
X141023466Y-117144862D01*
X141427138Y-117548534D01*
X141954561Y-117767000D01*
X142525439Y-117767000D01*
X143052862Y-117548534D01*
X143456534Y-117144862D01*
X143675000Y-116617439D01*
X143675000Y-116046561D01*
X143456534Y-115519138D01*
X143422264Y-115484868D01*
X144950132Y-113957000D01*
X145321333Y-113957000D01*
X145739909Y-113873740D01*
X146214577Y-113556577D01*
X146531740Y-113081909D01*
X146643113Y-112522000D01*
X146531740Y-111962091D01*
X146214577Y-111487423D01*
X145862242Y-111252000D01*
X146064283Y-111117000D01*
X146509869Y-111117000D01*
X147368389Y-111975521D01*
X147431711Y-112070289D01*
X147755409Y-112286577D01*
X147807145Y-112321146D01*
X148249999Y-112409235D01*
X148361782Y-112387000D01*
X149991717Y-112387000D01*
X150316091Y-112603740D01*
X150734667Y-112687000D01*
X151017333Y-112687000D01*
X151167798Y-112657071D01*
X150698718Y-113126151D01*
X150316091Y-113202260D01*
X149841423Y-113519423D01*
X149524260Y-113994091D01*
X149412887Y-114554000D01*
X149524260Y-115113909D01*
X149841423Y-115588577D01*
X150316091Y-115905740D01*
X150734667Y-115989000D01*
X151017333Y-115989000D01*
X151435909Y-115905740D01*
X151910577Y-115588577D01*
X152227740Y-115113909D01*
X152303849Y-114731282D01*
X154393521Y-112641610D01*
X154488289Y-112578289D01*
X154616104Y-112387000D01*
X160141604Y-112387000D01*
X160223138Y-112468534D01*
X160750561Y-112687000D01*
X161321439Y-112687000D01*
X161848862Y-112468534D01*
X162252534Y-112064862D01*
X162471000Y-111537439D01*
X162471000Y-110966561D01*
X162252534Y-110439138D01*
X161848862Y-110035466D01*
X161321439Y-109817000D01*
X160750561Y-109817000D01*
X160223138Y-110035466D01*
X160141604Y-110117000D01*
X154805000Y-110117000D01*
X154805000Y-108823782D01*
X154827235Y-108711999D01*
X154739146Y-108269145D01*
X154658006Y-108147711D01*
X154488289Y-107893711D01*
X154393521Y-107830389D01*
X153281613Y-106718482D01*
X153218289Y-106623711D01*
X152842855Y-106372854D01*
X152511783Y-106307000D01*
X152400000Y-106284765D01*
X152288217Y-106307000D01*
X146064283Y-106307000D01*
X145862242Y-106172000D01*
X146214577Y-105936577D01*
X146531740Y-105461909D01*
X146607849Y-105079282D01*
X151278132Y-100409000D01*
X157985869Y-100409000D01*
X162695000Y-105118132D01*
X162695001Y-113321868D01*
X162597869Y-113419000D01*
X161930396Y-113419000D01*
X161848862Y-113337466D01*
X161321439Y-113119000D01*
X160750561Y-113119000D01*
X160223138Y-113337466D01*
X159819466Y-113741138D01*
X159601000Y-114268561D01*
X159601000Y-114839439D01*
X159819466Y-115366862D01*
X160223138Y-115770534D01*
X160750561Y-115989000D01*
X161321439Y-115989000D01*
X161848862Y-115770534D01*
X161930396Y-115689000D01*
X162956217Y-115689000D01*
X163068000Y-115711235D01*
X163179783Y-115689000D01*
X163510855Y-115623146D01*
X163886289Y-115372289D01*
X163949613Y-115277519D01*
X164553521Y-114673611D01*
X164648289Y-114610289D01*
X164873001Y-114273984D01*
X164873001Y-129294563D01*
X164835905Y-129205006D01*
X164164994Y-128534095D01*
X163288406Y-128171000D01*
X162339594Y-128171000D01*
X161463006Y-128534095D01*
X160792095Y-129205006D01*
X160429000Y-130081594D01*
X160429000Y-131030406D01*
X160792095Y-131906994D01*
X161463006Y-132577905D01*
X161552561Y-132615000D01*
X120133439Y-132615000D01*
X120222994Y-132577905D01*
X120893905Y-131906994D01*
X121257000Y-131030406D01*
X121257000Y-130081594D01*
X120893905Y-129205006D01*
X120222994Y-128534095D01*
X119346406Y-128171000D01*
X118397594Y-128171000D01*
X117521006Y-128534095D01*
X116850095Y-129205006D01*
X116813000Y-129294561D01*
X116813000Y-100213002D01*
X118984765Y-100213002D01*
X119007000Y-100324785D01*
X119007001Y-114442212D01*
X118984765Y-114554000D01*
X119072854Y-114996854D01*
X119127165Y-115078136D01*
X119323712Y-115372289D01*
X119418480Y-115435611D01*
X122263000Y-118280132D01*
X122263000Y-118395439D01*
X122481466Y-118922862D01*
X122885138Y-119326534D01*
X123412561Y-119545000D01*
X123983439Y-119545000D01*
X124510862Y-119326534D01*
X124914534Y-118922862D01*
X125133000Y-118395439D01*
X125133000Y-117824561D01*
X124914534Y-117297138D01*
X124510862Y-116893466D01*
X123983439Y-116675000D01*
X123868132Y-116675000D01*
X123436132Y-116243000D01*
X123983439Y-116243000D01*
X124510862Y-116024534D01*
X124914534Y-115620862D01*
X125133000Y-115093439D01*
X125133000Y-114522561D01*
X124968854Y-114126277D01*
X127578132Y-111517000D01*
X127813330Y-111517000D01*
X128377507Y-111283310D01*
X128809310Y-110851507D01*
X129043000Y-110287330D01*
X129043000Y-109676670D01*
X128809310Y-109112493D01*
X128632956Y-108936139D01*
X128767699Y-108880327D01*
X128946327Y-108701698D01*
X129043000Y-108468309D01*
X129043000Y-107727750D01*
X128884250Y-107569000D01*
X127635000Y-107569000D01*
X127635000Y-107589000D01*
X127381000Y-107589000D01*
X127381000Y-107569000D01*
X126131750Y-107569000D01*
X125973000Y-107727750D01*
X125973000Y-108468309D01*
X126069673Y-108701698D01*
X126248301Y-108880327D01*
X126383044Y-108936139D01*
X126206690Y-109112493D01*
X125973000Y-109676670D01*
X125973000Y-109911868D01*
X122974480Y-112910389D01*
X122879712Y-112973711D01*
X122628854Y-113349145D01*
X122628854Y-113349146D01*
X122540765Y-113792000D01*
X122563000Y-113903783D01*
X122563000Y-113913604D01*
X122481466Y-113995138D01*
X122263000Y-114522561D01*
X122263000Y-115069869D01*
X121277000Y-114083869D01*
X121277000Y-106415691D01*
X125973000Y-106415691D01*
X125973000Y-107156250D01*
X126131750Y-107315000D01*
X127381000Y-107315000D01*
X127381000Y-106065750D01*
X127635000Y-106065750D01*
X127635000Y-107315000D01*
X128884250Y-107315000D01*
X129043000Y-107156250D01*
X129043000Y-106415691D01*
X128946327Y-106182302D01*
X128767699Y-106003673D01*
X128534310Y-105907000D01*
X127793750Y-105907000D01*
X127635000Y-106065750D01*
X127381000Y-106065750D01*
X127222250Y-105907000D01*
X126481690Y-105907000D01*
X126248301Y-106003673D01*
X126069673Y-106182302D01*
X125973000Y-106415691D01*
X121277000Y-106415691D01*
X121277000Y-103963223D01*
X131903035Y-103963223D01*
X131930222Y-104533454D01*
X132096136Y-104934005D01*
X132342255Y-105008139D01*
X133170395Y-104180000D01*
X133529605Y-104180000D01*
X134357745Y-105008139D01*
X134603864Y-104934005D01*
X134796965Y-104396777D01*
X134776889Y-103975690D01*
X135325000Y-103975690D01*
X135325000Y-104616250D01*
X135483750Y-104775000D01*
X137033000Y-104775000D01*
X137033000Y-103625750D01*
X137287000Y-103625750D01*
X137287000Y-104775000D01*
X138836250Y-104775000D01*
X138995000Y-104616250D01*
X138995000Y-103975690D01*
X138898327Y-103742301D01*
X138719698Y-103563673D01*
X138486309Y-103467000D01*
X137445750Y-103467000D01*
X137287000Y-103625750D01*
X137033000Y-103625750D01*
X136874250Y-103467000D01*
X135833691Y-103467000D01*
X135600302Y-103563673D01*
X135421673Y-103742301D01*
X135325000Y-103975690D01*
X134776889Y-103975690D01*
X134769778Y-103826546D01*
X134603864Y-103425995D01*
X134357745Y-103351861D01*
X133529605Y-104180000D01*
X133170395Y-104180000D01*
X132342255Y-103351861D01*
X132096136Y-103425995D01*
X131903035Y-103963223D01*
X121277000Y-103963223D01*
X121277000Y-103172255D01*
X132521861Y-103172255D01*
X133350000Y-104000395D01*
X134178139Y-103172255D01*
X134104005Y-102926136D01*
X133566777Y-102733035D01*
X132996546Y-102760222D01*
X132595995Y-102926136D01*
X132521861Y-103172255D01*
X121277000Y-103172255D01*
X121277000Y-100683133D01*
X126708522Y-95251612D01*
X126803290Y-95188290D01*
X127054147Y-94812856D01*
X127120001Y-94481784D01*
X127142236Y-94370002D01*
X127120001Y-94258220D01*
X127120001Y-92707867D01*
X127268586Y-92608586D01*
X127463126Y-92317435D01*
X127531440Y-91974000D01*
X127531440Y-90551000D01*
X129529000Y-90551000D01*
X129529000Y-91451000D01*
X129694446Y-92028752D01*
X130068394Y-92499212D01*
X130593914Y-92790756D01*
X130699260Y-92815036D01*
X130937000Y-92694378D01*
X130937000Y-90551000D01*
X131191000Y-90551000D01*
X131191000Y-92694378D01*
X131428740Y-92815036D01*
X131534086Y-92790756D01*
X132059606Y-92499212D01*
X132433554Y-92028752D01*
X132599000Y-91451000D01*
X132599000Y-90551000D01*
X131191000Y-90551000D01*
X130937000Y-90551000D01*
X129529000Y-90551000D01*
X127531440Y-90551000D01*
X127531440Y-89397000D01*
X129529000Y-89397000D01*
X129529000Y-90297000D01*
X130937000Y-90297000D01*
X130937000Y-88153622D01*
X131191000Y-88153622D01*
X131191000Y-90297000D01*
X132599000Y-90297000D01*
X132599000Y-89397000D01*
X132433554Y-88819248D01*
X132059606Y-88348788D01*
X131534086Y-88057244D01*
X131428740Y-88032964D01*
X131191000Y-88153622D01*
X130937000Y-88153622D01*
X130699260Y-88032964D01*
X130593914Y-88057244D01*
X130068394Y-88348788D01*
X129694446Y-88819248D01*
X129529000Y-89397000D01*
X127531440Y-89397000D01*
X127531440Y-88874000D01*
X127463126Y-88530565D01*
X127268586Y-88239414D01*
X126977435Y-88044874D01*
X126634000Y-87976560D01*
X125334000Y-87976560D01*
X124990565Y-88044874D01*
X124699414Y-88239414D01*
X124504874Y-88530565D01*
X124436560Y-88874000D01*
X124436560Y-91974000D01*
X124504874Y-92317435D01*
X124699414Y-92608586D01*
X124850001Y-92709205D01*
X124850002Y-93899868D01*
X119418482Y-99331389D01*
X119323711Y-99394713D01*
X119108464Y-99716854D01*
X119072854Y-99770148D01*
X118984765Y-100213002D01*
X116813000Y-100213002D01*
X116813000Y-88129439D01*
X116850095Y-88218994D01*
X117521006Y-88889905D01*
X118397594Y-89253000D01*
X119346406Y-89253000D01*
X120222994Y-88889905D01*
X120893905Y-88218994D01*
X121257000Y-87342406D01*
X121257000Y-86393594D01*
X120893905Y-85517006D01*
X120222994Y-84846095D01*
X120133439Y-84809000D01*
X161552561Y-84809000D01*
X161463006Y-84846095D01*
G04 #@! TD*
M02*
