G04 #@! TF.GenerationSoftware,KiCad,Pcbnew,5.0.2-bee76a0~70~ubuntu18.04.1*
G04 #@! TF.CreationDate,2019-02-10T19:22:37-02:00*
G04 #@! TF.ProjectId,555-Oscilador-pisca-r01,3535352d-4f73-4636-996c-61646f722d70,rev?*
G04 #@! TF.SameCoordinates,Original*
G04 #@! TF.FileFunction,Soldermask,Bot*
G04 #@! TF.FilePolarity,Negative*
%FSLAX46Y46*%
G04 Gerber Fmt 4.6, Leading zero omitted, Abs format (unit mm)*
G04 Created by KiCad (PCBNEW 5.0.2-bee76a0~70~ubuntu18.04.1) date dom 10 fev 2019 19:22:37 -02*
%MOMM*%
%LPD*%
G01*
G04 APERTURE LIST*
%ADD10C,0.100000*%
G04 APERTURE END LIST*
D10*
G36*
X134024821Y-117271313D02*
X134024824Y-117271314D01*
X134024825Y-117271314D01*
X134185239Y-117319975D01*
X134185241Y-117319976D01*
X134185244Y-117319977D01*
X134333078Y-117398995D01*
X134462659Y-117505341D01*
X134569005Y-117634922D01*
X134648023Y-117782756D01*
X134648024Y-117782759D01*
X134648025Y-117782761D01*
X134696686Y-117943175D01*
X134696687Y-117943179D01*
X134713117Y-118110000D01*
X134696687Y-118276821D01*
X134696686Y-118276824D01*
X134696686Y-118276825D01*
X134671993Y-118358228D01*
X134648023Y-118437244D01*
X134569005Y-118585078D01*
X134462659Y-118714659D01*
X134333078Y-118821005D01*
X134185244Y-118900023D01*
X134185241Y-118900024D01*
X134185239Y-118900025D01*
X134024825Y-118948686D01*
X134024824Y-118948686D01*
X134024821Y-118948687D01*
X133899804Y-118961000D01*
X133816196Y-118961000D01*
X133691179Y-118948687D01*
X133691176Y-118948686D01*
X133691175Y-118948686D01*
X133530761Y-118900025D01*
X133530759Y-118900024D01*
X133530756Y-118900023D01*
X133382922Y-118821005D01*
X133253341Y-118714659D01*
X133146995Y-118585078D01*
X133067977Y-118437244D01*
X133044008Y-118358228D01*
X133019314Y-118276825D01*
X133019314Y-118276824D01*
X133019313Y-118276821D01*
X133002883Y-118110000D01*
X133019313Y-117943179D01*
X133019314Y-117943175D01*
X133067975Y-117782761D01*
X133067976Y-117782759D01*
X133067977Y-117782756D01*
X133146995Y-117634922D01*
X133253341Y-117505341D01*
X133382922Y-117398995D01*
X133530756Y-117319977D01*
X133530759Y-117319976D01*
X133530761Y-117319975D01*
X133691175Y-117271314D01*
X133691176Y-117271314D01*
X133691179Y-117271313D01*
X133816196Y-117259000D01*
X133899804Y-117259000D01*
X134024821Y-117271313D01*
X134024821Y-117271313D01*
G37*
G36*
X123946228Y-117291703D02*
X124101100Y-117355853D01*
X124240481Y-117448985D01*
X124359015Y-117567519D01*
X124452147Y-117706900D01*
X124516297Y-117861772D01*
X124549000Y-118026184D01*
X124549000Y-118193816D01*
X124516297Y-118358228D01*
X124452147Y-118513100D01*
X124359015Y-118652481D01*
X124240481Y-118771015D01*
X124101100Y-118864147D01*
X123946228Y-118928297D01*
X123781816Y-118961000D01*
X123614184Y-118961000D01*
X123449772Y-118928297D01*
X123294900Y-118864147D01*
X123155519Y-118771015D01*
X123036985Y-118652481D01*
X122943853Y-118513100D01*
X122879703Y-118358228D01*
X122847000Y-118193816D01*
X122847000Y-118026184D01*
X122879703Y-117861772D01*
X122943853Y-117706900D01*
X123036985Y-117567519D01*
X123155519Y-117448985D01*
X123294900Y-117355853D01*
X123449772Y-117291703D01*
X123614184Y-117259000D01*
X123781816Y-117259000D01*
X123946228Y-117291703D01*
X123946228Y-117291703D01*
G37*
G36*
X142488228Y-115513703D02*
X142643100Y-115577853D01*
X142782481Y-115670985D01*
X142901015Y-115789519D01*
X142994147Y-115928900D01*
X143058297Y-116083772D01*
X143091000Y-116248184D01*
X143091000Y-116415816D01*
X143058297Y-116580228D01*
X142994147Y-116735100D01*
X142901015Y-116874481D01*
X142782481Y-116993015D01*
X142643100Y-117086147D01*
X142488228Y-117150297D01*
X142323816Y-117183000D01*
X142156184Y-117183000D01*
X141991772Y-117150297D01*
X141836900Y-117086147D01*
X141697519Y-116993015D01*
X141578985Y-116874481D01*
X141485853Y-116735100D01*
X141421703Y-116580228D01*
X141389000Y-116415816D01*
X141389000Y-116248184D01*
X141421703Y-116083772D01*
X141485853Y-115928900D01*
X141578985Y-115789519D01*
X141697519Y-115670985D01*
X141836900Y-115577853D01*
X141991772Y-115513703D01*
X142156184Y-115481000D01*
X142323816Y-115481000D01*
X142488228Y-115513703D01*
X142488228Y-115513703D01*
G37*
G36*
X139988228Y-115513703D02*
X140143100Y-115577853D01*
X140282481Y-115670985D01*
X140401015Y-115789519D01*
X140494147Y-115928900D01*
X140558297Y-116083772D01*
X140591000Y-116248184D01*
X140591000Y-116415816D01*
X140558297Y-116580228D01*
X140494147Y-116735100D01*
X140401015Y-116874481D01*
X140282481Y-116993015D01*
X140143100Y-117086147D01*
X139988228Y-117150297D01*
X139823816Y-117183000D01*
X139656184Y-117183000D01*
X139491772Y-117150297D01*
X139336900Y-117086147D01*
X139197519Y-116993015D01*
X139078985Y-116874481D01*
X138985853Y-116735100D01*
X138921703Y-116580228D01*
X138889000Y-116415816D01*
X138889000Y-116248184D01*
X138921703Y-116083772D01*
X138985853Y-115928900D01*
X139078985Y-115789519D01*
X139197519Y-115670985D01*
X139336900Y-115577853D01*
X139491772Y-115513703D01*
X139656184Y-115481000D01*
X139823816Y-115481000D01*
X139988228Y-115513703D01*
X139988228Y-115513703D01*
G37*
G36*
X134024821Y-113969313D02*
X134024824Y-113969314D01*
X134024825Y-113969314D01*
X134185239Y-114017975D01*
X134185241Y-114017976D01*
X134185244Y-114017977D01*
X134333078Y-114096995D01*
X134462659Y-114203341D01*
X134569005Y-114332922D01*
X134648023Y-114480756D01*
X134648024Y-114480759D01*
X134648025Y-114480761D01*
X134695667Y-114637816D01*
X134696687Y-114641179D01*
X134713117Y-114808000D01*
X134696687Y-114974821D01*
X134696686Y-114974824D01*
X134696686Y-114974825D01*
X134671993Y-115056228D01*
X134648023Y-115135244D01*
X134569005Y-115283078D01*
X134462659Y-115412659D01*
X134333078Y-115519005D01*
X134185244Y-115598023D01*
X134185241Y-115598024D01*
X134185239Y-115598025D01*
X134024825Y-115646686D01*
X134024824Y-115646686D01*
X134024821Y-115646687D01*
X133899804Y-115659000D01*
X133816196Y-115659000D01*
X133691179Y-115646687D01*
X133691176Y-115646686D01*
X133691175Y-115646686D01*
X133530761Y-115598025D01*
X133530759Y-115598024D01*
X133530756Y-115598023D01*
X133382922Y-115519005D01*
X133253341Y-115412659D01*
X133146995Y-115283078D01*
X133067977Y-115135244D01*
X133044008Y-115056228D01*
X133019314Y-114974825D01*
X133019314Y-114974824D01*
X133019313Y-114974821D01*
X133002883Y-114808000D01*
X133019313Y-114641179D01*
X133020333Y-114637816D01*
X133067975Y-114480761D01*
X133067976Y-114480759D01*
X133067977Y-114480756D01*
X133146995Y-114332922D01*
X133253341Y-114203341D01*
X133382922Y-114096995D01*
X133530756Y-114017977D01*
X133530759Y-114017976D01*
X133530761Y-114017975D01*
X133691175Y-113969314D01*
X133691176Y-113969314D01*
X133691179Y-113969313D01*
X133816196Y-113957000D01*
X133899804Y-113957000D01*
X134024821Y-113969313D01*
X134024821Y-113969313D01*
G37*
G36*
X123946228Y-113989703D02*
X124101100Y-114053853D01*
X124240481Y-114146985D01*
X124359015Y-114265519D01*
X124452147Y-114404900D01*
X124516297Y-114559772D01*
X124549000Y-114724184D01*
X124549000Y-114891816D01*
X124516297Y-115056228D01*
X124452147Y-115211100D01*
X124359015Y-115350481D01*
X124240481Y-115469015D01*
X124101100Y-115562147D01*
X123946228Y-115626297D01*
X123781816Y-115659000D01*
X123614184Y-115659000D01*
X123449772Y-115626297D01*
X123294900Y-115562147D01*
X123155519Y-115469015D01*
X123036985Y-115350481D01*
X122943853Y-115211100D01*
X122879703Y-115056228D01*
X122847000Y-114891816D01*
X122847000Y-114724184D01*
X122879703Y-114559772D01*
X122943853Y-114404900D01*
X123036985Y-114265519D01*
X123155519Y-114146985D01*
X123294900Y-114053853D01*
X123449772Y-113989703D01*
X123614184Y-113957000D01*
X123781816Y-113957000D01*
X123946228Y-113989703D01*
X123946228Y-113989703D01*
G37*
G36*
X151042821Y-113715313D02*
X151042824Y-113715314D01*
X151042825Y-113715314D01*
X151203239Y-113763975D01*
X151203241Y-113763976D01*
X151203244Y-113763977D01*
X151351078Y-113842995D01*
X151480659Y-113949341D01*
X151587005Y-114078922D01*
X151666023Y-114226756D01*
X151666024Y-114226759D01*
X151666025Y-114226761D01*
X151714686Y-114387175D01*
X151714687Y-114387179D01*
X151731117Y-114554000D01*
X151714687Y-114720821D01*
X151714686Y-114720824D01*
X151714686Y-114720825D01*
X151688242Y-114808000D01*
X151666023Y-114881244D01*
X151587005Y-115029078D01*
X151480659Y-115158659D01*
X151351078Y-115265005D01*
X151203244Y-115344023D01*
X151203241Y-115344024D01*
X151203239Y-115344025D01*
X151042825Y-115392686D01*
X151042824Y-115392686D01*
X151042821Y-115392687D01*
X150917804Y-115405000D01*
X150834196Y-115405000D01*
X150709179Y-115392687D01*
X150709176Y-115392686D01*
X150709175Y-115392686D01*
X150548761Y-115344025D01*
X150548759Y-115344024D01*
X150548756Y-115344023D01*
X150400922Y-115265005D01*
X150271341Y-115158659D01*
X150164995Y-115029078D01*
X150085977Y-114881244D01*
X150063759Y-114808000D01*
X150037314Y-114720825D01*
X150037314Y-114720824D01*
X150037313Y-114720821D01*
X150020883Y-114554000D01*
X150037313Y-114387179D01*
X150037314Y-114387175D01*
X150085975Y-114226761D01*
X150085976Y-114226759D01*
X150085977Y-114226756D01*
X150164995Y-114078922D01*
X150271341Y-113949341D01*
X150400922Y-113842995D01*
X150548756Y-113763977D01*
X150548759Y-113763976D01*
X150548761Y-113763975D01*
X150709175Y-113715314D01*
X150709176Y-113715314D01*
X150709179Y-113715313D01*
X150834196Y-113703000D01*
X150917804Y-113703000D01*
X151042821Y-113715313D01*
X151042821Y-113715313D01*
G37*
G36*
X161284228Y-113735703D02*
X161439100Y-113799853D01*
X161578481Y-113892985D01*
X161697015Y-114011519D01*
X161790147Y-114150900D01*
X161854297Y-114305772D01*
X161887000Y-114470184D01*
X161887000Y-114637816D01*
X161854297Y-114802228D01*
X161790147Y-114957100D01*
X161697015Y-115096481D01*
X161578481Y-115215015D01*
X161439100Y-115308147D01*
X161284228Y-115372297D01*
X161119816Y-115405000D01*
X160952184Y-115405000D01*
X160787772Y-115372297D01*
X160632900Y-115308147D01*
X160493519Y-115215015D01*
X160374985Y-115096481D01*
X160281853Y-114957100D01*
X160217703Y-114802228D01*
X160185000Y-114637816D01*
X160185000Y-114470184D01*
X160217703Y-114305772D01*
X160281853Y-114150900D01*
X160374985Y-114011519D01*
X160493519Y-113892985D01*
X160632900Y-113799853D01*
X160787772Y-113735703D01*
X160952184Y-113703000D01*
X161119816Y-113703000D01*
X161284228Y-113735703D01*
X161284228Y-113735703D01*
G37*
G36*
X145346821Y-111683313D02*
X145346824Y-111683314D01*
X145346825Y-111683314D01*
X145507239Y-111731975D01*
X145507241Y-111731976D01*
X145507244Y-111731977D01*
X145655078Y-111810995D01*
X145784659Y-111917341D01*
X145891005Y-112046922D01*
X145970023Y-112194756D01*
X146018687Y-112355179D01*
X146035117Y-112522000D01*
X146018687Y-112688821D01*
X145970023Y-112849244D01*
X145891005Y-112997078D01*
X145784659Y-113126659D01*
X145655078Y-113233005D01*
X145507244Y-113312023D01*
X145507241Y-113312024D01*
X145507239Y-113312025D01*
X145346825Y-113360686D01*
X145346824Y-113360686D01*
X145346821Y-113360687D01*
X145221804Y-113373000D01*
X144338196Y-113373000D01*
X144213179Y-113360687D01*
X144213176Y-113360686D01*
X144213175Y-113360686D01*
X144052761Y-113312025D01*
X144052759Y-113312024D01*
X144052756Y-113312023D01*
X143904922Y-113233005D01*
X143775341Y-113126659D01*
X143668995Y-112997078D01*
X143589977Y-112849244D01*
X143541313Y-112688821D01*
X143524883Y-112522000D01*
X143541313Y-112355179D01*
X143589977Y-112194756D01*
X143668995Y-112046922D01*
X143775341Y-111917341D01*
X143904922Y-111810995D01*
X144052756Y-111731977D01*
X144052759Y-111731976D01*
X144052761Y-111731975D01*
X144213175Y-111683314D01*
X144213176Y-111683314D01*
X144213179Y-111683313D01*
X144338196Y-111671000D01*
X145221804Y-111671000D01*
X145346821Y-111683313D01*
X145346821Y-111683313D01*
G37*
G36*
X137726821Y-111683313D02*
X137726824Y-111683314D01*
X137726825Y-111683314D01*
X137887239Y-111731975D01*
X137887241Y-111731976D01*
X137887244Y-111731977D01*
X138035078Y-111810995D01*
X138164659Y-111917341D01*
X138271005Y-112046922D01*
X138350023Y-112194756D01*
X138398687Y-112355179D01*
X138415117Y-112522000D01*
X138398687Y-112688821D01*
X138350023Y-112849244D01*
X138271005Y-112997078D01*
X138164659Y-113126659D01*
X138035078Y-113233005D01*
X137887244Y-113312023D01*
X137887241Y-113312024D01*
X137887239Y-113312025D01*
X137726825Y-113360686D01*
X137726824Y-113360686D01*
X137726821Y-113360687D01*
X137601804Y-113373000D01*
X136718196Y-113373000D01*
X136593179Y-113360687D01*
X136593176Y-113360686D01*
X136593175Y-113360686D01*
X136432761Y-113312025D01*
X136432759Y-113312024D01*
X136432756Y-113312023D01*
X136284922Y-113233005D01*
X136155341Y-113126659D01*
X136048995Y-112997078D01*
X135969977Y-112849244D01*
X135921313Y-112688821D01*
X135904883Y-112522000D01*
X135921313Y-112355179D01*
X135969977Y-112194756D01*
X136048995Y-112046922D01*
X136155341Y-111917341D01*
X136284922Y-111810995D01*
X136432756Y-111731977D01*
X136432759Y-111731976D01*
X136432761Y-111731975D01*
X136593175Y-111683314D01*
X136593176Y-111683314D01*
X136593179Y-111683313D01*
X136718196Y-111671000D01*
X137601804Y-111671000D01*
X137726821Y-111683313D01*
X137726821Y-111683313D01*
G37*
G36*
X161284228Y-110433703D02*
X161439100Y-110497853D01*
X161578481Y-110590985D01*
X161697015Y-110709519D01*
X161790147Y-110848900D01*
X161854297Y-111003772D01*
X161887000Y-111168184D01*
X161887000Y-111335816D01*
X161854297Y-111500228D01*
X161790147Y-111655100D01*
X161697015Y-111794481D01*
X161578481Y-111913015D01*
X161439100Y-112006147D01*
X161284228Y-112070297D01*
X161119816Y-112103000D01*
X160952184Y-112103000D01*
X160787772Y-112070297D01*
X160632900Y-112006147D01*
X160493519Y-111913015D01*
X160374985Y-111794481D01*
X160281853Y-111655100D01*
X160217703Y-111500228D01*
X160185000Y-111335816D01*
X160185000Y-111168184D01*
X160217703Y-111003772D01*
X160281853Y-110848900D01*
X160374985Y-110709519D01*
X160493519Y-110590985D01*
X160632900Y-110497853D01*
X160787772Y-110433703D01*
X160952184Y-110401000D01*
X161119816Y-110401000D01*
X161284228Y-110433703D01*
X161284228Y-110433703D01*
G37*
G36*
X151042821Y-110413313D02*
X151042824Y-110413314D01*
X151042825Y-110413314D01*
X151203239Y-110461975D01*
X151203241Y-110461976D01*
X151203244Y-110461977D01*
X151351078Y-110540995D01*
X151480659Y-110647341D01*
X151587005Y-110776922D01*
X151666023Y-110924756D01*
X151666024Y-110924759D01*
X151666025Y-110924761D01*
X151714686Y-111085175D01*
X151714687Y-111085179D01*
X151731117Y-111252000D01*
X151714687Y-111418821D01*
X151714686Y-111418824D01*
X151714686Y-111418825D01*
X151689993Y-111500228D01*
X151666023Y-111579244D01*
X151587005Y-111727078D01*
X151480659Y-111856659D01*
X151351078Y-111963005D01*
X151203244Y-112042023D01*
X151203241Y-112042024D01*
X151203239Y-112042025D01*
X151042825Y-112090686D01*
X151042824Y-112090686D01*
X151042821Y-112090687D01*
X150917804Y-112103000D01*
X150834196Y-112103000D01*
X150709179Y-112090687D01*
X150709176Y-112090686D01*
X150709175Y-112090686D01*
X150548761Y-112042025D01*
X150548759Y-112042024D01*
X150548756Y-112042023D01*
X150400922Y-111963005D01*
X150271341Y-111856659D01*
X150164995Y-111727078D01*
X150085977Y-111579244D01*
X150062008Y-111500228D01*
X150037314Y-111418825D01*
X150037314Y-111418824D01*
X150037313Y-111418821D01*
X150020883Y-111252000D01*
X150037313Y-111085179D01*
X150037314Y-111085175D01*
X150085975Y-110924761D01*
X150085976Y-110924759D01*
X150085977Y-110924756D01*
X150164995Y-110776922D01*
X150271341Y-110647341D01*
X150400922Y-110540995D01*
X150548756Y-110461977D01*
X150548759Y-110461976D01*
X150548761Y-110461975D01*
X150709175Y-110413314D01*
X150709176Y-110413314D01*
X150709179Y-110413313D01*
X150834196Y-110401000D01*
X150917804Y-110401000D01*
X151042821Y-110413313D01*
X151042821Y-110413313D01*
G37*
G36*
X127785396Y-109067546D02*
X127958466Y-109139234D01*
X128114230Y-109243312D01*
X128246688Y-109375770D01*
X128350766Y-109531534D01*
X128422454Y-109704604D01*
X128459000Y-109888333D01*
X128459000Y-110075667D01*
X128422454Y-110259396D01*
X128350766Y-110432466D01*
X128246688Y-110588230D01*
X128114230Y-110720688D01*
X127958466Y-110824766D01*
X127785396Y-110896454D01*
X127601667Y-110933000D01*
X127414333Y-110933000D01*
X127230604Y-110896454D01*
X127057534Y-110824766D01*
X126901770Y-110720688D01*
X126769312Y-110588230D01*
X126665234Y-110432466D01*
X126593546Y-110259396D01*
X126557000Y-110075667D01*
X126557000Y-109888333D01*
X126593546Y-109704604D01*
X126665234Y-109531534D01*
X126769312Y-109375770D01*
X126901770Y-109243312D01*
X127057534Y-109139234D01*
X127230604Y-109067546D01*
X127414333Y-109031000D01*
X127601667Y-109031000D01*
X127785396Y-109067546D01*
X127785396Y-109067546D01*
G37*
G36*
X137726821Y-109143313D02*
X137726824Y-109143314D01*
X137726825Y-109143314D01*
X137887239Y-109191975D01*
X137887241Y-109191976D01*
X137887244Y-109191977D01*
X138035078Y-109270995D01*
X138164659Y-109377341D01*
X138271005Y-109506922D01*
X138350023Y-109654756D01*
X138350024Y-109654759D01*
X138350025Y-109654761D01*
X138398686Y-109815175D01*
X138398687Y-109815179D01*
X138415117Y-109982000D01*
X138398687Y-110148821D01*
X138398686Y-110148824D01*
X138398686Y-110148825D01*
X138365145Y-110259396D01*
X138350023Y-110309244D01*
X138271005Y-110457078D01*
X138164659Y-110586659D01*
X138035078Y-110693005D01*
X137887244Y-110772023D01*
X137887241Y-110772024D01*
X137887239Y-110772025D01*
X137726825Y-110820686D01*
X137726824Y-110820686D01*
X137726821Y-110820687D01*
X137601804Y-110833000D01*
X136718196Y-110833000D01*
X136593179Y-110820687D01*
X136593176Y-110820686D01*
X136593175Y-110820686D01*
X136432761Y-110772025D01*
X136432759Y-110772024D01*
X136432756Y-110772023D01*
X136284922Y-110693005D01*
X136155341Y-110586659D01*
X136048995Y-110457078D01*
X135969977Y-110309244D01*
X135954856Y-110259396D01*
X135921314Y-110148825D01*
X135921314Y-110148824D01*
X135921313Y-110148821D01*
X135904883Y-109982000D01*
X135921313Y-109815179D01*
X135921314Y-109815175D01*
X135969975Y-109654761D01*
X135969976Y-109654759D01*
X135969977Y-109654756D01*
X136048995Y-109506922D01*
X136155341Y-109377341D01*
X136284922Y-109270995D01*
X136432756Y-109191977D01*
X136432759Y-109191976D01*
X136432761Y-109191975D01*
X136593175Y-109143314D01*
X136593176Y-109143314D01*
X136593179Y-109143313D01*
X136718196Y-109131000D01*
X137601804Y-109131000D01*
X137726821Y-109143313D01*
X137726821Y-109143313D01*
G37*
G36*
X145346821Y-109143313D02*
X145346824Y-109143314D01*
X145346825Y-109143314D01*
X145507239Y-109191975D01*
X145507241Y-109191976D01*
X145507244Y-109191977D01*
X145655078Y-109270995D01*
X145784659Y-109377341D01*
X145891005Y-109506922D01*
X145970023Y-109654756D01*
X145970024Y-109654759D01*
X145970025Y-109654761D01*
X146018686Y-109815175D01*
X146018687Y-109815179D01*
X146035117Y-109982000D01*
X146018687Y-110148821D01*
X146018686Y-110148824D01*
X146018686Y-110148825D01*
X145985145Y-110259396D01*
X145970023Y-110309244D01*
X145891005Y-110457078D01*
X145784659Y-110586659D01*
X145655078Y-110693005D01*
X145507244Y-110772023D01*
X145507241Y-110772024D01*
X145507239Y-110772025D01*
X145346825Y-110820686D01*
X145346824Y-110820686D01*
X145346821Y-110820687D01*
X145221804Y-110833000D01*
X144338196Y-110833000D01*
X144213179Y-110820687D01*
X144213176Y-110820686D01*
X144213175Y-110820686D01*
X144052761Y-110772025D01*
X144052759Y-110772024D01*
X144052756Y-110772023D01*
X143904922Y-110693005D01*
X143775341Y-110586659D01*
X143668995Y-110457078D01*
X143589977Y-110309244D01*
X143574856Y-110259396D01*
X143541314Y-110148825D01*
X143541314Y-110148824D01*
X143541313Y-110148821D01*
X143524883Y-109982000D01*
X143541313Y-109815179D01*
X143541314Y-109815175D01*
X143589975Y-109654761D01*
X143589976Y-109654759D01*
X143589977Y-109654756D01*
X143668995Y-109506922D01*
X143775341Y-109377341D01*
X143904922Y-109270995D01*
X144052756Y-109191977D01*
X144052759Y-109191976D01*
X144052761Y-109191975D01*
X144213175Y-109143314D01*
X144213176Y-109143314D01*
X144213179Y-109143313D01*
X144338196Y-109131000D01*
X145221804Y-109131000D01*
X145346821Y-109143313D01*
X145346821Y-109143313D01*
G37*
G36*
X128459000Y-108393000D02*
X126557000Y-108393000D01*
X126557000Y-106491000D01*
X128459000Y-106491000D01*
X128459000Y-108393000D01*
X128459000Y-108393000D01*
G37*
G36*
X145346821Y-106603313D02*
X145346824Y-106603314D01*
X145346825Y-106603314D01*
X145507239Y-106651975D01*
X145507241Y-106651976D01*
X145507244Y-106651977D01*
X145655078Y-106730995D01*
X145784659Y-106837341D01*
X145891005Y-106966922D01*
X145970023Y-107114756D01*
X146018687Y-107275179D01*
X146035117Y-107442000D01*
X146018687Y-107608821D01*
X145970023Y-107769244D01*
X145891005Y-107917078D01*
X145784659Y-108046659D01*
X145655078Y-108153005D01*
X145507244Y-108232023D01*
X145507241Y-108232024D01*
X145507239Y-108232025D01*
X145346825Y-108280686D01*
X145346824Y-108280686D01*
X145346821Y-108280687D01*
X145221804Y-108293000D01*
X144338196Y-108293000D01*
X144213179Y-108280687D01*
X144213176Y-108280686D01*
X144213175Y-108280686D01*
X144052761Y-108232025D01*
X144052759Y-108232024D01*
X144052756Y-108232023D01*
X143904922Y-108153005D01*
X143775341Y-108046659D01*
X143668995Y-107917078D01*
X143589977Y-107769244D01*
X143541313Y-107608821D01*
X143524883Y-107442000D01*
X143541313Y-107275179D01*
X143589977Y-107114756D01*
X143668995Y-106966922D01*
X143775341Y-106837341D01*
X143904922Y-106730995D01*
X144052756Y-106651977D01*
X144052759Y-106651976D01*
X144052761Y-106651975D01*
X144213175Y-106603314D01*
X144213176Y-106603314D01*
X144213179Y-106603313D01*
X144338196Y-106591000D01*
X145221804Y-106591000D01*
X145346821Y-106603313D01*
X145346821Y-106603313D01*
G37*
G36*
X137726821Y-106603313D02*
X137726824Y-106603314D01*
X137726825Y-106603314D01*
X137887239Y-106651975D01*
X137887241Y-106651976D01*
X137887244Y-106651977D01*
X138035078Y-106730995D01*
X138164659Y-106837341D01*
X138271005Y-106966922D01*
X138350023Y-107114756D01*
X138398687Y-107275179D01*
X138415117Y-107442000D01*
X138398687Y-107608821D01*
X138350023Y-107769244D01*
X138271005Y-107917078D01*
X138164659Y-108046659D01*
X138035078Y-108153005D01*
X137887244Y-108232023D01*
X137887241Y-108232024D01*
X137887239Y-108232025D01*
X137726825Y-108280686D01*
X137726824Y-108280686D01*
X137726821Y-108280687D01*
X137601804Y-108293000D01*
X136718196Y-108293000D01*
X136593179Y-108280687D01*
X136593176Y-108280686D01*
X136593175Y-108280686D01*
X136432761Y-108232025D01*
X136432759Y-108232024D01*
X136432756Y-108232023D01*
X136284922Y-108153005D01*
X136155341Y-108046659D01*
X136048995Y-107917078D01*
X135969977Y-107769244D01*
X135921313Y-107608821D01*
X135904883Y-107442000D01*
X135921313Y-107275179D01*
X135969977Y-107114756D01*
X136048995Y-106966922D01*
X136155341Y-106837341D01*
X136284922Y-106730995D01*
X136432756Y-106651977D01*
X136432759Y-106651976D01*
X136432761Y-106651975D01*
X136593175Y-106603314D01*
X136593176Y-106603314D01*
X136593179Y-106603313D01*
X136718196Y-106591000D01*
X137601804Y-106591000D01*
X137726821Y-106603313D01*
X137726821Y-106603313D01*
G37*
G36*
X133598228Y-105861703D02*
X133753100Y-105925853D01*
X133892481Y-106018985D01*
X134011015Y-106137519D01*
X134104147Y-106276900D01*
X134168297Y-106431772D01*
X134201000Y-106596184D01*
X134201000Y-106763816D01*
X134168297Y-106928228D01*
X134104147Y-107083100D01*
X134011015Y-107222481D01*
X133892481Y-107341015D01*
X133753100Y-107434147D01*
X133598228Y-107498297D01*
X133433816Y-107531000D01*
X133266184Y-107531000D01*
X133101772Y-107498297D01*
X132946900Y-107434147D01*
X132807519Y-107341015D01*
X132688985Y-107222481D01*
X132595853Y-107083100D01*
X132531703Y-106928228D01*
X132499000Y-106763816D01*
X132499000Y-106596184D01*
X132531703Y-106431772D01*
X132595853Y-106276900D01*
X132688985Y-106137519D01*
X132807519Y-106018985D01*
X132946900Y-105925853D01*
X133101772Y-105861703D01*
X133266184Y-105829000D01*
X133433816Y-105829000D01*
X133598228Y-105861703D01*
X133598228Y-105861703D01*
G37*
G36*
X145346821Y-104063313D02*
X145346824Y-104063314D01*
X145346825Y-104063314D01*
X145507239Y-104111975D01*
X145507241Y-104111976D01*
X145507244Y-104111977D01*
X145655078Y-104190995D01*
X145784659Y-104297341D01*
X145891005Y-104426922D01*
X145970023Y-104574756D01*
X145970024Y-104574759D01*
X145970025Y-104574761D01*
X146014835Y-104722481D01*
X146018687Y-104735179D01*
X146035117Y-104902000D01*
X146018687Y-105068821D01*
X145970023Y-105229244D01*
X145891005Y-105377078D01*
X145784659Y-105506659D01*
X145655078Y-105613005D01*
X145507244Y-105692023D01*
X145507241Y-105692024D01*
X145507239Y-105692025D01*
X145346825Y-105740686D01*
X145346824Y-105740686D01*
X145346821Y-105740687D01*
X145221804Y-105753000D01*
X144338196Y-105753000D01*
X144213179Y-105740687D01*
X144213176Y-105740686D01*
X144213175Y-105740686D01*
X144052761Y-105692025D01*
X144052759Y-105692024D01*
X144052756Y-105692023D01*
X143904922Y-105613005D01*
X143775341Y-105506659D01*
X143668995Y-105377078D01*
X143589977Y-105229244D01*
X143541313Y-105068821D01*
X143524883Y-104902000D01*
X143541313Y-104735179D01*
X143545165Y-104722481D01*
X143589975Y-104574761D01*
X143589976Y-104574759D01*
X143589977Y-104574756D01*
X143668995Y-104426922D01*
X143775341Y-104297341D01*
X143904922Y-104190995D01*
X144052756Y-104111977D01*
X144052759Y-104111976D01*
X144052761Y-104111975D01*
X144213175Y-104063314D01*
X144213176Y-104063314D01*
X144213179Y-104063313D01*
X144338196Y-104051000D01*
X145221804Y-104051000D01*
X145346821Y-104063313D01*
X145346821Y-104063313D01*
G37*
G36*
X138411000Y-105753000D02*
X135909000Y-105753000D01*
X135909000Y-104051000D01*
X138411000Y-104051000D01*
X138411000Y-105753000D01*
X138411000Y-105753000D01*
G37*
G36*
X133598228Y-103361703D02*
X133753100Y-103425853D01*
X133892481Y-103518985D01*
X134011015Y-103637519D01*
X134104147Y-103776900D01*
X134168297Y-103931772D01*
X134201000Y-104096184D01*
X134201000Y-104263816D01*
X134168297Y-104428228D01*
X134104147Y-104583100D01*
X134011015Y-104722481D01*
X133892481Y-104841015D01*
X133753100Y-104934147D01*
X133598228Y-104998297D01*
X133433816Y-105031000D01*
X133266184Y-105031000D01*
X133101772Y-104998297D01*
X132946900Y-104934147D01*
X132807519Y-104841015D01*
X132688985Y-104722481D01*
X132595853Y-104583100D01*
X132531703Y-104428228D01*
X132499000Y-104263816D01*
X132499000Y-104096184D01*
X132531703Y-103931772D01*
X132595853Y-103776900D01*
X132688985Y-103637519D01*
X132807519Y-103518985D01*
X132946900Y-103425853D01*
X133101772Y-103361703D01*
X133266184Y-103329000D01*
X133433816Y-103329000D01*
X133598228Y-103361703D01*
X133598228Y-103361703D01*
G37*
G36*
X131250424Y-88586760D02*
X131250427Y-88586761D01*
X131250428Y-88586761D01*
X131429692Y-88641140D01*
X131429694Y-88641141D01*
X131429697Y-88641142D01*
X131594904Y-88729446D01*
X131739712Y-88848288D01*
X131858552Y-88993095D01*
X131946859Y-89158305D01*
X132001240Y-89337575D01*
X132015000Y-89477282D01*
X132015000Y-91370718D01*
X132001240Y-91510425D01*
X131946859Y-91689695D01*
X131858552Y-91854905D01*
X131739712Y-91999712D01*
X131594905Y-92118552D01*
X131521857Y-92157597D01*
X131429693Y-92206860D01*
X131250429Y-92261239D01*
X131250428Y-92261239D01*
X131250425Y-92261240D01*
X131064000Y-92279601D01*
X130877576Y-92261240D01*
X130877573Y-92261239D01*
X130877572Y-92261239D01*
X130698308Y-92206860D01*
X130606144Y-92157597D01*
X130533096Y-92118552D01*
X130388289Y-91999712D01*
X130269449Y-91854905D01*
X130181142Y-91689695D01*
X130126761Y-91510425D01*
X130113000Y-91370717D01*
X130113000Y-89477283D01*
X130126760Y-89337576D01*
X130126761Y-89337572D01*
X130181140Y-89158308D01*
X130181141Y-89158306D01*
X130181142Y-89158303D01*
X130269446Y-88993096D01*
X130388288Y-88848288D01*
X130533095Y-88729448D01*
X130698305Y-88641141D01*
X130698307Y-88641140D01*
X130877571Y-88586761D01*
X130877572Y-88586761D01*
X130877575Y-88586760D01*
X131064000Y-88568399D01*
X131250424Y-88586760D01*
X131250424Y-88586760D01*
G37*
G36*
X156142424Y-88586760D02*
X156142427Y-88586761D01*
X156142428Y-88586761D01*
X156321692Y-88641140D01*
X156321694Y-88641141D01*
X156321697Y-88641142D01*
X156486904Y-88729446D01*
X156631712Y-88848288D01*
X156750552Y-88993095D01*
X156838859Y-89158305D01*
X156893240Y-89337575D01*
X156907000Y-89477282D01*
X156907000Y-91370718D01*
X156893240Y-91510425D01*
X156838859Y-91689695D01*
X156750552Y-91854905D01*
X156631712Y-91999712D01*
X156486905Y-92118552D01*
X156413857Y-92157597D01*
X156321693Y-92206860D01*
X156142429Y-92261239D01*
X156142428Y-92261239D01*
X156142425Y-92261240D01*
X155956000Y-92279601D01*
X155769576Y-92261240D01*
X155769573Y-92261239D01*
X155769572Y-92261239D01*
X155590308Y-92206860D01*
X155498144Y-92157597D01*
X155425096Y-92118552D01*
X155280289Y-91999712D01*
X155161449Y-91854905D01*
X155073142Y-91689695D01*
X155018761Y-91510425D01*
X155005000Y-91370717D01*
X155005000Y-89477283D01*
X155018760Y-89337576D01*
X155018761Y-89337572D01*
X155073140Y-89158308D01*
X155073141Y-89158306D01*
X155073142Y-89158303D01*
X155161446Y-88993096D01*
X155280288Y-88848288D01*
X155425095Y-88729448D01*
X155590305Y-88641141D01*
X155590307Y-88641140D01*
X155769571Y-88586761D01*
X155769572Y-88586761D01*
X155769575Y-88586760D01*
X155956000Y-88568399D01*
X156142424Y-88586760D01*
X156142424Y-88586760D01*
G37*
G36*
X126794918Y-88576934D02*
X126827424Y-88586795D01*
X126857383Y-88602808D01*
X126883641Y-88624359D01*
X126905192Y-88650617D01*
X126921205Y-88680576D01*
X126931066Y-88713082D01*
X126935000Y-88753029D01*
X126935000Y-92094971D01*
X126931066Y-92134918D01*
X126921205Y-92167424D01*
X126905192Y-92197383D01*
X126883641Y-92223641D01*
X126857383Y-92245192D01*
X126827424Y-92261205D01*
X126794918Y-92271066D01*
X126754971Y-92275000D01*
X125213029Y-92275000D01*
X125173082Y-92271066D01*
X125140576Y-92261205D01*
X125110617Y-92245192D01*
X125084359Y-92223641D01*
X125062808Y-92197383D01*
X125046795Y-92167424D01*
X125036934Y-92134918D01*
X125033000Y-92094971D01*
X125033000Y-88753029D01*
X125036934Y-88713082D01*
X125046795Y-88680576D01*
X125062808Y-88650617D01*
X125084359Y-88624359D01*
X125110617Y-88602808D01*
X125140576Y-88586795D01*
X125173082Y-88576934D01*
X125213029Y-88573000D01*
X126754971Y-88573000D01*
X126794918Y-88576934D01*
X126794918Y-88576934D01*
G37*
G36*
X151686918Y-88576934D02*
X151719424Y-88586795D01*
X151749383Y-88602808D01*
X151775641Y-88624359D01*
X151797192Y-88650617D01*
X151813205Y-88680576D01*
X151823066Y-88713082D01*
X151827000Y-88753029D01*
X151827000Y-92094971D01*
X151823066Y-92134918D01*
X151813205Y-92167424D01*
X151797192Y-92197383D01*
X151775641Y-92223641D01*
X151749383Y-92245192D01*
X151719424Y-92261205D01*
X151686918Y-92271066D01*
X151646971Y-92275000D01*
X150105029Y-92275000D01*
X150065082Y-92271066D01*
X150032576Y-92261205D01*
X150002617Y-92245192D01*
X149976359Y-92223641D01*
X149954808Y-92197383D01*
X149938795Y-92167424D01*
X149928934Y-92134918D01*
X149925000Y-92094971D01*
X149925000Y-88753029D01*
X149928934Y-88713082D01*
X149938795Y-88680576D01*
X149954808Y-88650617D01*
X149976359Y-88624359D01*
X150002617Y-88602808D01*
X150032576Y-88586795D01*
X150065082Y-88576934D01*
X150105029Y-88573000D01*
X151646971Y-88573000D01*
X151686918Y-88576934D01*
X151686918Y-88576934D01*
G37*
M02*
