G75*
%MOIN*%
%OFA0B0*%
%FSLAX25Y25*%
%IPPOS*%
%LPD*%
%AMOC8*
5,1,8,0,0,1.08239X$1,22.5*
%
%ADD10C,0.00000*%
%ADD11OC8,0.04800*%
%ADD12C,0.06600*%
%ADD13OC8,0.06600*%
%ADD14C,0.07400*%
%ADD15R,0.08000X0.08000*%
%ADD16C,0.08000*%
%ADD17C,0.04000*%
D10*
X0003000Y0021359D02*
X0003000Y0217319D01*
X0198701Y0217319D01*
X0198701Y0021359D01*
X0003000Y0021359D01*
X0011000Y0034359D02*
X0011002Y0034500D01*
X0011008Y0034641D01*
X0011018Y0034781D01*
X0011032Y0034921D01*
X0011050Y0035061D01*
X0011071Y0035200D01*
X0011097Y0035339D01*
X0011126Y0035477D01*
X0011160Y0035613D01*
X0011197Y0035749D01*
X0011238Y0035884D01*
X0011283Y0036018D01*
X0011332Y0036150D01*
X0011384Y0036281D01*
X0011440Y0036410D01*
X0011500Y0036537D01*
X0011563Y0036663D01*
X0011629Y0036787D01*
X0011700Y0036910D01*
X0011773Y0037030D01*
X0011850Y0037148D01*
X0011930Y0037264D01*
X0012014Y0037377D01*
X0012100Y0037488D01*
X0012190Y0037597D01*
X0012283Y0037703D01*
X0012378Y0037806D01*
X0012477Y0037907D01*
X0012578Y0038005D01*
X0012682Y0038100D01*
X0012789Y0038192D01*
X0012898Y0038281D01*
X0013010Y0038366D01*
X0013124Y0038449D01*
X0013240Y0038529D01*
X0013359Y0038605D01*
X0013480Y0038677D01*
X0013602Y0038747D01*
X0013727Y0038812D01*
X0013853Y0038875D01*
X0013981Y0038933D01*
X0014111Y0038988D01*
X0014242Y0039040D01*
X0014375Y0039087D01*
X0014509Y0039131D01*
X0014644Y0039172D01*
X0014780Y0039208D01*
X0014917Y0039240D01*
X0015055Y0039269D01*
X0015193Y0039294D01*
X0015333Y0039314D01*
X0015473Y0039331D01*
X0015613Y0039344D01*
X0015754Y0039353D01*
X0015894Y0039358D01*
X0016035Y0039359D01*
X0016176Y0039356D01*
X0016317Y0039349D01*
X0016457Y0039338D01*
X0016597Y0039323D01*
X0016737Y0039304D01*
X0016876Y0039282D01*
X0017014Y0039255D01*
X0017152Y0039225D01*
X0017288Y0039190D01*
X0017424Y0039152D01*
X0017558Y0039110D01*
X0017692Y0039064D01*
X0017824Y0039015D01*
X0017954Y0038961D01*
X0018083Y0038904D01*
X0018210Y0038844D01*
X0018336Y0038780D01*
X0018459Y0038712D01*
X0018581Y0038641D01*
X0018701Y0038567D01*
X0018818Y0038489D01*
X0018933Y0038408D01*
X0019046Y0038324D01*
X0019157Y0038237D01*
X0019265Y0038146D01*
X0019370Y0038053D01*
X0019473Y0037956D01*
X0019573Y0037857D01*
X0019670Y0037755D01*
X0019764Y0037650D01*
X0019855Y0037543D01*
X0019943Y0037433D01*
X0020028Y0037321D01*
X0020110Y0037206D01*
X0020189Y0037089D01*
X0020264Y0036970D01*
X0020336Y0036849D01*
X0020404Y0036726D01*
X0020469Y0036601D01*
X0020531Y0036474D01*
X0020588Y0036345D01*
X0020643Y0036215D01*
X0020693Y0036084D01*
X0020740Y0035951D01*
X0020783Y0035817D01*
X0020822Y0035681D01*
X0020857Y0035545D01*
X0020889Y0035408D01*
X0020916Y0035270D01*
X0020940Y0035131D01*
X0020960Y0034991D01*
X0020976Y0034851D01*
X0020988Y0034711D01*
X0020996Y0034570D01*
X0021000Y0034429D01*
X0021000Y0034289D01*
X0020996Y0034148D01*
X0020988Y0034007D01*
X0020976Y0033867D01*
X0020960Y0033727D01*
X0020940Y0033587D01*
X0020916Y0033448D01*
X0020889Y0033310D01*
X0020857Y0033173D01*
X0020822Y0033037D01*
X0020783Y0032901D01*
X0020740Y0032767D01*
X0020693Y0032634D01*
X0020643Y0032503D01*
X0020588Y0032373D01*
X0020531Y0032244D01*
X0020469Y0032117D01*
X0020404Y0031992D01*
X0020336Y0031869D01*
X0020264Y0031748D01*
X0020189Y0031629D01*
X0020110Y0031512D01*
X0020028Y0031397D01*
X0019943Y0031285D01*
X0019855Y0031175D01*
X0019764Y0031068D01*
X0019670Y0030963D01*
X0019573Y0030861D01*
X0019473Y0030762D01*
X0019370Y0030665D01*
X0019265Y0030572D01*
X0019157Y0030481D01*
X0019046Y0030394D01*
X0018933Y0030310D01*
X0018818Y0030229D01*
X0018701Y0030151D01*
X0018581Y0030077D01*
X0018459Y0030006D01*
X0018336Y0029938D01*
X0018210Y0029874D01*
X0018083Y0029814D01*
X0017954Y0029757D01*
X0017824Y0029703D01*
X0017692Y0029654D01*
X0017558Y0029608D01*
X0017424Y0029566D01*
X0017288Y0029528D01*
X0017152Y0029493D01*
X0017014Y0029463D01*
X0016876Y0029436D01*
X0016737Y0029414D01*
X0016597Y0029395D01*
X0016457Y0029380D01*
X0016317Y0029369D01*
X0016176Y0029362D01*
X0016035Y0029359D01*
X0015894Y0029360D01*
X0015754Y0029365D01*
X0015613Y0029374D01*
X0015473Y0029387D01*
X0015333Y0029404D01*
X0015193Y0029424D01*
X0015055Y0029449D01*
X0014917Y0029478D01*
X0014780Y0029510D01*
X0014644Y0029546D01*
X0014509Y0029587D01*
X0014375Y0029631D01*
X0014242Y0029678D01*
X0014111Y0029730D01*
X0013981Y0029785D01*
X0013853Y0029843D01*
X0013727Y0029906D01*
X0013602Y0029971D01*
X0013480Y0030041D01*
X0013359Y0030113D01*
X0013240Y0030189D01*
X0013124Y0030269D01*
X0013010Y0030352D01*
X0012898Y0030437D01*
X0012789Y0030526D01*
X0012682Y0030618D01*
X0012578Y0030713D01*
X0012477Y0030811D01*
X0012378Y0030912D01*
X0012283Y0031015D01*
X0012190Y0031121D01*
X0012100Y0031230D01*
X0012014Y0031341D01*
X0011930Y0031454D01*
X0011850Y0031570D01*
X0011773Y0031688D01*
X0011700Y0031808D01*
X0011629Y0031931D01*
X0011563Y0032055D01*
X0011500Y0032181D01*
X0011440Y0032308D01*
X0011384Y0032437D01*
X0011332Y0032568D01*
X0011283Y0032700D01*
X0011238Y0032834D01*
X0011197Y0032969D01*
X0011160Y0033105D01*
X0011126Y0033241D01*
X0011097Y0033379D01*
X0011071Y0033518D01*
X0011050Y0033657D01*
X0011032Y0033797D01*
X0011018Y0033937D01*
X0011008Y0034077D01*
X0011002Y0034218D01*
X0011000Y0034359D01*
X0011000Y0203359D02*
X0011002Y0203500D01*
X0011008Y0203641D01*
X0011018Y0203781D01*
X0011032Y0203921D01*
X0011050Y0204061D01*
X0011071Y0204200D01*
X0011097Y0204339D01*
X0011126Y0204477D01*
X0011160Y0204613D01*
X0011197Y0204749D01*
X0011238Y0204884D01*
X0011283Y0205018D01*
X0011332Y0205150D01*
X0011384Y0205281D01*
X0011440Y0205410D01*
X0011500Y0205537D01*
X0011563Y0205663D01*
X0011629Y0205787D01*
X0011700Y0205910D01*
X0011773Y0206030D01*
X0011850Y0206148D01*
X0011930Y0206264D01*
X0012014Y0206377D01*
X0012100Y0206488D01*
X0012190Y0206597D01*
X0012283Y0206703D01*
X0012378Y0206806D01*
X0012477Y0206907D01*
X0012578Y0207005D01*
X0012682Y0207100D01*
X0012789Y0207192D01*
X0012898Y0207281D01*
X0013010Y0207366D01*
X0013124Y0207449D01*
X0013240Y0207529D01*
X0013359Y0207605D01*
X0013480Y0207677D01*
X0013602Y0207747D01*
X0013727Y0207812D01*
X0013853Y0207875D01*
X0013981Y0207933D01*
X0014111Y0207988D01*
X0014242Y0208040D01*
X0014375Y0208087D01*
X0014509Y0208131D01*
X0014644Y0208172D01*
X0014780Y0208208D01*
X0014917Y0208240D01*
X0015055Y0208269D01*
X0015193Y0208294D01*
X0015333Y0208314D01*
X0015473Y0208331D01*
X0015613Y0208344D01*
X0015754Y0208353D01*
X0015894Y0208358D01*
X0016035Y0208359D01*
X0016176Y0208356D01*
X0016317Y0208349D01*
X0016457Y0208338D01*
X0016597Y0208323D01*
X0016737Y0208304D01*
X0016876Y0208282D01*
X0017014Y0208255D01*
X0017152Y0208225D01*
X0017288Y0208190D01*
X0017424Y0208152D01*
X0017558Y0208110D01*
X0017692Y0208064D01*
X0017824Y0208015D01*
X0017954Y0207961D01*
X0018083Y0207904D01*
X0018210Y0207844D01*
X0018336Y0207780D01*
X0018459Y0207712D01*
X0018581Y0207641D01*
X0018701Y0207567D01*
X0018818Y0207489D01*
X0018933Y0207408D01*
X0019046Y0207324D01*
X0019157Y0207237D01*
X0019265Y0207146D01*
X0019370Y0207053D01*
X0019473Y0206956D01*
X0019573Y0206857D01*
X0019670Y0206755D01*
X0019764Y0206650D01*
X0019855Y0206543D01*
X0019943Y0206433D01*
X0020028Y0206321D01*
X0020110Y0206206D01*
X0020189Y0206089D01*
X0020264Y0205970D01*
X0020336Y0205849D01*
X0020404Y0205726D01*
X0020469Y0205601D01*
X0020531Y0205474D01*
X0020588Y0205345D01*
X0020643Y0205215D01*
X0020693Y0205084D01*
X0020740Y0204951D01*
X0020783Y0204817D01*
X0020822Y0204681D01*
X0020857Y0204545D01*
X0020889Y0204408D01*
X0020916Y0204270D01*
X0020940Y0204131D01*
X0020960Y0203991D01*
X0020976Y0203851D01*
X0020988Y0203711D01*
X0020996Y0203570D01*
X0021000Y0203429D01*
X0021000Y0203289D01*
X0020996Y0203148D01*
X0020988Y0203007D01*
X0020976Y0202867D01*
X0020960Y0202727D01*
X0020940Y0202587D01*
X0020916Y0202448D01*
X0020889Y0202310D01*
X0020857Y0202173D01*
X0020822Y0202037D01*
X0020783Y0201901D01*
X0020740Y0201767D01*
X0020693Y0201634D01*
X0020643Y0201503D01*
X0020588Y0201373D01*
X0020531Y0201244D01*
X0020469Y0201117D01*
X0020404Y0200992D01*
X0020336Y0200869D01*
X0020264Y0200748D01*
X0020189Y0200629D01*
X0020110Y0200512D01*
X0020028Y0200397D01*
X0019943Y0200285D01*
X0019855Y0200175D01*
X0019764Y0200068D01*
X0019670Y0199963D01*
X0019573Y0199861D01*
X0019473Y0199762D01*
X0019370Y0199665D01*
X0019265Y0199572D01*
X0019157Y0199481D01*
X0019046Y0199394D01*
X0018933Y0199310D01*
X0018818Y0199229D01*
X0018701Y0199151D01*
X0018581Y0199077D01*
X0018459Y0199006D01*
X0018336Y0198938D01*
X0018210Y0198874D01*
X0018083Y0198814D01*
X0017954Y0198757D01*
X0017824Y0198703D01*
X0017692Y0198654D01*
X0017558Y0198608D01*
X0017424Y0198566D01*
X0017288Y0198528D01*
X0017152Y0198493D01*
X0017014Y0198463D01*
X0016876Y0198436D01*
X0016737Y0198414D01*
X0016597Y0198395D01*
X0016457Y0198380D01*
X0016317Y0198369D01*
X0016176Y0198362D01*
X0016035Y0198359D01*
X0015894Y0198360D01*
X0015754Y0198365D01*
X0015613Y0198374D01*
X0015473Y0198387D01*
X0015333Y0198404D01*
X0015193Y0198424D01*
X0015055Y0198449D01*
X0014917Y0198478D01*
X0014780Y0198510D01*
X0014644Y0198546D01*
X0014509Y0198587D01*
X0014375Y0198631D01*
X0014242Y0198678D01*
X0014111Y0198730D01*
X0013981Y0198785D01*
X0013853Y0198843D01*
X0013727Y0198906D01*
X0013602Y0198971D01*
X0013480Y0199041D01*
X0013359Y0199113D01*
X0013240Y0199189D01*
X0013124Y0199269D01*
X0013010Y0199352D01*
X0012898Y0199437D01*
X0012789Y0199526D01*
X0012682Y0199618D01*
X0012578Y0199713D01*
X0012477Y0199811D01*
X0012378Y0199912D01*
X0012283Y0200015D01*
X0012190Y0200121D01*
X0012100Y0200230D01*
X0012014Y0200341D01*
X0011930Y0200454D01*
X0011850Y0200570D01*
X0011773Y0200688D01*
X0011700Y0200808D01*
X0011629Y0200931D01*
X0011563Y0201055D01*
X0011500Y0201181D01*
X0011440Y0201308D01*
X0011384Y0201437D01*
X0011332Y0201568D01*
X0011283Y0201700D01*
X0011238Y0201834D01*
X0011197Y0201969D01*
X0011160Y0202105D01*
X0011126Y0202241D01*
X0011097Y0202379D01*
X0011071Y0202518D01*
X0011050Y0202657D01*
X0011032Y0202797D01*
X0011018Y0202937D01*
X0011008Y0203077D01*
X0011002Y0203218D01*
X0011000Y0203359D01*
X0181000Y0203359D02*
X0181002Y0203500D01*
X0181008Y0203641D01*
X0181018Y0203781D01*
X0181032Y0203921D01*
X0181050Y0204061D01*
X0181071Y0204200D01*
X0181097Y0204339D01*
X0181126Y0204477D01*
X0181160Y0204613D01*
X0181197Y0204749D01*
X0181238Y0204884D01*
X0181283Y0205018D01*
X0181332Y0205150D01*
X0181384Y0205281D01*
X0181440Y0205410D01*
X0181500Y0205537D01*
X0181563Y0205663D01*
X0181629Y0205787D01*
X0181700Y0205910D01*
X0181773Y0206030D01*
X0181850Y0206148D01*
X0181930Y0206264D01*
X0182014Y0206377D01*
X0182100Y0206488D01*
X0182190Y0206597D01*
X0182283Y0206703D01*
X0182378Y0206806D01*
X0182477Y0206907D01*
X0182578Y0207005D01*
X0182682Y0207100D01*
X0182789Y0207192D01*
X0182898Y0207281D01*
X0183010Y0207366D01*
X0183124Y0207449D01*
X0183240Y0207529D01*
X0183359Y0207605D01*
X0183480Y0207677D01*
X0183602Y0207747D01*
X0183727Y0207812D01*
X0183853Y0207875D01*
X0183981Y0207933D01*
X0184111Y0207988D01*
X0184242Y0208040D01*
X0184375Y0208087D01*
X0184509Y0208131D01*
X0184644Y0208172D01*
X0184780Y0208208D01*
X0184917Y0208240D01*
X0185055Y0208269D01*
X0185193Y0208294D01*
X0185333Y0208314D01*
X0185473Y0208331D01*
X0185613Y0208344D01*
X0185754Y0208353D01*
X0185894Y0208358D01*
X0186035Y0208359D01*
X0186176Y0208356D01*
X0186317Y0208349D01*
X0186457Y0208338D01*
X0186597Y0208323D01*
X0186737Y0208304D01*
X0186876Y0208282D01*
X0187014Y0208255D01*
X0187152Y0208225D01*
X0187288Y0208190D01*
X0187424Y0208152D01*
X0187558Y0208110D01*
X0187692Y0208064D01*
X0187824Y0208015D01*
X0187954Y0207961D01*
X0188083Y0207904D01*
X0188210Y0207844D01*
X0188336Y0207780D01*
X0188459Y0207712D01*
X0188581Y0207641D01*
X0188701Y0207567D01*
X0188818Y0207489D01*
X0188933Y0207408D01*
X0189046Y0207324D01*
X0189157Y0207237D01*
X0189265Y0207146D01*
X0189370Y0207053D01*
X0189473Y0206956D01*
X0189573Y0206857D01*
X0189670Y0206755D01*
X0189764Y0206650D01*
X0189855Y0206543D01*
X0189943Y0206433D01*
X0190028Y0206321D01*
X0190110Y0206206D01*
X0190189Y0206089D01*
X0190264Y0205970D01*
X0190336Y0205849D01*
X0190404Y0205726D01*
X0190469Y0205601D01*
X0190531Y0205474D01*
X0190588Y0205345D01*
X0190643Y0205215D01*
X0190693Y0205084D01*
X0190740Y0204951D01*
X0190783Y0204817D01*
X0190822Y0204681D01*
X0190857Y0204545D01*
X0190889Y0204408D01*
X0190916Y0204270D01*
X0190940Y0204131D01*
X0190960Y0203991D01*
X0190976Y0203851D01*
X0190988Y0203711D01*
X0190996Y0203570D01*
X0191000Y0203429D01*
X0191000Y0203289D01*
X0190996Y0203148D01*
X0190988Y0203007D01*
X0190976Y0202867D01*
X0190960Y0202727D01*
X0190940Y0202587D01*
X0190916Y0202448D01*
X0190889Y0202310D01*
X0190857Y0202173D01*
X0190822Y0202037D01*
X0190783Y0201901D01*
X0190740Y0201767D01*
X0190693Y0201634D01*
X0190643Y0201503D01*
X0190588Y0201373D01*
X0190531Y0201244D01*
X0190469Y0201117D01*
X0190404Y0200992D01*
X0190336Y0200869D01*
X0190264Y0200748D01*
X0190189Y0200629D01*
X0190110Y0200512D01*
X0190028Y0200397D01*
X0189943Y0200285D01*
X0189855Y0200175D01*
X0189764Y0200068D01*
X0189670Y0199963D01*
X0189573Y0199861D01*
X0189473Y0199762D01*
X0189370Y0199665D01*
X0189265Y0199572D01*
X0189157Y0199481D01*
X0189046Y0199394D01*
X0188933Y0199310D01*
X0188818Y0199229D01*
X0188701Y0199151D01*
X0188581Y0199077D01*
X0188459Y0199006D01*
X0188336Y0198938D01*
X0188210Y0198874D01*
X0188083Y0198814D01*
X0187954Y0198757D01*
X0187824Y0198703D01*
X0187692Y0198654D01*
X0187558Y0198608D01*
X0187424Y0198566D01*
X0187288Y0198528D01*
X0187152Y0198493D01*
X0187014Y0198463D01*
X0186876Y0198436D01*
X0186737Y0198414D01*
X0186597Y0198395D01*
X0186457Y0198380D01*
X0186317Y0198369D01*
X0186176Y0198362D01*
X0186035Y0198359D01*
X0185894Y0198360D01*
X0185754Y0198365D01*
X0185613Y0198374D01*
X0185473Y0198387D01*
X0185333Y0198404D01*
X0185193Y0198424D01*
X0185055Y0198449D01*
X0184917Y0198478D01*
X0184780Y0198510D01*
X0184644Y0198546D01*
X0184509Y0198587D01*
X0184375Y0198631D01*
X0184242Y0198678D01*
X0184111Y0198730D01*
X0183981Y0198785D01*
X0183853Y0198843D01*
X0183727Y0198906D01*
X0183602Y0198971D01*
X0183480Y0199041D01*
X0183359Y0199113D01*
X0183240Y0199189D01*
X0183124Y0199269D01*
X0183010Y0199352D01*
X0182898Y0199437D01*
X0182789Y0199526D01*
X0182682Y0199618D01*
X0182578Y0199713D01*
X0182477Y0199811D01*
X0182378Y0199912D01*
X0182283Y0200015D01*
X0182190Y0200121D01*
X0182100Y0200230D01*
X0182014Y0200341D01*
X0181930Y0200454D01*
X0181850Y0200570D01*
X0181773Y0200688D01*
X0181700Y0200808D01*
X0181629Y0200931D01*
X0181563Y0201055D01*
X0181500Y0201181D01*
X0181440Y0201308D01*
X0181384Y0201437D01*
X0181332Y0201568D01*
X0181283Y0201700D01*
X0181238Y0201834D01*
X0181197Y0201969D01*
X0181160Y0202105D01*
X0181126Y0202241D01*
X0181097Y0202379D01*
X0181071Y0202518D01*
X0181050Y0202657D01*
X0181032Y0202797D01*
X0181018Y0202937D01*
X0181008Y0203077D01*
X0181002Y0203218D01*
X0181000Y0203359D01*
X0181000Y0034359D02*
X0181002Y0034500D01*
X0181008Y0034641D01*
X0181018Y0034781D01*
X0181032Y0034921D01*
X0181050Y0035061D01*
X0181071Y0035200D01*
X0181097Y0035339D01*
X0181126Y0035477D01*
X0181160Y0035613D01*
X0181197Y0035749D01*
X0181238Y0035884D01*
X0181283Y0036018D01*
X0181332Y0036150D01*
X0181384Y0036281D01*
X0181440Y0036410D01*
X0181500Y0036537D01*
X0181563Y0036663D01*
X0181629Y0036787D01*
X0181700Y0036910D01*
X0181773Y0037030D01*
X0181850Y0037148D01*
X0181930Y0037264D01*
X0182014Y0037377D01*
X0182100Y0037488D01*
X0182190Y0037597D01*
X0182283Y0037703D01*
X0182378Y0037806D01*
X0182477Y0037907D01*
X0182578Y0038005D01*
X0182682Y0038100D01*
X0182789Y0038192D01*
X0182898Y0038281D01*
X0183010Y0038366D01*
X0183124Y0038449D01*
X0183240Y0038529D01*
X0183359Y0038605D01*
X0183480Y0038677D01*
X0183602Y0038747D01*
X0183727Y0038812D01*
X0183853Y0038875D01*
X0183981Y0038933D01*
X0184111Y0038988D01*
X0184242Y0039040D01*
X0184375Y0039087D01*
X0184509Y0039131D01*
X0184644Y0039172D01*
X0184780Y0039208D01*
X0184917Y0039240D01*
X0185055Y0039269D01*
X0185193Y0039294D01*
X0185333Y0039314D01*
X0185473Y0039331D01*
X0185613Y0039344D01*
X0185754Y0039353D01*
X0185894Y0039358D01*
X0186035Y0039359D01*
X0186176Y0039356D01*
X0186317Y0039349D01*
X0186457Y0039338D01*
X0186597Y0039323D01*
X0186737Y0039304D01*
X0186876Y0039282D01*
X0187014Y0039255D01*
X0187152Y0039225D01*
X0187288Y0039190D01*
X0187424Y0039152D01*
X0187558Y0039110D01*
X0187692Y0039064D01*
X0187824Y0039015D01*
X0187954Y0038961D01*
X0188083Y0038904D01*
X0188210Y0038844D01*
X0188336Y0038780D01*
X0188459Y0038712D01*
X0188581Y0038641D01*
X0188701Y0038567D01*
X0188818Y0038489D01*
X0188933Y0038408D01*
X0189046Y0038324D01*
X0189157Y0038237D01*
X0189265Y0038146D01*
X0189370Y0038053D01*
X0189473Y0037956D01*
X0189573Y0037857D01*
X0189670Y0037755D01*
X0189764Y0037650D01*
X0189855Y0037543D01*
X0189943Y0037433D01*
X0190028Y0037321D01*
X0190110Y0037206D01*
X0190189Y0037089D01*
X0190264Y0036970D01*
X0190336Y0036849D01*
X0190404Y0036726D01*
X0190469Y0036601D01*
X0190531Y0036474D01*
X0190588Y0036345D01*
X0190643Y0036215D01*
X0190693Y0036084D01*
X0190740Y0035951D01*
X0190783Y0035817D01*
X0190822Y0035681D01*
X0190857Y0035545D01*
X0190889Y0035408D01*
X0190916Y0035270D01*
X0190940Y0035131D01*
X0190960Y0034991D01*
X0190976Y0034851D01*
X0190988Y0034711D01*
X0190996Y0034570D01*
X0191000Y0034429D01*
X0191000Y0034289D01*
X0190996Y0034148D01*
X0190988Y0034007D01*
X0190976Y0033867D01*
X0190960Y0033727D01*
X0190940Y0033587D01*
X0190916Y0033448D01*
X0190889Y0033310D01*
X0190857Y0033173D01*
X0190822Y0033037D01*
X0190783Y0032901D01*
X0190740Y0032767D01*
X0190693Y0032634D01*
X0190643Y0032503D01*
X0190588Y0032373D01*
X0190531Y0032244D01*
X0190469Y0032117D01*
X0190404Y0031992D01*
X0190336Y0031869D01*
X0190264Y0031748D01*
X0190189Y0031629D01*
X0190110Y0031512D01*
X0190028Y0031397D01*
X0189943Y0031285D01*
X0189855Y0031175D01*
X0189764Y0031068D01*
X0189670Y0030963D01*
X0189573Y0030861D01*
X0189473Y0030762D01*
X0189370Y0030665D01*
X0189265Y0030572D01*
X0189157Y0030481D01*
X0189046Y0030394D01*
X0188933Y0030310D01*
X0188818Y0030229D01*
X0188701Y0030151D01*
X0188581Y0030077D01*
X0188459Y0030006D01*
X0188336Y0029938D01*
X0188210Y0029874D01*
X0188083Y0029814D01*
X0187954Y0029757D01*
X0187824Y0029703D01*
X0187692Y0029654D01*
X0187558Y0029608D01*
X0187424Y0029566D01*
X0187288Y0029528D01*
X0187152Y0029493D01*
X0187014Y0029463D01*
X0186876Y0029436D01*
X0186737Y0029414D01*
X0186597Y0029395D01*
X0186457Y0029380D01*
X0186317Y0029369D01*
X0186176Y0029362D01*
X0186035Y0029359D01*
X0185894Y0029360D01*
X0185754Y0029365D01*
X0185613Y0029374D01*
X0185473Y0029387D01*
X0185333Y0029404D01*
X0185193Y0029424D01*
X0185055Y0029449D01*
X0184917Y0029478D01*
X0184780Y0029510D01*
X0184644Y0029546D01*
X0184509Y0029587D01*
X0184375Y0029631D01*
X0184242Y0029678D01*
X0184111Y0029730D01*
X0183981Y0029785D01*
X0183853Y0029843D01*
X0183727Y0029906D01*
X0183602Y0029971D01*
X0183480Y0030041D01*
X0183359Y0030113D01*
X0183240Y0030189D01*
X0183124Y0030269D01*
X0183010Y0030352D01*
X0182898Y0030437D01*
X0182789Y0030526D01*
X0182682Y0030618D01*
X0182578Y0030713D01*
X0182477Y0030811D01*
X0182378Y0030912D01*
X0182283Y0031015D01*
X0182190Y0031121D01*
X0182100Y0031230D01*
X0182014Y0031341D01*
X0181930Y0031454D01*
X0181850Y0031570D01*
X0181773Y0031688D01*
X0181700Y0031808D01*
X0181629Y0031931D01*
X0181563Y0032055D01*
X0181500Y0032181D01*
X0181440Y0032308D01*
X0181384Y0032437D01*
X0181332Y0032568D01*
X0181283Y0032700D01*
X0181238Y0032834D01*
X0181197Y0032969D01*
X0181160Y0033105D01*
X0181126Y0033241D01*
X0181097Y0033379D01*
X0181071Y0033518D01*
X0181050Y0033657D01*
X0181032Y0033797D01*
X0181018Y0033937D01*
X0181008Y0034077D01*
X0181002Y0034218D01*
X0181000Y0034359D01*
D11*
X0147000Y0038359D03*
X0147000Y0058359D03*
X0111000Y0086359D03*
X0091000Y0086359D03*
D12*
X0086000Y0104359D03*
X0086000Y0114359D03*
X0086000Y0124359D03*
X0086000Y0134359D03*
X0116000Y0134359D03*
X0116000Y0124359D03*
X0116000Y0114359D03*
X0116000Y0104359D03*
D13*
X0147000Y0111359D03*
X0147000Y0124359D03*
X0147000Y0164359D03*
X0076000Y0114359D03*
X0036000Y0114359D03*
X0022000Y0114359D03*
X0012000Y0114359D03*
X0147000Y0071359D03*
D14*
X0022000Y0076359D03*
X0022000Y0086359D03*
D15*
X0115843Y0199359D03*
D16*
X0096157Y0199359D03*
D17*
X0096157Y0199359D01*
X0089157Y0199359D01*
X0089157Y0199818D01*
X0089277Y0200727D01*
X0089515Y0201614D01*
X0089866Y0202461D01*
X0090325Y0203256D01*
X0090883Y0203984D01*
X0091532Y0204633D01*
X0092260Y0205191D01*
X0093055Y0205650D01*
X0093903Y0206001D01*
X0094789Y0206239D01*
X0095699Y0206359D01*
X0096157Y0206359D01*
X0096157Y0199359D01*
X0096158Y0199359D01*
X0103157Y0199359D01*
X0103157Y0199818D01*
X0103038Y0200727D01*
X0102800Y0201614D01*
X0102449Y0202461D01*
X0101990Y0203256D01*
X0101432Y0203984D01*
X0100783Y0204633D01*
X0100055Y0205191D01*
X0099260Y0205650D01*
X0098412Y0206001D01*
X0097526Y0206239D01*
X0096616Y0206359D01*
X0096158Y0206359D01*
X0096158Y0199359D01*
X0096158Y0199359D01*
X0103157Y0199359D01*
X0103157Y0198900D01*
X0103038Y0197990D01*
X0102800Y0197104D01*
X0102449Y0196256D01*
X0101990Y0195461D01*
X0101432Y0194733D01*
X0100783Y0194085D01*
X0100055Y0193526D01*
X0099260Y0193067D01*
X0098412Y0192716D01*
X0097526Y0192479D01*
X0096616Y0192359D01*
X0096158Y0192359D01*
X0096158Y0199359D01*
X0096157Y0199359D01*
X0089157Y0199359D01*
X0089157Y0198900D01*
X0089277Y0197990D01*
X0089515Y0197104D01*
X0089866Y0196256D01*
X0090325Y0195461D01*
X0090883Y0194733D01*
X0091532Y0194085D01*
X0092260Y0193526D01*
X0093055Y0193067D01*
X0093903Y0192716D01*
X0094789Y0192479D01*
X0095699Y0192359D01*
X0096157Y0192359D01*
X0096157Y0199359D01*
X0096157Y0201292D02*
X0096158Y0201292D01*
X0096157Y0205290D02*
X0096158Y0205290D01*
X0099884Y0205290D02*
X0109531Y0205290D01*
X0109299Y0205058D02*
X0108843Y0203955D01*
X0108843Y0194762D01*
X0109299Y0193659D01*
X0110143Y0192815D01*
X0111000Y0192461D01*
X0111000Y0164359D01*
X0066005Y0164359D01*
X0064168Y0163598D01*
X0062761Y0162191D01*
X0051761Y0151191D01*
X0051000Y0149353D01*
X0051000Y0108364D01*
X0051761Y0106526D01*
X0053168Y0105120D01*
X0058168Y0100120D01*
X0060005Y0099359D01*
X0082090Y0099359D01*
X0082431Y0099018D01*
X0084747Y0098059D01*
X0087253Y0098059D01*
X0089569Y0099018D01*
X0091341Y0100790D01*
X0092300Y0103106D01*
X0092300Y0105612D01*
X0091341Y0107927D01*
X0089910Y0109359D01*
X0091341Y0110790D01*
X0092300Y0113106D01*
X0092300Y0115612D01*
X0091341Y0117927D01*
X0089910Y0119359D01*
X0091341Y0120790D01*
X0092300Y0123106D01*
X0092300Y0125612D01*
X0091341Y0127927D01*
X0089879Y0129390D01*
X0090104Y0129553D01*
X0090805Y0130255D01*
X0091388Y0131057D01*
X0091838Y0131940D01*
X0092145Y0132883D01*
X0092300Y0133863D01*
X0092300Y0134359D01*
X0092300Y0134855D01*
X0092145Y0135834D01*
X0091838Y0136777D01*
X0091388Y0137661D01*
X0090805Y0138463D01*
X0090104Y0139164D01*
X0089302Y0139747D01*
X0088418Y0140197D01*
X0087921Y0140359D01*
X0096929Y0140359D01*
X0100000Y0137288D01*
X0100000Y0117364D01*
X0100761Y0115526D01*
X0104761Y0111526D01*
X0106168Y0110120D01*
X0108005Y0109359D01*
X0112090Y0109359D01*
X0110659Y0107927D01*
X0109700Y0105612D01*
X0109700Y0103106D01*
X0110659Y0100790D01*
X0111000Y0100449D01*
X0111000Y0093430D01*
X0109329Y0091759D01*
X0108763Y0091759D01*
X0105600Y0088595D01*
X0105600Y0084122D01*
X0108763Y0080959D01*
X0113237Y0080959D01*
X0116400Y0084122D01*
X0116400Y0084688D01*
X0120239Y0088526D01*
X0121000Y0090364D01*
X0121000Y0100449D01*
X0121341Y0100790D01*
X0122300Y0103106D01*
X0122300Y0105612D01*
X0121341Y0107927D01*
X0119910Y0109359D01*
X0122929Y0109359D01*
X0128000Y0104288D01*
X0128000Y0077364D01*
X0128761Y0075526D01*
X0135761Y0068526D01*
X0137168Y0067120D01*
X0139005Y0066359D01*
X0142000Y0066359D01*
X0142000Y0060995D01*
X0141600Y0060595D01*
X0141600Y0056122D01*
X0144763Y0052959D01*
X0149237Y0052959D01*
X0152400Y0056122D01*
X0152400Y0060595D01*
X0152000Y0060995D01*
X0152000Y0067449D01*
X0153300Y0068749D01*
X0153300Y0073968D01*
X0149610Y0077659D01*
X0144390Y0077659D01*
X0143090Y0076359D01*
X0142071Y0076359D01*
X0138000Y0080430D01*
X0138000Y0107353D01*
X0137239Y0109191D01*
X0135832Y0110598D01*
X0127832Y0118598D01*
X0125995Y0119359D01*
X0119910Y0119359D01*
X0142000Y0119359D01*
X0142000Y0115268D01*
X0140700Y0113968D01*
X0140700Y0108749D01*
X0144390Y0105059D01*
X0149610Y0105059D01*
X0153300Y0108749D01*
X0153300Y0113968D01*
X0152000Y0115268D01*
X0152000Y0120449D01*
X0153300Y0121749D01*
X0153300Y0126968D01*
X0149610Y0130659D01*
X0144390Y0130659D01*
X0143090Y0129359D01*
X0119910Y0129359D01*
X0121341Y0130790D01*
X0122300Y0133106D01*
X0122300Y0135612D01*
X0121341Y0137927D01*
X0121000Y0138268D01*
X0121000Y0192591D01*
X0121542Y0192815D01*
X0122386Y0193659D01*
X0122843Y0194762D01*
X0122843Y0199359D01*
X0127929Y0199359D01*
X0142000Y0185288D01*
X0142000Y0168268D01*
X0140700Y0166968D01*
X0140700Y0161749D01*
X0144390Y0158059D01*
X0149610Y0158059D01*
X0153300Y0161749D01*
X0153300Y0166968D01*
X0152000Y0168268D01*
X0152000Y0188353D01*
X0151239Y0190191D01*
X0132832Y0208598D01*
X0130995Y0209359D01*
X0115005Y0209359D01*
X0113168Y0208598D01*
X0111761Y0207191D01*
X0111416Y0206359D01*
X0111246Y0206359D01*
X0110143Y0205902D01*
X0109299Y0205058D01*
X0108843Y0201292D02*
X0102886Y0201292D01*
X0102851Y0197293D02*
X0108843Y0197293D01*
X0109664Y0193295D02*
X0099654Y0193295D01*
X0096158Y0193295D02*
X0096157Y0193295D01*
X0092661Y0193295D02*
X0006000Y0193295D01*
X0006000Y0197293D02*
X0010752Y0197293D01*
X0011468Y0196577D02*
X0014409Y0195359D01*
X0017591Y0195359D01*
X0020532Y0196577D01*
X0022782Y0198827D01*
X0024000Y0201767D01*
X0024000Y0204950D01*
X0022782Y0207890D01*
X0020532Y0210141D01*
X0017591Y0211359D01*
X0014409Y0211359D01*
X0011468Y0210141D01*
X0009218Y0207890D01*
X0008000Y0204950D01*
X0008000Y0201767D01*
X0009218Y0198827D01*
X0011468Y0196577D01*
X0008197Y0201292D02*
X0006000Y0201292D01*
X0006000Y0205290D02*
X0008141Y0205290D01*
X0006000Y0209289D02*
X0010616Y0209289D01*
X0006000Y0213287D02*
X0195701Y0213287D01*
X0195701Y0214319D02*
X0195701Y0024359D01*
X0006000Y0024359D01*
X0006000Y0111449D01*
X0009390Y0108059D01*
X0012000Y0108059D01*
X0014610Y0108059D01*
X0017000Y0110449D01*
X0017000Y0090834D01*
X0016320Y0090154D01*
X0015300Y0087691D01*
X0015300Y0085026D01*
X0016320Y0082563D01*
X0017525Y0081359D01*
X0016952Y0080786D01*
X0016417Y0080089D01*
X0015978Y0079328D01*
X0015642Y0078517D01*
X0015415Y0077669D01*
X0015300Y0076798D01*
X0015300Y0076359D01*
X0022000Y0076359D01*
X0028700Y0076359D01*
X0028700Y0076798D01*
X0028585Y0077669D01*
X0028358Y0078517D01*
X0028022Y0079328D01*
X0027583Y0080089D01*
X0027048Y0080786D01*
X0026475Y0081359D01*
X0027680Y0082563D01*
X0028700Y0085026D01*
X0028700Y0087691D01*
X0027680Y0090154D01*
X0027000Y0090834D01*
X0027000Y0109359D01*
X0032090Y0109359D01*
X0033390Y0108059D01*
X0038610Y0108059D01*
X0042300Y0111749D01*
X0042300Y0116968D01*
X0038610Y0120659D01*
X0033390Y0120659D01*
X0032090Y0119359D01*
X0025910Y0119359D01*
X0024610Y0120659D01*
X0019390Y0120659D01*
X0017000Y0118268D01*
X0014610Y0120659D01*
X0012000Y0120659D01*
X0009390Y0120659D01*
X0006000Y0117268D01*
X0006000Y0214319D01*
X0195701Y0214319D01*
X0190532Y0210141D02*
X0187591Y0211359D01*
X0184409Y0211359D01*
X0181468Y0210141D01*
X0179218Y0207890D01*
X0178000Y0204950D01*
X0178000Y0201767D01*
X0179218Y0198827D01*
X0181468Y0196577D01*
X0184409Y0195359D01*
X0187591Y0195359D01*
X0190532Y0196577D01*
X0192782Y0198827D01*
X0194000Y0201767D01*
X0194000Y0204950D01*
X0192782Y0207890D01*
X0190532Y0210141D01*
X0191384Y0209289D02*
X0195701Y0209289D01*
X0195701Y0205290D02*
X0193859Y0205290D01*
X0193803Y0201292D02*
X0195701Y0201292D01*
X0195701Y0197293D02*
X0191248Y0197293D01*
X0195701Y0193295D02*
X0148135Y0193295D01*
X0151609Y0189296D02*
X0195701Y0189296D01*
X0195701Y0185298D02*
X0152000Y0185298D01*
X0152000Y0181299D02*
X0195701Y0181299D01*
X0195701Y0177301D02*
X0152000Y0177301D01*
X0152000Y0173302D02*
X0195701Y0173302D01*
X0195701Y0169304D02*
X0152000Y0169304D01*
X0153300Y0165305D02*
X0195701Y0165305D01*
X0195701Y0161307D02*
X0152857Y0161307D01*
X0147000Y0164359D02*
X0147000Y0187359D01*
X0130000Y0204359D01*
X0116000Y0204359D01*
X0116000Y0201359D01*
X0116000Y0199359D01*
X0115843Y0199359D01*
X0116000Y0199359D02*
X0116000Y0159359D01*
X0067000Y0159359D01*
X0056000Y0148359D01*
X0056000Y0109359D01*
X0061000Y0104359D01*
X0086000Y0104359D01*
X0089942Y0109326D02*
X0112058Y0109326D01*
X0109700Y0105327D02*
X0092300Y0105327D01*
X0091564Y0101329D02*
X0110436Y0101329D01*
X0111000Y0097330D02*
X0027000Y0097330D01*
X0027000Y0101329D02*
X0056959Y0101329D01*
X0052960Y0105327D02*
X0027000Y0105327D01*
X0027000Y0109326D02*
X0032123Y0109326D01*
X0036000Y0114359D02*
X0022000Y0114359D01*
X0022000Y0086359D01*
X0015980Y0089333D02*
X0006000Y0089333D01*
X0006000Y0085335D02*
X0015300Y0085335D01*
X0017502Y0081336D02*
X0006000Y0081336D01*
X0006000Y0077338D02*
X0015371Y0077338D01*
X0015300Y0076359D02*
X0015300Y0075920D01*
X0015415Y0075049D01*
X0015642Y0074200D01*
X0015978Y0073389D01*
X0016417Y0072628D01*
X0016952Y0071932D01*
X0017573Y0071311D01*
X0018270Y0070776D01*
X0019030Y0070337D01*
X0019842Y0070001D01*
X0020690Y0069773D01*
X0021561Y0069659D01*
X0022000Y0069659D01*
X0022439Y0069659D01*
X0023310Y0069773D01*
X0024158Y0070001D01*
X0024970Y0070337D01*
X0025730Y0070776D01*
X0026427Y0071311D01*
X0027048Y0071932D01*
X0027583Y0072628D01*
X0028022Y0073389D01*
X0028358Y0074200D01*
X0028585Y0075049D01*
X0028700Y0075920D01*
X0028700Y0076359D01*
X0022000Y0076359D01*
X0022000Y0076359D01*
X0022000Y0076359D01*
X0015300Y0076359D01*
X0016007Y0073339D02*
X0006000Y0073339D01*
X0006000Y0069341D02*
X0134947Y0069341D01*
X0130948Y0073339D02*
X0027993Y0073339D01*
X0028629Y0077338D02*
X0128011Y0077338D01*
X0128000Y0081336D02*
X0113614Y0081336D01*
X0117047Y0085335D02*
X0128000Y0085335D01*
X0128000Y0089333D02*
X0120573Y0089333D01*
X0121000Y0093332D02*
X0128000Y0093332D01*
X0128000Y0097330D02*
X0121000Y0097330D01*
X0121564Y0101329D02*
X0128000Y0101329D01*
X0126960Y0105327D02*
X0122300Y0105327D01*
X0122962Y0109326D02*
X0119942Y0109326D01*
X0116000Y0104359D02*
X0116000Y0091359D01*
X0111000Y0086359D01*
X0105600Y0085335D02*
X0096400Y0085335D01*
X0096400Y0086359D02*
X0096400Y0084122D01*
X0093237Y0080959D01*
X0091000Y0080959D01*
X0091000Y0086359D01*
X0091000Y0086359D01*
X0091000Y0091759D01*
X0093237Y0091759D01*
X0096400Y0088595D01*
X0096400Y0086359D01*
X0091000Y0086359D01*
X0091000Y0091759D01*
X0088763Y0091759D01*
X0085600Y0088595D01*
X0085600Y0086359D01*
X0091000Y0086359D01*
X0091000Y0086359D01*
X0091000Y0086359D01*
X0094000Y0089359D01*
X0094000Y0133359D01*
X0093000Y0134359D01*
X0086000Y0134359D01*
X0092300Y0134359D01*
X0086000Y0134359D01*
X0086000Y0134359D01*
X0089950Y0129319D02*
X0100000Y0129319D01*
X0100000Y0133317D02*
X0092214Y0133317D01*
X0091564Y0137316D02*
X0099972Y0137316D01*
X0105000Y0139359D02*
X0105000Y0118359D01*
X0109000Y0114359D01*
X0116000Y0114359D01*
X0125000Y0114359D01*
X0133000Y0106359D01*
X0133000Y0078359D01*
X0140000Y0071359D01*
X0147000Y0071359D01*
X0147000Y0058359D01*
X0141600Y0057345D02*
X0006000Y0057345D01*
X0006000Y0061344D02*
X0142000Y0061344D01*
X0142000Y0065342D02*
X0006000Y0065342D01*
X0012000Y0067359D02*
X0012000Y0114359D01*
X0012000Y0114359D01*
X0012000Y0120659D01*
X0012000Y0114359D01*
X0012000Y0162359D01*
X0054000Y0204359D01*
X0023859Y0205290D02*
X0092431Y0205290D01*
X0089429Y0201292D02*
X0023803Y0201292D01*
X0021248Y0197293D02*
X0089464Y0197293D01*
X0096157Y0197293D02*
X0096158Y0197293D01*
X0111000Y0189296D02*
X0006000Y0189296D01*
X0006000Y0185298D02*
X0111000Y0185298D01*
X0111000Y0181299D02*
X0006000Y0181299D01*
X0006000Y0177301D02*
X0111000Y0177301D01*
X0111000Y0173302D02*
X0006000Y0173302D01*
X0006000Y0169304D02*
X0111000Y0169304D01*
X0111000Y0165305D02*
X0006000Y0165305D01*
X0006000Y0161307D02*
X0061877Y0161307D01*
X0057878Y0157308D02*
X0006000Y0157308D01*
X0006000Y0153310D02*
X0053880Y0153310D01*
X0051000Y0149311D02*
X0006000Y0149311D01*
X0006000Y0145313D02*
X0051000Y0145313D01*
X0051000Y0141314D02*
X0006000Y0141314D01*
X0006000Y0137316D02*
X0051000Y0137316D01*
X0051000Y0133317D02*
X0006000Y0133317D01*
X0006000Y0129319D02*
X0051000Y0129319D01*
X0051000Y0125320D02*
X0006000Y0125320D01*
X0006000Y0121322D02*
X0051000Y0121322D01*
X0051000Y0117323D02*
X0041945Y0117323D01*
X0042300Y0113324D02*
X0051000Y0113324D01*
X0051000Y0109326D02*
X0039877Y0109326D01*
X0027000Y0093332D02*
X0110902Y0093332D01*
X0106338Y0089333D02*
X0095662Y0089333D01*
X0096400Y0086359D02*
X0091000Y0086359D01*
X0091000Y0038359D01*
X0041000Y0038359D01*
X0012000Y0067359D01*
X0022000Y0069659D02*
X0022000Y0076359D01*
X0022000Y0069659D01*
X0022000Y0073339D02*
X0022000Y0073339D01*
X0022000Y0076359D02*
X0022000Y0076359D01*
X0026498Y0081336D02*
X0088386Y0081336D01*
X0088763Y0080959D02*
X0091000Y0080959D01*
X0091000Y0086359D01*
X0085600Y0086359D01*
X0085600Y0084122D01*
X0088763Y0080959D01*
X0091000Y0081336D02*
X0091000Y0081336D01*
X0093614Y0081336D02*
X0108386Y0081336D01*
X0091000Y0085335D02*
X0091000Y0085335D01*
X0091000Y0086359D02*
X0091000Y0086359D01*
X0091000Y0089333D02*
X0091000Y0089333D01*
X0086338Y0089333D02*
X0028020Y0089333D01*
X0028700Y0085335D02*
X0085600Y0085335D01*
X0092300Y0113324D02*
X0102963Y0113324D01*
X0100017Y0117323D02*
X0091591Y0117323D01*
X0091561Y0121322D02*
X0100000Y0121322D01*
X0100000Y0125320D02*
X0092300Y0125320D01*
X0086000Y0124359D02*
X0081000Y0124359D01*
X0077000Y0128359D01*
X0077000Y0140359D01*
X0082000Y0145359D01*
X0099000Y0145359D01*
X0105000Y0139359D01*
X0116000Y0134359D02*
X0116000Y0159359D01*
X0121000Y0161307D02*
X0141143Y0161307D01*
X0140700Y0165305D02*
X0121000Y0165305D01*
X0121000Y0169304D02*
X0142000Y0169304D01*
X0142000Y0173302D02*
X0121000Y0173302D01*
X0121000Y0177301D02*
X0142000Y0177301D01*
X0142000Y0181299D02*
X0121000Y0181299D01*
X0121000Y0185298D02*
X0141990Y0185298D01*
X0137991Y0189296D02*
X0121000Y0189296D01*
X0122021Y0193295D02*
X0133993Y0193295D01*
X0129994Y0197293D02*
X0122843Y0197293D01*
X0114837Y0209289D02*
X0021384Y0209289D01*
X0012000Y0117323D02*
X0012000Y0117323D01*
X0012000Y0114359D02*
X0012000Y0108059D01*
X0012000Y0114359D01*
X0012000Y0114359D01*
X0012000Y0113324D02*
X0012000Y0113324D01*
X0012000Y0109326D02*
X0012000Y0109326D01*
X0008123Y0109326D02*
X0006000Y0109326D01*
X0006000Y0105327D02*
X0017000Y0105327D01*
X0017000Y0101329D02*
X0006000Y0101329D01*
X0006000Y0097330D02*
X0017000Y0097330D01*
X0017000Y0093332D02*
X0006000Y0093332D01*
X0015877Y0109326D02*
X0017000Y0109326D01*
X0006055Y0117323D02*
X0006000Y0117323D01*
X0006000Y0053347D02*
X0144375Y0053347D01*
X0149625Y0053347D02*
X0195701Y0053347D01*
X0195701Y0057345D02*
X0152400Y0057345D01*
X0152000Y0061344D02*
X0195701Y0061344D01*
X0195701Y0065342D02*
X0152000Y0065342D01*
X0153300Y0069341D02*
X0195701Y0069341D01*
X0195701Y0073339D02*
X0153300Y0073339D01*
X0149930Y0077338D02*
X0195701Y0077338D01*
X0195701Y0081336D02*
X0138000Y0081336D01*
X0141092Y0077338D02*
X0144070Y0077338D01*
X0138000Y0085335D02*
X0195701Y0085335D01*
X0195701Y0089333D02*
X0138000Y0089333D01*
X0138000Y0093332D02*
X0195701Y0093332D01*
X0195701Y0097330D02*
X0138000Y0097330D01*
X0138000Y0101329D02*
X0195701Y0101329D01*
X0195701Y0105327D02*
X0149878Y0105327D01*
X0153300Y0109326D02*
X0195701Y0109326D01*
X0195701Y0113324D02*
X0153300Y0113324D01*
X0152000Y0117323D02*
X0195701Y0117323D01*
X0195701Y0121322D02*
X0152872Y0121322D01*
X0153300Y0125320D02*
X0195701Y0125320D01*
X0195701Y0129319D02*
X0150950Y0129319D01*
X0147000Y0124359D02*
X0147000Y0111359D01*
X0140700Y0113324D02*
X0133105Y0113324D01*
X0137104Y0109326D02*
X0140700Y0109326D01*
X0138000Y0105327D02*
X0144122Y0105327D01*
X0142000Y0117323D02*
X0129107Y0117323D01*
X0119910Y0119359D02*
X0119910Y0119359D01*
X0116000Y0124359D02*
X0147000Y0124359D01*
X0122300Y0133317D02*
X0195701Y0133317D01*
X0195701Y0137316D02*
X0121594Y0137316D01*
X0121000Y0141314D02*
X0195701Y0141314D01*
X0195701Y0145313D02*
X0121000Y0145313D01*
X0121000Y0149311D02*
X0195701Y0149311D01*
X0195701Y0153310D02*
X0121000Y0153310D01*
X0121000Y0157308D02*
X0195701Y0157308D01*
X0180752Y0197293D02*
X0144137Y0197293D01*
X0140138Y0201292D02*
X0178197Y0201292D01*
X0178141Y0205290D02*
X0136140Y0205290D01*
X0131163Y0209289D02*
X0180616Y0209289D01*
X0086000Y0114359D02*
X0076000Y0114359D01*
X0020532Y0041141D02*
X0017591Y0042359D01*
X0014409Y0042359D01*
X0011468Y0041141D01*
X0009218Y0038890D01*
X0008000Y0035950D01*
X0008000Y0032767D01*
X0009218Y0029827D01*
X0011468Y0027577D01*
X0014409Y0026359D01*
X0017591Y0026359D01*
X0020532Y0027577D01*
X0022782Y0029827D01*
X0024000Y0032767D01*
X0024000Y0035950D01*
X0022782Y0038890D01*
X0020532Y0041141D01*
X0020023Y0041351D02*
X0142356Y0041351D01*
X0141600Y0040595D02*
X0141600Y0038359D01*
X0147000Y0038359D01*
X0147000Y0038359D01*
X0147000Y0043759D01*
X0144763Y0043759D01*
X0141600Y0040595D01*
X0141600Y0038359D02*
X0141600Y0036122D01*
X0144763Y0032959D01*
X0147000Y0032959D01*
X0149237Y0032959D01*
X0152400Y0036122D01*
X0152400Y0038359D01*
X0152400Y0040595D01*
X0149237Y0043759D01*
X0147000Y0043759D01*
X0147000Y0038359D01*
X0152400Y0038359D01*
X0147000Y0038359D01*
X0147000Y0038359D01*
X0147000Y0038359D01*
X0091000Y0038359D01*
X0141600Y0038359D02*
X0147000Y0038359D01*
X0147000Y0032959D01*
X0147000Y0038359D01*
X0147000Y0038359D01*
X0147000Y0037353D02*
X0147000Y0037353D01*
X0147000Y0033354D02*
X0147000Y0033354D01*
X0144368Y0033354D02*
X0024000Y0033354D01*
X0023419Y0037353D02*
X0141600Y0037353D01*
X0147000Y0041351D02*
X0147000Y0041351D01*
X0151644Y0041351D02*
X0181977Y0041351D01*
X0181468Y0041141D02*
X0184409Y0042359D01*
X0187591Y0042359D01*
X0190532Y0041141D01*
X0192782Y0038890D01*
X0194000Y0035950D01*
X0194000Y0032767D01*
X0192782Y0029827D01*
X0190532Y0027577D01*
X0187591Y0026359D01*
X0184409Y0026359D01*
X0181468Y0027577D01*
X0179218Y0029827D01*
X0178000Y0032767D01*
X0178000Y0035950D01*
X0179218Y0038890D01*
X0181468Y0041141D01*
X0178581Y0037353D02*
X0152400Y0037353D01*
X0149632Y0033354D02*
X0178000Y0033354D01*
X0179689Y0029356D02*
X0022311Y0029356D01*
X0011977Y0041351D02*
X0006000Y0041351D01*
X0006000Y0037353D02*
X0008581Y0037353D01*
X0008000Y0033354D02*
X0006000Y0033354D01*
X0006000Y0029356D02*
X0009689Y0029356D01*
X0006000Y0025357D02*
X0195701Y0025357D01*
X0195701Y0029356D02*
X0192311Y0029356D01*
X0194000Y0033354D02*
X0195701Y0033354D01*
X0195701Y0037353D02*
X0193419Y0037353D01*
X0195701Y0041351D02*
X0190023Y0041351D01*
X0195701Y0045350D02*
X0006000Y0045350D01*
X0006000Y0049348D02*
X0195701Y0049348D01*
M02*
