G75*
%MOIN*%
%OFA0B0*%
%FSLAX25Y25*%
%IPPOS*%
%LPD*%
%AMOC8*
5,1,8,0,0,1.08239X$1,22.5*
%
%ADD10C,0.00000*%
%ADD11C,0.00700*%
%ADD12C,0.00400*%
%ADD13C,0.00600*%
%ADD14C,0.00060*%
%ADD15C,0.01200*%
%ADD16C,0.00500*%
%ADD17C,0.00800*%
%ADD18C,0.00100*%
%ADD19R,0.02400X0.03400*%
%ADD20R,0.03400X0.02400*%
D10*
X0003000Y0021359D02*
X0003000Y0217319D01*
X0198701Y0217319D01*
X0198701Y0021359D01*
X0003000Y0021359D01*
X0011000Y0034359D02*
X0011002Y0034500D01*
X0011008Y0034641D01*
X0011018Y0034781D01*
X0011032Y0034921D01*
X0011050Y0035061D01*
X0011071Y0035200D01*
X0011097Y0035339D01*
X0011126Y0035477D01*
X0011160Y0035613D01*
X0011197Y0035749D01*
X0011238Y0035884D01*
X0011283Y0036018D01*
X0011332Y0036150D01*
X0011384Y0036281D01*
X0011440Y0036410D01*
X0011500Y0036537D01*
X0011563Y0036663D01*
X0011629Y0036787D01*
X0011700Y0036910D01*
X0011773Y0037030D01*
X0011850Y0037148D01*
X0011930Y0037264D01*
X0012014Y0037377D01*
X0012100Y0037488D01*
X0012190Y0037597D01*
X0012283Y0037703D01*
X0012378Y0037806D01*
X0012477Y0037907D01*
X0012578Y0038005D01*
X0012682Y0038100D01*
X0012789Y0038192D01*
X0012898Y0038281D01*
X0013010Y0038366D01*
X0013124Y0038449D01*
X0013240Y0038529D01*
X0013359Y0038605D01*
X0013480Y0038677D01*
X0013602Y0038747D01*
X0013727Y0038812D01*
X0013853Y0038875D01*
X0013981Y0038933D01*
X0014111Y0038988D01*
X0014242Y0039040D01*
X0014375Y0039087D01*
X0014509Y0039131D01*
X0014644Y0039172D01*
X0014780Y0039208D01*
X0014917Y0039240D01*
X0015055Y0039269D01*
X0015193Y0039294D01*
X0015333Y0039314D01*
X0015473Y0039331D01*
X0015613Y0039344D01*
X0015754Y0039353D01*
X0015894Y0039358D01*
X0016035Y0039359D01*
X0016176Y0039356D01*
X0016317Y0039349D01*
X0016457Y0039338D01*
X0016597Y0039323D01*
X0016737Y0039304D01*
X0016876Y0039282D01*
X0017014Y0039255D01*
X0017152Y0039225D01*
X0017288Y0039190D01*
X0017424Y0039152D01*
X0017558Y0039110D01*
X0017692Y0039064D01*
X0017824Y0039015D01*
X0017954Y0038961D01*
X0018083Y0038904D01*
X0018210Y0038844D01*
X0018336Y0038780D01*
X0018459Y0038712D01*
X0018581Y0038641D01*
X0018701Y0038567D01*
X0018818Y0038489D01*
X0018933Y0038408D01*
X0019046Y0038324D01*
X0019157Y0038237D01*
X0019265Y0038146D01*
X0019370Y0038053D01*
X0019473Y0037956D01*
X0019573Y0037857D01*
X0019670Y0037755D01*
X0019764Y0037650D01*
X0019855Y0037543D01*
X0019943Y0037433D01*
X0020028Y0037321D01*
X0020110Y0037206D01*
X0020189Y0037089D01*
X0020264Y0036970D01*
X0020336Y0036849D01*
X0020404Y0036726D01*
X0020469Y0036601D01*
X0020531Y0036474D01*
X0020588Y0036345D01*
X0020643Y0036215D01*
X0020693Y0036084D01*
X0020740Y0035951D01*
X0020783Y0035817D01*
X0020822Y0035681D01*
X0020857Y0035545D01*
X0020889Y0035408D01*
X0020916Y0035270D01*
X0020940Y0035131D01*
X0020960Y0034991D01*
X0020976Y0034851D01*
X0020988Y0034711D01*
X0020996Y0034570D01*
X0021000Y0034429D01*
X0021000Y0034289D01*
X0020996Y0034148D01*
X0020988Y0034007D01*
X0020976Y0033867D01*
X0020960Y0033727D01*
X0020940Y0033587D01*
X0020916Y0033448D01*
X0020889Y0033310D01*
X0020857Y0033173D01*
X0020822Y0033037D01*
X0020783Y0032901D01*
X0020740Y0032767D01*
X0020693Y0032634D01*
X0020643Y0032503D01*
X0020588Y0032373D01*
X0020531Y0032244D01*
X0020469Y0032117D01*
X0020404Y0031992D01*
X0020336Y0031869D01*
X0020264Y0031748D01*
X0020189Y0031629D01*
X0020110Y0031512D01*
X0020028Y0031397D01*
X0019943Y0031285D01*
X0019855Y0031175D01*
X0019764Y0031068D01*
X0019670Y0030963D01*
X0019573Y0030861D01*
X0019473Y0030762D01*
X0019370Y0030665D01*
X0019265Y0030572D01*
X0019157Y0030481D01*
X0019046Y0030394D01*
X0018933Y0030310D01*
X0018818Y0030229D01*
X0018701Y0030151D01*
X0018581Y0030077D01*
X0018459Y0030006D01*
X0018336Y0029938D01*
X0018210Y0029874D01*
X0018083Y0029814D01*
X0017954Y0029757D01*
X0017824Y0029703D01*
X0017692Y0029654D01*
X0017558Y0029608D01*
X0017424Y0029566D01*
X0017288Y0029528D01*
X0017152Y0029493D01*
X0017014Y0029463D01*
X0016876Y0029436D01*
X0016737Y0029414D01*
X0016597Y0029395D01*
X0016457Y0029380D01*
X0016317Y0029369D01*
X0016176Y0029362D01*
X0016035Y0029359D01*
X0015894Y0029360D01*
X0015754Y0029365D01*
X0015613Y0029374D01*
X0015473Y0029387D01*
X0015333Y0029404D01*
X0015193Y0029424D01*
X0015055Y0029449D01*
X0014917Y0029478D01*
X0014780Y0029510D01*
X0014644Y0029546D01*
X0014509Y0029587D01*
X0014375Y0029631D01*
X0014242Y0029678D01*
X0014111Y0029730D01*
X0013981Y0029785D01*
X0013853Y0029843D01*
X0013727Y0029906D01*
X0013602Y0029971D01*
X0013480Y0030041D01*
X0013359Y0030113D01*
X0013240Y0030189D01*
X0013124Y0030269D01*
X0013010Y0030352D01*
X0012898Y0030437D01*
X0012789Y0030526D01*
X0012682Y0030618D01*
X0012578Y0030713D01*
X0012477Y0030811D01*
X0012378Y0030912D01*
X0012283Y0031015D01*
X0012190Y0031121D01*
X0012100Y0031230D01*
X0012014Y0031341D01*
X0011930Y0031454D01*
X0011850Y0031570D01*
X0011773Y0031688D01*
X0011700Y0031808D01*
X0011629Y0031931D01*
X0011563Y0032055D01*
X0011500Y0032181D01*
X0011440Y0032308D01*
X0011384Y0032437D01*
X0011332Y0032568D01*
X0011283Y0032700D01*
X0011238Y0032834D01*
X0011197Y0032969D01*
X0011160Y0033105D01*
X0011126Y0033241D01*
X0011097Y0033379D01*
X0011071Y0033518D01*
X0011050Y0033657D01*
X0011032Y0033797D01*
X0011018Y0033937D01*
X0011008Y0034077D01*
X0011002Y0034218D01*
X0011000Y0034359D01*
X0011000Y0203359D02*
X0011002Y0203500D01*
X0011008Y0203641D01*
X0011018Y0203781D01*
X0011032Y0203921D01*
X0011050Y0204061D01*
X0011071Y0204200D01*
X0011097Y0204339D01*
X0011126Y0204477D01*
X0011160Y0204613D01*
X0011197Y0204749D01*
X0011238Y0204884D01*
X0011283Y0205018D01*
X0011332Y0205150D01*
X0011384Y0205281D01*
X0011440Y0205410D01*
X0011500Y0205537D01*
X0011563Y0205663D01*
X0011629Y0205787D01*
X0011700Y0205910D01*
X0011773Y0206030D01*
X0011850Y0206148D01*
X0011930Y0206264D01*
X0012014Y0206377D01*
X0012100Y0206488D01*
X0012190Y0206597D01*
X0012283Y0206703D01*
X0012378Y0206806D01*
X0012477Y0206907D01*
X0012578Y0207005D01*
X0012682Y0207100D01*
X0012789Y0207192D01*
X0012898Y0207281D01*
X0013010Y0207366D01*
X0013124Y0207449D01*
X0013240Y0207529D01*
X0013359Y0207605D01*
X0013480Y0207677D01*
X0013602Y0207747D01*
X0013727Y0207812D01*
X0013853Y0207875D01*
X0013981Y0207933D01*
X0014111Y0207988D01*
X0014242Y0208040D01*
X0014375Y0208087D01*
X0014509Y0208131D01*
X0014644Y0208172D01*
X0014780Y0208208D01*
X0014917Y0208240D01*
X0015055Y0208269D01*
X0015193Y0208294D01*
X0015333Y0208314D01*
X0015473Y0208331D01*
X0015613Y0208344D01*
X0015754Y0208353D01*
X0015894Y0208358D01*
X0016035Y0208359D01*
X0016176Y0208356D01*
X0016317Y0208349D01*
X0016457Y0208338D01*
X0016597Y0208323D01*
X0016737Y0208304D01*
X0016876Y0208282D01*
X0017014Y0208255D01*
X0017152Y0208225D01*
X0017288Y0208190D01*
X0017424Y0208152D01*
X0017558Y0208110D01*
X0017692Y0208064D01*
X0017824Y0208015D01*
X0017954Y0207961D01*
X0018083Y0207904D01*
X0018210Y0207844D01*
X0018336Y0207780D01*
X0018459Y0207712D01*
X0018581Y0207641D01*
X0018701Y0207567D01*
X0018818Y0207489D01*
X0018933Y0207408D01*
X0019046Y0207324D01*
X0019157Y0207237D01*
X0019265Y0207146D01*
X0019370Y0207053D01*
X0019473Y0206956D01*
X0019573Y0206857D01*
X0019670Y0206755D01*
X0019764Y0206650D01*
X0019855Y0206543D01*
X0019943Y0206433D01*
X0020028Y0206321D01*
X0020110Y0206206D01*
X0020189Y0206089D01*
X0020264Y0205970D01*
X0020336Y0205849D01*
X0020404Y0205726D01*
X0020469Y0205601D01*
X0020531Y0205474D01*
X0020588Y0205345D01*
X0020643Y0205215D01*
X0020693Y0205084D01*
X0020740Y0204951D01*
X0020783Y0204817D01*
X0020822Y0204681D01*
X0020857Y0204545D01*
X0020889Y0204408D01*
X0020916Y0204270D01*
X0020940Y0204131D01*
X0020960Y0203991D01*
X0020976Y0203851D01*
X0020988Y0203711D01*
X0020996Y0203570D01*
X0021000Y0203429D01*
X0021000Y0203289D01*
X0020996Y0203148D01*
X0020988Y0203007D01*
X0020976Y0202867D01*
X0020960Y0202727D01*
X0020940Y0202587D01*
X0020916Y0202448D01*
X0020889Y0202310D01*
X0020857Y0202173D01*
X0020822Y0202037D01*
X0020783Y0201901D01*
X0020740Y0201767D01*
X0020693Y0201634D01*
X0020643Y0201503D01*
X0020588Y0201373D01*
X0020531Y0201244D01*
X0020469Y0201117D01*
X0020404Y0200992D01*
X0020336Y0200869D01*
X0020264Y0200748D01*
X0020189Y0200629D01*
X0020110Y0200512D01*
X0020028Y0200397D01*
X0019943Y0200285D01*
X0019855Y0200175D01*
X0019764Y0200068D01*
X0019670Y0199963D01*
X0019573Y0199861D01*
X0019473Y0199762D01*
X0019370Y0199665D01*
X0019265Y0199572D01*
X0019157Y0199481D01*
X0019046Y0199394D01*
X0018933Y0199310D01*
X0018818Y0199229D01*
X0018701Y0199151D01*
X0018581Y0199077D01*
X0018459Y0199006D01*
X0018336Y0198938D01*
X0018210Y0198874D01*
X0018083Y0198814D01*
X0017954Y0198757D01*
X0017824Y0198703D01*
X0017692Y0198654D01*
X0017558Y0198608D01*
X0017424Y0198566D01*
X0017288Y0198528D01*
X0017152Y0198493D01*
X0017014Y0198463D01*
X0016876Y0198436D01*
X0016737Y0198414D01*
X0016597Y0198395D01*
X0016457Y0198380D01*
X0016317Y0198369D01*
X0016176Y0198362D01*
X0016035Y0198359D01*
X0015894Y0198360D01*
X0015754Y0198365D01*
X0015613Y0198374D01*
X0015473Y0198387D01*
X0015333Y0198404D01*
X0015193Y0198424D01*
X0015055Y0198449D01*
X0014917Y0198478D01*
X0014780Y0198510D01*
X0014644Y0198546D01*
X0014509Y0198587D01*
X0014375Y0198631D01*
X0014242Y0198678D01*
X0014111Y0198730D01*
X0013981Y0198785D01*
X0013853Y0198843D01*
X0013727Y0198906D01*
X0013602Y0198971D01*
X0013480Y0199041D01*
X0013359Y0199113D01*
X0013240Y0199189D01*
X0013124Y0199269D01*
X0013010Y0199352D01*
X0012898Y0199437D01*
X0012789Y0199526D01*
X0012682Y0199618D01*
X0012578Y0199713D01*
X0012477Y0199811D01*
X0012378Y0199912D01*
X0012283Y0200015D01*
X0012190Y0200121D01*
X0012100Y0200230D01*
X0012014Y0200341D01*
X0011930Y0200454D01*
X0011850Y0200570D01*
X0011773Y0200688D01*
X0011700Y0200808D01*
X0011629Y0200931D01*
X0011563Y0201055D01*
X0011500Y0201181D01*
X0011440Y0201308D01*
X0011384Y0201437D01*
X0011332Y0201568D01*
X0011283Y0201700D01*
X0011238Y0201834D01*
X0011197Y0201969D01*
X0011160Y0202105D01*
X0011126Y0202241D01*
X0011097Y0202379D01*
X0011071Y0202518D01*
X0011050Y0202657D01*
X0011032Y0202797D01*
X0011018Y0202937D01*
X0011008Y0203077D01*
X0011002Y0203218D01*
X0011000Y0203359D01*
X0181000Y0203359D02*
X0181002Y0203500D01*
X0181008Y0203641D01*
X0181018Y0203781D01*
X0181032Y0203921D01*
X0181050Y0204061D01*
X0181071Y0204200D01*
X0181097Y0204339D01*
X0181126Y0204477D01*
X0181160Y0204613D01*
X0181197Y0204749D01*
X0181238Y0204884D01*
X0181283Y0205018D01*
X0181332Y0205150D01*
X0181384Y0205281D01*
X0181440Y0205410D01*
X0181500Y0205537D01*
X0181563Y0205663D01*
X0181629Y0205787D01*
X0181700Y0205910D01*
X0181773Y0206030D01*
X0181850Y0206148D01*
X0181930Y0206264D01*
X0182014Y0206377D01*
X0182100Y0206488D01*
X0182190Y0206597D01*
X0182283Y0206703D01*
X0182378Y0206806D01*
X0182477Y0206907D01*
X0182578Y0207005D01*
X0182682Y0207100D01*
X0182789Y0207192D01*
X0182898Y0207281D01*
X0183010Y0207366D01*
X0183124Y0207449D01*
X0183240Y0207529D01*
X0183359Y0207605D01*
X0183480Y0207677D01*
X0183602Y0207747D01*
X0183727Y0207812D01*
X0183853Y0207875D01*
X0183981Y0207933D01*
X0184111Y0207988D01*
X0184242Y0208040D01*
X0184375Y0208087D01*
X0184509Y0208131D01*
X0184644Y0208172D01*
X0184780Y0208208D01*
X0184917Y0208240D01*
X0185055Y0208269D01*
X0185193Y0208294D01*
X0185333Y0208314D01*
X0185473Y0208331D01*
X0185613Y0208344D01*
X0185754Y0208353D01*
X0185894Y0208358D01*
X0186035Y0208359D01*
X0186176Y0208356D01*
X0186317Y0208349D01*
X0186457Y0208338D01*
X0186597Y0208323D01*
X0186737Y0208304D01*
X0186876Y0208282D01*
X0187014Y0208255D01*
X0187152Y0208225D01*
X0187288Y0208190D01*
X0187424Y0208152D01*
X0187558Y0208110D01*
X0187692Y0208064D01*
X0187824Y0208015D01*
X0187954Y0207961D01*
X0188083Y0207904D01*
X0188210Y0207844D01*
X0188336Y0207780D01*
X0188459Y0207712D01*
X0188581Y0207641D01*
X0188701Y0207567D01*
X0188818Y0207489D01*
X0188933Y0207408D01*
X0189046Y0207324D01*
X0189157Y0207237D01*
X0189265Y0207146D01*
X0189370Y0207053D01*
X0189473Y0206956D01*
X0189573Y0206857D01*
X0189670Y0206755D01*
X0189764Y0206650D01*
X0189855Y0206543D01*
X0189943Y0206433D01*
X0190028Y0206321D01*
X0190110Y0206206D01*
X0190189Y0206089D01*
X0190264Y0205970D01*
X0190336Y0205849D01*
X0190404Y0205726D01*
X0190469Y0205601D01*
X0190531Y0205474D01*
X0190588Y0205345D01*
X0190643Y0205215D01*
X0190693Y0205084D01*
X0190740Y0204951D01*
X0190783Y0204817D01*
X0190822Y0204681D01*
X0190857Y0204545D01*
X0190889Y0204408D01*
X0190916Y0204270D01*
X0190940Y0204131D01*
X0190960Y0203991D01*
X0190976Y0203851D01*
X0190988Y0203711D01*
X0190996Y0203570D01*
X0191000Y0203429D01*
X0191000Y0203289D01*
X0190996Y0203148D01*
X0190988Y0203007D01*
X0190976Y0202867D01*
X0190960Y0202727D01*
X0190940Y0202587D01*
X0190916Y0202448D01*
X0190889Y0202310D01*
X0190857Y0202173D01*
X0190822Y0202037D01*
X0190783Y0201901D01*
X0190740Y0201767D01*
X0190693Y0201634D01*
X0190643Y0201503D01*
X0190588Y0201373D01*
X0190531Y0201244D01*
X0190469Y0201117D01*
X0190404Y0200992D01*
X0190336Y0200869D01*
X0190264Y0200748D01*
X0190189Y0200629D01*
X0190110Y0200512D01*
X0190028Y0200397D01*
X0189943Y0200285D01*
X0189855Y0200175D01*
X0189764Y0200068D01*
X0189670Y0199963D01*
X0189573Y0199861D01*
X0189473Y0199762D01*
X0189370Y0199665D01*
X0189265Y0199572D01*
X0189157Y0199481D01*
X0189046Y0199394D01*
X0188933Y0199310D01*
X0188818Y0199229D01*
X0188701Y0199151D01*
X0188581Y0199077D01*
X0188459Y0199006D01*
X0188336Y0198938D01*
X0188210Y0198874D01*
X0188083Y0198814D01*
X0187954Y0198757D01*
X0187824Y0198703D01*
X0187692Y0198654D01*
X0187558Y0198608D01*
X0187424Y0198566D01*
X0187288Y0198528D01*
X0187152Y0198493D01*
X0187014Y0198463D01*
X0186876Y0198436D01*
X0186737Y0198414D01*
X0186597Y0198395D01*
X0186457Y0198380D01*
X0186317Y0198369D01*
X0186176Y0198362D01*
X0186035Y0198359D01*
X0185894Y0198360D01*
X0185754Y0198365D01*
X0185613Y0198374D01*
X0185473Y0198387D01*
X0185333Y0198404D01*
X0185193Y0198424D01*
X0185055Y0198449D01*
X0184917Y0198478D01*
X0184780Y0198510D01*
X0184644Y0198546D01*
X0184509Y0198587D01*
X0184375Y0198631D01*
X0184242Y0198678D01*
X0184111Y0198730D01*
X0183981Y0198785D01*
X0183853Y0198843D01*
X0183727Y0198906D01*
X0183602Y0198971D01*
X0183480Y0199041D01*
X0183359Y0199113D01*
X0183240Y0199189D01*
X0183124Y0199269D01*
X0183010Y0199352D01*
X0182898Y0199437D01*
X0182789Y0199526D01*
X0182682Y0199618D01*
X0182578Y0199713D01*
X0182477Y0199811D01*
X0182378Y0199912D01*
X0182283Y0200015D01*
X0182190Y0200121D01*
X0182100Y0200230D01*
X0182014Y0200341D01*
X0181930Y0200454D01*
X0181850Y0200570D01*
X0181773Y0200688D01*
X0181700Y0200808D01*
X0181629Y0200931D01*
X0181563Y0201055D01*
X0181500Y0201181D01*
X0181440Y0201308D01*
X0181384Y0201437D01*
X0181332Y0201568D01*
X0181283Y0201700D01*
X0181238Y0201834D01*
X0181197Y0201969D01*
X0181160Y0202105D01*
X0181126Y0202241D01*
X0181097Y0202379D01*
X0181071Y0202518D01*
X0181050Y0202657D01*
X0181032Y0202797D01*
X0181018Y0202937D01*
X0181008Y0203077D01*
X0181002Y0203218D01*
X0181000Y0203359D01*
X0181000Y0034359D02*
X0181002Y0034500D01*
X0181008Y0034641D01*
X0181018Y0034781D01*
X0181032Y0034921D01*
X0181050Y0035061D01*
X0181071Y0035200D01*
X0181097Y0035339D01*
X0181126Y0035477D01*
X0181160Y0035613D01*
X0181197Y0035749D01*
X0181238Y0035884D01*
X0181283Y0036018D01*
X0181332Y0036150D01*
X0181384Y0036281D01*
X0181440Y0036410D01*
X0181500Y0036537D01*
X0181563Y0036663D01*
X0181629Y0036787D01*
X0181700Y0036910D01*
X0181773Y0037030D01*
X0181850Y0037148D01*
X0181930Y0037264D01*
X0182014Y0037377D01*
X0182100Y0037488D01*
X0182190Y0037597D01*
X0182283Y0037703D01*
X0182378Y0037806D01*
X0182477Y0037907D01*
X0182578Y0038005D01*
X0182682Y0038100D01*
X0182789Y0038192D01*
X0182898Y0038281D01*
X0183010Y0038366D01*
X0183124Y0038449D01*
X0183240Y0038529D01*
X0183359Y0038605D01*
X0183480Y0038677D01*
X0183602Y0038747D01*
X0183727Y0038812D01*
X0183853Y0038875D01*
X0183981Y0038933D01*
X0184111Y0038988D01*
X0184242Y0039040D01*
X0184375Y0039087D01*
X0184509Y0039131D01*
X0184644Y0039172D01*
X0184780Y0039208D01*
X0184917Y0039240D01*
X0185055Y0039269D01*
X0185193Y0039294D01*
X0185333Y0039314D01*
X0185473Y0039331D01*
X0185613Y0039344D01*
X0185754Y0039353D01*
X0185894Y0039358D01*
X0186035Y0039359D01*
X0186176Y0039356D01*
X0186317Y0039349D01*
X0186457Y0039338D01*
X0186597Y0039323D01*
X0186737Y0039304D01*
X0186876Y0039282D01*
X0187014Y0039255D01*
X0187152Y0039225D01*
X0187288Y0039190D01*
X0187424Y0039152D01*
X0187558Y0039110D01*
X0187692Y0039064D01*
X0187824Y0039015D01*
X0187954Y0038961D01*
X0188083Y0038904D01*
X0188210Y0038844D01*
X0188336Y0038780D01*
X0188459Y0038712D01*
X0188581Y0038641D01*
X0188701Y0038567D01*
X0188818Y0038489D01*
X0188933Y0038408D01*
X0189046Y0038324D01*
X0189157Y0038237D01*
X0189265Y0038146D01*
X0189370Y0038053D01*
X0189473Y0037956D01*
X0189573Y0037857D01*
X0189670Y0037755D01*
X0189764Y0037650D01*
X0189855Y0037543D01*
X0189943Y0037433D01*
X0190028Y0037321D01*
X0190110Y0037206D01*
X0190189Y0037089D01*
X0190264Y0036970D01*
X0190336Y0036849D01*
X0190404Y0036726D01*
X0190469Y0036601D01*
X0190531Y0036474D01*
X0190588Y0036345D01*
X0190643Y0036215D01*
X0190693Y0036084D01*
X0190740Y0035951D01*
X0190783Y0035817D01*
X0190822Y0035681D01*
X0190857Y0035545D01*
X0190889Y0035408D01*
X0190916Y0035270D01*
X0190940Y0035131D01*
X0190960Y0034991D01*
X0190976Y0034851D01*
X0190988Y0034711D01*
X0190996Y0034570D01*
X0191000Y0034429D01*
X0191000Y0034289D01*
X0190996Y0034148D01*
X0190988Y0034007D01*
X0190976Y0033867D01*
X0190960Y0033727D01*
X0190940Y0033587D01*
X0190916Y0033448D01*
X0190889Y0033310D01*
X0190857Y0033173D01*
X0190822Y0033037D01*
X0190783Y0032901D01*
X0190740Y0032767D01*
X0190693Y0032634D01*
X0190643Y0032503D01*
X0190588Y0032373D01*
X0190531Y0032244D01*
X0190469Y0032117D01*
X0190404Y0031992D01*
X0190336Y0031869D01*
X0190264Y0031748D01*
X0190189Y0031629D01*
X0190110Y0031512D01*
X0190028Y0031397D01*
X0189943Y0031285D01*
X0189855Y0031175D01*
X0189764Y0031068D01*
X0189670Y0030963D01*
X0189573Y0030861D01*
X0189473Y0030762D01*
X0189370Y0030665D01*
X0189265Y0030572D01*
X0189157Y0030481D01*
X0189046Y0030394D01*
X0188933Y0030310D01*
X0188818Y0030229D01*
X0188701Y0030151D01*
X0188581Y0030077D01*
X0188459Y0030006D01*
X0188336Y0029938D01*
X0188210Y0029874D01*
X0188083Y0029814D01*
X0187954Y0029757D01*
X0187824Y0029703D01*
X0187692Y0029654D01*
X0187558Y0029608D01*
X0187424Y0029566D01*
X0187288Y0029528D01*
X0187152Y0029493D01*
X0187014Y0029463D01*
X0186876Y0029436D01*
X0186737Y0029414D01*
X0186597Y0029395D01*
X0186457Y0029380D01*
X0186317Y0029369D01*
X0186176Y0029362D01*
X0186035Y0029359D01*
X0185894Y0029360D01*
X0185754Y0029365D01*
X0185613Y0029374D01*
X0185473Y0029387D01*
X0185333Y0029404D01*
X0185193Y0029424D01*
X0185055Y0029449D01*
X0184917Y0029478D01*
X0184780Y0029510D01*
X0184644Y0029546D01*
X0184509Y0029587D01*
X0184375Y0029631D01*
X0184242Y0029678D01*
X0184111Y0029730D01*
X0183981Y0029785D01*
X0183853Y0029843D01*
X0183727Y0029906D01*
X0183602Y0029971D01*
X0183480Y0030041D01*
X0183359Y0030113D01*
X0183240Y0030189D01*
X0183124Y0030269D01*
X0183010Y0030352D01*
X0182898Y0030437D01*
X0182789Y0030526D01*
X0182682Y0030618D01*
X0182578Y0030713D01*
X0182477Y0030811D01*
X0182378Y0030912D01*
X0182283Y0031015D01*
X0182190Y0031121D01*
X0182100Y0031230D01*
X0182014Y0031341D01*
X0181930Y0031454D01*
X0181850Y0031570D01*
X0181773Y0031688D01*
X0181700Y0031808D01*
X0181629Y0031931D01*
X0181563Y0032055D01*
X0181500Y0032181D01*
X0181440Y0032308D01*
X0181384Y0032437D01*
X0181332Y0032568D01*
X0181283Y0032700D01*
X0181238Y0032834D01*
X0181197Y0032969D01*
X0181160Y0033105D01*
X0181126Y0033241D01*
X0181097Y0033379D01*
X0181071Y0033518D01*
X0181050Y0033657D01*
X0181032Y0033797D01*
X0181018Y0033937D01*
X0181008Y0034077D01*
X0181002Y0034218D01*
X0181000Y0034359D01*
D11*
X0171250Y0033248D02*
X0171250Y0030613D01*
X0171250Y0031930D02*
X0165979Y0031930D01*
X0165979Y0030613D01*
X0165979Y0027969D02*
X0165979Y0025333D01*
X0164661Y0026651D02*
X0169932Y0026651D01*
X0171250Y0027969D01*
X0171250Y0022690D02*
X0171250Y0020054D01*
X0171250Y0021372D02*
X0163343Y0021372D01*
X0163343Y0020054D01*
X0165979Y0017407D02*
X0171250Y0017407D01*
X0171250Y0013453D01*
X0169932Y0012135D01*
X0165979Y0012135D01*
X0163343Y0009488D02*
X0165979Y0006852D01*
X0163343Y0004217D01*
X0171250Y0004217D01*
X0171250Y0009488D02*
X0163343Y0009488D01*
X0163343Y0031930D02*
X0162025Y0031930D01*
X0165979Y0035892D02*
X0171250Y0038527D01*
X0165979Y0041163D01*
X0165979Y0043810D02*
X0165979Y0045128D01*
X0171250Y0045128D01*
X0171250Y0043810D02*
X0171250Y0046446D01*
X0171250Y0049090D02*
X0171250Y0053043D01*
X0169932Y0054361D01*
X0167297Y0054361D01*
X0165979Y0053043D01*
X0165979Y0049090D01*
X0163343Y0049090D02*
X0171250Y0049090D01*
X0171250Y0057008D02*
X0165979Y0057008D01*
X0168614Y0057008D02*
X0165979Y0059644D01*
X0165979Y0060962D01*
X0165979Y0064925D02*
X0165979Y0067561D01*
X0167297Y0068879D01*
X0171250Y0068879D01*
X0171250Y0064925D01*
X0169932Y0063607D01*
X0168614Y0064925D01*
X0168614Y0068879D01*
X0167297Y0071526D02*
X0165979Y0072844D01*
X0165979Y0076797D01*
X0163343Y0076797D02*
X0171250Y0076797D01*
X0171250Y0072844D01*
X0169932Y0071526D01*
X0167297Y0071526D01*
X0167297Y0079445D02*
X0169932Y0079445D01*
X0171250Y0080763D01*
X0171250Y0083398D01*
X0169932Y0084716D01*
X0167297Y0084716D01*
X0165979Y0083398D01*
X0165979Y0080763D01*
X0167297Y0079445D01*
X0168614Y0087364D02*
X0165979Y0089999D01*
X0165979Y0091317D01*
X0165979Y0087364D02*
X0171250Y0087364D01*
X0171250Y0101881D02*
X0165979Y0101881D01*
X0163343Y0104517D01*
X0165979Y0107153D01*
X0171250Y0107153D01*
X0171250Y0109800D02*
X0171250Y0113754D01*
X0169932Y0115071D01*
X0168614Y0113754D01*
X0168614Y0111118D01*
X0167297Y0109800D01*
X0165979Y0111118D01*
X0165979Y0115071D01*
X0165979Y0117719D02*
X0165979Y0120354D01*
X0164661Y0119037D02*
X0169932Y0119037D01*
X0171250Y0120354D01*
X0169932Y0122998D02*
X0168614Y0124316D01*
X0168614Y0128269D01*
X0167297Y0128269D02*
X0165979Y0126951D01*
X0165979Y0124316D01*
X0167297Y0128269D02*
X0171250Y0128269D01*
X0171250Y0124316D01*
X0169932Y0122998D01*
X0165979Y0130917D02*
X0171250Y0133552D01*
X0165979Y0136188D01*
X0167297Y0138836D02*
X0165979Y0140153D01*
X0165979Y0142789D01*
X0167297Y0144107D01*
X0168614Y0144107D01*
X0168614Y0138836D01*
X0167297Y0138836D02*
X0169932Y0138836D01*
X0171250Y0140153D01*
X0171250Y0142789D01*
X0171250Y0146754D02*
X0171250Y0149390D01*
X0171250Y0148072D02*
X0163343Y0148072D01*
X0163343Y0146754D01*
X0163343Y0159952D02*
X0167297Y0159952D01*
X0165979Y0162588D01*
X0165979Y0163906D01*
X0167297Y0165223D01*
X0169932Y0165223D01*
X0171250Y0163906D01*
X0171250Y0161270D01*
X0169932Y0159952D01*
X0163343Y0159952D02*
X0163343Y0165223D01*
X0163343Y0167871D02*
X0167297Y0167871D01*
X0165979Y0170507D01*
X0165979Y0171824D01*
X0167297Y0173142D01*
X0169932Y0173142D01*
X0171250Y0171824D01*
X0171250Y0169189D01*
X0169932Y0167871D01*
X0169932Y0175790D02*
X0171250Y0177108D01*
X0171250Y0179743D01*
X0169932Y0181061D01*
X0167297Y0181061D01*
X0165979Y0179743D01*
X0165979Y0178425D01*
X0167297Y0175790D01*
X0163343Y0175790D01*
X0163343Y0181061D01*
X0163343Y0173142D02*
X0163343Y0167871D01*
X0167297Y0107153D02*
X0167297Y0101881D01*
X0163343Y0045128D02*
X0162025Y0045128D01*
X0141486Y0035980D02*
X0140168Y0035980D01*
X0137532Y0033344D01*
X0137532Y0030709D02*
X0137532Y0035980D01*
X0134885Y0034662D02*
X0134885Y0032027D01*
X0133567Y0030709D01*
X0129614Y0030709D01*
X0129614Y0038615D01*
X0129614Y0035980D02*
X0133567Y0035980D01*
X0134885Y0034662D01*
X0126972Y0032027D02*
X0126972Y0030709D01*
X0125654Y0030709D01*
X0125654Y0032027D01*
X0126972Y0032027D01*
X0123007Y0030709D02*
X0123007Y0034662D01*
X0121689Y0035980D01*
X0120371Y0034662D01*
X0120371Y0030709D01*
X0117736Y0030709D02*
X0117736Y0035980D01*
X0119053Y0035980D01*
X0120371Y0034662D01*
X0115088Y0034662D02*
X0115088Y0032027D01*
X0113770Y0030709D01*
X0111135Y0030709D01*
X0109817Y0032027D01*
X0109817Y0034662D01*
X0111135Y0035980D01*
X0113770Y0035980D01*
X0115088Y0034662D01*
X0107169Y0035980D02*
X0103216Y0035980D01*
X0101898Y0034662D01*
X0101898Y0032027D01*
X0103216Y0030709D01*
X0107169Y0030709D01*
X0099256Y0030709D02*
X0097939Y0030709D01*
X0097939Y0032027D01*
X0099256Y0032027D01*
X0099256Y0030709D01*
X0095291Y0032027D02*
X0095291Y0034662D01*
X0093973Y0035980D01*
X0090020Y0035980D01*
X0090020Y0038615D02*
X0090020Y0030709D01*
X0093973Y0030709D01*
X0095291Y0032027D01*
X0087372Y0033344D02*
X0083419Y0033344D01*
X0082101Y0032027D01*
X0083419Y0030709D01*
X0087372Y0030709D01*
X0087372Y0034662D01*
X0086054Y0035980D01*
X0083419Y0035980D01*
X0079454Y0030709D02*
X0074182Y0030709D01*
X0074182Y0038615D01*
X0071535Y0034662D02*
X0071535Y0030709D01*
X0071535Y0034662D02*
X0070217Y0035980D01*
X0066264Y0035980D01*
X0066264Y0030709D01*
X0063616Y0033344D02*
X0058345Y0033344D01*
X0058345Y0032027D02*
X0058345Y0034662D01*
X0059663Y0035980D01*
X0062298Y0035980D01*
X0063616Y0034662D01*
X0063616Y0033344D01*
X0062298Y0030709D02*
X0059663Y0030709D01*
X0058345Y0032027D01*
X0055697Y0030709D02*
X0050426Y0030709D01*
X0055697Y0035980D01*
X0050426Y0035980D01*
X0047782Y0035980D02*
X0045147Y0035980D01*
X0046465Y0037298D02*
X0046465Y0032027D01*
X0047782Y0030709D01*
X0042503Y0030709D02*
X0039868Y0030709D01*
X0041186Y0030709D02*
X0041186Y0035980D01*
X0039868Y0035980D01*
X0037222Y0035980D02*
X0035904Y0035980D01*
X0033269Y0033344D01*
X0033269Y0030709D02*
X0033269Y0035980D01*
X0030621Y0038615D02*
X0025350Y0038615D01*
X0025350Y0030709D01*
X0025350Y0034662D02*
X0027986Y0034662D01*
X0041186Y0038615D02*
X0041186Y0039933D01*
D12*
X0016269Y0075861D02*
X0013200Y0075861D01*
X0012735Y0085326D02*
X0012735Y0088395D01*
X0014269Y0086861D02*
X0011200Y0086861D01*
X0029200Y0083395D02*
X0029200Y0082628D01*
X0029967Y0081861D01*
X0031502Y0081861D01*
X0032269Y0081093D01*
X0032269Y0080326D01*
X0031502Y0079559D01*
X0029967Y0079559D01*
X0029200Y0080326D01*
X0029200Y0083395D02*
X0029967Y0084163D01*
X0031502Y0084163D01*
X0032269Y0083395D01*
X0034571Y0081093D02*
X0033804Y0080326D01*
X0034571Y0079559D01*
X0036873Y0079559D01*
X0036873Y0081861D01*
X0036106Y0082628D01*
X0034571Y0082628D01*
X0034571Y0081093D02*
X0036873Y0081093D01*
X0038408Y0079559D02*
X0039175Y0079559D01*
X0039175Y0082628D01*
X0038408Y0082628D01*
X0038408Y0084163D02*
X0039942Y0084930D01*
X0042244Y0082628D02*
X0044546Y0082628D01*
X0044546Y0084163D02*
X0044546Y0079559D01*
X0042244Y0079559D01*
X0041477Y0080326D01*
X0041477Y0081861D01*
X0042244Y0082628D01*
X0046081Y0080326D02*
X0046848Y0081093D01*
X0049150Y0081093D01*
X0049150Y0081861D02*
X0049150Y0079559D01*
X0046848Y0079559D01*
X0046081Y0080326D01*
X0046848Y0082628D02*
X0048383Y0082628D01*
X0049150Y0081861D01*
X0083200Y0085861D02*
X0086269Y0085861D01*
X0116200Y0086861D02*
X0119269Y0086861D01*
X0117735Y0088395D02*
X0117735Y0085326D01*
X0145200Y0063861D02*
X0148269Y0063861D01*
X0146735Y0065395D02*
X0146735Y0062326D01*
X0175429Y0066688D02*
X0176196Y0066688D01*
X0177731Y0066688D02*
X0180800Y0066688D01*
X0180800Y0065921D02*
X0180800Y0067455D01*
X0180800Y0068990D02*
X0180800Y0070524D01*
X0180800Y0069757D02*
X0176196Y0069757D01*
X0176196Y0068990D01*
X0177731Y0066688D02*
X0177731Y0065921D01*
X0177731Y0064386D02*
X0177731Y0062084D01*
X0178498Y0061317D01*
X0180033Y0061317D01*
X0180800Y0062084D01*
X0180800Y0064386D01*
X0180033Y0059782D02*
X0179265Y0059015D01*
X0179265Y0057480D01*
X0178498Y0056713D01*
X0177731Y0057480D01*
X0177731Y0059782D01*
X0180033Y0059782D02*
X0180800Y0059015D01*
X0180800Y0056713D01*
X0180033Y0055178D02*
X0178498Y0055178D01*
X0177731Y0054411D01*
X0177731Y0052876D01*
X0178498Y0052109D01*
X0180033Y0052109D01*
X0180800Y0052876D01*
X0180800Y0054411D01*
X0180033Y0055178D01*
X0179265Y0045970D02*
X0179265Y0042901D01*
X0177731Y0042901D02*
X0177731Y0045970D01*
X0180033Y0072059D02*
X0179265Y0072826D01*
X0179265Y0075128D01*
X0178498Y0075128D02*
X0180800Y0075128D01*
X0180800Y0072826D01*
X0180033Y0072059D01*
X0177731Y0072826D02*
X0177731Y0074361D01*
X0178498Y0075128D01*
X0178498Y0076663D02*
X0177731Y0077430D01*
X0177731Y0079732D01*
X0176196Y0079732D02*
X0180800Y0079732D01*
X0180800Y0077430D01*
X0180033Y0076663D01*
X0178498Y0076663D01*
X0178498Y0081267D02*
X0180033Y0081267D01*
X0180800Y0082034D01*
X0180800Y0083569D01*
X0180033Y0084336D01*
X0178498Y0084336D01*
X0177731Y0083569D01*
X0177731Y0082034D01*
X0178498Y0081267D01*
X0177731Y0085871D02*
X0180800Y0085871D01*
X0179265Y0085871D02*
X0177731Y0087405D01*
X0177731Y0088173D01*
X0177731Y0094311D02*
X0176963Y0095079D01*
X0175429Y0095079D01*
X0175429Y0096613D02*
X0176963Y0096613D01*
X0177731Y0095846D01*
X0177731Y0098148D02*
X0177731Y0100450D01*
X0178498Y0101217D01*
X0180033Y0101217D01*
X0180800Y0100450D01*
X0180800Y0098148D01*
X0182335Y0098148D02*
X0177731Y0098148D01*
X0177731Y0102752D02*
X0177731Y0103519D01*
X0180800Y0103519D01*
X0180800Y0102752D02*
X0180800Y0104287D01*
X0180800Y0105821D02*
X0180800Y0108123D01*
X0180033Y0108890D01*
X0179265Y0108123D01*
X0179265Y0106589D01*
X0178498Y0105821D01*
X0177731Y0106589D01*
X0177731Y0108890D01*
X0178498Y0110425D02*
X0177731Y0111192D01*
X0177731Y0113494D01*
X0177731Y0115796D02*
X0177731Y0117331D01*
X0178498Y0118098D01*
X0180800Y0118098D01*
X0180800Y0115796D01*
X0180033Y0115029D01*
X0179265Y0115796D01*
X0179265Y0118098D01*
X0178498Y0119633D02*
X0178498Y0122702D01*
X0177731Y0124237D02*
X0177731Y0126539D01*
X0178498Y0127306D01*
X0180033Y0127306D01*
X0180800Y0126539D01*
X0180800Y0124237D01*
X0182335Y0124237D02*
X0177731Y0124237D01*
X0177731Y0128841D02*
X0177731Y0129608D01*
X0180800Y0129608D01*
X0180800Y0128841D02*
X0180800Y0130375D01*
X0180800Y0131910D02*
X0180800Y0134212D01*
X0180033Y0134979D01*
X0179265Y0134212D01*
X0179265Y0132677D01*
X0178498Y0131910D01*
X0177731Y0132677D01*
X0177731Y0134979D01*
X0178498Y0136514D02*
X0177731Y0137281D01*
X0177731Y0139583D01*
X0177731Y0141885D02*
X0177731Y0143420D01*
X0178498Y0144187D01*
X0180800Y0144187D01*
X0180800Y0141885D01*
X0180033Y0141118D01*
X0179265Y0141885D01*
X0179265Y0144187D01*
X0177731Y0145722D02*
X0176963Y0146489D01*
X0175429Y0146489D01*
X0175429Y0148024D02*
X0176963Y0148024D01*
X0177731Y0147257D01*
X0180800Y0139583D02*
X0180800Y0137281D01*
X0180033Y0136514D01*
X0178498Y0136514D01*
X0176196Y0129608D02*
X0175429Y0129608D01*
X0180800Y0113494D02*
X0180800Y0111192D01*
X0180033Y0110425D01*
X0178498Y0110425D01*
X0176196Y0103519D02*
X0175429Y0103519D01*
X0149269Y0031861D02*
X0146200Y0031861D01*
X0135472Y0172559D02*
X0133170Y0172559D01*
X0131635Y0172559D02*
X0130868Y0173326D01*
X0130868Y0176395D01*
X0130101Y0175628D02*
X0131635Y0175628D01*
X0133170Y0174861D02*
X0133937Y0175628D01*
X0136239Y0175628D01*
X0135472Y0174093D02*
X0133937Y0174093D01*
X0133170Y0174861D01*
X0135472Y0174093D02*
X0136239Y0173326D01*
X0135472Y0172559D01*
X0128566Y0172559D02*
X0127031Y0172559D01*
X0127799Y0172559D02*
X0127799Y0177163D01*
X0127031Y0177163D01*
X0124729Y0175628D02*
X0123195Y0175628D01*
X0122427Y0174861D01*
X0122427Y0173326D01*
X0123195Y0172559D01*
X0124729Y0172559D01*
X0125497Y0173326D01*
X0125497Y0174861D01*
X0124729Y0175628D01*
X0120893Y0175628D02*
X0119358Y0172559D01*
X0117824Y0175628D01*
X0111685Y0176395D02*
X0111685Y0173326D01*
X0110918Y0172559D01*
X0109383Y0172559D01*
X0108616Y0173326D01*
X0109383Y0174861D02*
X0108616Y0175628D01*
X0108616Y0176395D01*
X0109383Y0177163D01*
X0110918Y0177163D01*
X0111685Y0176395D01*
X0111685Y0174861D02*
X0109383Y0174861D01*
X0102477Y0174861D02*
X0102477Y0172559D01*
X0100175Y0172559D01*
X0099408Y0173326D01*
X0100175Y0174093D01*
X0102477Y0174093D01*
X0102477Y0174861D02*
X0101710Y0175628D01*
X0100175Y0175628D01*
X0101710Y0177163D02*
X0100175Y0177930D01*
X0093269Y0177163D02*
X0090200Y0177163D01*
X0090200Y0174861D01*
X0091735Y0175628D01*
X0092502Y0175628D01*
X0093269Y0174861D01*
X0093269Y0173326D01*
X0092502Y0172559D01*
X0090967Y0172559D01*
X0090200Y0173326D01*
X0103700Y0185576D02*
X0104217Y0185059D01*
X0104734Y0185059D01*
X0105251Y0185576D01*
X0105251Y0188161D01*
X0104734Y0188161D02*
X0105768Y0188161D01*
X0106923Y0187644D02*
X0107440Y0188161D01*
X0108474Y0188161D01*
X0108991Y0187644D01*
X0108991Y0187127D01*
X0108474Y0186610D01*
X0108991Y0186093D01*
X0108991Y0185576D01*
X0108474Y0185059D01*
X0107440Y0185059D01*
X0106923Y0185576D01*
X0107957Y0186610D02*
X0108474Y0186610D01*
X0093635Y0199861D02*
X0090566Y0199861D01*
X0084427Y0199861D02*
X0083660Y0200628D01*
X0082125Y0200628D01*
X0081358Y0199861D01*
X0081358Y0198326D01*
X0082125Y0197559D01*
X0083660Y0197559D01*
X0084427Y0198326D01*
X0084427Y0199861D01*
X0079824Y0200628D02*
X0078289Y0197559D01*
X0076754Y0200628D01*
X0074452Y0200628D02*
X0074452Y0197559D01*
X0073685Y0197559D02*
X0075220Y0197559D01*
X0072150Y0197559D02*
X0071383Y0198326D01*
X0071383Y0201395D01*
X0070616Y0200628D02*
X0072150Y0200628D01*
X0073685Y0200628D02*
X0074452Y0200628D01*
X0074452Y0202163D02*
X0074452Y0202930D01*
X0069081Y0199861D02*
X0069081Y0197559D01*
X0066779Y0197559D01*
X0066012Y0198326D01*
X0066779Y0199093D01*
X0069081Y0199093D01*
X0069081Y0199861D02*
X0068314Y0200628D01*
X0066779Y0200628D01*
X0064477Y0200628D02*
X0064477Y0196791D01*
X0063710Y0196024D01*
X0062942Y0196024D01*
X0062175Y0197559D02*
X0064477Y0197559D01*
X0062175Y0197559D02*
X0061408Y0198326D01*
X0061408Y0199861D01*
X0062175Y0200628D01*
X0064477Y0200628D01*
X0059873Y0199861D02*
X0059873Y0199093D01*
X0056804Y0199093D01*
X0056804Y0198326D02*
X0056804Y0199861D01*
X0057571Y0200628D01*
X0059106Y0200628D01*
X0059873Y0199861D01*
X0059106Y0197559D02*
X0057571Y0197559D01*
X0056804Y0198326D01*
X0055269Y0197559D02*
X0055269Y0202163D01*
X0052200Y0202163D02*
X0052200Y0197559D01*
X0055269Y0197559D02*
X0052200Y0202163D01*
X0128200Y0199861D02*
X0131269Y0199861D01*
X0129735Y0201395D02*
X0129735Y0198326D01*
X0137408Y0197559D02*
X0137408Y0202163D01*
X0139710Y0202163D01*
X0140477Y0201395D01*
X0140477Y0199861D01*
X0139710Y0199093D01*
X0137408Y0199093D01*
X0142012Y0198326D02*
X0142779Y0197559D01*
X0144314Y0197559D01*
X0145081Y0198326D01*
X0145081Y0199861D01*
X0144314Y0200628D01*
X0142779Y0200628D01*
X0142012Y0199861D01*
X0142012Y0198326D01*
X0146616Y0197559D02*
X0148918Y0197559D01*
X0149685Y0198326D01*
X0148918Y0199093D01*
X0147383Y0199093D01*
X0146616Y0199861D01*
X0147383Y0200628D01*
X0149685Y0200628D01*
X0151220Y0200628D02*
X0151987Y0200628D01*
X0151987Y0197559D01*
X0151220Y0197559D02*
X0152754Y0197559D01*
X0155056Y0198326D02*
X0155824Y0197559D01*
X0155056Y0198326D02*
X0155056Y0201395D01*
X0154289Y0200628D02*
X0155824Y0200628D01*
X0157358Y0200628D02*
X0158125Y0200628D01*
X0158125Y0197559D01*
X0157358Y0197559D02*
X0158893Y0197559D01*
X0161962Y0197559D02*
X0160427Y0200628D01*
X0158125Y0202163D02*
X0158125Y0202930D01*
X0163497Y0200628D02*
X0161962Y0197559D01*
X0165031Y0198326D02*
X0165799Y0197559D01*
X0167333Y0197559D01*
X0168101Y0198326D01*
X0168101Y0199861D01*
X0167333Y0200628D01*
X0165799Y0200628D01*
X0165031Y0199861D01*
X0165031Y0198326D01*
X0151987Y0202163D02*
X0151987Y0202930D01*
D13*
X0150500Y0156859D02*
X0143500Y0156859D01*
X0143440Y0156857D01*
X0143379Y0156852D01*
X0143320Y0156843D01*
X0143261Y0156830D01*
X0143202Y0156814D01*
X0143145Y0156794D01*
X0143090Y0156771D01*
X0143035Y0156744D01*
X0142983Y0156715D01*
X0142932Y0156682D01*
X0142883Y0156646D01*
X0142837Y0156608D01*
X0142793Y0156566D01*
X0142751Y0156522D01*
X0142713Y0156476D01*
X0142677Y0156427D01*
X0142644Y0156376D01*
X0142615Y0156324D01*
X0142588Y0156269D01*
X0142565Y0156214D01*
X0142545Y0156157D01*
X0142529Y0156098D01*
X0142516Y0156039D01*
X0142507Y0155980D01*
X0142502Y0155919D01*
X0142500Y0155859D01*
X0142500Y0154359D01*
X0143000Y0153859D01*
X0143000Y0134859D01*
X0142500Y0134359D01*
X0142500Y0132859D01*
X0142502Y0132799D01*
X0142507Y0132738D01*
X0142516Y0132679D01*
X0142529Y0132620D01*
X0142545Y0132561D01*
X0142565Y0132504D01*
X0142588Y0132449D01*
X0142615Y0132394D01*
X0142644Y0132342D01*
X0142677Y0132291D01*
X0142713Y0132242D01*
X0142751Y0132196D01*
X0142793Y0132152D01*
X0142837Y0132110D01*
X0142883Y0132072D01*
X0142932Y0132036D01*
X0142983Y0132003D01*
X0143035Y0131974D01*
X0143090Y0131947D01*
X0143145Y0131924D01*
X0143202Y0131904D01*
X0143261Y0131888D01*
X0143320Y0131875D01*
X0143379Y0131866D01*
X0143440Y0131861D01*
X0143500Y0131859D01*
X0150500Y0131859D01*
X0150560Y0131861D01*
X0150621Y0131866D01*
X0150680Y0131875D01*
X0150739Y0131888D01*
X0150798Y0131904D01*
X0150855Y0131924D01*
X0150910Y0131947D01*
X0150965Y0131974D01*
X0151017Y0132003D01*
X0151068Y0132036D01*
X0151117Y0132072D01*
X0151163Y0132110D01*
X0151207Y0132152D01*
X0151249Y0132196D01*
X0151287Y0132242D01*
X0151323Y0132291D01*
X0151356Y0132342D01*
X0151385Y0132394D01*
X0151412Y0132449D01*
X0151435Y0132504D01*
X0151455Y0132561D01*
X0151471Y0132620D01*
X0151484Y0132679D01*
X0151493Y0132738D01*
X0151498Y0132799D01*
X0151500Y0132859D01*
X0151500Y0134359D01*
X0151000Y0134859D01*
X0151000Y0153859D01*
X0151500Y0154359D01*
X0151500Y0155859D01*
X0151498Y0155919D01*
X0151493Y0155980D01*
X0151484Y0156039D01*
X0151471Y0156098D01*
X0151455Y0156157D01*
X0151435Y0156214D01*
X0151412Y0156269D01*
X0151385Y0156324D01*
X0151356Y0156376D01*
X0151323Y0156427D01*
X0151287Y0156476D01*
X0151249Y0156522D01*
X0151207Y0156566D01*
X0151163Y0156608D01*
X0151117Y0156646D01*
X0151068Y0156682D01*
X0151017Y0156715D01*
X0150965Y0156744D01*
X0150910Y0156771D01*
X0150855Y0156794D01*
X0150798Y0156814D01*
X0150739Y0156830D01*
X0150680Y0156843D01*
X0150621Y0156852D01*
X0150560Y0156857D01*
X0150500Y0156859D01*
X0125570Y0136997D02*
X0125570Y0135929D01*
X0124503Y0134861D01*
X0122368Y0134861D01*
X0121300Y0135929D01*
X0121300Y0136997D01*
X0122368Y0138064D01*
X0124503Y0138064D01*
X0125570Y0136997D01*
X0124503Y0134861D02*
X0125570Y0133794D01*
X0125570Y0132726D01*
X0124503Y0131659D01*
X0122368Y0131659D01*
X0121300Y0132726D01*
X0121300Y0133794D01*
X0122368Y0134861D01*
X0112500Y0139359D02*
X0105000Y0139359D01*
X0104998Y0139233D01*
X0104992Y0139108D01*
X0104982Y0138983D01*
X0104968Y0138858D01*
X0104951Y0138733D01*
X0104929Y0138609D01*
X0104904Y0138486D01*
X0104874Y0138364D01*
X0104841Y0138243D01*
X0104804Y0138123D01*
X0104764Y0138004D01*
X0104719Y0137887D01*
X0104671Y0137770D01*
X0104619Y0137656D01*
X0104564Y0137543D01*
X0104505Y0137432D01*
X0104443Y0137323D01*
X0104377Y0137216D01*
X0104308Y0137111D01*
X0104236Y0137008D01*
X0104161Y0136907D01*
X0104082Y0136809D01*
X0104000Y0136714D01*
X0103916Y0136621D01*
X0103828Y0136531D01*
X0103738Y0136443D01*
X0103645Y0136359D01*
X0103550Y0136277D01*
X0103452Y0136198D01*
X0103351Y0136123D01*
X0103248Y0136051D01*
X0103143Y0135982D01*
X0103036Y0135916D01*
X0102927Y0135854D01*
X0102816Y0135795D01*
X0102703Y0135740D01*
X0102589Y0135688D01*
X0102472Y0135640D01*
X0102355Y0135595D01*
X0102236Y0135555D01*
X0102116Y0135518D01*
X0101995Y0135485D01*
X0101873Y0135455D01*
X0101750Y0135430D01*
X0101626Y0135408D01*
X0101501Y0135391D01*
X0101376Y0135377D01*
X0101251Y0135367D01*
X0101126Y0135361D01*
X0101000Y0135359D01*
X0100874Y0135361D01*
X0100749Y0135367D01*
X0100624Y0135377D01*
X0100499Y0135391D01*
X0100374Y0135408D01*
X0100250Y0135430D01*
X0100127Y0135455D01*
X0100005Y0135485D01*
X0099884Y0135518D01*
X0099764Y0135555D01*
X0099645Y0135595D01*
X0099528Y0135640D01*
X0099411Y0135688D01*
X0099297Y0135740D01*
X0099184Y0135795D01*
X0099073Y0135854D01*
X0098964Y0135916D01*
X0098857Y0135982D01*
X0098752Y0136051D01*
X0098649Y0136123D01*
X0098548Y0136198D01*
X0098450Y0136277D01*
X0098355Y0136359D01*
X0098262Y0136443D01*
X0098172Y0136531D01*
X0098084Y0136621D01*
X0098000Y0136714D01*
X0097918Y0136809D01*
X0097839Y0136907D01*
X0097764Y0137008D01*
X0097692Y0137111D01*
X0097623Y0137216D01*
X0097557Y0137323D01*
X0097495Y0137432D01*
X0097436Y0137543D01*
X0097381Y0137656D01*
X0097329Y0137770D01*
X0097281Y0137887D01*
X0097236Y0138004D01*
X0097196Y0138123D01*
X0097159Y0138243D01*
X0097126Y0138364D01*
X0097096Y0138486D01*
X0097071Y0138609D01*
X0097049Y0138733D01*
X0097032Y0138858D01*
X0097018Y0138983D01*
X0097008Y0139108D01*
X0097002Y0139233D01*
X0097000Y0139359D01*
X0089500Y0139359D01*
X0089500Y0099359D01*
X0112500Y0099359D01*
X0112500Y0139359D01*
X0081570Y0131659D02*
X0077300Y0131659D01*
X0079435Y0131659D02*
X0079435Y0138064D01*
X0077300Y0135929D01*
X0067500Y0118859D02*
X0066000Y0118859D01*
X0065500Y0118359D01*
X0046500Y0118359D01*
X0046000Y0118859D01*
X0044500Y0118859D01*
X0044440Y0118857D01*
X0044379Y0118852D01*
X0044320Y0118843D01*
X0044261Y0118830D01*
X0044202Y0118814D01*
X0044145Y0118794D01*
X0044090Y0118771D01*
X0044035Y0118744D01*
X0043983Y0118715D01*
X0043932Y0118682D01*
X0043883Y0118646D01*
X0043837Y0118608D01*
X0043793Y0118566D01*
X0043751Y0118522D01*
X0043713Y0118476D01*
X0043677Y0118427D01*
X0043644Y0118376D01*
X0043615Y0118324D01*
X0043588Y0118269D01*
X0043565Y0118214D01*
X0043545Y0118157D01*
X0043529Y0118098D01*
X0043516Y0118039D01*
X0043507Y0117980D01*
X0043502Y0117919D01*
X0043500Y0117859D01*
X0043500Y0110859D01*
X0043502Y0110799D01*
X0043507Y0110738D01*
X0043516Y0110679D01*
X0043529Y0110620D01*
X0043545Y0110561D01*
X0043565Y0110504D01*
X0043588Y0110449D01*
X0043615Y0110394D01*
X0043644Y0110342D01*
X0043677Y0110291D01*
X0043713Y0110242D01*
X0043751Y0110196D01*
X0043793Y0110152D01*
X0043837Y0110110D01*
X0043883Y0110072D01*
X0043932Y0110036D01*
X0043983Y0110003D01*
X0044035Y0109974D01*
X0044090Y0109947D01*
X0044145Y0109924D01*
X0044202Y0109904D01*
X0044261Y0109888D01*
X0044320Y0109875D01*
X0044379Y0109866D01*
X0044440Y0109861D01*
X0044500Y0109859D01*
X0046000Y0109859D01*
X0046500Y0110359D01*
X0065500Y0110359D01*
X0066000Y0109859D01*
X0067500Y0109859D01*
X0067560Y0109861D01*
X0067621Y0109866D01*
X0067680Y0109875D01*
X0067739Y0109888D01*
X0067798Y0109904D01*
X0067855Y0109924D01*
X0067910Y0109947D01*
X0067965Y0109974D01*
X0068017Y0110003D01*
X0068068Y0110036D01*
X0068117Y0110072D01*
X0068163Y0110110D01*
X0068207Y0110152D01*
X0068249Y0110196D01*
X0068287Y0110242D01*
X0068323Y0110291D01*
X0068356Y0110342D01*
X0068385Y0110394D01*
X0068412Y0110449D01*
X0068435Y0110504D01*
X0068455Y0110561D01*
X0068471Y0110620D01*
X0068484Y0110679D01*
X0068493Y0110738D01*
X0068498Y0110799D01*
X0068500Y0110859D01*
X0068500Y0117859D01*
X0068498Y0117919D01*
X0068493Y0117980D01*
X0068484Y0118039D01*
X0068471Y0118098D01*
X0068455Y0118157D01*
X0068435Y0118214D01*
X0068412Y0118269D01*
X0068385Y0118324D01*
X0068356Y0118376D01*
X0068323Y0118427D01*
X0068287Y0118476D01*
X0068249Y0118522D01*
X0068207Y0118566D01*
X0068163Y0118608D01*
X0068117Y0118646D01*
X0068068Y0118682D01*
X0068017Y0118715D01*
X0067965Y0118744D01*
X0067910Y0118771D01*
X0067855Y0118794D01*
X0067798Y0118814D01*
X0067739Y0118830D01*
X0067680Y0118843D01*
X0067621Y0118852D01*
X0067560Y0118857D01*
X0067500Y0118859D01*
X0079503Y0107064D02*
X0076300Y0103861D01*
X0080570Y0103861D01*
X0079503Y0100659D02*
X0079503Y0107064D01*
X0094500Y0090859D02*
X0107500Y0090859D01*
X0106000Y0086359D02*
X0102200Y0086359D01*
X0099700Y0086359D02*
X0096000Y0086359D01*
X0094500Y0081859D02*
X0107500Y0081859D01*
X0122368Y0100659D02*
X0121300Y0101726D01*
X0122368Y0100659D02*
X0124503Y0100659D01*
X0125570Y0101726D01*
X0125570Y0103861D01*
X0124503Y0104929D01*
X0123435Y0104929D01*
X0121300Y0103861D01*
X0121300Y0107064D01*
X0125570Y0107064D01*
X0142500Y0102859D02*
X0142500Y0101359D01*
X0143000Y0100859D01*
X0143000Y0081859D01*
X0142500Y0081359D01*
X0142500Y0079859D01*
X0142502Y0079799D01*
X0142507Y0079738D01*
X0142516Y0079679D01*
X0142529Y0079620D01*
X0142545Y0079561D01*
X0142565Y0079504D01*
X0142588Y0079449D01*
X0142615Y0079394D01*
X0142644Y0079342D01*
X0142677Y0079291D01*
X0142713Y0079242D01*
X0142751Y0079196D01*
X0142793Y0079152D01*
X0142837Y0079110D01*
X0142883Y0079072D01*
X0142932Y0079036D01*
X0142983Y0079003D01*
X0143035Y0078974D01*
X0143090Y0078947D01*
X0143145Y0078924D01*
X0143202Y0078904D01*
X0143261Y0078888D01*
X0143320Y0078875D01*
X0143379Y0078866D01*
X0143440Y0078861D01*
X0143500Y0078859D01*
X0150500Y0078859D01*
X0150560Y0078861D01*
X0150621Y0078866D01*
X0150680Y0078875D01*
X0150739Y0078888D01*
X0150798Y0078904D01*
X0150855Y0078924D01*
X0150910Y0078947D01*
X0150965Y0078974D01*
X0151017Y0079003D01*
X0151068Y0079036D01*
X0151117Y0079072D01*
X0151163Y0079110D01*
X0151207Y0079152D01*
X0151249Y0079196D01*
X0151287Y0079242D01*
X0151323Y0079291D01*
X0151356Y0079342D01*
X0151385Y0079394D01*
X0151412Y0079449D01*
X0151435Y0079504D01*
X0151455Y0079561D01*
X0151471Y0079620D01*
X0151484Y0079679D01*
X0151493Y0079738D01*
X0151498Y0079799D01*
X0151500Y0079859D01*
X0151500Y0081359D01*
X0151000Y0081859D01*
X0151000Y0100859D01*
X0151500Y0101359D01*
X0151500Y0102859D01*
X0151498Y0102919D01*
X0151493Y0102980D01*
X0151484Y0103039D01*
X0151471Y0103098D01*
X0151455Y0103157D01*
X0151435Y0103214D01*
X0151412Y0103269D01*
X0151385Y0103324D01*
X0151356Y0103376D01*
X0151323Y0103427D01*
X0151287Y0103476D01*
X0151249Y0103522D01*
X0151207Y0103566D01*
X0151163Y0103608D01*
X0151117Y0103646D01*
X0151068Y0103682D01*
X0151017Y0103715D01*
X0150965Y0103744D01*
X0150910Y0103771D01*
X0150855Y0103794D01*
X0150798Y0103814D01*
X0150739Y0103830D01*
X0150680Y0103843D01*
X0150621Y0103852D01*
X0150560Y0103857D01*
X0150500Y0103859D01*
X0143500Y0103859D01*
X0143440Y0103857D01*
X0143379Y0103852D01*
X0143320Y0103843D01*
X0143261Y0103830D01*
X0143202Y0103814D01*
X0143145Y0103794D01*
X0143090Y0103771D01*
X0143035Y0103744D01*
X0142983Y0103715D01*
X0142932Y0103682D01*
X0142883Y0103646D01*
X0142837Y0103608D01*
X0142793Y0103566D01*
X0142751Y0103522D01*
X0142713Y0103476D01*
X0142677Y0103427D01*
X0142644Y0103376D01*
X0142615Y0103324D01*
X0142588Y0103269D01*
X0142565Y0103214D01*
X0142545Y0103157D01*
X0142529Y0103098D01*
X0142516Y0103039D01*
X0142507Y0102980D01*
X0142502Y0102919D01*
X0142500Y0102859D01*
X0142500Y0054859D02*
X0142500Y0041859D01*
X0147000Y0043359D02*
X0147000Y0047059D01*
X0147000Y0049559D02*
X0147000Y0053359D01*
X0151500Y0054859D02*
X0151500Y0041859D01*
X0007000Y0114359D02*
X0007003Y0114604D01*
X0007012Y0114850D01*
X0007027Y0115095D01*
X0007048Y0115339D01*
X0007075Y0115583D01*
X0007108Y0115826D01*
X0007147Y0116069D01*
X0007192Y0116310D01*
X0007243Y0116550D01*
X0007300Y0116789D01*
X0007362Y0117026D01*
X0007431Y0117262D01*
X0007505Y0117496D01*
X0007585Y0117728D01*
X0007670Y0117958D01*
X0007761Y0118186D01*
X0007858Y0118411D01*
X0007960Y0118635D01*
X0008068Y0118855D01*
X0008181Y0119073D01*
X0008299Y0119288D01*
X0008423Y0119500D01*
X0008551Y0119709D01*
X0008685Y0119915D01*
X0008824Y0120117D01*
X0008968Y0120316D01*
X0009117Y0120511D01*
X0009270Y0120703D01*
X0009428Y0120891D01*
X0009590Y0121075D01*
X0009758Y0121254D01*
X0009929Y0121430D01*
X0010105Y0121601D01*
X0010284Y0121769D01*
X0010468Y0121931D01*
X0010656Y0122089D01*
X0010848Y0122242D01*
X0011043Y0122391D01*
X0011242Y0122535D01*
X0011444Y0122674D01*
X0011650Y0122808D01*
X0011859Y0122936D01*
X0012071Y0123060D01*
X0012286Y0123178D01*
X0012504Y0123291D01*
X0012724Y0123399D01*
X0012948Y0123501D01*
X0013173Y0123598D01*
X0013401Y0123689D01*
X0013631Y0123774D01*
X0013863Y0123854D01*
X0014097Y0123928D01*
X0014333Y0123997D01*
X0014570Y0124059D01*
X0014809Y0124116D01*
X0015049Y0124167D01*
X0015290Y0124212D01*
X0015533Y0124251D01*
X0015776Y0124284D01*
X0016020Y0124311D01*
X0016264Y0124332D01*
X0016509Y0124347D01*
X0016755Y0124356D01*
X0017000Y0124359D01*
X0017245Y0124356D01*
X0017491Y0124347D01*
X0017736Y0124332D01*
X0017980Y0124311D01*
X0018224Y0124284D01*
X0018467Y0124251D01*
X0018710Y0124212D01*
X0018951Y0124167D01*
X0019191Y0124116D01*
X0019430Y0124059D01*
X0019667Y0123997D01*
X0019903Y0123928D01*
X0020137Y0123854D01*
X0020369Y0123774D01*
X0020599Y0123689D01*
X0020827Y0123598D01*
X0021052Y0123501D01*
X0021276Y0123399D01*
X0021496Y0123291D01*
X0021714Y0123178D01*
X0021929Y0123060D01*
X0022141Y0122936D01*
X0022350Y0122808D01*
X0022556Y0122674D01*
X0022758Y0122535D01*
X0022957Y0122391D01*
X0023152Y0122242D01*
X0023344Y0122089D01*
X0023532Y0121931D01*
X0023716Y0121769D01*
X0023895Y0121601D01*
X0024071Y0121430D01*
X0024242Y0121254D01*
X0024410Y0121075D01*
X0024572Y0120891D01*
X0024730Y0120703D01*
X0024883Y0120511D01*
X0025032Y0120316D01*
X0025176Y0120117D01*
X0025315Y0119915D01*
X0025449Y0119709D01*
X0025577Y0119500D01*
X0025701Y0119288D01*
X0025819Y0119073D01*
X0025932Y0118855D01*
X0026040Y0118635D01*
X0026142Y0118411D01*
X0026239Y0118186D01*
X0026330Y0117958D01*
X0026415Y0117728D01*
X0026495Y0117496D01*
X0026569Y0117262D01*
X0026638Y0117026D01*
X0026700Y0116789D01*
X0026757Y0116550D01*
X0026808Y0116310D01*
X0026853Y0116069D01*
X0026892Y0115826D01*
X0026925Y0115583D01*
X0026952Y0115339D01*
X0026973Y0115095D01*
X0026988Y0114850D01*
X0026997Y0114604D01*
X0027000Y0114359D01*
X0026997Y0114114D01*
X0026988Y0113868D01*
X0026973Y0113623D01*
X0026952Y0113379D01*
X0026925Y0113135D01*
X0026892Y0112892D01*
X0026853Y0112649D01*
X0026808Y0112408D01*
X0026757Y0112168D01*
X0026700Y0111929D01*
X0026638Y0111692D01*
X0026569Y0111456D01*
X0026495Y0111222D01*
X0026415Y0110990D01*
X0026330Y0110760D01*
X0026239Y0110532D01*
X0026142Y0110307D01*
X0026040Y0110083D01*
X0025932Y0109863D01*
X0025819Y0109645D01*
X0025701Y0109430D01*
X0025577Y0109218D01*
X0025449Y0109009D01*
X0025315Y0108803D01*
X0025176Y0108601D01*
X0025032Y0108402D01*
X0024883Y0108207D01*
X0024730Y0108015D01*
X0024572Y0107827D01*
X0024410Y0107643D01*
X0024242Y0107464D01*
X0024071Y0107288D01*
X0023895Y0107117D01*
X0023716Y0106949D01*
X0023532Y0106787D01*
X0023344Y0106629D01*
X0023152Y0106476D01*
X0022957Y0106327D01*
X0022758Y0106183D01*
X0022556Y0106044D01*
X0022350Y0105910D01*
X0022141Y0105782D01*
X0021929Y0105658D01*
X0021714Y0105540D01*
X0021496Y0105427D01*
X0021276Y0105319D01*
X0021052Y0105217D01*
X0020827Y0105120D01*
X0020599Y0105029D01*
X0020369Y0104944D01*
X0020137Y0104864D01*
X0019903Y0104790D01*
X0019667Y0104721D01*
X0019430Y0104659D01*
X0019191Y0104602D01*
X0018951Y0104551D01*
X0018710Y0104506D01*
X0018467Y0104467D01*
X0018224Y0104434D01*
X0017980Y0104407D01*
X0017736Y0104386D01*
X0017491Y0104371D01*
X0017245Y0104362D01*
X0017000Y0104359D01*
X0016755Y0104362D01*
X0016509Y0104371D01*
X0016264Y0104386D01*
X0016020Y0104407D01*
X0015776Y0104434D01*
X0015533Y0104467D01*
X0015290Y0104506D01*
X0015049Y0104551D01*
X0014809Y0104602D01*
X0014570Y0104659D01*
X0014333Y0104721D01*
X0014097Y0104790D01*
X0013863Y0104864D01*
X0013631Y0104944D01*
X0013401Y0105029D01*
X0013173Y0105120D01*
X0012948Y0105217D01*
X0012724Y0105319D01*
X0012504Y0105427D01*
X0012286Y0105540D01*
X0012071Y0105658D01*
X0011859Y0105782D01*
X0011650Y0105910D01*
X0011444Y0106044D01*
X0011242Y0106183D01*
X0011043Y0106327D01*
X0010848Y0106476D01*
X0010656Y0106629D01*
X0010468Y0106787D01*
X0010284Y0106949D01*
X0010105Y0107117D01*
X0009929Y0107288D01*
X0009758Y0107464D01*
X0009590Y0107643D01*
X0009428Y0107827D01*
X0009270Y0108015D01*
X0009117Y0108207D01*
X0008968Y0108402D01*
X0008824Y0108601D01*
X0008685Y0108803D01*
X0008551Y0109009D01*
X0008423Y0109218D01*
X0008299Y0109430D01*
X0008181Y0109645D01*
X0008068Y0109863D01*
X0007960Y0110083D01*
X0007858Y0110307D01*
X0007761Y0110532D01*
X0007670Y0110760D01*
X0007585Y0110990D01*
X0007505Y0111222D01*
X0007431Y0111456D01*
X0007362Y0111692D01*
X0007300Y0111929D01*
X0007243Y0112168D01*
X0007192Y0112408D01*
X0007147Y0112649D01*
X0007108Y0112892D01*
X0007075Y0113135D01*
X0007048Y0113379D01*
X0007027Y0113623D01*
X0007012Y0113868D01*
X0007003Y0114114D01*
X0007000Y0114359D01*
D14*
X0094471Y0091128D02*
X0094471Y0090588D01*
X0094470Y0090589D02*
X0094390Y0090585D01*
X0094309Y0090578D01*
X0094230Y0090568D01*
X0094150Y0090553D01*
X0094072Y0090535D01*
X0093994Y0090513D01*
X0093918Y0090488D01*
X0093843Y0090459D01*
X0093769Y0090427D01*
X0093697Y0090391D01*
X0093626Y0090352D01*
X0093558Y0090310D01*
X0093491Y0090265D01*
X0093427Y0090216D01*
X0093365Y0090165D01*
X0093306Y0090110D01*
X0093249Y0090053D01*
X0093194Y0089994D01*
X0093143Y0089932D01*
X0093094Y0089868D01*
X0093049Y0089801D01*
X0093007Y0089733D01*
X0092968Y0089662D01*
X0092932Y0089590D01*
X0092900Y0089516D01*
X0092871Y0089441D01*
X0092846Y0089365D01*
X0092824Y0089287D01*
X0092806Y0089209D01*
X0092791Y0089129D01*
X0092781Y0089050D01*
X0092774Y0088969D01*
X0092770Y0088889D01*
X0092231Y0088888D01*
X0092230Y0088889D01*
X0092233Y0088984D01*
X0092241Y0089078D01*
X0092252Y0089172D01*
X0092267Y0089266D01*
X0092286Y0089359D01*
X0092308Y0089451D01*
X0092335Y0089542D01*
X0092365Y0089631D01*
X0092399Y0089720D01*
X0092437Y0089807D01*
X0092479Y0089892D01*
X0092523Y0089975D01*
X0092572Y0090057D01*
X0092623Y0090136D01*
X0092678Y0090213D01*
X0092736Y0090288D01*
X0092798Y0090361D01*
X0092862Y0090430D01*
X0092929Y0090497D01*
X0092998Y0090561D01*
X0093071Y0090623D01*
X0093146Y0090681D01*
X0093223Y0090736D01*
X0093302Y0090787D01*
X0093384Y0090836D01*
X0093467Y0090880D01*
X0093552Y0090922D01*
X0093639Y0090960D01*
X0093728Y0090994D01*
X0093817Y0091024D01*
X0093908Y0091051D01*
X0094000Y0091073D01*
X0094093Y0091092D01*
X0094187Y0091107D01*
X0094281Y0091118D01*
X0094375Y0091126D01*
X0094470Y0091129D01*
X0094470Y0091073D01*
X0094378Y0091070D01*
X0094286Y0091063D01*
X0094194Y0091052D01*
X0094103Y0091037D01*
X0094012Y0091019D01*
X0093923Y0090996D01*
X0093834Y0090970D01*
X0093746Y0090941D01*
X0093660Y0090908D01*
X0093576Y0090871D01*
X0093492Y0090830D01*
X0093411Y0090787D01*
X0093332Y0090740D01*
X0093254Y0090689D01*
X0093179Y0090636D01*
X0093106Y0090579D01*
X0093035Y0090519D01*
X0092967Y0090457D01*
X0092902Y0090392D01*
X0092840Y0090324D01*
X0092780Y0090253D01*
X0092723Y0090180D01*
X0092670Y0090105D01*
X0092619Y0090027D01*
X0092572Y0089948D01*
X0092529Y0089867D01*
X0092488Y0089783D01*
X0092451Y0089699D01*
X0092418Y0089613D01*
X0092389Y0089525D01*
X0092363Y0089436D01*
X0092340Y0089347D01*
X0092322Y0089256D01*
X0092307Y0089165D01*
X0092296Y0089073D01*
X0092289Y0088981D01*
X0092286Y0088889D01*
X0092342Y0088889D01*
X0092345Y0088981D01*
X0092353Y0089074D01*
X0092364Y0089165D01*
X0092379Y0089257D01*
X0092398Y0089347D01*
X0092421Y0089437D01*
X0092447Y0089525D01*
X0092478Y0089613D01*
X0092512Y0089699D01*
X0092550Y0089783D01*
X0092591Y0089866D01*
X0092636Y0089947D01*
X0092684Y0090026D01*
X0092736Y0090102D01*
X0092791Y0090177D01*
X0092849Y0090249D01*
X0092910Y0090318D01*
X0092974Y0090385D01*
X0093041Y0090449D01*
X0093110Y0090510D01*
X0093182Y0090568D01*
X0093257Y0090623D01*
X0093333Y0090675D01*
X0093412Y0090723D01*
X0093493Y0090768D01*
X0093576Y0090809D01*
X0093660Y0090847D01*
X0093746Y0090881D01*
X0093834Y0090912D01*
X0093922Y0090938D01*
X0094012Y0090961D01*
X0094102Y0090980D01*
X0094194Y0090995D01*
X0094285Y0091006D01*
X0094378Y0091014D01*
X0094470Y0091017D01*
X0094470Y0090961D01*
X0094380Y0090958D01*
X0094290Y0090951D01*
X0094201Y0090940D01*
X0094112Y0090925D01*
X0094024Y0090906D01*
X0093937Y0090884D01*
X0093850Y0090858D01*
X0093765Y0090828D01*
X0093682Y0090795D01*
X0093600Y0090758D01*
X0093519Y0090718D01*
X0093440Y0090674D01*
X0093364Y0090627D01*
X0093289Y0090577D01*
X0093216Y0090524D01*
X0093146Y0090467D01*
X0093079Y0090408D01*
X0093014Y0090345D01*
X0092951Y0090280D01*
X0092892Y0090213D01*
X0092835Y0090143D01*
X0092782Y0090070D01*
X0092732Y0089995D01*
X0092685Y0089919D01*
X0092641Y0089840D01*
X0092601Y0089759D01*
X0092564Y0089677D01*
X0092531Y0089594D01*
X0092501Y0089509D01*
X0092475Y0089422D01*
X0092453Y0089335D01*
X0092434Y0089247D01*
X0092419Y0089158D01*
X0092408Y0089069D01*
X0092401Y0088979D01*
X0092398Y0088889D01*
X0092454Y0088889D01*
X0092457Y0088977D01*
X0092464Y0089064D01*
X0092475Y0089151D01*
X0092489Y0089237D01*
X0092507Y0089323D01*
X0092529Y0089408D01*
X0092554Y0089492D01*
X0092583Y0089574D01*
X0092616Y0089656D01*
X0092651Y0089736D01*
X0092691Y0089814D01*
X0092733Y0089891D01*
X0092779Y0089965D01*
X0092828Y0090038D01*
X0092880Y0090108D01*
X0092935Y0090177D01*
X0092993Y0090242D01*
X0093053Y0090306D01*
X0093117Y0090366D01*
X0093182Y0090424D01*
X0093251Y0090479D01*
X0093321Y0090531D01*
X0093394Y0090580D01*
X0093468Y0090626D01*
X0093545Y0090668D01*
X0093623Y0090708D01*
X0093703Y0090743D01*
X0093785Y0090776D01*
X0093867Y0090805D01*
X0093951Y0090830D01*
X0094036Y0090852D01*
X0094122Y0090870D01*
X0094208Y0090884D01*
X0094295Y0090895D01*
X0094382Y0090902D01*
X0094470Y0090905D01*
X0094470Y0090849D01*
X0094382Y0090846D01*
X0094295Y0090838D01*
X0094208Y0090827D01*
X0094122Y0090813D01*
X0094036Y0090794D01*
X0093952Y0090772D01*
X0093868Y0090746D01*
X0093786Y0090716D01*
X0093705Y0090683D01*
X0093625Y0090646D01*
X0093547Y0090606D01*
X0093471Y0090562D01*
X0093397Y0090516D01*
X0093325Y0090465D01*
X0093256Y0090412D01*
X0093189Y0090356D01*
X0093124Y0090297D01*
X0093062Y0090235D01*
X0093003Y0090170D01*
X0092947Y0090103D01*
X0092894Y0090034D01*
X0092843Y0089962D01*
X0092797Y0089888D01*
X0092753Y0089812D01*
X0092713Y0089734D01*
X0092676Y0089654D01*
X0092643Y0089573D01*
X0092613Y0089491D01*
X0092587Y0089407D01*
X0092565Y0089323D01*
X0092546Y0089237D01*
X0092532Y0089151D01*
X0092521Y0089064D01*
X0092513Y0088977D01*
X0092510Y0088889D01*
X0092566Y0088889D01*
X0092569Y0088974D01*
X0092576Y0089059D01*
X0092587Y0089143D01*
X0092601Y0089227D01*
X0092619Y0089310D01*
X0092641Y0089392D01*
X0092666Y0089474D01*
X0092695Y0089554D01*
X0092727Y0089632D01*
X0092763Y0089710D01*
X0092802Y0089785D01*
X0092845Y0089859D01*
X0092890Y0089931D01*
X0092939Y0090001D01*
X0092991Y0090068D01*
X0093045Y0090133D01*
X0093103Y0090196D01*
X0093163Y0090256D01*
X0093226Y0090314D01*
X0093291Y0090368D01*
X0093358Y0090420D01*
X0093428Y0090469D01*
X0093500Y0090514D01*
X0093574Y0090557D01*
X0093649Y0090596D01*
X0093727Y0090632D01*
X0093805Y0090664D01*
X0093885Y0090693D01*
X0093967Y0090718D01*
X0094049Y0090740D01*
X0094132Y0090758D01*
X0094216Y0090772D01*
X0094300Y0090783D01*
X0094385Y0090790D01*
X0094470Y0090793D01*
X0094470Y0090737D01*
X0094385Y0090733D01*
X0094300Y0090726D01*
X0094216Y0090715D01*
X0094132Y0090701D01*
X0094049Y0090682D01*
X0093967Y0090660D01*
X0093886Y0090634D01*
X0093807Y0090604D01*
X0093729Y0090571D01*
X0093652Y0090535D01*
X0093577Y0090494D01*
X0093504Y0090451D01*
X0093433Y0090404D01*
X0093364Y0090354D01*
X0093298Y0090302D01*
X0093233Y0090246D01*
X0093172Y0090187D01*
X0093113Y0090126D01*
X0093057Y0090061D01*
X0093005Y0089995D01*
X0092955Y0089926D01*
X0092908Y0089855D01*
X0092865Y0089782D01*
X0092824Y0089707D01*
X0092788Y0089630D01*
X0092755Y0089552D01*
X0092725Y0089473D01*
X0092699Y0089392D01*
X0092677Y0089310D01*
X0092658Y0089227D01*
X0092644Y0089143D01*
X0092633Y0089059D01*
X0092626Y0088974D01*
X0092622Y0088889D01*
X0092678Y0088889D01*
X0092681Y0088971D01*
X0092688Y0089053D01*
X0092699Y0089135D01*
X0092713Y0089216D01*
X0092731Y0089297D01*
X0092753Y0089376D01*
X0092778Y0089455D01*
X0092807Y0089532D01*
X0092839Y0089608D01*
X0092875Y0089682D01*
X0092913Y0089755D01*
X0092956Y0089826D01*
X0093001Y0089894D01*
X0093049Y0089961D01*
X0093101Y0090026D01*
X0093155Y0090088D01*
X0093212Y0090147D01*
X0093271Y0090204D01*
X0093333Y0090258D01*
X0093398Y0090310D01*
X0093465Y0090358D01*
X0093533Y0090403D01*
X0093604Y0090446D01*
X0093677Y0090484D01*
X0093751Y0090520D01*
X0093827Y0090552D01*
X0093904Y0090581D01*
X0093983Y0090606D01*
X0094062Y0090628D01*
X0094143Y0090646D01*
X0094224Y0090660D01*
X0094306Y0090671D01*
X0094388Y0090678D01*
X0094470Y0090681D01*
X0094470Y0090625D01*
X0094388Y0090621D01*
X0094306Y0090614D01*
X0094224Y0090603D01*
X0094143Y0090589D01*
X0094063Y0090570D01*
X0093984Y0090548D01*
X0093906Y0090522D01*
X0093829Y0090493D01*
X0093754Y0090460D01*
X0093680Y0090423D01*
X0093608Y0090383D01*
X0093538Y0090340D01*
X0093470Y0090294D01*
X0093405Y0090244D01*
X0093341Y0090192D01*
X0093281Y0090136D01*
X0093223Y0090078D01*
X0093167Y0090018D01*
X0093115Y0089954D01*
X0093065Y0089889D01*
X0093019Y0089821D01*
X0092976Y0089751D01*
X0092936Y0089679D01*
X0092899Y0089605D01*
X0092866Y0089530D01*
X0092837Y0089453D01*
X0092811Y0089375D01*
X0092789Y0089296D01*
X0092770Y0089216D01*
X0092756Y0089135D01*
X0092745Y0089053D01*
X0092738Y0088971D01*
X0092734Y0088889D01*
X0092231Y0083830D02*
X0092771Y0083830D01*
X0092770Y0083829D02*
X0092774Y0083749D01*
X0092781Y0083668D01*
X0092791Y0083589D01*
X0092806Y0083509D01*
X0092824Y0083431D01*
X0092846Y0083353D01*
X0092871Y0083277D01*
X0092900Y0083202D01*
X0092932Y0083128D01*
X0092968Y0083056D01*
X0093007Y0082985D01*
X0093049Y0082917D01*
X0093094Y0082850D01*
X0093143Y0082786D01*
X0093194Y0082724D01*
X0093249Y0082665D01*
X0093306Y0082608D01*
X0093365Y0082553D01*
X0093427Y0082502D01*
X0093491Y0082453D01*
X0093558Y0082408D01*
X0093626Y0082366D01*
X0093697Y0082327D01*
X0093769Y0082291D01*
X0093843Y0082259D01*
X0093918Y0082230D01*
X0093994Y0082205D01*
X0094072Y0082183D01*
X0094150Y0082165D01*
X0094230Y0082150D01*
X0094309Y0082140D01*
X0094390Y0082133D01*
X0094470Y0082129D01*
X0094471Y0081590D01*
X0094470Y0081589D01*
X0094375Y0081592D01*
X0094281Y0081600D01*
X0094187Y0081611D01*
X0094093Y0081626D01*
X0094000Y0081645D01*
X0093908Y0081667D01*
X0093817Y0081694D01*
X0093728Y0081724D01*
X0093639Y0081758D01*
X0093552Y0081796D01*
X0093467Y0081838D01*
X0093384Y0081882D01*
X0093302Y0081931D01*
X0093223Y0081982D01*
X0093146Y0082037D01*
X0093071Y0082095D01*
X0092998Y0082157D01*
X0092929Y0082221D01*
X0092862Y0082288D01*
X0092798Y0082357D01*
X0092736Y0082430D01*
X0092678Y0082505D01*
X0092623Y0082582D01*
X0092572Y0082661D01*
X0092523Y0082743D01*
X0092479Y0082826D01*
X0092437Y0082911D01*
X0092399Y0082998D01*
X0092365Y0083087D01*
X0092335Y0083176D01*
X0092308Y0083267D01*
X0092286Y0083359D01*
X0092267Y0083452D01*
X0092252Y0083546D01*
X0092241Y0083640D01*
X0092233Y0083734D01*
X0092230Y0083829D01*
X0092286Y0083829D01*
X0092289Y0083737D01*
X0092296Y0083645D01*
X0092307Y0083553D01*
X0092322Y0083462D01*
X0092340Y0083371D01*
X0092363Y0083282D01*
X0092389Y0083193D01*
X0092418Y0083105D01*
X0092451Y0083019D01*
X0092488Y0082935D01*
X0092529Y0082851D01*
X0092572Y0082770D01*
X0092619Y0082691D01*
X0092670Y0082613D01*
X0092723Y0082538D01*
X0092780Y0082465D01*
X0092840Y0082394D01*
X0092902Y0082326D01*
X0092967Y0082261D01*
X0093035Y0082199D01*
X0093106Y0082139D01*
X0093179Y0082082D01*
X0093254Y0082029D01*
X0093332Y0081978D01*
X0093411Y0081931D01*
X0093492Y0081888D01*
X0093576Y0081847D01*
X0093660Y0081810D01*
X0093746Y0081777D01*
X0093834Y0081748D01*
X0093923Y0081722D01*
X0094012Y0081699D01*
X0094103Y0081681D01*
X0094194Y0081666D01*
X0094286Y0081655D01*
X0094378Y0081648D01*
X0094470Y0081645D01*
X0094470Y0081701D01*
X0094378Y0081704D01*
X0094285Y0081712D01*
X0094194Y0081723D01*
X0094102Y0081738D01*
X0094012Y0081757D01*
X0093922Y0081780D01*
X0093834Y0081806D01*
X0093746Y0081837D01*
X0093660Y0081871D01*
X0093576Y0081909D01*
X0093493Y0081950D01*
X0093412Y0081995D01*
X0093333Y0082043D01*
X0093257Y0082095D01*
X0093182Y0082150D01*
X0093110Y0082208D01*
X0093041Y0082269D01*
X0092974Y0082333D01*
X0092910Y0082400D01*
X0092849Y0082469D01*
X0092791Y0082541D01*
X0092736Y0082616D01*
X0092684Y0082692D01*
X0092636Y0082771D01*
X0092591Y0082852D01*
X0092550Y0082935D01*
X0092512Y0083019D01*
X0092478Y0083105D01*
X0092447Y0083193D01*
X0092421Y0083281D01*
X0092398Y0083371D01*
X0092379Y0083461D01*
X0092364Y0083553D01*
X0092353Y0083644D01*
X0092345Y0083737D01*
X0092342Y0083829D01*
X0092398Y0083829D01*
X0092401Y0083739D01*
X0092408Y0083649D01*
X0092419Y0083560D01*
X0092434Y0083471D01*
X0092453Y0083383D01*
X0092475Y0083296D01*
X0092501Y0083209D01*
X0092531Y0083124D01*
X0092564Y0083041D01*
X0092601Y0082959D01*
X0092641Y0082878D01*
X0092685Y0082799D01*
X0092732Y0082723D01*
X0092782Y0082648D01*
X0092835Y0082575D01*
X0092892Y0082505D01*
X0092951Y0082438D01*
X0093014Y0082373D01*
X0093079Y0082310D01*
X0093146Y0082251D01*
X0093216Y0082194D01*
X0093289Y0082141D01*
X0093364Y0082091D01*
X0093440Y0082044D01*
X0093519Y0082000D01*
X0093600Y0081960D01*
X0093682Y0081923D01*
X0093765Y0081890D01*
X0093850Y0081860D01*
X0093937Y0081834D01*
X0094024Y0081812D01*
X0094112Y0081793D01*
X0094201Y0081778D01*
X0094290Y0081767D01*
X0094380Y0081760D01*
X0094470Y0081757D01*
X0094470Y0081813D01*
X0094382Y0081816D01*
X0094295Y0081823D01*
X0094208Y0081834D01*
X0094122Y0081848D01*
X0094036Y0081866D01*
X0093951Y0081888D01*
X0093867Y0081913D01*
X0093785Y0081942D01*
X0093703Y0081975D01*
X0093623Y0082010D01*
X0093545Y0082050D01*
X0093468Y0082092D01*
X0093394Y0082138D01*
X0093321Y0082187D01*
X0093251Y0082239D01*
X0093182Y0082294D01*
X0093117Y0082352D01*
X0093053Y0082412D01*
X0092993Y0082476D01*
X0092935Y0082541D01*
X0092880Y0082610D01*
X0092828Y0082680D01*
X0092779Y0082753D01*
X0092733Y0082827D01*
X0092691Y0082904D01*
X0092651Y0082982D01*
X0092616Y0083062D01*
X0092583Y0083144D01*
X0092554Y0083226D01*
X0092529Y0083310D01*
X0092507Y0083395D01*
X0092489Y0083481D01*
X0092475Y0083567D01*
X0092464Y0083654D01*
X0092457Y0083741D01*
X0092454Y0083829D01*
X0092510Y0083829D01*
X0092513Y0083741D01*
X0092521Y0083654D01*
X0092532Y0083567D01*
X0092546Y0083481D01*
X0092565Y0083395D01*
X0092587Y0083311D01*
X0092613Y0083227D01*
X0092643Y0083145D01*
X0092676Y0083064D01*
X0092713Y0082984D01*
X0092753Y0082906D01*
X0092797Y0082830D01*
X0092843Y0082756D01*
X0092894Y0082684D01*
X0092947Y0082615D01*
X0093003Y0082548D01*
X0093062Y0082483D01*
X0093124Y0082421D01*
X0093189Y0082362D01*
X0093256Y0082306D01*
X0093325Y0082253D01*
X0093397Y0082202D01*
X0093471Y0082156D01*
X0093547Y0082112D01*
X0093625Y0082072D01*
X0093705Y0082035D01*
X0093786Y0082002D01*
X0093868Y0081972D01*
X0093952Y0081946D01*
X0094036Y0081924D01*
X0094122Y0081905D01*
X0094208Y0081891D01*
X0094295Y0081880D01*
X0094382Y0081872D01*
X0094470Y0081869D01*
X0094470Y0081925D01*
X0094385Y0081928D01*
X0094300Y0081935D01*
X0094216Y0081946D01*
X0094132Y0081960D01*
X0094049Y0081978D01*
X0093967Y0082000D01*
X0093885Y0082025D01*
X0093805Y0082054D01*
X0093727Y0082086D01*
X0093649Y0082122D01*
X0093574Y0082161D01*
X0093500Y0082204D01*
X0093428Y0082249D01*
X0093358Y0082298D01*
X0093291Y0082350D01*
X0093226Y0082404D01*
X0093163Y0082462D01*
X0093103Y0082522D01*
X0093045Y0082585D01*
X0092991Y0082650D01*
X0092939Y0082717D01*
X0092890Y0082787D01*
X0092845Y0082859D01*
X0092802Y0082933D01*
X0092763Y0083008D01*
X0092727Y0083086D01*
X0092695Y0083164D01*
X0092666Y0083244D01*
X0092641Y0083326D01*
X0092619Y0083408D01*
X0092601Y0083491D01*
X0092587Y0083575D01*
X0092576Y0083659D01*
X0092569Y0083744D01*
X0092566Y0083829D01*
X0092622Y0083829D01*
X0092626Y0083744D01*
X0092633Y0083659D01*
X0092644Y0083575D01*
X0092658Y0083491D01*
X0092677Y0083408D01*
X0092699Y0083326D01*
X0092725Y0083245D01*
X0092755Y0083166D01*
X0092788Y0083088D01*
X0092824Y0083011D01*
X0092865Y0082936D01*
X0092908Y0082863D01*
X0092955Y0082792D01*
X0093005Y0082723D01*
X0093057Y0082657D01*
X0093113Y0082592D01*
X0093172Y0082531D01*
X0093233Y0082472D01*
X0093298Y0082416D01*
X0093364Y0082364D01*
X0093433Y0082314D01*
X0093504Y0082267D01*
X0093577Y0082224D01*
X0093652Y0082183D01*
X0093729Y0082147D01*
X0093807Y0082114D01*
X0093886Y0082084D01*
X0093967Y0082058D01*
X0094049Y0082036D01*
X0094132Y0082017D01*
X0094216Y0082003D01*
X0094300Y0081992D01*
X0094385Y0081985D01*
X0094470Y0081981D01*
X0094470Y0082037D01*
X0094388Y0082040D01*
X0094306Y0082047D01*
X0094224Y0082058D01*
X0094143Y0082072D01*
X0094062Y0082090D01*
X0093983Y0082112D01*
X0093904Y0082137D01*
X0093827Y0082166D01*
X0093751Y0082198D01*
X0093677Y0082234D01*
X0093604Y0082272D01*
X0093533Y0082315D01*
X0093465Y0082360D01*
X0093398Y0082408D01*
X0093333Y0082460D01*
X0093271Y0082514D01*
X0093212Y0082571D01*
X0093155Y0082630D01*
X0093101Y0082692D01*
X0093049Y0082757D01*
X0093001Y0082824D01*
X0092956Y0082892D01*
X0092913Y0082963D01*
X0092875Y0083036D01*
X0092839Y0083110D01*
X0092807Y0083186D01*
X0092778Y0083263D01*
X0092753Y0083342D01*
X0092731Y0083421D01*
X0092713Y0083502D01*
X0092699Y0083583D01*
X0092688Y0083665D01*
X0092681Y0083747D01*
X0092678Y0083829D01*
X0092734Y0083829D01*
X0092738Y0083747D01*
X0092745Y0083665D01*
X0092756Y0083583D01*
X0092770Y0083502D01*
X0092789Y0083422D01*
X0092811Y0083343D01*
X0092837Y0083265D01*
X0092866Y0083188D01*
X0092899Y0083113D01*
X0092936Y0083039D01*
X0092976Y0082967D01*
X0093019Y0082897D01*
X0093065Y0082829D01*
X0093115Y0082764D01*
X0093167Y0082700D01*
X0093223Y0082640D01*
X0093281Y0082582D01*
X0093341Y0082526D01*
X0093405Y0082474D01*
X0093470Y0082424D01*
X0093538Y0082378D01*
X0093608Y0082335D01*
X0093680Y0082295D01*
X0093754Y0082258D01*
X0093829Y0082225D01*
X0093906Y0082196D01*
X0093984Y0082170D01*
X0094063Y0082148D01*
X0094143Y0082129D01*
X0094224Y0082115D01*
X0094306Y0082104D01*
X0094388Y0082097D01*
X0094470Y0082093D01*
X0107529Y0081590D02*
X0107529Y0082130D01*
X0107530Y0082129D02*
X0107610Y0082133D01*
X0107691Y0082140D01*
X0107770Y0082150D01*
X0107850Y0082165D01*
X0107928Y0082183D01*
X0108006Y0082205D01*
X0108082Y0082230D01*
X0108157Y0082259D01*
X0108231Y0082291D01*
X0108303Y0082327D01*
X0108374Y0082366D01*
X0108442Y0082408D01*
X0108509Y0082453D01*
X0108573Y0082502D01*
X0108635Y0082553D01*
X0108694Y0082608D01*
X0108751Y0082665D01*
X0108806Y0082724D01*
X0108857Y0082786D01*
X0108906Y0082850D01*
X0108951Y0082917D01*
X0108993Y0082985D01*
X0109032Y0083056D01*
X0109068Y0083128D01*
X0109100Y0083202D01*
X0109129Y0083277D01*
X0109154Y0083353D01*
X0109176Y0083431D01*
X0109194Y0083509D01*
X0109209Y0083589D01*
X0109219Y0083668D01*
X0109226Y0083749D01*
X0109230Y0083829D01*
X0109769Y0083830D01*
X0109770Y0083829D01*
X0109767Y0083734D01*
X0109759Y0083640D01*
X0109748Y0083546D01*
X0109733Y0083452D01*
X0109714Y0083359D01*
X0109692Y0083267D01*
X0109665Y0083176D01*
X0109635Y0083087D01*
X0109601Y0082998D01*
X0109563Y0082911D01*
X0109521Y0082826D01*
X0109477Y0082743D01*
X0109428Y0082661D01*
X0109377Y0082582D01*
X0109322Y0082505D01*
X0109264Y0082430D01*
X0109202Y0082357D01*
X0109138Y0082288D01*
X0109071Y0082221D01*
X0109002Y0082157D01*
X0108929Y0082095D01*
X0108854Y0082037D01*
X0108777Y0081982D01*
X0108698Y0081931D01*
X0108616Y0081882D01*
X0108533Y0081838D01*
X0108448Y0081796D01*
X0108361Y0081758D01*
X0108272Y0081724D01*
X0108183Y0081694D01*
X0108092Y0081667D01*
X0108000Y0081645D01*
X0107907Y0081626D01*
X0107813Y0081611D01*
X0107719Y0081600D01*
X0107625Y0081592D01*
X0107530Y0081589D01*
X0107530Y0081645D01*
X0107622Y0081648D01*
X0107714Y0081655D01*
X0107806Y0081666D01*
X0107897Y0081681D01*
X0107988Y0081699D01*
X0108077Y0081722D01*
X0108166Y0081748D01*
X0108254Y0081777D01*
X0108340Y0081810D01*
X0108424Y0081847D01*
X0108508Y0081888D01*
X0108589Y0081931D01*
X0108668Y0081978D01*
X0108746Y0082029D01*
X0108821Y0082082D01*
X0108894Y0082139D01*
X0108965Y0082199D01*
X0109033Y0082261D01*
X0109098Y0082326D01*
X0109160Y0082394D01*
X0109220Y0082465D01*
X0109277Y0082538D01*
X0109330Y0082613D01*
X0109381Y0082691D01*
X0109428Y0082770D01*
X0109471Y0082851D01*
X0109512Y0082935D01*
X0109549Y0083019D01*
X0109582Y0083105D01*
X0109611Y0083193D01*
X0109637Y0083282D01*
X0109660Y0083371D01*
X0109678Y0083462D01*
X0109693Y0083553D01*
X0109704Y0083645D01*
X0109711Y0083737D01*
X0109714Y0083829D01*
X0109658Y0083829D01*
X0109655Y0083737D01*
X0109647Y0083644D01*
X0109636Y0083553D01*
X0109621Y0083461D01*
X0109602Y0083371D01*
X0109579Y0083281D01*
X0109553Y0083193D01*
X0109522Y0083105D01*
X0109488Y0083019D01*
X0109450Y0082935D01*
X0109409Y0082852D01*
X0109364Y0082771D01*
X0109316Y0082692D01*
X0109264Y0082616D01*
X0109209Y0082541D01*
X0109151Y0082469D01*
X0109090Y0082400D01*
X0109026Y0082333D01*
X0108959Y0082269D01*
X0108890Y0082208D01*
X0108818Y0082150D01*
X0108743Y0082095D01*
X0108667Y0082043D01*
X0108588Y0081995D01*
X0108507Y0081950D01*
X0108424Y0081909D01*
X0108340Y0081871D01*
X0108254Y0081837D01*
X0108166Y0081806D01*
X0108078Y0081780D01*
X0107988Y0081757D01*
X0107898Y0081738D01*
X0107806Y0081723D01*
X0107715Y0081712D01*
X0107622Y0081704D01*
X0107530Y0081701D01*
X0107530Y0081757D01*
X0107620Y0081760D01*
X0107710Y0081767D01*
X0107799Y0081778D01*
X0107888Y0081793D01*
X0107976Y0081812D01*
X0108063Y0081834D01*
X0108150Y0081860D01*
X0108235Y0081890D01*
X0108318Y0081923D01*
X0108400Y0081960D01*
X0108481Y0082000D01*
X0108560Y0082044D01*
X0108636Y0082091D01*
X0108711Y0082141D01*
X0108784Y0082194D01*
X0108854Y0082251D01*
X0108921Y0082310D01*
X0108986Y0082373D01*
X0109049Y0082438D01*
X0109108Y0082505D01*
X0109165Y0082575D01*
X0109218Y0082648D01*
X0109268Y0082723D01*
X0109315Y0082799D01*
X0109359Y0082878D01*
X0109399Y0082959D01*
X0109436Y0083041D01*
X0109469Y0083124D01*
X0109499Y0083209D01*
X0109525Y0083296D01*
X0109547Y0083383D01*
X0109566Y0083471D01*
X0109581Y0083560D01*
X0109592Y0083649D01*
X0109599Y0083739D01*
X0109602Y0083829D01*
X0109546Y0083829D01*
X0109543Y0083741D01*
X0109536Y0083654D01*
X0109525Y0083567D01*
X0109511Y0083481D01*
X0109493Y0083395D01*
X0109471Y0083310D01*
X0109446Y0083226D01*
X0109417Y0083144D01*
X0109384Y0083062D01*
X0109349Y0082982D01*
X0109309Y0082904D01*
X0109267Y0082827D01*
X0109221Y0082753D01*
X0109172Y0082680D01*
X0109120Y0082610D01*
X0109065Y0082541D01*
X0109007Y0082476D01*
X0108947Y0082412D01*
X0108883Y0082352D01*
X0108818Y0082294D01*
X0108749Y0082239D01*
X0108679Y0082187D01*
X0108606Y0082138D01*
X0108532Y0082092D01*
X0108455Y0082050D01*
X0108377Y0082010D01*
X0108297Y0081975D01*
X0108215Y0081942D01*
X0108133Y0081913D01*
X0108049Y0081888D01*
X0107964Y0081866D01*
X0107878Y0081848D01*
X0107792Y0081834D01*
X0107705Y0081823D01*
X0107618Y0081816D01*
X0107530Y0081813D01*
X0107530Y0081869D01*
X0107618Y0081872D01*
X0107705Y0081880D01*
X0107792Y0081891D01*
X0107878Y0081905D01*
X0107964Y0081924D01*
X0108048Y0081946D01*
X0108132Y0081972D01*
X0108214Y0082002D01*
X0108295Y0082035D01*
X0108375Y0082072D01*
X0108453Y0082112D01*
X0108529Y0082156D01*
X0108603Y0082202D01*
X0108675Y0082253D01*
X0108744Y0082306D01*
X0108811Y0082362D01*
X0108876Y0082421D01*
X0108938Y0082483D01*
X0108997Y0082548D01*
X0109053Y0082615D01*
X0109106Y0082684D01*
X0109157Y0082756D01*
X0109203Y0082830D01*
X0109247Y0082906D01*
X0109287Y0082984D01*
X0109324Y0083064D01*
X0109357Y0083145D01*
X0109387Y0083227D01*
X0109413Y0083311D01*
X0109435Y0083395D01*
X0109454Y0083481D01*
X0109468Y0083567D01*
X0109479Y0083654D01*
X0109487Y0083741D01*
X0109490Y0083829D01*
X0109434Y0083829D01*
X0109431Y0083744D01*
X0109424Y0083659D01*
X0109413Y0083575D01*
X0109399Y0083491D01*
X0109381Y0083408D01*
X0109359Y0083326D01*
X0109334Y0083244D01*
X0109305Y0083164D01*
X0109273Y0083086D01*
X0109237Y0083008D01*
X0109198Y0082933D01*
X0109155Y0082859D01*
X0109110Y0082787D01*
X0109061Y0082717D01*
X0109009Y0082650D01*
X0108955Y0082585D01*
X0108897Y0082522D01*
X0108837Y0082462D01*
X0108774Y0082404D01*
X0108709Y0082350D01*
X0108642Y0082298D01*
X0108572Y0082249D01*
X0108500Y0082204D01*
X0108426Y0082161D01*
X0108351Y0082122D01*
X0108273Y0082086D01*
X0108195Y0082054D01*
X0108115Y0082025D01*
X0108033Y0082000D01*
X0107951Y0081978D01*
X0107868Y0081960D01*
X0107784Y0081946D01*
X0107700Y0081935D01*
X0107615Y0081928D01*
X0107530Y0081925D01*
X0107530Y0081981D01*
X0107615Y0081985D01*
X0107700Y0081992D01*
X0107784Y0082003D01*
X0107868Y0082017D01*
X0107951Y0082036D01*
X0108033Y0082058D01*
X0108114Y0082084D01*
X0108193Y0082114D01*
X0108271Y0082147D01*
X0108348Y0082183D01*
X0108423Y0082224D01*
X0108496Y0082267D01*
X0108567Y0082314D01*
X0108636Y0082364D01*
X0108702Y0082416D01*
X0108767Y0082472D01*
X0108828Y0082531D01*
X0108887Y0082592D01*
X0108943Y0082657D01*
X0108995Y0082723D01*
X0109045Y0082792D01*
X0109092Y0082863D01*
X0109135Y0082936D01*
X0109176Y0083011D01*
X0109212Y0083088D01*
X0109245Y0083166D01*
X0109275Y0083245D01*
X0109301Y0083326D01*
X0109323Y0083408D01*
X0109342Y0083491D01*
X0109356Y0083575D01*
X0109367Y0083659D01*
X0109374Y0083744D01*
X0109378Y0083829D01*
X0109322Y0083829D01*
X0109319Y0083747D01*
X0109312Y0083665D01*
X0109301Y0083583D01*
X0109287Y0083502D01*
X0109269Y0083421D01*
X0109247Y0083342D01*
X0109222Y0083263D01*
X0109193Y0083186D01*
X0109161Y0083110D01*
X0109125Y0083036D01*
X0109087Y0082963D01*
X0109044Y0082892D01*
X0108999Y0082824D01*
X0108951Y0082757D01*
X0108899Y0082692D01*
X0108845Y0082630D01*
X0108788Y0082571D01*
X0108729Y0082514D01*
X0108667Y0082460D01*
X0108602Y0082408D01*
X0108535Y0082360D01*
X0108467Y0082315D01*
X0108396Y0082272D01*
X0108323Y0082234D01*
X0108249Y0082198D01*
X0108173Y0082166D01*
X0108096Y0082137D01*
X0108017Y0082112D01*
X0107938Y0082090D01*
X0107857Y0082072D01*
X0107776Y0082058D01*
X0107694Y0082047D01*
X0107612Y0082040D01*
X0107530Y0082037D01*
X0107530Y0082093D01*
X0107612Y0082097D01*
X0107694Y0082104D01*
X0107776Y0082115D01*
X0107857Y0082129D01*
X0107937Y0082148D01*
X0108016Y0082170D01*
X0108094Y0082196D01*
X0108171Y0082225D01*
X0108246Y0082258D01*
X0108320Y0082295D01*
X0108392Y0082335D01*
X0108462Y0082378D01*
X0108530Y0082424D01*
X0108595Y0082474D01*
X0108659Y0082526D01*
X0108719Y0082582D01*
X0108777Y0082640D01*
X0108833Y0082700D01*
X0108885Y0082764D01*
X0108935Y0082829D01*
X0108981Y0082897D01*
X0109024Y0082967D01*
X0109064Y0083039D01*
X0109101Y0083113D01*
X0109134Y0083188D01*
X0109163Y0083265D01*
X0109189Y0083343D01*
X0109211Y0083422D01*
X0109230Y0083502D01*
X0109244Y0083583D01*
X0109255Y0083665D01*
X0109262Y0083747D01*
X0109266Y0083829D01*
X0109769Y0088888D02*
X0109229Y0088888D01*
X0109230Y0088889D02*
X0109226Y0088969D01*
X0109219Y0089050D01*
X0109209Y0089129D01*
X0109194Y0089209D01*
X0109176Y0089287D01*
X0109154Y0089365D01*
X0109129Y0089441D01*
X0109100Y0089516D01*
X0109068Y0089590D01*
X0109032Y0089662D01*
X0108993Y0089733D01*
X0108951Y0089801D01*
X0108906Y0089868D01*
X0108857Y0089932D01*
X0108806Y0089994D01*
X0108751Y0090053D01*
X0108694Y0090110D01*
X0108635Y0090165D01*
X0108573Y0090216D01*
X0108509Y0090265D01*
X0108442Y0090310D01*
X0108374Y0090352D01*
X0108303Y0090391D01*
X0108231Y0090427D01*
X0108157Y0090459D01*
X0108082Y0090488D01*
X0108006Y0090513D01*
X0107928Y0090535D01*
X0107850Y0090553D01*
X0107770Y0090568D01*
X0107691Y0090578D01*
X0107610Y0090585D01*
X0107530Y0090589D01*
X0107529Y0091128D01*
X0107530Y0091129D01*
X0107625Y0091126D01*
X0107719Y0091118D01*
X0107813Y0091107D01*
X0107907Y0091092D01*
X0108000Y0091073D01*
X0108092Y0091051D01*
X0108183Y0091024D01*
X0108272Y0090994D01*
X0108361Y0090960D01*
X0108448Y0090922D01*
X0108533Y0090880D01*
X0108616Y0090836D01*
X0108698Y0090787D01*
X0108777Y0090736D01*
X0108854Y0090681D01*
X0108929Y0090623D01*
X0109002Y0090561D01*
X0109071Y0090497D01*
X0109138Y0090430D01*
X0109202Y0090361D01*
X0109264Y0090288D01*
X0109322Y0090213D01*
X0109377Y0090136D01*
X0109428Y0090057D01*
X0109477Y0089975D01*
X0109521Y0089892D01*
X0109563Y0089807D01*
X0109601Y0089720D01*
X0109635Y0089631D01*
X0109665Y0089542D01*
X0109692Y0089451D01*
X0109714Y0089359D01*
X0109733Y0089266D01*
X0109748Y0089172D01*
X0109759Y0089078D01*
X0109767Y0088984D01*
X0109770Y0088889D01*
X0109714Y0088889D01*
X0109711Y0088981D01*
X0109704Y0089073D01*
X0109693Y0089165D01*
X0109678Y0089256D01*
X0109660Y0089347D01*
X0109637Y0089436D01*
X0109611Y0089525D01*
X0109582Y0089613D01*
X0109549Y0089699D01*
X0109512Y0089783D01*
X0109471Y0089867D01*
X0109428Y0089948D01*
X0109381Y0090027D01*
X0109330Y0090105D01*
X0109277Y0090180D01*
X0109220Y0090253D01*
X0109160Y0090324D01*
X0109098Y0090392D01*
X0109033Y0090457D01*
X0108965Y0090519D01*
X0108894Y0090579D01*
X0108821Y0090636D01*
X0108746Y0090689D01*
X0108668Y0090740D01*
X0108589Y0090787D01*
X0108508Y0090830D01*
X0108424Y0090871D01*
X0108340Y0090908D01*
X0108254Y0090941D01*
X0108166Y0090970D01*
X0108077Y0090996D01*
X0107988Y0091019D01*
X0107897Y0091037D01*
X0107806Y0091052D01*
X0107714Y0091063D01*
X0107622Y0091070D01*
X0107530Y0091073D01*
X0107530Y0091017D01*
X0107622Y0091014D01*
X0107715Y0091006D01*
X0107806Y0090995D01*
X0107898Y0090980D01*
X0107988Y0090961D01*
X0108078Y0090938D01*
X0108166Y0090912D01*
X0108254Y0090881D01*
X0108340Y0090847D01*
X0108424Y0090809D01*
X0108507Y0090768D01*
X0108588Y0090723D01*
X0108667Y0090675D01*
X0108743Y0090623D01*
X0108818Y0090568D01*
X0108890Y0090510D01*
X0108959Y0090449D01*
X0109026Y0090385D01*
X0109090Y0090318D01*
X0109151Y0090249D01*
X0109209Y0090177D01*
X0109264Y0090102D01*
X0109316Y0090026D01*
X0109364Y0089947D01*
X0109409Y0089866D01*
X0109450Y0089783D01*
X0109488Y0089699D01*
X0109522Y0089613D01*
X0109553Y0089525D01*
X0109579Y0089437D01*
X0109602Y0089347D01*
X0109621Y0089257D01*
X0109636Y0089165D01*
X0109647Y0089074D01*
X0109655Y0088981D01*
X0109658Y0088889D01*
X0109602Y0088889D01*
X0109599Y0088979D01*
X0109592Y0089069D01*
X0109581Y0089158D01*
X0109566Y0089247D01*
X0109547Y0089335D01*
X0109525Y0089422D01*
X0109499Y0089509D01*
X0109469Y0089594D01*
X0109436Y0089677D01*
X0109399Y0089759D01*
X0109359Y0089840D01*
X0109315Y0089919D01*
X0109268Y0089995D01*
X0109218Y0090070D01*
X0109165Y0090143D01*
X0109108Y0090213D01*
X0109049Y0090280D01*
X0108986Y0090345D01*
X0108921Y0090408D01*
X0108854Y0090467D01*
X0108784Y0090524D01*
X0108711Y0090577D01*
X0108636Y0090627D01*
X0108560Y0090674D01*
X0108481Y0090718D01*
X0108400Y0090758D01*
X0108318Y0090795D01*
X0108235Y0090828D01*
X0108150Y0090858D01*
X0108063Y0090884D01*
X0107976Y0090906D01*
X0107888Y0090925D01*
X0107799Y0090940D01*
X0107710Y0090951D01*
X0107620Y0090958D01*
X0107530Y0090961D01*
X0107530Y0090905D01*
X0107618Y0090902D01*
X0107705Y0090895D01*
X0107792Y0090884D01*
X0107878Y0090870D01*
X0107964Y0090852D01*
X0108049Y0090830D01*
X0108133Y0090805D01*
X0108215Y0090776D01*
X0108297Y0090743D01*
X0108377Y0090708D01*
X0108455Y0090668D01*
X0108532Y0090626D01*
X0108606Y0090580D01*
X0108679Y0090531D01*
X0108749Y0090479D01*
X0108818Y0090424D01*
X0108883Y0090366D01*
X0108947Y0090306D01*
X0109007Y0090242D01*
X0109065Y0090177D01*
X0109120Y0090108D01*
X0109172Y0090038D01*
X0109221Y0089965D01*
X0109267Y0089891D01*
X0109309Y0089814D01*
X0109349Y0089736D01*
X0109384Y0089656D01*
X0109417Y0089574D01*
X0109446Y0089492D01*
X0109471Y0089408D01*
X0109493Y0089323D01*
X0109511Y0089237D01*
X0109525Y0089151D01*
X0109536Y0089064D01*
X0109543Y0088977D01*
X0109546Y0088889D01*
X0109490Y0088889D01*
X0109487Y0088977D01*
X0109479Y0089064D01*
X0109468Y0089151D01*
X0109454Y0089237D01*
X0109435Y0089323D01*
X0109413Y0089407D01*
X0109387Y0089491D01*
X0109357Y0089573D01*
X0109324Y0089654D01*
X0109287Y0089734D01*
X0109247Y0089812D01*
X0109203Y0089888D01*
X0109157Y0089962D01*
X0109106Y0090034D01*
X0109053Y0090103D01*
X0108997Y0090170D01*
X0108938Y0090235D01*
X0108876Y0090297D01*
X0108811Y0090356D01*
X0108744Y0090412D01*
X0108675Y0090465D01*
X0108603Y0090516D01*
X0108529Y0090562D01*
X0108453Y0090606D01*
X0108375Y0090646D01*
X0108295Y0090683D01*
X0108214Y0090716D01*
X0108132Y0090746D01*
X0108048Y0090772D01*
X0107964Y0090794D01*
X0107878Y0090813D01*
X0107792Y0090827D01*
X0107705Y0090838D01*
X0107618Y0090846D01*
X0107530Y0090849D01*
X0107530Y0090793D01*
X0107615Y0090790D01*
X0107700Y0090783D01*
X0107784Y0090772D01*
X0107868Y0090758D01*
X0107951Y0090740D01*
X0108033Y0090718D01*
X0108115Y0090693D01*
X0108195Y0090664D01*
X0108273Y0090632D01*
X0108351Y0090596D01*
X0108426Y0090557D01*
X0108500Y0090514D01*
X0108572Y0090469D01*
X0108642Y0090420D01*
X0108709Y0090368D01*
X0108774Y0090314D01*
X0108837Y0090256D01*
X0108897Y0090196D01*
X0108955Y0090133D01*
X0109009Y0090068D01*
X0109061Y0090001D01*
X0109110Y0089931D01*
X0109155Y0089859D01*
X0109198Y0089785D01*
X0109237Y0089710D01*
X0109273Y0089632D01*
X0109305Y0089554D01*
X0109334Y0089474D01*
X0109359Y0089392D01*
X0109381Y0089310D01*
X0109399Y0089227D01*
X0109413Y0089143D01*
X0109424Y0089059D01*
X0109431Y0088974D01*
X0109434Y0088889D01*
X0109378Y0088889D01*
X0109374Y0088974D01*
X0109367Y0089059D01*
X0109356Y0089143D01*
X0109342Y0089227D01*
X0109323Y0089310D01*
X0109301Y0089392D01*
X0109275Y0089473D01*
X0109245Y0089552D01*
X0109212Y0089630D01*
X0109176Y0089707D01*
X0109135Y0089782D01*
X0109092Y0089855D01*
X0109045Y0089926D01*
X0108995Y0089995D01*
X0108943Y0090061D01*
X0108887Y0090126D01*
X0108828Y0090187D01*
X0108767Y0090246D01*
X0108702Y0090302D01*
X0108636Y0090354D01*
X0108567Y0090404D01*
X0108496Y0090451D01*
X0108423Y0090494D01*
X0108348Y0090535D01*
X0108271Y0090571D01*
X0108193Y0090604D01*
X0108114Y0090634D01*
X0108033Y0090660D01*
X0107951Y0090682D01*
X0107868Y0090701D01*
X0107784Y0090715D01*
X0107700Y0090726D01*
X0107615Y0090733D01*
X0107530Y0090737D01*
X0107530Y0090681D01*
X0107612Y0090678D01*
X0107694Y0090671D01*
X0107776Y0090660D01*
X0107857Y0090646D01*
X0107938Y0090628D01*
X0108017Y0090606D01*
X0108096Y0090581D01*
X0108173Y0090552D01*
X0108249Y0090520D01*
X0108323Y0090484D01*
X0108396Y0090446D01*
X0108467Y0090403D01*
X0108535Y0090358D01*
X0108602Y0090310D01*
X0108667Y0090258D01*
X0108729Y0090204D01*
X0108788Y0090147D01*
X0108845Y0090088D01*
X0108899Y0090026D01*
X0108951Y0089961D01*
X0108999Y0089894D01*
X0109044Y0089826D01*
X0109087Y0089755D01*
X0109125Y0089682D01*
X0109161Y0089608D01*
X0109193Y0089532D01*
X0109222Y0089455D01*
X0109247Y0089376D01*
X0109269Y0089297D01*
X0109287Y0089216D01*
X0109301Y0089135D01*
X0109312Y0089053D01*
X0109319Y0088971D01*
X0109322Y0088889D01*
X0109266Y0088889D01*
X0109262Y0088971D01*
X0109255Y0089053D01*
X0109244Y0089135D01*
X0109230Y0089216D01*
X0109211Y0089296D01*
X0109189Y0089375D01*
X0109163Y0089453D01*
X0109134Y0089530D01*
X0109101Y0089605D01*
X0109064Y0089679D01*
X0109024Y0089751D01*
X0108981Y0089821D01*
X0108935Y0089889D01*
X0108885Y0089954D01*
X0108833Y0090018D01*
X0108777Y0090078D01*
X0108719Y0090136D01*
X0108659Y0090192D01*
X0108595Y0090244D01*
X0108530Y0090294D01*
X0108462Y0090340D01*
X0108392Y0090383D01*
X0108320Y0090423D01*
X0108246Y0090460D01*
X0108171Y0090493D01*
X0108094Y0090522D01*
X0108016Y0090548D01*
X0107937Y0090570D01*
X0107857Y0090589D01*
X0107776Y0090603D01*
X0107694Y0090614D01*
X0107612Y0090621D01*
X0107530Y0090625D01*
X0144471Y0057128D02*
X0144471Y0056588D01*
X0144470Y0056589D02*
X0144390Y0056585D01*
X0144309Y0056578D01*
X0144230Y0056568D01*
X0144150Y0056553D01*
X0144072Y0056535D01*
X0143994Y0056513D01*
X0143918Y0056488D01*
X0143843Y0056459D01*
X0143769Y0056427D01*
X0143697Y0056391D01*
X0143626Y0056352D01*
X0143558Y0056310D01*
X0143491Y0056265D01*
X0143427Y0056216D01*
X0143365Y0056165D01*
X0143306Y0056110D01*
X0143249Y0056053D01*
X0143194Y0055994D01*
X0143143Y0055932D01*
X0143094Y0055868D01*
X0143049Y0055801D01*
X0143007Y0055733D01*
X0142968Y0055662D01*
X0142932Y0055590D01*
X0142900Y0055516D01*
X0142871Y0055441D01*
X0142846Y0055365D01*
X0142824Y0055287D01*
X0142806Y0055209D01*
X0142791Y0055129D01*
X0142781Y0055050D01*
X0142774Y0054969D01*
X0142770Y0054889D01*
X0142231Y0054888D01*
X0142230Y0054889D01*
X0142233Y0054984D01*
X0142241Y0055078D01*
X0142252Y0055172D01*
X0142267Y0055266D01*
X0142286Y0055359D01*
X0142308Y0055451D01*
X0142335Y0055542D01*
X0142365Y0055631D01*
X0142399Y0055720D01*
X0142437Y0055807D01*
X0142479Y0055892D01*
X0142523Y0055975D01*
X0142572Y0056057D01*
X0142623Y0056136D01*
X0142678Y0056213D01*
X0142736Y0056288D01*
X0142798Y0056361D01*
X0142862Y0056430D01*
X0142929Y0056497D01*
X0142998Y0056561D01*
X0143071Y0056623D01*
X0143146Y0056681D01*
X0143223Y0056736D01*
X0143302Y0056787D01*
X0143384Y0056836D01*
X0143467Y0056880D01*
X0143552Y0056922D01*
X0143639Y0056960D01*
X0143728Y0056994D01*
X0143817Y0057024D01*
X0143908Y0057051D01*
X0144000Y0057073D01*
X0144093Y0057092D01*
X0144187Y0057107D01*
X0144281Y0057118D01*
X0144375Y0057126D01*
X0144470Y0057129D01*
X0144470Y0057073D01*
X0144378Y0057070D01*
X0144286Y0057063D01*
X0144194Y0057052D01*
X0144103Y0057037D01*
X0144012Y0057019D01*
X0143923Y0056996D01*
X0143834Y0056970D01*
X0143746Y0056941D01*
X0143660Y0056908D01*
X0143576Y0056871D01*
X0143492Y0056830D01*
X0143411Y0056787D01*
X0143332Y0056740D01*
X0143254Y0056689D01*
X0143179Y0056636D01*
X0143106Y0056579D01*
X0143035Y0056519D01*
X0142967Y0056457D01*
X0142902Y0056392D01*
X0142840Y0056324D01*
X0142780Y0056253D01*
X0142723Y0056180D01*
X0142670Y0056105D01*
X0142619Y0056027D01*
X0142572Y0055948D01*
X0142529Y0055867D01*
X0142488Y0055783D01*
X0142451Y0055699D01*
X0142418Y0055613D01*
X0142389Y0055525D01*
X0142363Y0055436D01*
X0142340Y0055347D01*
X0142322Y0055256D01*
X0142307Y0055165D01*
X0142296Y0055073D01*
X0142289Y0054981D01*
X0142286Y0054889D01*
X0142342Y0054889D01*
X0142345Y0054981D01*
X0142353Y0055074D01*
X0142364Y0055165D01*
X0142379Y0055257D01*
X0142398Y0055347D01*
X0142421Y0055437D01*
X0142447Y0055525D01*
X0142478Y0055613D01*
X0142512Y0055699D01*
X0142550Y0055783D01*
X0142591Y0055866D01*
X0142636Y0055947D01*
X0142684Y0056026D01*
X0142736Y0056102D01*
X0142791Y0056177D01*
X0142849Y0056249D01*
X0142910Y0056318D01*
X0142974Y0056385D01*
X0143041Y0056449D01*
X0143110Y0056510D01*
X0143182Y0056568D01*
X0143257Y0056623D01*
X0143333Y0056675D01*
X0143412Y0056723D01*
X0143493Y0056768D01*
X0143576Y0056809D01*
X0143660Y0056847D01*
X0143746Y0056881D01*
X0143834Y0056912D01*
X0143922Y0056938D01*
X0144012Y0056961D01*
X0144102Y0056980D01*
X0144194Y0056995D01*
X0144285Y0057006D01*
X0144378Y0057014D01*
X0144470Y0057017D01*
X0144470Y0056961D01*
X0144380Y0056958D01*
X0144290Y0056951D01*
X0144201Y0056940D01*
X0144112Y0056925D01*
X0144024Y0056906D01*
X0143937Y0056884D01*
X0143850Y0056858D01*
X0143765Y0056828D01*
X0143682Y0056795D01*
X0143600Y0056758D01*
X0143519Y0056718D01*
X0143440Y0056674D01*
X0143364Y0056627D01*
X0143289Y0056577D01*
X0143216Y0056524D01*
X0143146Y0056467D01*
X0143079Y0056408D01*
X0143014Y0056345D01*
X0142951Y0056280D01*
X0142892Y0056213D01*
X0142835Y0056143D01*
X0142782Y0056070D01*
X0142732Y0055995D01*
X0142685Y0055919D01*
X0142641Y0055840D01*
X0142601Y0055759D01*
X0142564Y0055677D01*
X0142531Y0055594D01*
X0142501Y0055509D01*
X0142475Y0055422D01*
X0142453Y0055335D01*
X0142434Y0055247D01*
X0142419Y0055158D01*
X0142408Y0055069D01*
X0142401Y0054979D01*
X0142398Y0054889D01*
X0142454Y0054889D01*
X0142457Y0054977D01*
X0142464Y0055064D01*
X0142475Y0055151D01*
X0142489Y0055237D01*
X0142507Y0055323D01*
X0142529Y0055408D01*
X0142554Y0055492D01*
X0142583Y0055574D01*
X0142616Y0055656D01*
X0142651Y0055736D01*
X0142691Y0055814D01*
X0142733Y0055891D01*
X0142779Y0055965D01*
X0142828Y0056038D01*
X0142880Y0056108D01*
X0142935Y0056177D01*
X0142993Y0056242D01*
X0143053Y0056306D01*
X0143117Y0056366D01*
X0143182Y0056424D01*
X0143251Y0056479D01*
X0143321Y0056531D01*
X0143394Y0056580D01*
X0143468Y0056626D01*
X0143545Y0056668D01*
X0143623Y0056708D01*
X0143703Y0056743D01*
X0143785Y0056776D01*
X0143867Y0056805D01*
X0143951Y0056830D01*
X0144036Y0056852D01*
X0144122Y0056870D01*
X0144208Y0056884D01*
X0144295Y0056895D01*
X0144382Y0056902D01*
X0144470Y0056905D01*
X0144470Y0056849D01*
X0144382Y0056846D01*
X0144295Y0056838D01*
X0144208Y0056827D01*
X0144122Y0056813D01*
X0144036Y0056794D01*
X0143952Y0056772D01*
X0143868Y0056746D01*
X0143786Y0056716D01*
X0143705Y0056683D01*
X0143625Y0056646D01*
X0143547Y0056606D01*
X0143471Y0056562D01*
X0143397Y0056516D01*
X0143325Y0056465D01*
X0143256Y0056412D01*
X0143189Y0056356D01*
X0143124Y0056297D01*
X0143062Y0056235D01*
X0143003Y0056170D01*
X0142947Y0056103D01*
X0142894Y0056034D01*
X0142843Y0055962D01*
X0142797Y0055888D01*
X0142753Y0055812D01*
X0142713Y0055734D01*
X0142676Y0055654D01*
X0142643Y0055573D01*
X0142613Y0055491D01*
X0142587Y0055407D01*
X0142565Y0055323D01*
X0142546Y0055237D01*
X0142532Y0055151D01*
X0142521Y0055064D01*
X0142513Y0054977D01*
X0142510Y0054889D01*
X0142566Y0054889D01*
X0142569Y0054974D01*
X0142576Y0055059D01*
X0142587Y0055143D01*
X0142601Y0055227D01*
X0142619Y0055310D01*
X0142641Y0055392D01*
X0142666Y0055474D01*
X0142695Y0055554D01*
X0142727Y0055632D01*
X0142763Y0055710D01*
X0142802Y0055785D01*
X0142845Y0055859D01*
X0142890Y0055931D01*
X0142939Y0056001D01*
X0142991Y0056068D01*
X0143045Y0056133D01*
X0143103Y0056196D01*
X0143163Y0056256D01*
X0143226Y0056314D01*
X0143291Y0056368D01*
X0143358Y0056420D01*
X0143428Y0056469D01*
X0143500Y0056514D01*
X0143574Y0056557D01*
X0143649Y0056596D01*
X0143727Y0056632D01*
X0143805Y0056664D01*
X0143885Y0056693D01*
X0143967Y0056718D01*
X0144049Y0056740D01*
X0144132Y0056758D01*
X0144216Y0056772D01*
X0144300Y0056783D01*
X0144385Y0056790D01*
X0144470Y0056793D01*
X0144470Y0056737D01*
X0144385Y0056733D01*
X0144300Y0056726D01*
X0144216Y0056715D01*
X0144132Y0056701D01*
X0144049Y0056682D01*
X0143967Y0056660D01*
X0143886Y0056634D01*
X0143807Y0056604D01*
X0143729Y0056571D01*
X0143652Y0056535D01*
X0143577Y0056494D01*
X0143504Y0056451D01*
X0143433Y0056404D01*
X0143364Y0056354D01*
X0143298Y0056302D01*
X0143233Y0056246D01*
X0143172Y0056187D01*
X0143113Y0056126D01*
X0143057Y0056061D01*
X0143005Y0055995D01*
X0142955Y0055926D01*
X0142908Y0055855D01*
X0142865Y0055782D01*
X0142824Y0055707D01*
X0142788Y0055630D01*
X0142755Y0055552D01*
X0142725Y0055473D01*
X0142699Y0055392D01*
X0142677Y0055310D01*
X0142658Y0055227D01*
X0142644Y0055143D01*
X0142633Y0055059D01*
X0142626Y0054974D01*
X0142622Y0054889D01*
X0142678Y0054889D01*
X0142681Y0054971D01*
X0142688Y0055053D01*
X0142699Y0055135D01*
X0142713Y0055216D01*
X0142731Y0055297D01*
X0142753Y0055376D01*
X0142778Y0055455D01*
X0142807Y0055532D01*
X0142839Y0055608D01*
X0142875Y0055682D01*
X0142913Y0055755D01*
X0142956Y0055826D01*
X0143001Y0055894D01*
X0143049Y0055961D01*
X0143101Y0056026D01*
X0143155Y0056088D01*
X0143212Y0056147D01*
X0143271Y0056204D01*
X0143333Y0056258D01*
X0143398Y0056310D01*
X0143465Y0056358D01*
X0143533Y0056403D01*
X0143604Y0056446D01*
X0143677Y0056484D01*
X0143751Y0056520D01*
X0143827Y0056552D01*
X0143904Y0056581D01*
X0143983Y0056606D01*
X0144062Y0056628D01*
X0144143Y0056646D01*
X0144224Y0056660D01*
X0144306Y0056671D01*
X0144388Y0056678D01*
X0144470Y0056681D01*
X0144470Y0056625D01*
X0144388Y0056621D01*
X0144306Y0056614D01*
X0144224Y0056603D01*
X0144143Y0056589D01*
X0144063Y0056570D01*
X0143984Y0056548D01*
X0143906Y0056522D01*
X0143829Y0056493D01*
X0143754Y0056460D01*
X0143680Y0056423D01*
X0143608Y0056383D01*
X0143538Y0056340D01*
X0143470Y0056294D01*
X0143405Y0056244D01*
X0143341Y0056192D01*
X0143281Y0056136D01*
X0143223Y0056078D01*
X0143167Y0056018D01*
X0143115Y0055954D01*
X0143065Y0055889D01*
X0143019Y0055821D01*
X0142976Y0055751D01*
X0142936Y0055679D01*
X0142899Y0055605D01*
X0142866Y0055530D01*
X0142837Y0055453D01*
X0142811Y0055375D01*
X0142789Y0055296D01*
X0142770Y0055216D01*
X0142756Y0055135D01*
X0142745Y0055053D01*
X0142738Y0054971D01*
X0142734Y0054889D01*
X0151769Y0054888D02*
X0151229Y0054888D01*
X0151230Y0054889D02*
X0151226Y0054969D01*
X0151219Y0055050D01*
X0151209Y0055129D01*
X0151194Y0055209D01*
X0151176Y0055287D01*
X0151154Y0055365D01*
X0151129Y0055441D01*
X0151100Y0055516D01*
X0151068Y0055590D01*
X0151032Y0055662D01*
X0150993Y0055733D01*
X0150951Y0055801D01*
X0150906Y0055868D01*
X0150857Y0055932D01*
X0150806Y0055994D01*
X0150751Y0056053D01*
X0150694Y0056110D01*
X0150635Y0056165D01*
X0150573Y0056216D01*
X0150509Y0056265D01*
X0150442Y0056310D01*
X0150374Y0056352D01*
X0150303Y0056391D01*
X0150231Y0056427D01*
X0150157Y0056459D01*
X0150082Y0056488D01*
X0150006Y0056513D01*
X0149928Y0056535D01*
X0149850Y0056553D01*
X0149770Y0056568D01*
X0149691Y0056578D01*
X0149610Y0056585D01*
X0149530Y0056589D01*
X0149529Y0057128D01*
X0149530Y0057129D01*
X0149625Y0057126D01*
X0149719Y0057118D01*
X0149813Y0057107D01*
X0149907Y0057092D01*
X0150000Y0057073D01*
X0150092Y0057051D01*
X0150183Y0057024D01*
X0150272Y0056994D01*
X0150361Y0056960D01*
X0150448Y0056922D01*
X0150533Y0056880D01*
X0150616Y0056836D01*
X0150698Y0056787D01*
X0150777Y0056736D01*
X0150854Y0056681D01*
X0150929Y0056623D01*
X0151002Y0056561D01*
X0151071Y0056497D01*
X0151138Y0056430D01*
X0151202Y0056361D01*
X0151264Y0056288D01*
X0151322Y0056213D01*
X0151377Y0056136D01*
X0151428Y0056057D01*
X0151477Y0055975D01*
X0151521Y0055892D01*
X0151563Y0055807D01*
X0151601Y0055720D01*
X0151635Y0055631D01*
X0151665Y0055542D01*
X0151692Y0055451D01*
X0151714Y0055359D01*
X0151733Y0055266D01*
X0151748Y0055172D01*
X0151759Y0055078D01*
X0151767Y0054984D01*
X0151770Y0054889D01*
X0151714Y0054889D01*
X0151711Y0054981D01*
X0151704Y0055073D01*
X0151693Y0055165D01*
X0151678Y0055256D01*
X0151660Y0055347D01*
X0151637Y0055436D01*
X0151611Y0055525D01*
X0151582Y0055613D01*
X0151549Y0055699D01*
X0151512Y0055783D01*
X0151471Y0055867D01*
X0151428Y0055948D01*
X0151381Y0056027D01*
X0151330Y0056105D01*
X0151277Y0056180D01*
X0151220Y0056253D01*
X0151160Y0056324D01*
X0151098Y0056392D01*
X0151033Y0056457D01*
X0150965Y0056519D01*
X0150894Y0056579D01*
X0150821Y0056636D01*
X0150746Y0056689D01*
X0150668Y0056740D01*
X0150589Y0056787D01*
X0150508Y0056830D01*
X0150424Y0056871D01*
X0150340Y0056908D01*
X0150254Y0056941D01*
X0150166Y0056970D01*
X0150077Y0056996D01*
X0149988Y0057019D01*
X0149897Y0057037D01*
X0149806Y0057052D01*
X0149714Y0057063D01*
X0149622Y0057070D01*
X0149530Y0057073D01*
X0149530Y0057017D01*
X0149622Y0057014D01*
X0149715Y0057006D01*
X0149806Y0056995D01*
X0149898Y0056980D01*
X0149988Y0056961D01*
X0150078Y0056938D01*
X0150166Y0056912D01*
X0150254Y0056881D01*
X0150340Y0056847D01*
X0150424Y0056809D01*
X0150507Y0056768D01*
X0150588Y0056723D01*
X0150667Y0056675D01*
X0150743Y0056623D01*
X0150818Y0056568D01*
X0150890Y0056510D01*
X0150959Y0056449D01*
X0151026Y0056385D01*
X0151090Y0056318D01*
X0151151Y0056249D01*
X0151209Y0056177D01*
X0151264Y0056102D01*
X0151316Y0056026D01*
X0151364Y0055947D01*
X0151409Y0055866D01*
X0151450Y0055783D01*
X0151488Y0055699D01*
X0151522Y0055613D01*
X0151553Y0055525D01*
X0151579Y0055437D01*
X0151602Y0055347D01*
X0151621Y0055257D01*
X0151636Y0055165D01*
X0151647Y0055074D01*
X0151655Y0054981D01*
X0151658Y0054889D01*
X0151602Y0054889D01*
X0151599Y0054979D01*
X0151592Y0055069D01*
X0151581Y0055158D01*
X0151566Y0055247D01*
X0151547Y0055335D01*
X0151525Y0055422D01*
X0151499Y0055509D01*
X0151469Y0055594D01*
X0151436Y0055677D01*
X0151399Y0055759D01*
X0151359Y0055840D01*
X0151315Y0055919D01*
X0151268Y0055995D01*
X0151218Y0056070D01*
X0151165Y0056143D01*
X0151108Y0056213D01*
X0151049Y0056280D01*
X0150986Y0056345D01*
X0150921Y0056408D01*
X0150854Y0056467D01*
X0150784Y0056524D01*
X0150711Y0056577D01*
X0150636Y0056627D01*
X0150560Y0056674D01*
X0150481Y0056718D01*
X0150400Y0056758D01*
X0150318Y0056795D01*
X0150235Y0056828D01*
X0150150Y0056858D01*
X0150063Y0056884D01*
X0149976Y0056906D01*
X0149888Y0056925D01*
X0149799Y0056940D01*
X0149710Y0056951D01*
X0149620Y0056958D01*
X0149530Y0056961D01*
X0149530Y0056905D01*
X0149618Y0056902D01*
X0149705Y0056895D01*
X0149792Y0056884D01*
X0149878Y0056870D01*
X0149964Y0056852D01*
X0150049Y0056830D01*
X0150133Y0056805D01*
X0150215Y0056776D01*
X0150297Y0056743D01*
X0150377Y0056708D01*
X0150455Y0056668D01*
X0150532Y0056626D01*
X0150606Y0056580D01*
X0150679Y0056531D01*
X0150749Y0056479D01*
X0150818Y0056424D01*
X0150883Y0056366D01*
X0150947Y0056306D01*
X0151007Y0056242D01*
X0151065Y0056177D01*
X0151120Y0056108D01*
X0151172Y0056038D01*
X0151221Y0055965D01*
X0151267Y0055891D01*
X0151309Y0055814D01*
X0151349Y0055736D01*
X0151384Y0055656D01*
X0151417Y0055574D01*
X0151446Y0055492D01*
X0151471Y0055408D01*
X0151493Y0055323D01*
X0151511Y0055237D01*
X0151525Y0055151D01*
X0151536Y0055064D01*
X0151543Y0054977D01*
X0151546Y0054889D01*
X0151490Y0054889D01*
X0151487Y0054977D01*
X0151479Y0055064D01*
X0151468Y0055151D01*
X0151454Y0055237D01*
X0151435Y0055323D01*
X0151413Y0055407D01*
X0151387Y0055491D01*
X0151357Y0055573D01*
X0151324Y0055654D01*
X0151287Y0055734D01*
X0151247Y0055812D01*
X0151203Y0055888D01*
X0151157Y0055962D01*
X0151106Y0056034D01*
X0151053Y0056103D01*
X0150997Y0056170D01*
X0150938Y0056235D01*
X0150876Y0056297D01*
X0150811Y0056356D01*
X0150744Y0056412D01*
X0150675Y0056465D01*
X0150603Y0056516D01*
X0150529Y0056562D01*
X0150453Y0056606D01*
X0150375Y0056646D01*
X0150295Y0056683D01*
X0150214Y0056716D01*
X0150132Y0056746D01*
X0150048Y0056772D01*
X0149964Y0056794D01*
X0149878Y0056813D01*
X0149792Y0056827D01*
X0149705Y0056838D01*
X0149618Y0056846D01*
X0149530Y0056849D01*
X0149530Y0056793D01*
X0149615Y0056790D01*
X0149700Y0056783D01*
X0149784Y0056772D01*
X0149868Y0056758D01*
X0149951Y0056740D01*
X0150033Y0056718D01*
X0150115Y0056693D01*
X0150195Y0056664D01*
X0150273Y0056632D01*
X0150351Y0056596D01*
X0150426Y0056557D01*
X0150500Y0056514D01*
X0150572Y0056469D01*
X0150642Y0056420D01*
X0150709Y0056368D01*
X0150774Y0056314D01*
X0150837Y0056256D01*
X0150897Y0056196D01*
X0150955Y0056133D01*
X0151009Y0056068D01*
X0151061Y0056001D01*
X0151110Y0055931D01*
X0151155Y0055859D01*
X0151198Y0055785D01*
X0151237Y0055710D01*
X0151273Y0055632D01*
X0151305Y0055554D01*
X0151334Y0055474D01*
X0151359Y0055392D01*
X0151381Y0055310D01*
X0151399Y0055227D01*
X0151413Y0055143D01*
X0151424Y0055059D01*
X0151431Y0054974D01*
X0151434Y0054889D01*
X0151378Y0054889D01*
X0151374Y0054974D01*
X0151367Y0055059D01*
X0151356Y0055143D01*
X0151342Y0055227D01*
X0151323Y0055310D01*
X0151301Y0055392D01*
X0151275Y0055473D01*
X0151245Y0055552D01*
X0151212Y0055630D01*
X0151176Y0055707D01*
X0151135Y0055782D01*
X0151092Y0055855D01*
X0151045Y0055926D01*
X0150995Y0055995D01*
X0150943Y0056061D01*
X0150887Y0056126D01*
X0150828Y0056187D01*
X0150767Y0056246D01*
X0150702Y0056302D01*
X0150636Y0056354D01*
X0150567Y0056404D01*
X0150496Y0056451D01*
X0150423Y0056494D01*
X0150348Y0056535D01*
X0150271Y0056571D01*
X0150193Y0056604D01*
X0150114Y0056634D01*
X0150033Y0056660D01*
X0149951Y0056682D01*
X0149868Y0056701D01*
X0149784Y0056715D01*
X0149700Y0056726D01*
X0149615Y0056733D01*
X0149530Y0056737D01*
X0149530Y0056681D01*
X0149612Y0056678D01*
X0149694Y0056671D01*
X0149776Y0056660D01*
X0149857Y0056646D01*
X0149938Y0056628D01*
X0150017Y0056606D01*
X0150096Y0056581D01*
X0150173Y0056552D01*
X0150249Y0056520D01*
X0150323Y0056484D01*
X0150396Y0056446D01*
X0150467Y0056403D01*
X0150535Y0056358D01*
X0150602Y0056310D01*
X0150667Y0056258D01*
X0150729Y0056204D01*
X0150788Y0056147D01*
X0150845Y0056088D01*
X0150899Y0056026D01*
X0150951Y0055961D01*
X0150999Y0055894D01*
X0151044Y0055826D01*
X0151087Y0055755D01*
X0151125Y0055682D01*
X0151161Y0055608D01*
X0151193Y0055532D01*
X0151222Y0055455D01*
X0151247Y0055376D01*
X0151269Y0055297D01*
X0151287Y0055216D01*
X0151301Y0055135D01*
X0151312Y0055053D01*
X0151319Y0054971D01*
X0151322Y0054889D01*
X0151266Y0054889D01*
X0151262Y0054971D01*
X0151255Y0055053D01*
X0151244Y0055135D01*
X0151230Y0055216D01*
X0151211Y0055296D01*
X0151189Y0055375D01*
X0151163Y0055453D01*
X0151134Y0055530D01*
X0151101Y0055605D01*
X0151064Y0055679D01*
X0151024Y0055751D01*
X0150981Y0055821D01*
X0150935Y0055889D01*
X0150885Y0055954D01*
X0150833Y0056018D01*
X0150777Y0056078D01*
X0150719Y0056136D01*
X0150659Y0056192D01*
X0150595Y0056244D01*
X0150530Y0056294D01*
X0150462Y0056340D01*
X0150392Y0056383D01*
X0150320Y0056423D01*
X0150246Y0056460D01*
X0150171Y0056493D01*
X0150094Y0056522D01*
X0150016Y0056548D01*
X0149937Y0056570D01*
X0149857Y0056589D01*
X0149776Y0056603D01*
X0149694Y0056614D01*
X0149612Y0056621D01*
X0149530Y0056625D01*
X0149529Y0039590D02*
X0149529Y0040130D01*
X0149530Y0040129D02*
X0149610Y0040133D01*
X0149691Y0040140D01*
X0149770Y0040150D01*
X0149850Y0040165D01*
X0149928Y0040183D01*
X0150006Y0040205D01*
X0150082Y0040230D01*
X0150157Y0040259D01*
X0150231Y0040291D01*
X0150303Y0040327D01*
X0150374Y0040366D01*
X0150442Y0040408D01*
X0150509Y0040453D01*
X0150573Y0040502D01*
X0150635Y0040553D01*
X0150694Y0040608D01*
X0150751Y0040665D01*
X0150806Y0040724D01*
X0150857Y0040786D01*
X0150906Y0040850D01*
X0150951Y0040917D01*
X0150993Y0040985D01*
X0151032Y0041056D01*
X0151068Y0041128D01*
X0151100Y0041202D01*
X0151129Y0041277D01*
X0151154Y0041353D01*
X0151176Y0041431D01*
X0151194Y0041509D01*
X0151209Y0041589D01*
X0151219Y0041668D01*
X0151226Y0041749D01*
X0151230Y0041829D01*
X0151769Y0041830D01*
X0151770Y0041829D01*
X0151767Y0041734D01*
X0151759Y0041640D01*
X0151748Y0041546D01*
X0151733Y0041452D01*
X0151714Y0041359D01*
X0151692Y0041267D01*
X0151665Y0041176D01*
X0151635Y0041087D01*
X0151601Y0040998D01*
X0151563Y0040911D01*
X0151521Y0040826D01*
X0151477Y0040743D01*
X0151428Y0040661D01*
X0151377Y0040582D01*
X0151322Y0040505D01*
X0151264Y0040430D01*
X0151202Y0040357D01*
X0151138Y0040288D01*
X0151071Y0040221D01*
X0151002Y0040157D01*
X0150929Y0040095D01*
X0150854Y0040037D01*
X0150777Y0039982D01*
X0150698Y0039931D01*
X0150616Y0039882D01*
X0150533Y0039838D01*
X0150448Y0039796D01*
X0150361Y0039758D01*
X0150272Y0039724D01*
X0150183Y0039694D01*
X0150092Y0039667D01*
X0150000Y0039645D01*
X0149907Y0039626D01*
X0149813Y0039611D01*
X0149719Y0039600D01*
X0149625Y0039592D01*
X0149530Y0039589D01*
X0149530Y0039645D01*
X0149622Y0039648D01*
X0149714Y0039655D01*
X0149806Y0039666D01*
X0149897Y0039681D01*
X0149988Y0039699D01*
X0150077Y0039722D01*
X0150166Y0039748D01*
X0150254Y0039777D01*
X0150340Y0039810D01*
X0150424Y0039847D01*
X0150508Y0039888D01*
X0150589Y0039931D01*
X0150668Y0039978D01*
X0150746Y0040029D01*
X0150821Y0040082D01*
X0150894Y0040139D01*
X0150965Y0040199D01*
X0151033Y0040261D01*
X0151098Y0040326D01*
X0151160Y0040394D01*
X0151220Y0040465D01*
X0151277Y0040538D01*
X0151330Y0040613D01*
X0151381Y0040691D01*
X0151428Y0040770D01*
X0151471Y0040851D01*
X0151512Y0040935D01*
X0151549Y0041019D01*
X0151582Y0041105D01*
X0151611Y0041193D01*
X0151637Y0041282D01*
X0151660Y0041371D01*
X0151678Y0041462D01*
X0151693Y0041553D01*
X0151704Y0041645D01*
X0151711Y0041737D01*
X0151714Y0041829D01*
X0151658Y0041829D01*
X0151655Y0041737D01*
X0151647Y0041644D01*
X0151636Y0041553D01*
X0151621Y0041461D01*
X0151602Y0041371D01*
X0151579Y0041281D01*
X0151553Y0041193D01*
X0151522Y0041105D01*
X0151488Y0041019D01*
X0151450Y0040935D01*
X0151409Y0040852D01*
X0151364Y0040771D01*
X0151316Y0040692D01*
X0151264Y0040616D01*
X0151209Y0040541D01*
X0151151Y0040469D01*
X0151090Y0040400D01*
X0151026Y0040333D01*
X0150959Y0040269D01*
X0150890Y0040208D01*
X0150818Y0040150D01*
X0150743Y0040095D01*
X0150667Y0040043D01*
X0150588Y0039995D01*
X0150507Y0039950D01*
X0150424Y0039909D01*
X0150340Y0039871D01*
X0150254Y0039837D01*
X0150166Y0039806D01*
X0150078Y0039780D01*
X0149988Y0039757D01*
X0149898Y0039738D01*
X0149806Y0039723D01*
X0149715Y0039712D01*
X0149622Y0039704D01*
X0149530Y0039701D01*
X0149530Y0039757D01*
X0149620Y0039760D01*
X0149710Y0039767D01*
X0149799Y0039778D01*
X0149888Y0039793D01*
X0149976Y0039812D01*
X0150063Y0039834D01*
X0150150Y0039860D01*
X0150235Y0039890D01*
X0150318Y0039923D01*
X0150400Y0039960D01*
X0150481Y0040000D01*
X0150560Y0040044D01*
X0150636Y0040091D01*
X0150711Y0040141D01*
X0150784Y0040194D01*
X0150854Y0040251D01*
X0150921Y0040310D01*
X0150986Y0040373D01*
X0151049Y0040438D01*
X0151108Y0040505D01*
X0151165Y0040575D01*
X0151218Y0040648D01*
X0151268Y0040723D01*
X0151315Y0040799D01*
X0151359Y0040878D01*
X0151399Y0040959D01*
X0151436Y0041041D01*
X0151469Y0041124D01*
X0151499Y0041209D01*
X0151525Y0041296D01*
X0151547Y0041383D01*
X0151566Y0041471D01*
X0151581Y0041560D01*
X0151592Y0041649D01*
X0151599Y0041739D01*
X0151602Y0041829D01*
X0151546Y0041829D01*
X0151543Y0041741D01*
X0151536Y0041654D01*
X0151525Y0041567D01*
X0151511Y0041481D01*
X0151493Y0041395D01*
X0151471Y0041310D01*
X0151446Y0041226D01*
X0151417Y0041144D01*
X0151384Y0041062D01*
X0151349Y0040982D01*
X0151309Y0040904D01*
X0151267Y0040827D01*
X0151221Y0040753D01*
X0151172Y0040680D01*
X0151120Y0040610D01*
X0151065Y0040541D01*
X0151007Y0040476D01*
X0150947Y0040412D01*
X0150883Y0040352D01*
X0150818Y0040294D01*
X0150749Y0040239D01*
X0150679Y0040187D01*
X0150606Y0040138D01*
X0150532Y0040092D01*
X0150455Y0040050D01*
X0150377Y0040010D01*
X0150297Y0039975D01*
X0150215Y0039942D01*
X0150133Y0039913D01*
X0150049Y0039888D01*
X0149964Y0039866D01*
X0149878Y0039848D01*
X0149792Y0039834D01*
X0149705Y0039823D01*
X0149618Y0039816D01*
X0149530Y0039813D01*
X0149530Y0039869D01*
X0149618Y0039872D01*
X0149705Y0039880D01*
X0149792Y0039891D01*
X0149878Y0039905D01*
X0149964Y0039924D01*
X0150048Y0039946D01*
X0150132Y0039972D01*
X0150214Y0040002D01*
X0150295Y0040035D01*
X0150375Y0040072D01*
X0150453Y0040112D01*
X0150529Y0040156D01*
X0150603Y0040202D01*
X0150675Y0040253D01*
X0150744Y0040306D01*
X0150811Y0040362D01*
X0150876Y0040421D01*
X0150938Y0040483D01*
X0150997Y0040548D01*
X0151053Y0040615D01*
X0151106Y0040684D01*
X0151157Y0040756D01*
X0151203Y0040830D01*
X0151247Y0040906D01*
X0151287Y0040984D01*
X0151324Y0041064D01*
X0151357Y0041145D01*
X0151387Y0041227D01*
X0151413Y0041311D01*
X0151435Y0041395D01*
X0151454Y0041481D01*
X0151468Y0041567D01*
X0151479Y0041654D01*
X0151487Y0041741D01*
X0151490Y0041829D01*
X0151434Y0041829D01*
X0151431Y0041744D01*
X0151424Y0041659D01*
X0151413Y0041575D01*
X0151399Y0041491D01*
X0151381Y0041408D01*
X0151359Y0041326D01*
X0151334Y0041244D01*
X0151305Y0041164D01*
X0151273Y0041086D01*
X0151237Y0041008D01*
X0151198Y0040933D01*
X0151155Y0040859D01*
X0151110Y0040787D01*
X0151061Y0040717D01*
X0151009Y0040650D01*
X0150955Y0040585D01*
X0150897Y0040522D01*
X0150837Y0040462D01*
X0150774Y0040404D01*
X0150709Y0040350D01*
X0150642Y0040298D01*
X0150572Y0040249D01*
X0150500Y0040204D01*
X0150426Y0040161D01*
X0150351Y0040122D01*
X0150273Y0040086D01*
X0150195Y0040054D01*
X0150115Y0040025D01*
X0150033Y0040000D01*
X0149951Y0039978D01*
X0149868Y0039960D01*
X0149784Y0039946D01*
X0149700Y0039935D01*
X0149615Y0039928D01*
X0149530Y0039925D01*
X0149530Y0039981D01*
X0149615Y0039985D01*
X0149700Y0039992D01*
X0149784Y0040003D01*
X0149868Y0040017D01*
X0149951Y0040036D01*
X0150033Y0040058D01*
X0150114Y0040084D01*
X0150193Y0040114D01*
X0150271Y0040147D01*
X0150348Y0040183D01*
X0150423Y0040224D01*
X0150496Y0040267D01*
X0150567Y0040314D01*
X0150636Y0040364D01*
X0150702Y0040416D01*
X0150767Y0040472D01*
X0150828Y0040531D01*
X0150887Y0040592D01*
X0150943Y0040657D01*
X0150995Y0040723D01*
X0151045Y0040792D01*
X0151092Y0040863D01*
X0151135Y0040936D01*
X0151176Y0041011D01*
X0151212Y0041088D01*
X0151245Y0041166D01*
X0151275Y0041245D01*
X0151301Y0041326D01*
X0151323Y0041408D01*
X0151342Y0041491D01*
X0151356Y0041575D01*
X0151367Y0041659D01*
X0151374Y0041744D01*
X0151378Y0041829D01*
X0151322Y0041829D01*
X0151319Y0041747D01*
X0151312Y0041665D01*
X0151301Y0041583D01*
X0151287Y0041502D01*
X0151269Y0041421D01*
X0151247Y0041342D01*
X0151222Y0041263D01*
X0151193Y0041186D01*
X0151161Y0041110D01*
X0151125Y0041036D01*
X0151087Y0040963D01*
X0151044Y0040892D01*
X0150999Y0040824D01*
X0150951Y0040757D01*
X0150899Y0040692D01*
X0150845Y0040630D01*
X0150788Y0040571D01*
X0150729Y0040514D01*
X0150667Y0040460D01*
X0150602Y0040408D01*
X0150535Y0040360D01*
X0150467Y0040315D01*
X0150396Y0040272D01*
X0150323Y0040234D01*
X0150249Y0040198D01*
X0150173Y0040166D01*
X0150096Y0040137D01*
X0150017Y0040112D01*
X0149938Y0040090D01*
X0149857Y0040072D01*
X0149776Y0040058D01*
X0149694Y0040047D01*
X0149612Y0040040D01*
X0149530Y0040037D01*
X0149530Y0040093D01*
X0149612Y0040097D01*
X0149694Y0040104D01*
X0149776Y0040115D01*
X0149857Y0040129D01*
X0149937Y0040148D01*
X0150016Y0040170D01*
X0150094Y0040196D01*
X0150171Y0040225D01*
X0150246Y0040258D01*
X0150320Y0040295D01*
X0150392Y0040335D01*
X0150462Y0040378D01*
X0150530Y0040424D01*
X0150595Y0040474D01*
X0150659Y0040526D01*
X0150719Y0040582D01*
X0150777Y0040640D01*
X0150833Y0040700D01*
X0150885Y0040764D01*
X0150935Y0040829D01*
X0150981Y0040897D01*
X0151024Y0040967D01*
X0151064Y0041039D01*
X0151101Y0041113D01*
X0151134Y0041188D01*
X0151163Y0041265D01*
X0151189Y0041343D01*
X0151211Y0041422D01*
X0151230Y0041502D01*
X0151244Y0041583D01*
X0151255Y0041665D01*
X0151262Y0041747D01*
X0151266Y0041829D01*
X0142231Y0041830D02*
X0142771Y0041830D01*
X0142770Y0041829D02*
X0142774Y0041749D01*
X0142781Y0041668D01*
X0142791Y0041589D01*
X0142806Y0041509D01*
X0142824Y0041431D01*
X0142846Y0041353D01*
X0142871Y0041277D01*
X0142900Y0041202D01*
X0142932Y0041128D01*
X0142968Y0041056D01*
X0143007Y0040985D01*
X0143049Y0040917D01*
X0143094Y0040850D01*
X0143143Y0040786D01*
X0143194Y0040724D01*
X0143249Y0040665D01*
X0143306Y0040608D01*
X0143365Y0040553D01*
X0143427Y0040502D01*
X0143491Y0040453D01*
X0143558Y0040408D01*
X0143626Y0040366D01*
X0143697Y0040327D01*
X0143769Y0040291D01*
X0143843Y0040259D01*
X0143918Y0040230D01*
X0143994Y0040205D01*
X0144072Y0040183D01*
X0144150Y0040165D01*
X0144230Y0040150D01*
X0144309Y0040140D01*
X0144390Y0040133D01*
X0144470Y0040129D01*
X0144471Y0039590D01*
X0144470Y0039589D01*
X0144375Y0039592D01*
X0144281Y0039600D01*
X0144187Y0039611D01*
X0144093Y0039626D01*
X0144000Y0039645D01*
X0143908Y0039667D01*
X0143817Y0039694D01*
X0143728Y0039724D01*
X0143639Y0039758D01*
X0143552Y0039796D01*
X0143467Y0039838D01*
X0143384Y0039882D01*
X0143302Y0039931D01*
X0143223Y0039982D01*
X0143146Y0040037D01*
X0143071Y0040095D01*
X0142998Y0040157D01*
X0142929Y0040221D01*
X0142862Y0040288D01*
X0142798Y0040357D01*
X0142736Y0040430D01*
X0142678Y0040505D01*
X0142623Y0040582D01*
X0142572Y0040661D01*
X0142523Y0040743D01*
X0142479Y0040826D01*
X0142437Y0040911D01*
X0142399Y0040998D01*
X0142365Y0041087D01*
X0142335Y0041176D01*
X0142308Y0041267D01*
X0142286Y0041359D01*
X0142267Y0041452D01*
X0142252Y0041546D01*
X0142241Y0041640D01*
X0142233Y0041734D01*
X0142230Y0041829D01*
X0142286Y0041829D01*
X0142289Y0041737D01*
X0142296Y0041645D01*
X0142307Y0041553D01*
X0142322Y0041462D01*
X0142340Y0041371D01*
X0142363Y0041282D01*
X0142389Y0041193D01*
X0142418Y0041105D01*
X0142451Y0041019D01*
X0142488Y0040935D01*
X0142529Y0040851D01*
X0142572Y0040770D01*
X0142619Y0040691D01*
X0142670Y0040613D01*
X0142723Y0040538D01*
X0142780Y0040465D01*
X0142840Y0040394D01*
X0142902Y0040326D01*
X0142967Y0040261D01*
X0143035Y0040199D01*
X0143106Y0040139D01*
X0143179Y0040082D01*
X0143254Y0040029D01*
X0143332Y0039978D01*
X0143411Y0039931D01*
X0143492Y0039888D01*
X0143576Y0039847D01*
X0143660Y0039810D01*
X0143746Y0039777D01*
X0143834Y0039748D01*
X0143923Y0039722D01*
X0144012Y0039699D01*
X0144103Y0039681D01*
X0144194Y0039666D01*
X0144286Y0039655D01*
X0144378Y0039648D01*
X0144470Y0039645D01*
X0144470Y0039701D01*
X0144378Y0039704D01*
X0144285Y0039712D01*
X0144194Y0039723D01*
X0144102Y0039738D01*
X0144012Y0039757D01*
X0143922Y0039780D01*
X0143834Y0039806D01*
X0143746Y0039837D01*
X0143660Y0039871D01*
X0143576Y0039909D01*
X0143493Y0039950D01*
X0143412Y0039995D01*
X0143333Y0040043D01*
X0143257Y0040095D01*
X0143182Y0040150D01*
X0143110Y0040208D01*
X0143041Y0040269D01*
X0142974Y0040333D01*
X0142910Y0040400D01*
X0142849Y0040469D01*
X0142791Y0040541D01*
X0142736Y0040616D01*
X0142684Y0040692D01*
X0142636Y0040771D01*
X0142591Y0040852D01*
X0142550Y0040935D01*
X0142512Y0041019D01*
X0142478Y0041105D01*
X0142447Y0041193D01*
X0142421Y0041281D01*
X0142398Y0041371D01*
X0142379Y0041461D01*
X0142364Y0041553D01*
X0142353Y0041644D01*
X0142345Y0041737D01*
X0142342Y0041829D01*
X0142398Y0041829D01*
X0142401Y0041739D01*
X0142408Y0041649D01*
X0142419Y0041560D01*
X0142434Y0041471D01*
X0142453Y0041383D01*
X0142475Y0041296D01*
X0142501Y0041209D01*
X0142531Y0041124D01*
X0142564Y0041041D01*
X0142601Y0040959D01*
X0142641Y0040878D01*
X0142685Y0040799D01*
X0142732Y0040723D01*
X0142782Y0040648D01*
X0142835Y0040575D01*
X0142892Y0040505D01*
X0142951Y0040438D01*
X0143014Y0040373D01*
X0143079Y0040310D01*
X0143146Y0040251D01*
X0143216Y0040194D01*
X0143289Y0040141D01*
X0143364Y0040091D01*
X0143440Y0040044D01*
X0143519Y0040000D01*
X0143600Y0039960D01*
X0143682Y0039923D01*
X0143765Y0039890D01*
X0143850Y0039860D01*
X0143937Y0039834D01*
X0144024Y0039812D01*
X0144112Y0039793D01*
X0144201Y0039778D01*
X0144290Y0039767D01*
X0144380Y0039760D01*
X0144470Y0039757D01*
X0144470Y0039813D01*
X0144382Y0039816D01*
X0144295Y0039823D01*
X0144208Y0039834D01*
X0144122Y0039848D01*
X0144036Y0039866D01*
X0143951Y0039888D01*
X0143867Y0039913D01*
X0143785Y0039942D01*
X0143703Y0039975D01*
X0143623Y0040010D01*
X0143545Y0040050D01*
X0143468Y0040092D01*
X0143394Y0040138D01*
X0143321Y0040187D01*
X0143251Y0040239D01*
X0143182Y0040294D01*
X0143117Y0040352D01*
X0143053Y0040412D01*
X0142993Y0040476D01*
X0142935Y0040541D01*
X0142880Y0040610D01*
X0142828Y0040680D01*
X0142779Y0040753D01*
X0142733Y0040827D01*
X0142691Y0040904D01*
X0142651Y0040982D01*
X0142616Y0041062D01*
X0142583Y0041144D01*
X0142554Y0041226D01*
X0142529Y0041310D01*
X0142507Y0041395D01*
X0142489Y0041481D01*
X0142475Y0041567D01*
X0142464Y0041654D01*
X0142457Y0041741D01*
X0142454Y0041829D01*
X0142510Y0041829D01*
X0142513Y0041741D01*
X0142521Y0041654D01*
X0142532Y0041567D01*
X0142546Y0041481D01*
X0142565Y0041395D01*
X0142587Y0041311D01*
X0142613Y0041227D01*
X0142643Y0041145D01*
X0142676Y0041064D01*
X0142713Y0040984D01*
X0142753Y0040906D01*
X0142797Y0040830D01*
X0142843Y0040756D01*
X0142894Y0040684D01*
X0142947Y0040615D01*
X0143003Y0040548D01*
X0143062Y0040483D01*
X0143124Y0040421D01*
X0143189Y0040362D01*
X0143256Y0040306D01*
X0143325Y0040253D01*
X0143397Y0040202D01*
X0143471Y0040156D01*
X0143547Y0040112D01*
X0143625Y0040072D01*
X0143705Y0040035D01*
X0143786Y0040002D01*
X0143868Y0039972D01*
X0143952Y0039946D01*
X0144036Y0039924D01*
X0144122Y0039905D01*
X0144208Y0039891D01*
X0144295Y0039880D01*
X0144382Y0039872D01*
X0144470Y0039869D01*
X0144470Y0039925D01*
X0144385Y0039928D01*
X0144300Y0039935D01*
X0144216Y0039946D01*
X0144132Y0039960D01*
X0144049Y0039978D01*
X0143967Y0040000D01*
X0143885Y0040025D01*
X0143805Y0040054D01*
X0143727Y0040086D01*
X0143649Y0040122D01*
X0143574Y0040161D01*
X0143500Y0040204D01*
X0143428Y0040249D01*
X0143358Y0040298D01*
X0143291Y0040350D01*
X0143226Y0040404D01*
X0143163Y0040462D01*
X0143103Y0040522D01*
X0143045Y0040585D01*
X0142991Y0040650D01*
X0142939Y0040717D01*
X0142890Y0040787D01*
X0142845Y0040859D01*
X0142802Y0040933D01*
X0142763Y0041008D01*
X0142727Y0041086D01*
X0142695Y0041164D01*
X0142666Y0041244D01*
X0142641Y0041326D01*
X0142619Y0041408D01*
X0142601Y0041491D01*
X0142587Y0041575D01*
X0142576Y0041659D01*
X0142569Y0041744D01*
X0142566Y0041829D01*
X0142622Y0041829D01*
X0142626Y0041744D01*
X0142633Y0041659D01*
X0142644Y0041575D01*
X0142658Y0041491D01*
X0142677Y0041408D01*
X0142699Y0041326D01*
X0142725Y0041245D01*
X0142755Y0041166D01*
X0142788Y0041088D01*
X0142824Y0041011D01*
X0142865Y0040936D01*
X0142908Y0040863D01*
X0142955Y0040792D01*
X0143005Y0040723D01*
X0143057Y0040657D01*
X0143113Y0040592D01*
X0143172Y0040531D01*
X0143233Y0040472D01*
X0143298Y0040416D01*
X0143364Y0040364D01*
X0143433Y0040314D01*
X0143504Y0040267D01*
X0143577Y0040224D01*
X0143652Y0040183D01*
X0143729Y0040147D01*
X0143807Y0040114D01*
X0143886Y0040084D01*
X0143967Y0040058D01*
X0144049Y0040036D01*
X0144132Y0040017D01*
X0144216Y0040003D01*
X0144300Y0039992D01*
X0144385Y0039985D01*
X0144470Y0039981D01*
X0144470Y0040037D01*
X0144388Y0040040D01*
X0144306Y0040047D01*
X0144224Y0040058D01*
X0144143Y0040072D01*
X0144062Y0040090D01*
X0143983Y0040112D01*
X0143904Y0040137D01*
X0143827Y0040166D01*
X0143751Y0040198D01*
X0143677Y0040234D01*
X0143604Y0040272D01*
X0143533Y0040315D01*
X0143465Y0040360D01*
X0143398Y0040408D01*
X0143333Y0040460D01*
X0143271Y0040514D01*
X0143212Y0040571D01*
X0143155Y0040630D01*
X0143101Y0040692D01*
X0143049Y0040757D01*
X0143001Y0040824D01*
X0142956Y0040892D01*
X0142913Y0040963D01*
X0142875Y0041036D01*
X0142839Y0041110D01*
X0142807Y0041186D01*
X0142778Y0041263D01*
X0142753Y0041342D01*
X0142731Y0041421D01*
X0142713Y0041502D01*
X0142699Y0041583D01*
X0142688Y0041665D01*
X0142681Y0041747D01*
X0142678Y0041829D01*
X0142734Y0041829D01*
X0142738Y0041747D01*
X0142745Y0041665D01*
X0142756Y0041583D01*
X0142770Y0041502D01*
X0142789Y0041422D01*
X0142811Y0041343D01*
X0142837Y0041265D01*
X0142866Y0041188D01*
X0142899Y0041113D01*
X0142936Y0041039D01*
X0142976Y0040967D01*
X0143019Y0040897D01*
X0143065Y0040829D01*
X0143115Y0040764D01*
X0143167Y0040700D01*
X0143223Y0040640D01*
X0143281Y0040582D01*
X0143341Y0040526D01*
X0143405Y0040474D01*
X0143470Y0040424D01*
X0143538Y0040378D01*
X0143608Y0040335D01*
X0143680Y0040295D01*
X0143754Y0040258D01*
X0143829Y0040225D01*
X0143906Y0040196D01*
X0143984Y0040170D01*
X0144063Y0040148D01*
X0144143Y0040129D01*
X0144224Y0040115D01*
X0144306Y0040104D01*
X0144388Y0040097D01*
X0144470Y0040093D01*
D15*
X0144000Y0047059D02*
X0147000Y0047059D01*
X0150000Y0047059D01*
X0150000Y0049559D02*
X0147000Y0049559D01*
X0144000Y0049559D01*
X0102200Y0083359D02*
X0102200Y0086359D01*
X0102200Y0089359D01*
X0099700Y0089359D02*
X0099700Y0086359D01*
X0099700Y0083359D01*
D16*
X0101293Y0080613D02*
X0100542Y0079862D01*
X0100542Y0076859D01*
X0101293Y0076109D01*
X0102794Y0076109D01*
X0103545Y0076859D01*
X0105146Y0076109D02*
X0108149Y0079111D01*
X0108149Y0079862D01*
X0107398Y0080613D01*
X0105897Y0080613D01*
X0105146Y0079862D01*
X0103545Y0079862D02*
X0102794Y0080613D01*
X0101293Y0080613D01*
X0105146Y0076109D02*
X0108149Y0076109D01*
X0136246Y0079609D02*
X0136246Y0081861D01*
X0136997Y0082611D01*
X0138498Y0082611D01*
X0139249Y0081861D01*
X0139249Y0079609D01*
X0140750Y0079609D02*
X0136246Y0079609D01*
X0139249Y0081110D02*
X0140750Y0082611D01*
X0140750Y0084213D02*
X0140750Y0086465D01*
X0139999Y0087215D01*
X0139249Y0087215D01*
X0138498Y0086465D01*
X0138498Y0084213D01*
X0138498Y0086465D02*
X0137747Y0087215D01*
X0136997Y0087215D01*
X0136246Y0086465D01*
X0136246Y0084213D01*
X0140750Y0084213D01*
X0157250Y0055507D02*
X0157250Y0052505D01*
X0157250Y0054006D02*
X0152746Y0054006D01*
X0154247Y0052505D01*
X0153497Y0050903D02*
X0152746Y0050153D01*
X0152746Y0048652D01*
X0153497Y0047901D01*
X0156499Y0047901D01*
X0157250Y0048652D01*
X0157250Y0050153D01*
X0156499Y0050903D01*
X0140750Y0132609D02*
X0136246Y0132609D01*
X0136246Y0134861D01*
X0136997Y0135611D01*
X0138498Y0135611D01*
X0139249Y0134861D01*
X0139249Y0132609D01*
X0139249Y0134110D02*
X0140750Y0135611D01*
X0140750Y0137213D02*
X0137747Y0137213D01*
X0136246Y0138714D01*
X0137747Y0140215D01*
X0140750Y0140215D01*
X0138498Y0140215D02*
X0138498Y0137213D01*
X0100426Y0140609D02*
X0097423Y0140609D01*
X0098924Y0140609D02*
X0098924Y0145113D01*
X0097423Y0143611D01*
X0095822Y0144362D02*
X0095071Y0145113D01*
X0093570Y0145113D01*
X0092819Y0144362D01*
X0092819Y0141359D01*
X0093570Y0140609D01*
X0095071Y0140609D01*
X0095822Y0141359D01*
X0091251Y0140609D02*
X0089750Y0140609D01*
X0090501Y0140609D02*
X0090501Y0145113D01*
X0091251Y0145113D02*
X0089750Y0145113D01*
X0085500Y0183359D02*
X0085500Y0215359D01*
X0126500Y0215359D01*
X0126500Y0183359D01*
X0085500Y0183359D01*
X0086500Y0189359D02*
X0086500Y0209359D01*
X0125500Y0209359D01*
X0125500Y0189359D01*
X0086500Y0189359D01*
X0086986Y0199359D02*
X0086989Y0199580D01*
X0086997Y0199801D01*
X0087010Y0200022D01*
X0087029Y0200243D01*
X0087054Y0200462D01*
X0087084Y0200682D01*
X0087119Y0200900D01*
X0087159Y0201118D01*
X0087205Y0201334D01*
X0087256Y0201549D01*
X0087313Y0201763D01*
X0087374Y0201976D01*
X0087441Y0202187D01*
X0087513Y0202396D01*
X0087590Y0202603D01*
X0087672Y0202809D01*
X0087759Y0203012D01*
X0087851Y0203213D01*
X0087948Y0203412D01*
X0088050Y0203608D01*
X0088157Y0203802D01*
X0088268Y0203993D01*
X0088384Y0204181D01*
X0088505Y0204367D01*
X0088630Y0204549D01*
X0088760Y0204729D01*
X0088894Y0204905D01*
X0089032Y0205077D01*
X0089175Y0205247D01*
X0089321Y0205412D01*
X0089472Y0205575D01*
X0089626Y0205733D01*
X0089784Y0205887D01*
X0089947Y0206038D01*
X0090112Y0206184D01*
X0090282Y0206327D01*
X0090454Y0206465D01*
X0090630Y0206599D01*
X0090810Y0206729D01*
X0090992Y0206854D01*
X0091178Y0206975D01*
X0091366Y0207091D01*
X0091557Y0207202D01*
X0091751Y0207309D01*
X0091947Y0207411D01*
X0092146Y0207508D01*
X0092347Y0207600D01*
X0092550Y0207687D01*
X0092756Y0207769D01*
X0092963Y0207846D01*
X0093172Y0207918D01*
X0093383Y0207985D01*
X0093596Y0208046D01*
X0093810Y0208103D01*
X0094025Y0208154D01*
X0094241Y0208200D01*
X0094459Y0208240D01*
X0094677Y0208275D01*
X0094897Y0208305D01*
X0095116Y0208330D01*
X0095337Y0208349D01*
X0095558Y0208362D01*
X0095779Y0208370D01*
X0096000Y0208373D01*
X0096221Y0208370D01*
X0096442Y0208362D01*
X0096663Y0208349D01*
X0096884Y0208330D01*
X0097103Y0208305D01*
X0097323Y0208275D01*
X0097541Y0208240D01*
X0097759Y0208200D01*
X0097975Y0208154D01*
X0098190Y0208103D01*
X0098404Y0208046D01*
X0098617Y0207985D01*
X0098828Y0207918D01*
X0099037Y0207846D01*
X0099244Y0207769D01*
X0099450Y0207687D01*
X0099653Y0207600D01*
X0099854Y0207508D01*
X0100053Y0207411D01*
X0100249Y0207309D01*
X0100443Y0207202D01*
X0100634Y0207091D01*
X0100822Y0206975D01*
X0101008Y0206854D01*
X0101190Y0206729D01*
X0101370Y0206599D01*
X0101546Y0206465D01*
X0101718Y0206327D01*
X0101888Y0206184D01*
X0102053Y0206038D01*
X0102216Y0205887D01*
X0102374Y0205733D01*
X0102528Y0205575D01*
X0102679Y0205412D01*
X0102825Y0205247D01*
X0102968Y0205077D01*
X0103106Y0204905D01*
X0103240Y0204729D01*
X0103370Y0204549D01*
X0103495Y0204367D01*
X0103616Y0204181D01*
X0103732Y0203993D01*
X0103843Y0203802D01*
X0103950Y0203608D01*
X0104052Y0203412D01*
X0104149Y0203213D01*
X0104241Y0203012D01*
X0104328Y0202809D01*
X0104410Y0202603D01*
X0104487Y0202396D01*
X0104559Y0202187D01*
X0104626Y0201976D01*
X0104687Y0201763D01*
X0104744Y0201549D01*
X0104795Y0201334D01*
X0104841Y0201118D01*
X0104881Y0200900D01*
X0104916Y0200682D01*
X0104946Y0200462D01*
X0104971Y0200243D01*
X0104990Y0200022D01*
X0105003Y0199801D01*
X0105011Y0199580D01*
X0105014Y0199359D01*
X0105011Y0199138D01*
X0105003Y0198917D01*
X0104990Y0198696D01*
X0104971Y0198475D01*
X0104946Y0198256D01*
X0104916Y0198036D01*
X0104881Y0197818D01*
X0104841Y0197600D01*
X0104795Y0197384D01*
X0104744Y0197169D01*
X0104687Y0196955D01*
X0104626Y0196742D01*
X0104559Y0196531D01*
X0104487Y0196322D01*
X0104410Y0196115D01*
X0104328Y0195909D01*
X0104241Y0195706D01*
X0104149Y0195505D01*
X0104052Y0195306D01*
X0103950Y0195110D01*
X0103843Y0194916D01*
X0103732Y0194725D01*
X0103616Y0194537D01*
X0103495Y0194351D01*
X0103370Y0194169D01*
X0103240Y0193989D01*
X0103106Y0193813D01*
X0102968Y0193641D01*
X0102825Y0193471D01*
X0102679Y0193306D01*
X0102528Y0193143D01*
X0102374Y0192985D01*
X0102216Y0192831D01*
X0102053Y0192680D01*
X0101888Y0192534D01*
X0101718Y0192391D01*
X0101546Y0192253D01*
X0101370Y0192119D01*
X0101190Y0191989D01*
X0101008Y0191864D01*
X0100822Y0191743D01*
X0100634Y0191627D01*
X0100443Y0191516D01*
X0100249Y0191409D01*
X0100053Y0191307D01*
X0099854Y0191210D01*
X0099653Y0191118D01*
X0099450Y0191031D01*
X0099244Y0190949D01*
X0099037Y0190872D01*
X0098828Y0190800D01*
X0098617Y0190733D01*
X0098404Y0190672D01*
X0098190Y0190615D01*
X0097975Y0190564D01*
X0097759Y0190518D01*
X0097541Y0190478D01*
X0097323Y0190443D01*
X0097103Y0190413D01*
X0096884Y0190388D01*
X0096663Y0190369D01*
X0096442Y0190356D01*
X0096221Y0190348D01*
X0096000Y0190345D01*
X0095779Y0190348D01*
X0095558Y0190356D01*
X0095337Y0190369D01*
X0095116Y0190388D01*
X0094897Y0190413D01*
X0094677Y0190443D01*
X0094459Y0190478D01*
X0094241Y0190518D01*
X0094025Y0190564D01*
X0093810Y0190615D01*
X0093596Y0190672D01*
X0093383Y0190733D01*
X0093172Y0190800D01*
X0092963Y0190872D01*
X0092756Y0190949D01*
X0092550Y0191031D01*
X0092347Y0191118D01*
X0092146Y0191210D01*
X0091947Y0191307D01*
X0091751Y0191409D01*
X0091557Y0191516D01*
X0091366Y0191627D01*
X0091178Y0191743D01*
X0090992Y0191864D01*
X0090810Y0191989D01*
X0090630Y0192119D01*
X0090454Y0192253D01*
X0090282Y0192391D01*
X0090112Y0192534D01*
X0089947Y0192680D01*
X0089784Y0192831D01*
X0089626Y0192985D01*
X0089472Y0193143D01*
X0089321Y0193306D01*
X0089175Y0193471D01*
X0089032Y0193641D01*
X0088894Y0193813D01*
X0088760Y0193989D01*
X0088630Y0194169D01*
X0088505Y0194351D01*
X0088384Y0194537D01*
X0088268Y0194725D01*
X0088157Y0194916D01*
X0088050Y0195110D01*
X0087948Y0195306D01*
X0087851Y0195505D01*
X0087759Y0195706D01*
X0087672Y0195909D01*
X0087590Y0196115D01*
X0087513Y0196322D01*
X0087441Y0196531D01*
X0087374Y0196742D01*
X0087313Y0196955D01*
X0087256Y0197169D01*
X0087205Y0197384D01*
X0087159Y0197600D01*
X0087119Y0197818D01*
X0087084Y0198036D01*
X0087054Y0198256D01*
X0087029Y0198475D01*
X0087010Y0198696D01*
X0086997Y0198917D01*
X0086989Y0199138D01*
X0086986Y0199359D01*
X0106986Y0199359D02*
X0106989Y0199580D01*
X0106997Y0199801D01*
X0107010Y0200022D01*
X0107029Y0200243D01*
X0107054Y0200462D01*
X0107084Y0200682D01*
X0107119Y0200900D01*
X0107159Y0201118D01*
X0107205Y0201334D01*
X0107256Y0201549D01*
X0107313Y0201763D01*
X0107374Y0201976D01*
X0107441Y0202187D01*
X0107513Y0202396D01*
X0107590Y0202603D01*
X0107672Y0202809D01*
X0107759Y0203012D01*
X0107851Y0203213D01*
X0107948Y0203412D01*
X0108050Y0203608D01*
X0108157Y0203802D01*
X0108268Y0203993D01*
X0108384Y0204181D01*
X0108505Y0204367D01*
X0108630Y0204549D01*
X0108760Y0204729D01*
X0108894Y0204905D01*
X0109032Y0205077D01*
X0109175Y0205247D01*
X0109321Y0205412D01*
X0109472Y0205575D01*
X0109626Y0205733D01*
X0109784Y0205887D01*
X0109947Y0206038D01*
X0110112Y0206184D01*
X0110282Y0206327D01*
X0110454Y0206465D01*
X0110630Y0206599D01*
X0110810Y0206729D01*
X0110992Y0206854D01*
X0111178Y0206975D01*
X0111366Y0207091D01*
X0111557Y0207202D01*
X0111751Y0207309D01*
X0111947Y0207411D01*
X0112146Y0207508D01*
X0112347Y0207600D01*
X0112550Y0207687D01*
X0112756Y0207769D01*
X0112963Y0207846D01*
X0113172Y0207918D01*
X0113383Y0207985D01*
X0113596Y0208046D01*
X0113810Y0208103D01*
X0114025Y0208154D01*
X0114241Y0208200D01*
X0114459Y0208240D01*
X0114677Y0208275D01*
X0114897Y0208305D01*
X0115116Y0208330D01*
X0115337Y0208349D01*
X0115558Y0208362D01*
X0115779Y0208370D01*
X0116000Y0208373D01*
X0116221Y0208370D01*
X0116442Y0208362D01*
X0116663Y0208349D01*
X0116884Y0208330D01*
X0117103Y0208305D01*
X0117323Y0208275D01*
X0117541Y0208240D01*
X0117759Y0208200D01*
X0117975Y0208154D01*
X0118190Y0208103D01*
X0118404Y0208046D01*
X0118617Y0207985D01*
X0118828Y0207918D01*
X0119037Y0207846D01*
X0119244Y0207769D01*
X0119450Y0207687D01*
X0119653Y0207600D01*
X0119854Y0207508D01*
X0120053Y0207411D01*
X0120249Y0207309D01*
X0120443Y0207202D01*
X0120634Y0207091D01*
X0120822Y0206975D01*
X0121008Y0206854D01*
X0121190Y0206729D01*
X0121370Y0206599D01*
X0121546Y0206465D01*
X0121718Y0206327D01*
X0121888Y0206184D01*
X0122053Y0206038D01*
X0122216Y0205887D01*
X0122374Y0205733D01*
X0122528Y0205575D01*
X0122679Y0205412D01*
X0122825Y0205247D01*
X0122968Y0205077D01*
X0123106Y0204905D01*
X0123240Y0204729D01*
X0123370Y0204549D01*
X0123495Y0204367D01*
X0123616Y0204181D01*
X0123732Y0203993D01*
X0123843Y0203802D01*
X0123950Y0203608D01*
X0124052Y0203412D01*
X0124149Y0203213D01*
X0124241Y0203012D01*
X0124328Y0202809D01*
X0124410Y0202603D01*
X0124487Y0202396D01*
X0124559Y0202187D01*
X0124626Y0201976D01*
X0124687Y0201763D01*
X0124744Y0201549D01*
X0124795Y0201334D01*
X0124841Y0201118D01*
X0124881Y0200900D01*
X0124916Y0200682D01*
X0124946Y0200462D01*
X0124971Y0200243D01*
X0124990Y0200022D01*
X0125003Y0199801D01*
X0125011Y0199580D01*
X0125014Y0199359D01*
X0125011Y0199138D01*
X0125003Y0198917D01*
X0124990Y0198696D01*
X0124971Y0198475D01*
X0124946Y0198256D01*
X0124916Y0198036D01*
X0124881Y0197818D01*
X0124841Y0197600D01*
X0124795Y0197384D01*
X0124744Y0197169D01*
X0124687Y0196955D01*
X0124626Y0196742D01*
X0124559Y0196531D01*
X0124487Y0196322D01*
X0124410Y0196115D01*
X0124328Y0195909D01*
X0124241Y0195706D01*
X0124149Y0195505D01*
X0124052Y0195306D01*
X0123950Y0195110D01*
X0123843Y0194916D01*
X0123732Y0194725D01*
X0123616Y0194537D01*
X0123495Y0194351D01*
X0123370Y0194169D01*
X0123240Y0193989D01*
X0123106Y0193813D01*
X0122968Y0193641D01*
X0122825Y0193471D01*
X0122679Y0193306D01*
X0122528Y0193143D01*
X0122374Y0192985D01*
X0122216Y0192831D01*
X0122053Y0192680D01*
X0121888Y0192534D01*
X0121718Y0192391D01*
X0121546Y0192253D01*
X0121370Y0192119D01*
X0121190Y0191989D01*
X0121008Y0191864D01*
X0120822Y0191743D01*
X0120634Y0191627D01*
X0120443Y0191516D01*
X0120249Y0191409D01*
X0120053Y0191307D01*
X0119854Y0191210D01*
X0119653Y0191118D01*
X0119450Y0191031D01*
X0119244Y0190949D01*
X0119037Y0190872D01*
X0118828Y0190800D01*
X0118617Y0190733D01*
X0118404Y0190672D01*
X0118190Y0190615D01*
X0117975Y0190564D01*
X0117759Y0190518D01*
X0117541Y0190478D01*
X0117323Y0190443D01*
X0117103Y0190413D01*
X0116884Y0190388D01*
X0116663Y0190369D01*
X0116442Y0190356D01*
X0116221Y0190348D01*
X0116000Y0190345D01*
X0115779Y0190348D01*
X0115558Y0190356D01*
X0115337Y0190369D01*
X0115116Y0190388D01*
X0114897Y0190413D01*
X0114677Y0190443D01*
X0114459Y0190478D01*
X0114241Y0190518D01*
X0114025Y0190564D01*
X0113810Y0190615D01*
X0113596Y0190672D01*
X0113383Y0190733D01*
X0113172Y0190800D01*
X0112963Y0190872D01*
X0112756Y0190949D01*
X0112550Y0191031D01*
X0112347Y0191118D01*
X0112146Y0191210D01*
X0111947Y0191307D01*
X0111751Y0191409D01*
X0111557Y0191516D01*
X0111366Y0191627D01*
X0111178Y0191743D01*
X0110992Y0191864D01*
X0110810Y0191989D01*
X0110630Y0192119D01*
X0110454Y0192253D01*
X0110282Y0192391D01*
X0110112Y0192534D01*
X0109947Y0192680D01*
X0109784Y0192831D01*
X0109626Y0192985D01*
X0109472Y0193143D01*
X0109321Y0193306D01*
X0109175Y0193471D01*
X0109032Y0193641D01*
X0108894Y0193813D01*
X0108760Y0193989D01*
X0108630Y0194169D01*
X0108505Y0194351D01*
X0108384Y0194537D01*
X0108268Y0194725D01*
X0108157Y0194916D01*
X0108050Y0195110D01*
X0107948Y0195306D01*
X0107851Y0195505D01*
X0107759Y0195706D01*
X0107672Y0195909D01*
X0107590Y0196115D01*
X0107513Y0196322D01*
X0107441Y0196531D01*
X0107374Y0196742D01*
X0107313Y0196955D01*
X0107256Y0197169D01*
X0107205Y0197384D01*
X0107159Y0197600D01*
X0107119Y0197818D01*
X0107084Y0198036D01*
X0107054Y0198256D01*
X0107029Y0198475D01*
X0107010Y0198696D01*
X0106997Y0198917D01*
X0106989Y0199138D01*
X0106986Y0199359D01*
X0051106Y0125113D02*
X0049605Y0125113D01*
X0048854Y0124362D01*
X0048854Y0121359D01*
X0049605Y0120609D01*
X0051106Y0120609D01*
X0051856Y0121359D01*
X0051856Y0124362D02*
X0051106Y0125113D01*
X0047253Y0124362D02*
X0047253Y0122861D01*
X0046502Y0122110D01*
X0044250Y0122110D01*
X0044250Y0120609D02*
X0044250Y0125113D01*
X0046502Y0125113D01*
X0047253Y0124362D01*
X0045751Y0122110D02*
X0047253Y0120609D01*
X0024149Y0130509D02*
X0021146Y0130509D01*
X0022647Y0130509D02*
X0022647Y0135013D01*
X0021146Y0133511D01*
X0019545Y0134262D02*
X0019545Y0131259D01*
X0018794Y0130509D01*
X0016542Y0130509D01*
X0016542Y0135013D01*
X0018794Y0135013D01*
X0019545Y0134262D01*
X0014941Y0135013D02*
X0011938Y0135013D01*
X0011938Y0130509D01*
X0014941Y0130509D01*
X0013439Y0132761D02*
X0011938Y0132761D01*
X0010337Y0130509D02*
X0007334Y0130509D01*
X0007334Y0135013D01*
X0021451Y0069313D02*
X0022953Y0069313D01*
X0022202Y0069313D02*
X0022202Y0065559D01*
X0021451Y0064809D01*
X0020701Y0064809D01*
X0019950Y0065559D01*
X0024554Y0064809D02*
X0027556Y0064809D01*
X0026055Y0064809D02*
X0026055Y0069313D01*
X0024554Y0067811D01*
D17*
X0024500Y0071359D02*
X0019500Y0071359D01*
X0017000Y0073859D01*
X0017000Y0078859D01*
X0019500Y0081359D01*
X0017000Y0083859D01*
X0017000Y0088859D01*
X0019500Y0091359D01*
X0024500Y0091359D01*
X0027000Y0088859D01*
X0027000Y0083859D01*
X0024500Y0081359D01*
X0027000Y0078859D01*
X0027000Y0073859D01*
X0024500Y0071359D01*
X0007000Y0106859D02*
X0007000Y0121859D01*
D18*
X0006671Y0106550D02*
X0007391Y0107090D01*
X0007390Y0107089D02*
X0007571Y0106856D01*
X0007757Y0106628D01*
X0007949Y0106404D01*
X0008146Y0106185D01*
X0008348Y0105971D01*
X0008556Y0105762D01*
X0008769Y0105559D01*
X0008986Y0105360D01*
X0009209Y0105167D01*
X0009436Y0104979D01*
X0009667Y0104797D01*
X0009903Y0104620D01*
X0010144Y0104450D01*
X0010388Y0104285D01*
X0010636Y0104127D01*
X0010888Y0103974D01*
X0011144Y0103828D01*
X0011403Y0103688D01*
X0011666Y0103554D01*
X0011931Y0103427D01*
X0012200Y0103306D01*
X0012472Y0103192D01*
X0012746Y0103085D01*
X0013023Y0102984D01*
X0013302Y0102890D01*
X0013584Y0102803D01*
X0013867Y0102723D01*
X0014153Y0102650D01*
X0014440Y0102584D01*
X0014729Y0102525D01*
X0015019Y0102473D01*
X0015310Y0102428D01*
X0015602Y0102390D01*
X0015895Y0102360D01*
X0016189Y0102336D01*
X0016483Y0102320D01*
X0016777Y0102311D01*
X0017072Y0102309D01*
X0017367Y0102315D01*
X0017661Y0102327D01*
X0017955Y0102347D01*
X0018248Y0102374D01*
X0018541Y0102408D01*
X0018833Y0102449D01*
X0019123Y0102498D01*
X0019413Y0102553D01*
X0019700Y0102615D01*
X0019987Y0102685D01*
X0020271Y0102762D01*
X0020554Y0102845D01*
X0020834Y0102935D01*
X0021112Y0103032D01*
X0021388Y0103136D01*
X0021661Y0103247D01*
X0021931Y0103364D01*
X0022199Y0103488D01*
X0022463Y0103618D01*
X0022724Y0103755D01*
X0022981Y0103898D01*
X0023235Y0104048D01*
X0023486Y0104203D01*
X0023732Y0104365D01*
X0023974Y0104532D01*
X0024212Y0104706D01*
X0024446Y0104885D01*
X0024676Y0105070D01*
X0024900Y0105260D01*
X0025121Y0105456D01*
X0025336Y0105657D01*
X0025546Y0105864D01*
X0025751Y0106075D01*
X0025951Y0106292D01*
X0026146Y0106513D01*
X0026335Y0106739D01*
X0026518Y0106969D01*
X0026696Y0107204D01*
X0026868Y0107444D01*
X0027034Y0107687D01*
X0027194Y0107934D01*
X0027348Y0108185D01*
X0027496Y0108440D01*
X0027638Y0108699D01*
X0027773Y0108960D01*
X0027902Y0109225D01*
X0028024Y0109493D01*
X0028140Y0109764D01*
X0028249Y0110038D01*
X0028351Y0110314D01*
X0028446Y0110593D01*
X0028535Y0110874D01*
X0028617Y0111157D01*
X0028692Y0111442D01*
X0028759Y0111729D01*
X0028820Y0112017D01*
X0028874Y0112307D01*
X0028921Y0112598D01*
X0028960Y0112890D01*
X0028992Y0113182D01*
X0029018Y0113476D01*
X0029036Y0113770D01*
X0029046Y0114064D01*
X0029050Y0114359D01*
X0029046Y0114654D01*
X0029036Y0114948D01*
X0029018Y0115242D01*
X0028992Y0115536D01*
X0028960Y0115828D01*
X0028921Y0116120D01*
X0028874Y0116411D01*
X0028820Y0116701D01*
X0028759Y0116989D01*
X0028692Y0117276D01*
X0028617Y0117561D01*
X0028535Y0117844D01*
X0028446Y0118125D01*
X0028351Y0118404D01*
X0028249Y0118680D01*
X0028140Y0118954D01*
X0028024Y0119225D01*
X0027902Y0119493D01*
X0027773Y0119758D01*
X0027638Y0120019D01*
X0027496Y0120278D01*
X0027348Y0120533D01*
X0027194Y0120784D01*
X0027034Y0121031D01*
X0026868Y0121274D01*
X0026696Y0121514D01*
X0026518Y0121749D01*
X0026335Y0121979D01*
X0026146Y0122205D01*
X0025951Y0122426D01*
X0025751Y0122643D01*
X0025546Y0122854D01*
X0025336Y0123061D01*
X0025121Y0123262D01*
X0024900Y0123458D01*
X0024676Y0123648D01*
X0024446Y0123833D01*
X0024212Y0124012D01*
X0023974Y0124186D01*
X0023732Y0124353D01*
X0023486Y0124515D01*
X0023235Y0124670D01*
X0022981Y0124820D01*
X0022724Y0124963D01*
X0022463Y0125100D01*
X0022199Y0125230D01*
X0021931Y0125354D01*
X0021661Y0125471D01*
X0021388Y0125582D01*
X0021112Y0125686D01*
X0020834Y0125783D01*
X0020554Y0125873D01*
X0020271Y0125956D01*
X0019987Y0126033D01*
X0019700Y0126103D01*
X0019413Y0126165D01*
X0019123Y0126220D01*
X0018833Y0126269D01*
X0018541Y0126310D01*
X0018248Y0126344D01*
X0017955Y0126371D01*
X0017661Y0126391D01*
X0017367Y0126403D01*
X0017072Y0126409D01*
X0016777Y0126407D01*
X0016483Y0126398D01*
X0016189Y0126382D01*
X0015895Y0126358D01*
X0015602Y0126328D01*
X0015310Y0126290D01*
X0015019Y0126245D01*
X0014729Y0126193D01*
X0014440Y0126134D01*
X0014153Y0126068D01*
X0013867Y0125995D01*
X0013584Y0125915D01*
X0013302Y0125828D01*
X0013023Y0125734D01*
X0012746Y0125633D01*
X0012472Y0125526D01*
X0012200Y0125412D01*
X0011931Y0125291D01*
X0011666Y0125164D01*
X0011403Y0125030D01*
X0011144Y0124890D01*
X0010888Y0124744D01*
X0010636Y0124591D01*
X0010388Y0124433D01*
X0010144Y0124268D01*
X0009903Y0124098D01*
X0009667Y0123921D01*
X0009436Y0123739D01*
X0009209Y0123551D01*
X0008986Y0123358D01*
X0008769Y0123159D01*
X0008556Y0122956D01*
X0008348Y0122747D01*
X0008146Y0122533D01*
X0007949Y0122314D01*
X0007757Y0122090D01*
X0007571Y0121862D01*
X0007390Y0121629D01*
X0006671Y0122168D01*
X0006670Y0122169D01*
X0006864Y0122419D01*
X0007064Y0122665D01*
X0007270Y0122905D01*
X0007482Y0123140D01*
X0007700Y0123370D01*
X0007923Y0123595D01*
X0008151Y0123814D01*
X0008385Y0124028D01*
X0008624Y0124236D01*
X0008868Y0124438D01*
X0009117Y0124633D01*
X0009371Y0124823D01*
X0009629Y0125006D01*
X0009891Y0125183D01*
X0010158Y0125354D01*
X0010429Y0125518D01*
X0010704Y0125675D01*
X0010982Y0125826D01*
X0011265Y0125970D01*
X0011550Y0126106D01*
X0011839Y0126236D01*
X0012131Y0126359D01*
X0012426Y0126474D01*
X0012723Y0126582D01*
X0013024Y0126683D01*
X0013326Y0126777D01*
X0013631Y0126863D01*
X0013938Y0126942D01*
X0014246Y0127013D01*
X0014556Y0127076D01*
X0014868Y0127132D01*
X0015181Y0127181D01*
X0015495Y0127221D01*
X0015810Y0127254D01*
X0016126Y0127279D01*
X0016442Y0127297D01*
X0016758Y0127307D01*
X0017075Y0127309D01*
X0017392Y0127303D01*
X0017708Y0127290D01*
X0018024Y0127268D01*
X0018339Y0127240D01*
X0018654Y0127203D01*
X0018967Y0127159D01*
X0019280Y0127107D01*
X0019591Y0127047D01*
X0019900Y0126980D01*
X0020208Y0126905D01*
X0020514Y0126823D01*
X0020817Y0126734D01*
X0021119Y0126637D01*
X0021418Y0126532D01*
X0021714Y0126420D01*
X0022008Y0126302D01*
X0022298Y0126176D01*
X0022585Y0126043D01*
X0022870Y0125902D01*
X0023150Y0125755D01*
X0023427Y0125602D01*
X0023700Y0125441D01*
X0023969Y0125274D01*
X0024234Y0125100D01*
X0024494Y0124920D01*
X0024750Y0124734D01*
X0025001Y0124541D01*
X0025248Y0124343D01*
X0025490Y0124138D01*
X0025726Y0123928D01*
X0025958Y0123711D01*
X0026183Y0123489D01*
X0026404Y0123262D01*
X0026619Y0123030D01*
X0026828Y0122792D01*
X0027031Y0122549D01*
X0027229Y0122301D01*
X0027420Y0122049D01*
X0027605Y0121792D01*
X0027783Y0121530D01*
X0027955Y0121264D01*
X0028121Y0120995D01*
X0028280Y0120721D01*
X0028432Y0120443D01*
X0028577Y0120162D01*
X0028716Y0119877D01*
X0028847Y0119589D01*
X0028971Y0119297D01*
X0029089Y0119003D01*
X0029199Y0118706D01*
X0029301Y0118407D01*
X0029396Y0118105D01*
X0029484Y0117801D01*
X0029565Y0117494D01*
X0029638Y0117186D01*
X0029703Y0116876D01*
X0029761Y0116565D01*
X0029811Y0116252D01*
X0029853Y0115938D01*
X0029888Y0115624D01*
X0029915Y0115308D01*
X0029935Y0114992D01*
X0029946Y0114676D01*
X0029950Y0114359D01*
X0029946Y0114042D01*
X0029935Y0113726D01*
X0029915Y0113410D01*
X0029888Y0113094D01*
X0029853Y0112780D01*
X0029811Y0112466D01*
X0029761Y0112153D01*
X0029703Y0111842D01*
X0029638Y0111532D01*
X0029565Y0111224D01*
X0029484Y0110917D01*
X0029396Y0110613D01*
X0029301Y0110311D01*
X0029199Y0110012D01*
X0029089Y0109715D01*
X0028971Y0109421D01*
X0028847Y0109129D01*
X0028716Y0108841D01*
X0028577Y0108556D01*
X0028432Y0108275D01*
X0028280Y0107997D01*
X0028121Y0107723D01*
X0027955Y0107454D01*
X0027783Y0107188D01*
X0027605Y0106926D01*
X0027420Y0106669D01*
X0027229Y0106417D01*
X0027031Y0106169D01*
X0026828Y0105926D01*
X0026619Y0105688D01*
X0026404Y0105456D01*
X0026183Y0105229D01*
X0025958Y0105007D01*
X0025726Y0104790D01*
X0025490Y0104580D01*
X0025248Y0104375D01*
X0025001Y0104177D01*
X0024750Y0103984D01*
X0024494Y0103798D01*
X0024234Y0103618D01*
X0023969Y0103444D01*
X0023700Y0103277D01*
X0023427Y0103116D01*
X0023150Y0102963D01*
X0022870Y0102816D01*
X0022585Y0102675D01*
X0022298Y0102542D01*
X0022008Y0102416D01*
X0021714Y0102298D01*
X0021418Y0102186D01*
X0021119Y0102081D01*
X0020817Y0101984D01*
X0020514Y0101895D01*
X0020208Y0101813D01*
X0019900Y0101738D01*
X0019591Y0101671D01*
X0019280Y0101611D01*
X0018967Y0101559D01*
X0018654Y0101515D01*
X0018339Y0101478D01*
X0018024Y0101450D01*
X0017708Y0101428D01*
X0017392Y0101415D01*
X0017075Y0101409D01*
X0016758Y0101411D01*
X0016442Y0101421D01*
X0016126Y0101439D01*
X0015810Y0101464D01*
X0015495Y0101497D01*
X0015181Y0101537D01*
X0014868Y0101586D01*
X0014556Y0101642D01*
X0014246Y0101705D01*
X0013938Y0101776D01*
X0013631Y0101855D01*
X0013326Y0101941D01*
X0013024Y0102035D01*
X0012723Y0102136D01*
X0012426Y0102244D01*
X0012131Y0102359D01*
X0011839Y0102482D01*
X0011550Y0102612D01*
X0011265Y0102748D01*
X0010982Y0102892D01*
X0010704Y0103043D01*
X0010429Y0103200D01*
X0010158Y0103364D01*
X0009891Y0103535D01*
X0009629Y0103712D01*
X0009371Y0103895D01*
X0009117Y0104085D01*
X0008868Y0104280D01*
X0008624Y0104482D01*
X0008385Y0104690D01*
X0008151Y0104904D01*
X0007923Y0105123D01*
X0007700Y0105348D01*
X0007482Y0105578D01*
X0007270Y0105813D01*
X0007064Y0106053D01*
X0006864Y0106299D01*
X0006670Y0106549D01*
X0006745Y0106605D01*
X0006938Y0106357D01*
X0007137Y0106113D01*
X0007341Y0105875D01*
X0007551Y0105641D01*
X0007767Y0105413D01*
X0007989Y0105190D01*
X0008216Y0104972D01*
X0008448Y0104760D01*
X0008685Y0104554D01*
X0008927Y0104353D01*
X0009175Y0104159D01*
X0009426Y0103971D01*
X0009683Y0103789D01*
X0009943Y0103613D01*
X0010208Y0103444D01*
X0010477Y0103281D01*
X0010750Y0103125D01*
X0011026Y0102975D01*
X0011306Y0102833D01*
X0011590Y0102697D01*
X0011877Y0102568D01*
X0012167Y0102446D01*
X0012459Y0102332D01*
X0012755Y0102224D01*
X0013053Y0102124D01*
X0013353Y0102031D01*
X0013656Y0101946D01*
X0013960Y0101868D01*
X0014266Y0101797D01*
X0014574Y0101734D01*
X0014884Y0101678D01*
X0015194Y0101630D01*
X0015506Y0101590D01*
X0015819Y0101557D01*
X0016132Y0101532D01*
X0016446Y0101515D01*
X0016760Y0101505D01*
X0017075Y0101503D01*
X0017389Y0101509D01*
X0017703Y0101522D01*
X0018017Y0101543D01*
X0018330Y0101572D01*
X0018642Y0101608D01*
X0018953Y0101652D01*
X0019263Y0101704D01*
X0019572Y0101763D01*
X0019879Y0101830D01*
X0020185Y0101904D01*
X0020488Y0101985D01*
X0020790Y0102074D01*
X0021089Y0102171D01*
X0021386Y0102274D01*
X0021680Y0102385D01*
X0021971Y0102503D01*
X0022260Y0102628D01*
X0022545Y0102760D01*
X0022827Y0102899D01*
X0023105Y0103045D01*
X0023380Y0103198D01*
X0023651Y0103357D01*
X0023918Y0103523D01*
X0024181Y0103696D01*
X0024440Y0103874D01*
X0024694Y0104059D01*
X0024943Y0104251D01*
X0025188Y0104448D01*
X0025428Y0104651D01*
X0025663Y0104860D01*
X0025893Y0105075D01*
X0026117Y0105295D01*
X0026336Y0105520D01*
X0026549Y0105751D01*
X0026757Y0105987D01*
X0026959Y0106229D01*
X0027154Y0106474D01*
X0027344Y0106725D01*
X0027528Y0106980D01*
X0027705Y0107240D01*
X0027876Y0107504D01*
X0028040Y0107772D01*
X0028198Y0108044D01*
X0028349Y0108319D01*
X0028493Y0108599D01*
X0028631Y0108881D01*
X0028761Y0109167D01*
X0028885Y0109456D01*
X0029001Y0109749D01*
X0029110Y0110043D01*
X0029212Y0110341D01*
X0029306Y0110640D01*
X0029394Y0110943D01*
X0029474Y0111247D01*
X0029546Y0111552D01*
X0029611Y0111860D01*
X0029668Y0112169D01*
X0029718Y0112480D01*
X0029760Y0112791D01*
X0029795Y0113104D01*
X0029821Y0113417D01*
X0029841Y0113731D01*
X0029852Y0114045D01*
X0029856Y0114359D01*
X0029852Y0114673D01*
X0029841Y0114987D01*
X0029821Y0115301D01*
X0029795Y0115614D01*
X0029760Y0115927D01*
X0029718Y0116238D01*
X0029668Y0116549D01*
X0029611Y0116858D01*
X0029546Y0117166D01*
X0029474Y0117471D01*
X0029394Y0117775D01*
X0029306Y0118078D01*
X0029212Y0118377D01*
X0029110Y0118675D01*
X0029001Y0118969D01*
X0028885Y0119262D01*
X0028761Y0119551D01*
X0028631Y0119837D01*
X0028493Y0120119D01*
X0028349Y0120399D01*
X0028198Y0120674D01*
X0028040Y0120946D01*
X0027876Y0121214D01*
X0027705Y0121478D01*
X0027528Y0121738D01*
X0027344Y0121993D01*
X0027154Y0122244D01*
X0026959Y0122489D01*
X0026757Y0122731D01*
X0026549Y0122967D01*
X0026336Y0123198D01*
X0026117Y0123423D01*
X0025893Y0123643D01*
X0025663Y0123858D01*
X0025428Y0124067D01*
X0025188Y0124270D01*
X0024943Y0124467D01*
X0024694Y0124659D01*
X0024440Y0124844D01*
X0024181Y0125022D01*
X0023918Y0125195D01*
X0023651Y0125361D01*
X0023380Y0125520D01*
X0023105Y0125673D01*
X0022827Y0125819D01*
X0022545Y0125958D01*
X0022260Y0126090D01*
X0021971Y0126215D01*
X0021680Y0126333D01*
X0021386Y0126444D01*
X0021089Y0126547D01*
X0020790Y0126644D01*
X0020488Y0126733D01*
X0020185Y0126814D01*
X0019879Y0126888D01*
X0019572Y0126955D01*
X0019263Y0127014D01*
X0018953Y0127066D01*
X0018642Y0127110D01*
X0018330Y0127146D01*
X0018017Y0127175D01*
X0017703Y0127196D01*
X0017389Y0127209D01*
X0017075Y0127215D01*
X0016760Y0127213D01*
X0016446Y0127203D01*
X0016132Y0127186D01*
X0015819Y0127161D01*
X0015506Y0127128D01*
X0015194Y0127088D01*
X0014884Y0127040D01*
X0014574Y0126984D01*
X0014266Y0126921D01*
X0013960Y0126850D01*
X0013656Y0126772D01*
X0013353Y0126687D01*
X0013053Y0126594D01*
X0012755Y0126494D01*
X0012459Y0126386D01*
X0012167Y0126272D01*
X0011877Y0126150D01*
X0011590Y0126021D01*
X0011306Y0125885D01*
X0011026Y0125743D01*
X0010750Y0125593D01*
X0010477Y0125437D01*
X0010208Y0125274D01*
X0009943Y0125105D01*
X0009683Y0124929D01*
X0009426Y0124747D01*
X0009175Y0124559D01*
X0008927Y0124365D01*
X0008685Y0124164D01*
X0008448Y0123958D01*
X0008216Y0123746D01*
X0007989Y0123528D01*
X0007767Y0123305D01*
X0007551Y0123077D01*
X0007341Y0122843D01*
X0007137Y0122605D01*
X0006938Y0122361D01*
X0006745Y0122113D01*
X0006820Y0122056D01*
X0007012Y0122303D01*
X0007209Y0122545D01*
X0007412Y0122782D01*
X0007621Y0123013D01*
X0007835Y0123240D01*
X0008055Y0123462D01*
X0008280Y0123678D01*
X0008511Y0123888D01*
X0008746Y0124093D01*
X0008987Y0124292D01*
X0009232Y0124485D01*
X0009482Y0124671D01*
X0009736Y0124852D01*
X0009995Y0125027D01*
X0010258Y0125195D01*
X0010525Y0125356D01*
X0010796Y0125511D01*
X0011070Y0125660D01*
X0011348Y0125801D01*
X0011630Y0125936D01*
X0011914Y0126064D01*
X0012202Y0126185D01*
X0012493Y0126299D01*
X0012786Y0126405D01*
X0013082Y0126505D01*
X0013380Y0126597D01*
X0013680Y0126682D01*
X0013983Y0126759D01*
X0014287Y0126829D01*
X0014592Y0126892D01*
X0014899Y0126947D01*
X0015208Y0126995D01*
X0015517Y0127035D01*
X0015828Y0127067D01*
X0016139Y0127092D01*
X0016450Y0127109D01*
X0016762Y0127119D01*
X0017074Y0127121D01*
X0017386Y0127115D01*
X0017698Y0127102D01*
X0018009Y0127081D01*
X0018320Y0127053D01*
X0018630Y0127016D01*
X0018939Y0126973D01*
X0019247Y0126922D01*
X0019554Y0126863D01*
X0019858Y0126797D01*
X0020162Y0126723D01*
X0020463Y0126642D01*
X0020762Y0126554D01*
X0021059Y0126458D01*
X0021354Y0126355D01*
X0021646Y0126245D01*
X0021935Y0126128D01*
X0022222Y0126004D01*
X0022505Y0125873D01*
X0022785Y0125735D01*
X0023061Y0125590D01*
X0023334Y0125438D01*
X0023603Y0125280D01*
X0023868Y0125115D01*
X0024129Y0124944D01*
X0024385Y0124767D01*
X0024638Y0124583D01*
X0024885Y0124393D01*
X0025128Y0124198D01*
X0025367Y0123996D01*
X0025600Y0123788D01*
X0025828Y0123575D01*
X0026050Y0123357D01*
X0026268Y0123133D01*
X0026479Y0122904D01*
X0026685Y0122669D01*
X0026886Y0122430D01*
X0027080Y0122186D01*
X0027268Y0121937D01*
X0027451Y0121684D01*
X0027627Y0121426D01*
X0027796Y0121164D01*
X0027959Y0120898D01*
X0028116Y0120628D01*
X0028266Y0120354D01*
X0028409Y0120077D01*
X0028546Y0119797D01*
X0028675Y0119513D01*
X0028798Y0119226D01*
X0028913Y0118936D01*
X0029021Y0118643D01*
X0029123Y0118348D01*
X0029217Y0118050D01*
X0029303Y0117750D01*
X0029382Y0117449D01*
X0029454Y0117145D01*
X0029519Y0116840D01*
X0029576Y0116533D01*
X0029625Y0116225D01*
X0029667Y0115915D01*
X0029701Y0115605D01*
X0029728Y0115294D01*
X0029747Y0114983D01*
X0029758Y0114671D01*
X0029762Y0114359D01*
X0029758Y0114047D01*
X0029747Y0113735D01*
X0029728Y0113424D01*
X0029701Y0113113D01*
X0029667Y0112803D01*
X0029625Y0112493D01*
X0029576Y0112185D01*
X0029519Y0111878D01*
X0029454Y0111573D01*
X0029382Y0111269D01*
X0029303Y0110968D01*
X0029217Y0110668D01*
X0029123Y0110370D01*
X0029021Y0110075D01*
X0028913Y0109782D01*
X0028798Y0109492D01*
X0028675Y0109205D01*
X0028546Y0108921D01*
X0028409Y0108641D01*
X0028266Y0108364D01*
X0028116Y0108090D01*
X0027959Y0107820D01*
X0027796Y0107554D01*
X0027627Y0107292D01*
X0027451Y0107034D01*
X0027268Y0106781D01*
X0027080Y0106532D01*
X0026886Y0106288D01*
X0026685Y0106049D01*
X0026479Y0105814D01*
X0026268Y0105585D01*
X0026050Y0105361D01*
X0025828Y0105143D01*
X0025600Y0104930D01*
X0025367Y0104722D01*
X0025128Y0104520D01*
X0024885Y0104325D01*
X0024638Y0104135D01*
X0024385Y0103951D01*
X0024129Y0103774D01*
X0023868Y0103603D01*
X0023603Y0103438D01*
X0023334Y0103280D01*
X0023061Y0103128D01*
X0022785Y0102983D01*
X0022505Y0102845D01*
X0022222Y0102714D01*
X0021935Y0102590D01*
X0021646Y0102473D01*
X0021354Y0102363D01*
X0021059Y0102260D01*
X0020762Y0102164D01*
X0020463Y0102076D01*
X0020162Y0101995D01*
X0019858Y0101921D01*
X0019554Y0101855D01*
X0019247Y0101796D01*
X0018939Y0101745D01*
X0018630Y0101702D01*
X0018320Y0101665D01*
X0018009Y0101637D01*
X0017698Y0101616D01*
X0017386Y0101603D01*
X0017074Y0101597D01*
X0016762Y0101599D01*
X0016450Y0101609D01*
X0016139Y0101626D01*
X0015828Y0101651D01*
X0015517Y0101683D01*
X0015208Y0101723D01*
X0014899Y0101771D01*
X0014592Y0101826D01*
X0014287Y0101889D01*
X0013983Y0101959D01*
X0013680Y0102036D01*
X0013380Y0102121D01*
X0013082Y0102213D01*
X0012786Y0102313D01*
X0012493Y0102419D01*
X0012202Y0102533D01*
X0011914Y0102654D01*
X0011630Y0102782D01*
X0011348Y0102917D01*
X0011070Y0103058D01*
X0010796Y0103207D01*
X0010525Y0103362D01*
X0010258Y0103523D01*
X0009995Y0103691D01*
X0009736Y0103866D01*
X0009482Y0104047D01*
X0009232Y0104233D01*
X0008987Y0104426D01*
X0008746Y0104625D01*
X0008511Y0104830D01*
X0008280Y0105040D01*
X0008055Y0105256D01*
X0007835Y0105478D01*
X0007621Y0105705D01*
X0007412Y0105936D01*
X0007209Y0106173D01*
X0007012Y0106415D01*
X0006820Y0106662D01*
X0006896Y0106718D01*
X0007086Y0106473D01*
X0007281Y0106233D01*
X0007483Y0105998D01*
X0007690Y0105768D01*
X0007903Y0105543D01*
X0008121Y0105323D01*
X0008345Y0105109D01*
X0008574Y0104900D01*
X0008807Y0104697D01*
X0009046Y0104499D01*
X0009289Y0104308D01*
X0009538Y0104122D01*
X0009790Y0103943D01*
X0010047Y0103770D01*
X0010308Y0103603D01*
X0010573Y0103442D01*
X0010842Y0103289D01*
X0011114Y0103141D01*
X0011390Y0103001D01*
X0011670Y0102867D01*
X0011952Y0102740D01*
X0012238Y0102620D01*
X0012526Y0102507D01*
X0012817Y0102401D01*
X0013111Y0102303D01*
X0013407Y0102211D01*
X0013705Y0102127D01*
X0014005Y0102050D01*
X0014307Y0101981D01*
X0014610Y0101918D01*
X0014915Y0101864D01*
X0015221Y0101816D01*
X0015529Y0101777D01*
X0015837Y0101745D01*
X0016145Y0101720D01*
X0016455Y0101703D01*
X0016764Y0101693D01*
X0017074Y0101691D01*
X0017384Y0101697D01*
X0017693Y0101710D01*
X0018002Y0101731D01*
X0018311Y0101759D01*
X0018618Y0101795D01*
X0018925Y0101838D01*
X0019231Y0101889D01*
X0019535Y0101947D01*
X0019838Y0102013D01*
X0020139Y0102086D01*
X0020438Y0102166D01*
X0020735Y0102254D01*
X0021030Y0102349D01*
X0021322Y0102451D01*
X0021612Y0102560D01*
X0021899Y0102677D01*
X0022183Y0102800D01*
X0022464Y0102930D01*
X0022742Y0103067D01*
X0023016Y0103211D01*
X0023287Y0103361D01*
X0023554Y0103518D01*
X0023817Y0103682D01*
X0024076Y0103852D01*
X0024331Y0104028D01*
X0024582Y0104210D01*
X0024827Y0104399D01*
X0025069Y0104593D01*
X0025305Y0104793D01*
X0025536Y0104999D01*
X0025763Y0105211D01*
X0025984Y0105428D01*
X0026199Y0105650D01*
X0026410Y0105877D01*
X0026614Y0106110D01*
X0026813Y0106348D01*
X0027006Y0106590D01*
X0027193Y0106837D01*
X0027374Y0107088D01*
X0027548Y0107344D01*
X0027717Y0107604D01*
X0027879Y0107868D01*
X0028034Y0108136D01*
X0028183Y0108408D01*
X0028325Y0108683D01*
X0028461Y0108962D01*
X0028589Y0109243D01*
X0028711Y0109528D01*
X0028825Y0109816D01*
X0028933Y0110107D01*
X0029033Y0110400D01*
X0029127Y0110695D01*
X0029213Y0110993D01*
X0029291Y0111292D01*
X0029362Y0111594D01*
X0029426Y0111897D01*
X0029483Y0112201D01*
X0029532Y0112507D01*
X0029573Y0112814D01*
X0029607Y0113122D01*
X0029634Y0113431D01*
X0029653Y0113740D01*
X0029664Y0114049D01*
X0029668Y0114359D01*
X0029664Y0114669D01*
X0029653Y0114978D01*
X0029634Y0115287D01*
X0029607Y0115596D01*
X0029573Y0115904D01*
X0029532Y0116211D01*
X0029483Y0116517D01*
X0029426Y0116821D01*
X0029362Y0117124D01*
X0029291Y0117426D01*
X0029213Y0117725D01*
X0029127Y0118023D01*
X0029033Y0118318D01*
X0028933Y0118611D01*
X0028825Y0118902D01*
X0028711Y0119190D01*
X0028589Y0119475D01*
X0028461Y0119756D01*
X0028325Y0120035D01*
X0028183Y0120310D01*
X0028034Y0120582D01*
X0027879Y0120850D01*
X0027717Y0121114D01*
X0027548Y0121374D01*
X0027374Y0121630D01*
X0027193Y0121881D01*
X0027006Y0122128D01*
X0026813Y0122370D01*
X0026614Y0122608D01*
X0026410Y0122841D01*
X0026199Y0123068D01*
X0025984Y0123290D01*
X0025763Y0123507D01*
X0025536Y0123719D01*
X0025305Y0123925D01*
X0025069Y0124125D01*
X0024827Y0124319D01*
X0024582Y0124508D01*
X0024331Y0124690D01*
X0024076Y0124866D01*
X0023817Y0125036D01*
X0023554Y0125200D01*
X0023287Y0125357D01*
X0023016Y0125507D01*
X0022742Y0125651D01*
X0022464Y0125788D01*
X0022183Y0125918D01*
X0021899Y0126041D01*
X0021612Y0126158D01*
X0021322Y0126267D01*
X0021030Y0126369D01*
X0020735Y0126464D01*
X0020438Y0126552D01*
X0020139Y0126632D01*
X0019838Y0126705D01*
X0019535Y0126771D01*
X0019231Y0126829D01*
X0018925Y0126880D01*
X0018618Y0126923D01*
X0018311Y0126959D01*
X0018002Y0126987D01*
X0017693Y0127008D01*
X0017384Y0127021D01*
X0017074Y0127027D01*
X0016764Y0127025D01*
X0016455Y0127015D01*
X0016145Y0126998D01*
X0015837Y0126973D01*
X0015529Y0126941D01*
X0015221Y0126902D01*
X0014915Y0126854D01*
X0014610Y0126800D01*
X0014307Y0126737D01*
X0014005Y0126668D01*
X0013705Y0126591D01*
X0013407Y0126507D01*
X0013111Y0126415D01*
X0012817Y0126317D01*
X0012526Y0126211D01*
X0012238Y0126098D01*
X0011952Y0125978D01*
X0011670Y0125851D01*
X0011390Y0125717D01*
X0011114Y0125577D01*
X0010842Y0125429D01*
X0010573Y0125276D01*
X0010308Y0125115D01*
X0010047Y0124948D01*
X0009790Y0124775D01*
X0009538Y0124596D01*
X0009289Y0124410D01*
X0009046Y0124219D01*
X0008807Y0124021D01*
X0008574Y0123818D01*
X0008345Y0123609D01*
X0008121Y0123395D01*
X0007903Y0123175D01*
X0007690Y0122950D01*
X0007483Y0122720D01*
X0007281Y0122485D01*
X0007086Y0122245D01*
X0006896Y0122000D01*
X0006971Y0121943D01*
X0007159Y0122186D01*
X0007354Y0122425D01*
X0007554Y0122658D01*
X0007759Y0122886D01*
X0007971Y0123110D01*
X0008187Y0123328D01*
X0008409Y0123541D01*
X0008636Y0123748D01*
X0008868Y0123950D01*
X0009105Y0124146D01*
X0009347Y0124336D01*
X0009593Y0124520D01*
X0009844Y0124698D01*
X0010099Y0124870D01*
X0010358Y0125035D01*
X0010621Y0125195D01*
X0010888Y0125347D01*
X0011158Y0125494D01*
X0011432Y0125633D01*
X0011709Y0125766D01*
X0011990Y0125892D01*
X0012273Y0126011D01*
X0012560Y0126123D01*
X0012849Y0126228D01*
X0013140Y0126326D01*
X0013434Y0126417D01*
X0013730Y0126500D01*
X0014027Y0126577D01*
X0014327Y0126646D01*
X0014628Y0126707D01*
X0014931Y0126762D01*
X0015235Y0126808D01*
X0015540Y0126848D01*
X0015845Y0126880D01*
X0016152Y0126904D01*
X0016459Y0126921D01*
X0016766Y0126931D01*
X0017074Y0126933D01*
X0017381Y0126927D01*
X0017688Y0126914D01*
X0017995Y0126894D01*
X0018301Y0126865D01*
X0018607Y0126830D01*
X0018911Y0126787D01*
X0019214Y0126736D01*
X0019516Y0126679D01*
X0019817Y0126613D01*
X0020116Y0126541D01*
X0020412Y0126461D01*
X0020707Y0126374D01*
X0021000Y0126280D01*
X0021290Y0126178D01*
X0021578Y0126070D01*
X0021863Y0125955D01*
X0022145Y0125832D01*
X0022424Y0125703D01*
X0022700Y0125567D01*
X0022972Y0125424D01*
X0023241Y0125275D01*
X0023506Y0125119D01*
X0023767Y0124957D01*
X0024024Y0124788D01*
X0024277Y0124613D01*
X0024525Y0124432D01*
X0024769Y0124245D01*
X0025009Y0124052D01*
X0025243Y0123854D01*
X0025473Y0123649D01*
X0025698Y0123439D01*
X0025917Y0123224D01*
X0026131Y0123003D01*
X0026340Y0122778D01*
X0026543Y0122547D01*
X0026740Y0122311D01*
X0026932Y0122070D01*
X0027117Y0121825D01*
X0027297Y0121576D01*
X0027470Y0121322D01*
X0027637Y0121064D01*
X0027798Y0120802D01*
X0027952Y0120536D01*
X0028100Y0120266D01*
X0028241Y0119993D01*
X0028376Y0119716D01*
X0028503Y0119437D01*
X0028624Y0119154D01*
X0028738Y0118868D01*
X0028844Y0118580D01*
X0028944Y0118289D01*
X0029037Y0117996D01*
X0029122Y0117700D01*
X0029200Y0117403D01*
X0029271Y0117104D01*
X0029334Y0116803D01*
X0029390Y0116501D01*
X0029439Y0116197D01*
X0029480Y0115892D01*
X0029514Y0115587D01*
X0029540Y0115281D01*
X0029559Y0114974D01*
X0029570Y0114666D01*
X0029574Y0114359D01*
X0029570Y0114052D01*
X0029559Y0113744D01*
X0029540Y0113437D01*
X0029514Y0113131D01*
X0029480Y0112826D01*
X0029439Y0112521D01*
X0029390Y0112217D01*
X0029334Y0111915D01*
X0029271Y0111614D01*
X0029200Y0111315D01*
X0029122Y0111018D01*
X0029037Y0110722D01*
X0028944Y0110429D01*
X0028844Y0110138D01*
X0028738Y0109850D01*
X0028624Y0109564D01*
X0028503Y0109281D01*
X0028376Y0109002D01*
X0028241Y0108725D01*
X0028100Y0108452D01*
X0027952Y0108182D01*
X0027798Y0107916D01*
X0027637Y0107654D01*
X0027470Y0107396D01*
X0027297Y0107142D01*
X0027117Y0106893D01*
X0026932Y0106648D01*
X0026740Y0106407D01*
X0026543Y0106171D01*
X0026340Y0105940D01*
X0026131Y0105715D01*
X0025917Y0105494D01*
X0025698Y0105279D01*
X0025473Y0105069D01*
X0025243Y0104864D01*
X0025009Y0104666D01*
X0024769Y0104473D01*
X0024525Y0104286D01*
X0024277Y0104105D01*
X0024024Y0103930D01*
X0023767Y0103761D01*
X0023506Y0103599D01*
X0023241Y0103443D01*
X0022972Y0103294D01*
X0022700Y0103151D01*
X0022424Y0103015D01*
X0022145Y0102886D01*
X0021863Y0102763D01*
X0021578Y0102648D01*
X0021290Y0102540D01*
X0021000Y0102438D01*
X0020707Y0102344D01*
X0020412Y0102257D01*
X0020116Y0102177D01*
X0019817Y0102105D01*
X0019516Y0102039D01*
X0019214Y0101982D01*
X0018911Y0101931D01*
X0018607Y0101888D01*
X0018301Y0101853D01*
X0017995Y0101824D01*
X0017688Y0101804D01*
X0017381Y0101791D01*
X0017074Y0101785D01*
X0016766Y0101787D01*
X0016459Y0101797D01*
X0016152Y0101814D01*
X0015845Y0101838D01*
X0015540Y0101870D01*
X0015235Y0101910D01*
X0014931Y0101956D01*
X0014628Y0102011D01*
X0014327Y0102072D01*
X0014027Y0102141D01*
X0013730Y0102218D01*
X0013434Y0102301D01*
X0013140Y0102392D01*
X0012849Y0102490D01*
X0012560Y0102595D01*
X0012273Y0102707D01*
X0011990Y0102826D01*
X0011709Y0102952D01*
X0011432Y0103085D01*
X0011158Y0103224D01*
X0010888Y0103371D01*
X0010621Y0103523D01*
X0010358Y0103683D01*
X0010099Y0103848D01*
X0009844Y0104020D01*
X0009593Y0104198D01*
X0009347Y0104382D01*
X0009105Y0104572D01*
X0008868Y0104768D01*
X0008636Y0104970D01*
X0008409Y0105177D01*
X0008187Y0105390D01*
X0007971Y0105608D01*
X0007759Y0105832D01*
X0007554Y0106060D01*
X0007354Y0106293D01*
X0007159Y0106532D01*
X0006971Y0106775D01*
X0007046Y0106831D01*
X0007233Y0106590D01*
X0007426Y0106353D01*
X0007625Y0106122D01*
X0007829Y0105895D01*
X0008038Y0105673D01*
X0008253Y0105457D01*
X0008474Y0105246D01*
X0008699Y0105040D01*
X0008929Y0104840D01*
X0009165Y0104645D01*
X0009404Y0104457D01*
X0009649Y0104274D01*
X0009898Y0104097D01*
X0010151Y0103927D01*
X0010408Y0103762D01*
X0010669Y0103604D01*
X0010934Y0103453D01*
X0011202Y0103308D01*
X0011474Y0103169D01*
X0011749Y0103037D01*
X0012028Y0102912D01*
X0012309Y0102794D01*
X0012593Y0102683D01*
X0012880Y0102579D01*
X0013169Y0102481D01*
X0013461Y0102391D01*
X0013754Y0102308D01*
X0014050Y0102233D01*
X0014347Y0102164D01*
X0014646Y0102103D01*
X0014947Y0102049D01*
X0015248Y0102003D01*
X0015551Y0101963D01*
X0015854Y0101932D01*
X0016159Y0101907D01*
X0016463Y0101891D01*
X0016768Y0101881D01*
X0017073Y0101879D01*
X0017378Y0101885D01*
X0017683Y0101898D01*
X0017988Y0101918D01*
X0018292Y0101946D01*
X0018595Y0101981D01*
X0018897Y0102024D01*
X0019198Y0102074D01*
X0019498Y0102131D01*
X0019796Y0102196D01*
X0020092Y0102268D01*
X0020387Y0102347D01*
X0020680Y0102434D01*
X0020970Y0102527D01*
X0021258Y0102628D01*
X0021544Y0102736D01*
X0021827Y0102850D01*
X0022107Y0102972D01*
X0022384Y0103100D01*
X0022657Y0103235D01*
X0022927Y0103376D01*
X0023194Y0103525D01*
X0023457Y0103679D01*
X0023716Y0103840D01*
X0023972Y0104008D01*
X0024223Y0104181D01*
X0024469Y0104361D01*
X0024711Y0104547D01*
X0024949Y0104738D01*
X0025182Y0104935D01*
X0025410Y0105138D01*
X0025633Y0105347D01*
X0025851Y0105560D01*
X0026063Y0105779D01*
X0026270Y0106003D01*
X0026472Y0106233D01*
X0026668Y0106467D01*
X0026858Y0106705D01*
X0027042Y0106949D01*
X0027220Y0107196D01*
X0027392Y0107448D01*
X0027558Y0107705D01*
X0027717Y0107965D01*
X0027871Y0108229D01*
X0028017Y0108496D01*
X0028157Y0108767D01*
X0028291Y0109042D01*
X0028417Y0109319D01*
X0028537Y0109600D01*
X0028650Y0109884D01*
X0028756Y0110170D01*
X0028855Y0110458D01*
X0028947Y0110749D01*
X0029031Y0111043D01*
X0029109Y0111338D01*
X0029179Y0111635D01*
X0029242Y0111933D01*
X0029298Y0112233D01*
X0029346Y0112535D01*
X0029387Y0112837D01*
X0029420Y0113140D01*
X0029446Y0113444D01*
X0029465Y0113749D01*
X0029476Y0114054D01*
X0029480Y0114359D01*
X0029476Y0114664D01*
X0029465Y0114969D01*
X0029446Y0115274D01*
X0029420Y0115578D01*
X0029387Y0115881D01*
X0029346Y0116183D01*
X0029298Y0116485D01*
X0029242Y0116785D01*
X0029179Y0117083D01*
X0029109Y0117380D01*
X0029031Y0117675D01*
X0028947Y0117969D01*
X0028855Y0118260D01*
X0028756Y0118548D01*
X0028650Y0118834D01*
X0028537Y0119118D01*
X0028417Y0119399D01*
X0028291Y0119676D01*
X0028157Y0119951D01*
X0028017Y0120222D01*
X0027871Y0120489D01*
X0027717Y0120753D01*
X0027558Y0121013D01*
X0027392Y0121270D01*
X0027220Y0121522D01*
X0027042Y0121769D01*
X0026858Y0122013D01*
X0026668Y0122251D01*
X0026472Y0122485D01*
X0026270Y0122715D01*
X0026063Y0122939D01*
X0025851Y0123158D01*
X0025633Y0123371D01*
X0025410Y0123580D01*
X0025182Y0123783D01*
X0024949Y0123980D01*
X0024711Y0124171D01*
X0024469Y0124357D01*
X0024223Y0124537D01*
X0023972Y0124710D01*
X0023716Y0124878D01*
X0023457Y0125039D01*
X0023194Y0125193D01*
X0022927Y0125342D01*
X0022657Y0125483D01*
X0022384Y0125618D01*
X0022107Y0125746D01*
X0021827Y0125868D01*
X0021544Y0125982D01*
X0021258Y0126090D01*
X0020970Y0126191D01*
X0020680Y0126284D01*
X0020387Y0126371D01*
X0020092Y0126450D01*
X0019796Y0126522D01*
X0019498Y0126587D01*
X0019198Y0126644D01*
X0018897Y0126694D01*
X0018595Y0126737D01*
X0018292Y0126772D01*
X0017988Y0126800D01*
X0017683Y0126820D01*
X0017378Y0126833D01*
X0017073Y0126839D01*
X0016768Y0126837D01*
X0016463Y0126827D01*
X0016159Y0126811D01*
X0015854Y0126786D01*
X0015551Y0126755D01*
X0015248Y0126715D01*
X0014947Y0126669D01*
X0014646Y0126615D01*
X0014347Y0126554D01*
X0014050Y0126485D01*
X0013754Y0126410D01*
X0013461Y0126327D01*
X0013169Y0126237D01*
X0012880Y0126139D01*
X0012593Y0126035D01*
X0012309Y0125924D01*
X0012028Y0125806D01*
X0011749Y0125681D01*
X0011474Y0125549D01*
X0011202Y0125410D01*
X0010934Y0125265D01*
X0010669Y0125114D01*
X0010408Y0124956D01*
X0010151Y0124791D01*
X0009898Y0124621D01*
X0009649Y0124444D01*
X0009404Y0124261D01*
X0009165Y0124073D01*
X0008929Y0123878D01*
X0008699Y0123678D01*
X0008474Y0123472D01*
X0008253Y0123261D01*
X0008038Y0123045D01*
X0007829Y0122823D01*
X0007625Y0122596D01*
X0007426Y0122365D01*
X0007233Y0122128D01*
X0007046Y0121887D01*
X0007121Y0121831D01*
X0007307Y0122070D01*
X0007498Y0122305D01*
X0007695Y0122534D01*
X0007898Y0122759D01*
X0008106Y0122980D01*
X0008320Y0123194D01*
X0008538Y0123404D01*
X0008762Y0123608D01*
X0008990Y0123807D01*
X0009224Y0124000D01*
X0009462Y0124187D01*
X0009704Y0124368D01*
X0009951Y0124544D01*
X0010202Y0124713D01*
X0010458Y0124876D01*
X0010717Y0125033D01*
X0010980Y0125183D01*
X0011246Y0125327D01*
X0011516Y0125465D01*
X0011789Y0125596D01*
X0012065Y0125720D01*
X0012345Y0125837D01*
X0012627Y0125947D01*
X0012911Y0126051D01*
X0013198Y0126147D01*
X0013488Y0126237D01*
X0013779Y0126319D01*
X0014072Y0126394D01*
X0014368Y0126462D01*
X0014664Y0126523D01*
X0014962Y0126576D01*
X0015262Y0126622D01*
X0015562Y0126661D01*
X0015863Y0126693D01*
X0016165Y0126717D01*
X0016468Y0126734D01*
X0016770Y0126743D01*
X0017073Y0126745D01*
X0017376Y0126739D01*
X0017678Y0126726D01*
X0017981Y0126706D01*
X0018282Y0126678D01*
X0018583Y0126643D01*
X0018883Y0126601D01*
X0019182Y0126551D01*
X0019479Y0126494D01*
X0019775Y0126430D01*
X0020069Y0126359D01*
X0020362Y0126280D01*
X0020652Y0126194D01*
X0020941Y0126101D01*
X0021226Y0126002D01*
X0021510Y0125895D01*
X0021790Y0125781D01*
X0022068Y0125661D01*
X0022343Y0125533D01*
X0022615Y0125399D01*
X0022883Y0125259D01*
X0023148Y0125112D01*
X0023409Y0124958D01*
X0023666Y0124798D01*
X0023919Y0124632D01*
X0024168Y0124460D01*
X0024413Y0124282D01*
X0024654Y0124097D01*
X0024889Y0123907D01*
X0025120Y0123712D01*
X0025347Y0123510D01*
X0025568Y0123304D01*
X0025784Y0123091D01*
X0025995Y0122874D01*
X0026200Y0122652D01*
X0026400Y0122424D01*
X0026595Y0122192D01*
X0026783Y0121955D01*
X0026966Y0121713D01*
X0027143Y0121468D01*
X0027314Y0121217D01*
X0027478Y0120963D01*
X0027637Y0120705D01*
X0027789Y0120443D01*
X0027934Y0120178D01*
X0028073Y0119909D01*
X0028206Y0119636D01*
X0028331Y0119361D01*
X0028450Y0119082D01*
X0028562Y0118801D01*
X0028667Y0118517D01*
X0028766Y0118230D01*
X0028857Y0117941D01*
X0028941Y0117650D01*
X0029018Y0117357D01*
X0029087Y0117063D01*
X0029150Y0116766D01*
X0029205Y0116469D01*
X0029253Y0116170D01*
X0029294Y0115870D01*
X0029327Y0115568D01*
X0029353Y0115267D01*
X0029371Y0114964D01*
X0029382Y0114662D01*
X0029386Y0114359D01*
X0029382Y0114056D01*
X0029371Y0113754D01*
X0029353Y0113451D01*
X0029327Y0113150D01*
X0029294Y0112848D01*
X0029253Y0112548D01*
X0029205Y0112249D01*
X0029150Y0111952D01*
X0029087Y0111655D01*
X0029018Y0111361D01*
X0028941Y0111068D01*
X0028857Y0110777D01*
X0028766Y0110488D01*
X0028667Y0110201D01*
X0028562Y0109917D01*
X0028450Y0109636D01*
X0028331Y0109357D01*
X0028206Y0109082D01*
X0028073Y0108809D01*
X0027934Y0108540D01*
X0027789Y0108275D01*
X0027637Y0108013D01*
X0027478Y0107755D01*
X0027314Y0107501D01*
X0027143Y0107250D01*
X0026966Y0107005D01*
X0026783Y0106763D01*
X0026595Y0106526D01*
X0026400Y0106294D01*
X0026200Y0106066D01*
X0025995Y0105844D01*
X0025784Y0105627D01*
X0025568Y0105414D01*
X0025347Y0105208D01*
X0025120Y0105006D01*
X0024889Y0104811D01*
X0024654Y0104621D01*
X0024413Y0104436D01*
X0024168Y0104258D01*
X0023919Y0104086D01*
X0023666Y0103920D01*
X0023409Y0103760D01*
X0023148Y0103606D01*
X0022883Y0103459D01*
X0022615Y0103319D01*
X0022343Y0103185D01*
X0022068Y0103057D01*
X0021790Y0102937D01*
X0021510Y0102823D01*
X0021226Y0102716D01*
X0020941Y0102617D01*
X0020652Y0102524D01*
X0020362Y0102438D01*
X0020069Y0102359D01*
X0019775Y0102288D01*
X0019479Y0102224D01*
X0019182Y0102167D01*
X0018883Y0102117D01*
X0018583Y0102075D01*
X0018282Y0102040D01*
X0017981Y0102012D01*
X0017678Y0101992D01*
X0017376Y0101979D01*
X0017073Y0101973D01*
X0016770Y0101975D01*
X0016468Y0101984D01*
X0016165Y0102001D01*
X0015863Y0102025D01*
X0015562Y0102057D01*
X0015262Y0102096D01*
X0014962Y0102142D01*
X0014664Y0102195D01*
X0014368Y0102256D01*
X0014072Y0102324D01*
X0013779Y0102399D01*
X0013488Y0102481D01*
X0013198Y0102571D01*
X0012911Y0102667D01*
X0012627Y0102771D01*
X0012345Y0102881D01*
X0012065Y0102998D01*
X0011789Y0103122D01*
X0011516Y0103253D01*
X0011246Y0103391D01*
X0010980Y0103535D01*
X0010717Y0103685D01*
X0010458Y0103842D01*
X0010202Y0104005D01*
X0009951Y0104174D01*
X0009704Y0104350D01*
X0009462Y0104531D01*
X0009224Y0104718D01*
X0008990Y0104911D01*
X0008762Y0105110D01*
X0008538Y0105314D01*
X0008320Y0105524D01*
X0008106Y0105738D01*
X0007898Y0105959D01*
X0007695Y0106184D01*
X0007498Y0106413D01*
X0007307Y0106648D01*
X0007121Y0106887D01*
X0007196Y0106944D01*
X0007381Y0106706D01*
X0007571Y0106474D01*
X0007766Y0106245D01*
X0007967Y0106022D01*
X0008174Y0105804D01*
X0008386Y0105590D01*
X0008603Y0105382D01*
X0008825Y0105180D01*
X0009052Y0104983D01*
X0009283Y0104791D01*
X0009519Y0104605D01*
X0009760Y0104425D01*
X0010005Y0104251D01*
X0010254Y0104083D01*
X0010508Y0103921D01*
X0010765Y0103766D01*
X0011026Y0103617D01*
X0011290Y0103474D01*
X0011558Y0103337D01*
X0011829Y0103208D01*
X0012103Y0103085D01*
X0012380Y0102968D01*
X0012660Y0102859D01*
X0012943Y0102756D01*
X0013227Y0102660D01*
X0013515Y0102572D01*
X0013804Y0102490D01*
X0014095Y0102415D01*
X0014388Y0102348D01*
X0014682Y0102287D01*
X0014978Y0102234D01*
X0015275Y0102189D01*
X0015573Y0102150D01*
X0015872Y0102119D01*
X0016172Y0102095D01*
X0016472Y0102078D01*
X0016772Y0102069D01*
X0017073Y0102067D01*
X0017373Y0102073D01*
X0017674Y0102085D01*
X0017973Y0102106D01*
X0018273Y0102133D01*
X0018571Y0102168D01*
X0018869Y0102210D01*
X0019165Y0102259D01*
X0019460Y0102316D01*
X0019754Y0102380D01*
X0020046Y0102450D01*
X0020336Y0102528D01*
X0020625Y0102614D01*
X0020911Y0102706D01*
X0021195Y0102805D01*
X0021476Y0102911D01*
X0021754Y0103024D01*
X0022030Y0103143D01*
X0022303Y0103270D01*
X0022572Y0103403D01*
X0022838Y0103542D01*
X0023101Y0103688D01*
X0023360Y0103840D01*
X0023616Y0103999D01*
X0023867Y0104164D01*
X0024114Y0104335D01*
X0024357Y0104512D01*
X0024596Y0104695D01*
X0024830Y0104883D01*
X0025059Y0105077D01*
X0025283Y0105277D01*
X0025503Y0105482D01*
X0025717Y0105693D01*
X0025927Y0105909D01*
X0026131Y0106129D01*
X0026329Y0106355D01*
X0026522Y0106586D01*
X0026709Y0106821D01*
X0026891Y0107060D01*
X0027066Y0107304D01*
X0027236Y0107553D01*
X0027399Y0107805D01*
X0027556Y0108061D01*
X0027707Y0108321D01*
X0027851Y0108585D01*
X0027989Y0108852D01*
X0028121Y0109122D01*
X0028245Y0109395D01*
X0028363Y0109672D01*
X0028474Y0109951D01*
X0028579Y0110233D01*
X0028676Y0110517D01*
X0028767Y0110804D01*
X0028850Y0111093D01*
X0028926Y0111383D01*
X0028996Y0111676D01*
X0029058Y0111970D01*
X0029112Y0112265D01*
X0029160Y0112562D01*
X0029200Y0112860D01*
X0029233Y0113159D01*
X0029259Y0113458D01*
X0029277Y0113758D01*
X0029288Y0114058D01*
X0029292Y0114359D01*
X0029288Y0114660D01*
X0029277Y0114960D01*
X0029259Y0115260D01*
X0029233Y0115559D01*
X0029200Y0115858D01*
X0029160Y0116156D01*
X0029112Y0116453D01*
X0029058Y0116748D01*
X0028996Y0117042D01*
X0028926Y0117335D01*
X0028850Y0117625D01*
X0028767Y0117914D01*
X0028676Y0118201D01*
X0028579Y0118485D01*
X0028474Y0118767D01*
X0028363Y0119046D01*
X0028245Y0119323D01*
X0028121Y0119596D01*
X0027989Y0119866D01*
X0027851Y0120133D01*
X0027707Y0120397D01*
X0027556Y0120657D01*
X0027399Y0120913D01*
X0027236Y0121165D01*
X0027066Y0121414D01*
X0026891Y0121658D01*
X0026709Y0121897D01*
X0026522Y0122132D01*
X0026329Y0122363D01*
X0026131Y0122589D01*
X0025927Y0122809D01*
X0025717Y0123025D01*
X0025503Y0123236D01*
X0025283Y0123441D01*
X0025059Y0123641D01*
X0024830Y0123835D01*
X0024596Y0124023D01*
X0024357Y0124206D01*
X0024114Y0124383D01*
X0023867Y0124554D01*
X0023616Y0124719D01*
X0023360Y0124878D01*
X0023101Y0125030D01*
X0022838Y0125176D01*
X0022572Y0125315D01*
X0022303Y0125448D01*
X0022030Y0125575D01*
X0021754Y0125694D01*
X0021476Y0125807D01*
X0021195Y0125913D01*
X0020911Y0126012D01*
X0020625Y0126104D01*
X0020336Y0126190D01*
X0020046Y0126268D01*
X0019754Y0126338D01*
X0019460Y0126402D01*
X0019165Y0126459D01*
X0018869Y0126508D01*
X0018571Y0126550D01*
X0018273Y0126585D01*
X0017973Y0126612D01*
X0017674Y0126633D01*
X0017373Y0126645D01*
X0017073Y0126651D01*
X0016772Y0126649D01*
X0016472Y0126640D01*
X0016172Y0126623D01*
X0015872Y0126599D01*
X0015573Y0126568D01*
X0015275Y0126529D01*
X0014978Y0126484D01*
X0014682Y0126431D01*
X0014388Y0126370D01*
X0014095Y0126303D01*
X0013804Y0126228D01*
X0013515Y0126146D01*
X0013227Y0126058D01*
X0012943Y0125962D01*
X0012660Y0125859D01*
X0012380Y0125750D01*
X0012103Y0125633D01*
X0011829Y0125510D01*
X0011558Y0125381D01*
X0011290Y0125244D01*
X0011026Y0125101D01*
X0010765Y0124952D01*
X0010508Y0124797D01*
X0010254Y0124635D01*
X0010005Y0124467D01*
X0009760Y0124293D01*
X0009519Y0124113D01*
X0009283Y0123927D01*
X0009052Y0123735D01*
X0008825Y0123538D01*
X0008603Y0123336D01*
X0008386Y0123128D01*
X0008174Y0122914D01*
X0007967Y0122696D01*
X0007766Y0122473D01*
X0007571Y0122244D01*
X0007381Y0122012D01*
X0007196Y0121774D01*
X0007272Y0121718D01*
X0007454Y0121953D01*
X0007643Y0122184D01*
X0007837Y0122411D01*
X0008037Y0122633D01*
X0008242Y0122849D01*
X0008452Y0123061D01*
X0008667Y0123267D01*
X0008887Y0123468D01*
X0009113Y0123664D01*
X0009342Y0123854D01*
X0009577Y0124038D01*
X0009816Y0124217D01*
X0010059Y0124390D01*
X0010306Y0124556D01*
X0010558Y0124717D01*
X0010813Y0124871D01*
X0011072Y0125019D01*
X0011334Y0125161D01*
X0011600Y0125296D01*
X0011869Y0125425D01*
X0012141Y0125547D01*
X0012416Y0125663D01*
X0012694Y0125772D01*
X0012974Y0125873D01*
X0013257Y0125968D01*
X0013542Y0126056D01*
X0013829Y0126137D01*
X0014117Y0126212D01*
X0014408Y0126278D01*
X0014700Y0126338D01*
X0014994Y0126391D01*
X0015289Y0126436D01*
X0015584Y0126475D01*
X0015881Y0126506D01*
X0016178Y0126529D01*
X0016476Y0126546D01*
X0016774Y0126555D01*
X0017072Y0126557D01*
X0017371Y0126551D01*
X0017669Y0126539D01*
X0017966Y0126519D01*
X0018263Y0126491D01*
X0018559Y0126457D01*
X0018855Y0126415D01*
X0019149Y0126366D01*
X0019442Y0126310D01*
X0019733Y0126247D01*
X0020023Y0126176D01*
X0020311Y0126099D01*
X0020597Y0126015D01*
X0020881Y0125923D01*
X0021163Y0125825D01*
X0021442Y0125720D01*
X0021718Y0125608D01*
X0021992Y0125489D01*
X0022262Y0125364D01*
X0022530Y0125232D01*
X0022794Y0125093D01*
X0023055Y0124948D01*
X0023312Y0124797D01*
X0023565Y0124640D01*
X0023814Y0124476D01*
X0024060Y0124306D01*
X0024301Y0124131D01*
X0024538Y0123949D01*
X0024770Y0123762D01*
X0024997Y0123570D01*
X0025220Y0123371D01*
X0025438Y0123168D01*
X0025651Y0122959D01*
X0025859Y0122745D01*
X0026061Y0122525D01*
X0026258Y0122302D01*
X0026449Y0122073D01*
X0026635Y0121839D01*
X0026815Y0121602D01*
X0026989Y0121360D01*
X0027157Y0121113D01*
X0027319Y0120863D01*
X0027475Y0120609D01*
X0027625Y0120351D01*
X0027768Y0120089D01*
X0027905Y0119824D01*
X0028036Y0119556D01*
X0028159Y0119285D01*
X0028276Y0119010D01*
X0028387Y0118733D01*
X0028490Y0118453D01*
X0028587Y0118171D01*
X0028677Y0117887D01*
X0028759Y0117600D01*
X0028835Y0117312D01*
X0028904Y0117022D01*
X0028965Y0116730D01*
X0029020Y0116437D01*
X0029067Y0116142D01*
X0029107Y0115847D01*
X0029140Y0115550D01*
X0029165Y0115253D01*
X0029183Y0114955D01*
X0029194Y0114657D01*
X0029198Y0114359D01*
X0029194Y0114061D01*
X0029183Y0113763D01*
X0029165Y0113465D01*
X0029140Y0113168D01*
X0029107Y0112871D01*
X0029067Y0112576D01*
X0029020Y0112281D01*
X0028965Y0111988D01*
X0028904Y0111696D01*
X0028835Y0111406D01*
X0028759Y0111118D01*
X0028677Y0110831D01*
X0028587Y0110547D01*
X0028490Y0110265D01*
X0028387Y0109985D01*
X0028276Y0109708D01*
X0028159Y0109433D01*
X0028036Y0109162D01*
X0027905Y0108894D01*
X0027768Y0108629D01*
X0027625Y0108367D01*
X0027475Y0108109D01*
X0027319Y0107855D01*
X0027157Y0107605D01*
X0026989Y0107358D01*
X0026815Y0107116D01*
X0026635Y0106879D01*
X0026449Y0106645D01*
X0026258Y0106416D01*
X0026061Y0106193D01*
X0025859Y0105973D01*
X0025651Y0105759D01*
X0025438Y0105550D01*
X0025220Y0105347D01*
X0024997Y0105148D01*
X0024770Y0104956D01*
X0024538Y0104769D01*
X0024301Y0104587D01*
X0024060Y0104412D01*
X0023814Y0104242D01*
X0023565Y0104078D01*
X0023312Y0103921D01*
X0023055Y0103770D01*
X0022794Y0103625D01*
X0022530Y0103486D01*
X0022262Y0103354D01*
X0021992Y0103229D01*
X0021718Y0103110D01*
X0021442Y0102998D01*
X0021163Y0102893D01*
X0020881Y0102795D01*
X0020597Y0102703D01*
X0020311Y0102619D01*
X0020023Y0102542D01*
X0019733Y0102471D01*
X0019442Y0102408D01*
X0019149Y0102352D01*
X0018855Y0102303D01*
X0018559Y0102261D01*
X0018263Y0102227D01*
X0017966Y0102199D01*
X0017669Y0102179D01*
X0017371Y0102167D01*
X0017072Y0102161D01*
X0016774Y0102163D01*
X0016476Y0102172D01*
X0016178Y0102189D01*
X0015881Y0102212D01*
X0015584Y0102243D01*
X0015289Y0102282D01*
X0014994Y0102327D01*
X0014700Y0102380D01*
X0014408Y0102440D01*
X0014117Y0102506D01*
X0013829Y0102581D01*
X0013542Y0102662D01*
X0013257Y0102750D01*
X0012974Y0102845D01*
X0012694Y0102946D01*
X0012416Y0103055D01*
X0012141Y0103171D01*
X0011869Y0103293D01*
X0011600Y0103422D01*
X0011334Y0103557D01*
X0011072Y0103699D01*
X0010813Y0103847D01*
X0010558Y0104001D01*
X0010306Y0104162D01*
X0010059Y0104328D01*
X0009816Y0104501D01*
X0009577Y0104680D01*
X0009342Y0104864D01*
X0009113Y0105054D01*
X0008887Y0105250D01*
X0008667Y0105451D01*
X0008452Y0105657D01*
X0008242Y0105869D01*
X0008037Y0106085D01*
X0007837Y0106307D01*
X0007643Y0106534D01*
X0007454Y0106765D01*
X0007272Y0107000D01*
X0007347Y0107057D01*
X0007528Y0106823D01*
X0007715Y0106594D01*
X0007908Y0106369D01*
X0008106Y0106149D01*
X0008309Y0105934D01*
X0008518Y0105724D01*
X0008732Y0105519D01*
X0008950Y0105320D01*
X0009174Y0105126D01*
X0009402Y0104937D01*
X0009634Y0104754D01*
X0009871Y0104577D01*
X0010113Y0104406D01*
X0010358Y0104240D01*
X0010607Y0104081D01*
X0010861Y0103928D01*
X0011117Y0103781D01*
X0011378Y0103640D01*
X0011642Y0103506D01*
X0011909Y0103378D01*
X0012179Y0103257D01*
X0012451Y0103142D01*
X0012727Y0103034D01*
X0013005Y0102933D01*
X0013286Y0102839D01*
X0013568Y0102752D01*
X0013853Y0102671D01*
X0014140Y0102598D01*
X0014428Y0102531D01*
X0014718Y0102472D01*
X0015010Y0102420D01*
X0015302Y0102375D01*
X0015596Y0102337D01*
X0015890Y0102306D01*
X0016185Y0102282D01*
X0016480Y0102266D01*
X0016776Y0102257D01*
X0017072Y0102255D01*
X0017368Y0102261D01*
X0017664Y0102273D01*
X0017959Y0102293D01*
X0018254Y0102320D01*
X0018548Y0102354D01*
X0018841Y0102396D01*
X0019133Y0102444D01*
X0019423Y0102500D01*
X0019712Y0102563D01*
X0020000Y0102633D01*
X0020286Y0102710D01*
X0020570Y0102793D01*
X0020851Y0102884D01*
X0021131Y0102982D01*
X0021408Y0103086D01*
X0021682Y0103197D01*
X0021953Y0103315D01*
X0022222Y0103439D01*
X0022487Y0103570D01*
X0022749Y0103708D01*
X0023008Y0103851D01*
X0023263Y0104001D01*
X0023515Y0104158D01*
X0023762Y0104320D01*
X0024005Y0104488D01*
X0024245Y0104663D01*
X0024480Y0104843D01*
X0024710Y0105028D01*
X0024936Y0105220D01*
X0025157Y0105416D01*
X0025373Y0105618D01*
X0025584Y0105826D01*
X0025790Y0106038D01*
X0025991Y0106256D01*
X0026187Y0106478D01*
X0026377Y0106705D01*
X0026561Y0106936D01*
X0026739Y0107172D01*
X0026912Y0107412D01*
X0027079Y0107657D01*
X0027240Y0107905D01*
X0027395Y0108158D01*
X0027543Y0108414D01*
X0027685Y0108673D01*
X0027821Y0108936D01*
X0027951Y0109202D01*
X0028073Y0109471D01*
X0028190Y0109744D01*
X0028299Y0110019D01*
X0028402Y0110296D01*
X0028498Y0110576D01*
X0028587Y0110858D01*
X0028669Y0111143D01*
X0028744Y0111429D01*
X0028812Y0111717D01*
X0028873Y0112006D01*
X0028927Y0112297D01*
X0028974Y0112590D01*
X0029014Y0112883D01*
X0029046Y0113177D01*
X0029071Y0113472D01*
X0029090Y0113767D01*
X0029100Y0114063D01*
X0029104Y0114359D01*
X0029100Y0114655D01*
X0029090Y0114951D01*
X0029071Y0115246D01*
X0029046Y0115541D01*
X0029014Y0115835D01*
X0028974Y0116128D01*
X0028927Y0116421D01*
X0028873Y0116712D01*
X0028812Y0117001D01*
X0028744Y0117289D01*
X0028669Y0117575D01*
X0028587Y0117860D01*
X0028498Y0118142D01*
X0028402Y0118422D01*
X0028299Y0118699D01*
X0028190Y0118974D01*
X0028073Y0119247D01*
X0027951Y0119516D01*
X0027821Y0119782D01*
X0027685Y0120045D01*
X0027543Y0120304D01*
X0027395Y0120560D01*
X0027240Y0120813D01*
X0027079Y0121061D01*
X0026912Y0121306D01*
X0026739Y0121546D01*
X0026561Y0121782D01*
X0026377Y0122013D01*
X0026187Y0122240D01*
X0025991Y0122462D01*
X0025790Y0122680D01*
X0025584Y0122892D01*
X0025373Y0123100D01*
X0025157Y0123302D01*
X0024936Y0123498D01*
X0024710Y0123690D01*
X0024480Y0123875D01*
X0024245Y0124055D01*
X0024005Y0124230D01*
X0023762Y0124398D01*
X0023515Y0124560D01*
X0023263Y0124717D01*
X0023008Y0124867D01*
X0022749Y0125010D01*
X0022487Y0125148D01*
X0022222Y0125279D01*
X0021953Y0125403D01*
X0021682Y0125521D01*
X0021408Y0125632D01*
X0021131Y0125736D01*
X0020851Y0125834D01*
X0020570Y0125925D01*
X0020286Y0126008D01*
X0020000Y0126085D01*
X0019712Y0126155D01*
X0019423Y0126218D01*
X0019133Y0126274D01*
X0018841Y0126322D01*
X0018548Y0126364D01*
X0018254Y0126398D01*
X0017959Y0126425D01*
X0017664Y0126445D01*
X0017368Y0126457D01*
X0017072Y0126463D01*
X0016776Y0126461D01*
X0016480Y0126452D01*
X0016185Y0126436D01*
X0015890Y0126412D01*
X0015596Y0126381D01*
X0015302Y0126343D01*
X0015010Y0126298D01*
X0014718Y0126246D01*
X0014428Y0126187D01*
X0014140Y0126120D01*
X0013853Y0126047D01*
X0013568Y0125966D01*
X0013286Y0125879D01*
X0013005Y0125785D01*
X0012727Y0125684D01*
X0012451Y0125576D01*
X0012179Y0125461D01*
X0011909Y0125340D01*
X0011642Y0125212D01*
X0011378Y0125078D01*
X0011117Y0124937D01*
X0010861Y0124790D01*
X0010607Y0124637D01*
X0010358Y0124478D01*
X0010113Y0124312D01*
X0009871Y0124141D01*
X0009634Y0123964D01*
X0009402Y0123781D01*
X0009174Y0123592D01*
X0008950Y0123398D01*
X0008732Y0123199D01*
X0008518Y0122994D01*
X0008309Y0122784D01*
X0008106Y0122569D01*
X0007908Y0122349D01*
X0007715Y0122124D01*
X0007528Y0121895D01*
X0007347Y0121661D01*
D19*
X0147000Y0130159D03*
X0147000Y0105559D03*
X0147000Y0077159D03*
X0147000Y0158559D03*
D20*
X0070200Y0114359D03*
X0041800Y0114359D03*
M02*
