%
M48
M72
T01C0.03200
T02C0.04000
T03C0.04600
T04C0.10000
%
T01
X91000Y86359
X86000Y104359
X86000Y114359
X86000Y124359
X86000Y134359
X76000Y114359
X111000Y86359
X116000Y104359
X116000Y114359
X116000Y124359
X116000Y134359
X147000Y124359
X147000Y111359
X147000Y71359
X147000Y58359
X147000Y38359
X36000Y114359
X22000Y114359
X12000Y114359
X147000Y164359
T02
X22000Y86359
X22000Y76359
T03
X96157Y199359
X115843Y199359
T04
X16000Y34359
X16000Y203359
X186000Y203359
X186000Y34359
M30
