%
M48
M72
T01C0.03200
T02C0.04000
%
T01
X86000Y86000
X86000Y96000
X86000Y106000
X86000Y116000
X76000Y96000
X91000Y68000
X111000Y68000
X116000Y86000
X116000Y96000
X116000Y106000
X116000Y116000
X147000Y106000
X147000Y93000
X147000Y53000
X147000Y40000
X147000Y20000
X36000Y96000
X22000Y96000
X12000Y96000
X147000Y146000
T02
X106000Y186000
X96000Y186000
M30
