G04 #@! TF.GenerationSoftware,KiCad,Pcbnew,8.0.6*
G04 #@! TF.CreationDate,2024-11-03T17:10:04-03:00*
G04 #@! TF.ProjectId,555-Oscilador-pisca-r01,3535352d-4f73-4636-996c-61646f722d70,rev?*
G04 #@! TF.SameCoordinates,Original*
G04 #@! TF.FileFunction,Legend,Top*
G04 #@! TF.FilePolarity,Positive*
%FSLAX46Y46*%
G04 Gerber Fmt 4.6, Leading zero omitted, Abs format (unit mm)*
G04 Created by KiCad (PCBNEW 8.0.6) date 2024-11-03 17:10:04*
%MOMM*%
%LPD*%
G01*
G04 APERTURE LIST*
%ADD10C,0.300000*%
%ADD11C,0.150000*%
%ADD12C,0.120000*%
G04 APERTURE END LIST*
D10*
X159523757Y-91566856D02*
X159452328Y-91709714D01*
X159452328Y-91709714D02*
X159452328Y-91923999D01*
X159452328Y-91923999D02*
X159523757Y-92138285D01*
X159523757Y-92138285D02*
X159666614Y-92281142D01*
X159666614Y-92281142D02*
X159809471Y-92352571D01*
X159809471Y-92352571D02*
X160095185Y-92423999D01*
X160095185Y-92423999D02*
X160309471Y-92423999D01*
X160309471Y-92423999D02*
X160595185Y-92352571D01*
X160595185Y-92352571D02*
X160738042Y-92281142D01*
X160738042Y-92281142D02*
X160880900Y-92138285D01*
X160880900Y-92138285D02*
X160952328Y-91923999D01*
X160952328Y-91923999D02*
X160952328Y-91781142D01*
X160952328Y-91781142D02*
X160880900Y-91566856D01*
X160880900Y-91566856D02*
X160809471Y-91495428D01*
X160809471Y-91495428D02*
X160309471Y-91495428D01*
X160309471Y-91495428D02*
X160309471Y-91781142D01*
X160952328Y-90852571D02*
X159452328Y-90852571D01*
X159452328Y-90852571D02*
X160952328Y-89995428D01*
X160952328Y-89995428D02*
X159452328Y-89995428D01*
X160952328Y-89281142D02*
X159452328Y-89281142D01*
X159452328Y-89281142D02*
X159452328Y-88923999D01*
X159452328Y-88923999D02*
X159523757Y-88709713D01*
X159523757Y-88709713D02*
X159666614Y-88566856D01*
X159666614Y-88566856D02*
X159809471Y-88495427D01*
X159809471Y-88495427D02*
X160095185Y-88423999D01*
X160095185Y-88423999D02*
X160309471Y-88423999D01*
X160309471Y-88423999D02*
X160595185Y-88495427D01*
X160595185Y-88495427D02*
X160738042Y-88566856D01*
X160738042Y-88566856D02*
X160880900Y-88709713D01*
X160880900Y-88709713D02*
X160952328Y-88923999D01*
X160952328Y-88923999D02*
X160952328Y-89281142D01*
X141883143Y-92054900D02*
X143026001Y-92054900D01*
X142454572Y-92626328D02*
X142454572Y-91483471D01*
X144526001Y-92626328D02*
X143668858Y-92626328D01*
X144097429Y-92626328D02*
X144097429Y-91126328D01*
X144097429Y-91126328D02*
X143954572Y-91340614D01*
X143954572Y-91340614D02*
X143811715Y-91483471D01*
X143811715Y-91483471D02*
X143668858Y-91554900D01*
X145097429Y-91269185D02*
X145168857Y-91197757D01*
X145168857Y-91197757D02*
X145311715Y-91126328D01*
X145311715Y-91126328D02*
X145668857Y-91126328D01*
X145668857Y-91126328D02*
X145811715Y-91197757D01*
X145811715Y-91197757D02*
X145883143Y-91269185D01*
X145883143Y-91269185D02*
X145954572Y-91412042D01*
X145954572Y-91412042D02*
X145954572Y-91554900D01*
X145954572Y-91554900D02*
X145883143Y-91769185D01*
X145883143Y-91769185D02*
X145026000Y-92626328D01*
X145026000Y-92626328D02*
X145954572Y-92626328D01*
X146383143Y-91126328D02*
X146883143Y-92626328D01*
X146883143Y-92626328D02*
X147383143Y-91126328D01*
X132778571Y-108564900D02*
X133921429Y-108564900D01*
X133350000Y-109136328D02*
X133350000Y-107993471D01*
X122526900Y-97868571D02*
X122598328Y-97654286D01*
X122598328Y-97654286D02*
X122598328Y-97297143D01*
X122598328Y-97297143D02*
X122526900Y-97154286D01*
X122526900Y-97154286D02*
X122455471Y-97082857D01*
X122455471Y-97082857D02*
X122312614Y-97011428D01*
X122312614Y-97011428D02*
X122169757Y-97011428D01*
X122169757Y-97011428D02*
X122026900Y-97082857D01*
X122026900Y-97082857D02*
X121955471Y-97154286D01*
X121955471Y-97154286D02*
X121884042Y-97297143D01*
X121884042Y-97297143D02*
X121812614Y-97582857D01*
X121812614Y-97582857D02*
X121741185Y-97725714D01*
X121741185Y-97725714D02*
X121669757Y-97797143D01*
X121669757Y-97797143D02*
X121526900Y-97868571D01*
X121526900Y-97868571D02*
X121384042Y-97868571D01*
X121384042Y-97868571D02*
X121241185Y-97797143D01*
X121241185Y-97797143D02*
X121169757Y-97725714D01*
X121169757Y-97725714D02*
X121098328Y-97582857D01*
X121098328Y-97582857D02*
X121098328Y-97225714D01*
X121098328Y-97225714D02*
X121169757Y-97011428D01*
X122598328Y-95725715D02*
X121812614Y-95725715D01*
X121812614Y-95725715D02*
X121669757Y-95797143D01*
X121669757Y-95797143D02*
X121598328Y-95940000D01*
X121598328Y-95940000D02*
X121598328Y-96225715D01*
X121598328Y-96225715D02*
X121669757Y-96368572D01*
X122526900Y-95725715D02*
X122598328Y-95868572D01*
X122598328Y-95868572D02*
X122598328Y-96225715D01*
X122598328Y-96225715D02*
X122526900Y-96368572D01*
X122526900Y-96368572D02*
X122384042Y-96440000D01*
X122384042Y-96440000D02*
X122241185Y-96440000D01*
X122241185Y-96440000D02*
X122098328Y-96368572D01*
X122098328Y-96368572D02*
X122026900Y-96225715D01*
X122026900Y-96225715D02*
X122026900Y-95868572D01*
X122026900Y-95868572D02*
X121955471Y-95725715D01*
X122598328Y-95011429D02*
X121598328Y-95011429D01*
X121026900Y-94868572D02*
X121241185Y-95082857D01*
X122598328Y-93654286D02*
X121098328Y-93654286D01*
X122526900Y-93654286D02*
X122598328Y-93797143D01*
X122598328Y-93797143D02*
X122598328Y-94082857D01*
X122598328Y-94082857D02*
X122526900Y-94225714D01*
X122526900Y-94225714D02*
X122455471Y-94297143D01*
X122455471Y-94297143D02*
X122312614Y-94368571D01*
X122312614Y-94368571D02*
X121884042Y-94368571D01*
X121884042Y-94368571D02*
X121741185Y-94297143D01*
X121741185Y-94297143D02*
X121669757Y-94225714D01*
X121669757Y-94225714D02*
X121598328Y-94082857D01*
X121598328Y-94082857D02*
X121598328Y-93797143D01*
X121598328Y-93797143D02*
X121669757Y-93654286D01*
X122598328Y-92297143D02*
X121812614Y-92297143D01*
X121812614Y-92297143D02*
X121669757Y-92368571D01*
X121669757Y-92368571D02*
X121598328Y-92511428D01*
X121598328Y-92511428D02*
X121598328Y-92797143D01*
X121598328Y-92797143D02*
X121669757Y-92940000D01*
X122526900Y-92297143D02*
X122598328Y-92440000D01*
X122598328Y-92440000D02*
X122598328Y-92797143D01*
X122598328Y-92797143D02*
X122526900Y-92940000D01*
X122526900Y-92940000D02*
X122384042Y-93011428D01*
X122384042Y-93011428D02*
X122241185Y-93011428D01*
X122241185Y-93011428D02*
X122098328Y-92940000D01*
X122098328Y-92940000D02*
X122026900Y-92797143D01*
X122026900Y-92797143D02*
X122026900Y-92440000D01*
X122026900Y-92440000D02*
X121955471Y-92297143D01*
X122598328Y-90440000D02*
X121098328Y-90440000D01*
X121098328Y-90440000D02*
X121098328Y-89868571D01*
X121098328Y-89868571D02*
X121169757Y-89725714D01*
X121169757Y-89725714D02*
X121241185Y-89654285D01*
X121241185Y-89654285D02*
X121384042Y-89582857D01*
X121384042Y-89582857D02*
X121598328Y-89582857D01*
X121598328Y-89582857D02*
X121741185Y-89654285D01*
X121741185Y-89654285D02*
X121812614Y-89725714D01*
X121812614Y-89725714D02*
X121884042Y-89868571D01*
X121884042Y-89868571D02*
X121884042Y-90440000D01*
X122598328Y-88940000D02*
X121598328Y-88940000D01*
X121098328Y-88940000D02*
X121169757Y-89011428D01*
X121169757Y-89011428D02*
X121241185Y-88940000D01*
X121241185Y-88940000D02*
X121169757Y-88868571D01*
X121169757Y-88868571D02*
X121098328Y-88940000D01*
X121098328Y-88940000D02*
X121241185Y-88940000D01*
X122526900Y-88297142D02*
X122598328Y-88154285D01*
X122598328Y-88154285D02*
X122598328Y-87868571D01*
X122598328Y-87868571D02*
X122526900Y-87725714D01*
X122526900Y-87725714D02*
X122384042Y-87654285D01*
X122384042Y-87654285D02*
X122312614Y-87654285D01*
X122312614Y-87654285D02*
X122169757Y-87725714D01*
X122169757Y-87725714D02*
X122098328Y-87868571D01*
X122098328Y-87868571D02*
X122098328Y-88082857D01*
X122098328Y-88082857D02*
X122026900Y-88225714D01*
X122026900Y-88225714D02*
X121884042Y-88297142D01*
X121884042Y-88297142D02*
X121812614Y-88297142D01*
X121812614Y-88297142D02*
X121669757Y-88225714D01*
X121669757Y-88225714D02*
X121598328Y-88082857D01*
X121598328Y-88082857D02*
X121598328Y-87868571D01*
X121598328Y-87868571D02*
X121669757Y-87725714D01*
X122526900Y-86368571D02*
X122598328Y-86511428D01*
X122598328Y-86511428D02*
X122598328Y-86797142D01*
X122598328Y-86797142D02*
X122526900Y-86939999D01*
X122526900Y-86939999D02*
X122455471Y-87011428D01*
X122455471Y-87011428D02*
X122312614Y-87082856D01*
X122312614Y-87082856D02*
X121884042Y-87082856D01*
X121884042Y-87082856D02*
X121741185Y-87011428D01*
X121741185Y-87011428D02*
X121669757Y-86939999D01*
X121669757Y-86939999D02*
X121598328Y-86797142D01*
X121598328Y-86797142D02*
X121598328Y-86511428D01*
X121598328Y-86511428D02*
X121669757Y-86368571D01*
X122598328Y-85082857D02*
X121812614Y-85082857D01*
X121812614Y-85082857D02*
X121669757Y-85154285D01*
X121669757Y-85154285D02*
X121598328Y-85297142D01*
X121598328Y-85297142D02*
X121598328Y-85582857D01*
X121598328Y-85582857D02*
X121669757Y-85725714D01*
X122526900Y-85082857D02*
X122598328Y-85225714D01*
X122598328Y-85225714D02*
X122598328Y-85582857D01*
X122598328Y-85582857D02*
X122526900Y-85725714D01*
X122526900Y-85725714D02*
X122384042Y-85797142D01*
X122384042Y-85797142D02*
X122241185Y-85797142D01*
X122241185Y-85797142D02*
X122098328Y-85725714D01*
X122098328Y-85725714D02*
X122026900Y-85582857D01*
X122026900Y-85582857D02*
X122026900Y-85225714D01*
X122026900Y-85225714D02*
X121955471Y-85082857D01*
X139390572Y-100016328D02*
X138676286Y-100016328D01*
X138676286Y-100016328D02*
X138604858Y-100730614D01*
X138604858Y-100730614D02*
X138676286Y-100659185D01*
X138676286Y-100659185D02*
X138819144Y-100587757D01*
X138819144Y-100587757D02*
X139176286Y-100587757D01*
X139176286Y-100587757D02*
X139319144Y-100659185D01*
X139319144Y-100659185D02*
X139390572Y-100730614D01*
X139390572Y-100730614D02*
X139462001Y-100873471D01*
X139462001Y-100873471D02*
X139462001Y-101230614D01*
X139462001Y-101230614D02*
X139390572Y-101373471D01*
X139390572Y-101373471D02*
X139319144Y-101444900D01*
X139319144Y-101444900D02*
X139176286Y-101516328D01*
X139176286Y-101516328D02*
X138819144Y-101516328D01*
X138819144Y-101516328D02*
X138676286Y-101444900D01*
X138676286Y-101444900D02*
X138604858Y-101373471D01*
X140819143Y-100016328D02*
X140104857Y-100016328D01*
X140104857Y-100016328D02*
X140033429Y-100730614D01*
X140033429Y-100730614D02*
X140104857Y-100659185D01*
X140104857Y-100659185D02*
X140247715Y-100587757D01*
X140247715Y-100587757D02*
X140604857Y-100587757D01*
X140604857Y-100587757D02*
X140747715Y-100659185D01*
X140747715Y-100659185D02*
X140819143Y-100730614D01*
X140819143Y-100730614D02*
X140890572Y-100873471D01*
X140890572Y-100873471D02*
X140890572Y-101230614D01*
X140890572Y-101230614D02*
X140819143Y-101373471D01*
X140819143Y-101373471D02*
X140747715Y-101444900D01*
X140747715Y-101444900D02*
X140604857Y-101516328D01*
X140604857Y-101516328D02*
X140247715Y-101516328D01*
X140247715Y-101516328D02*
X140104857Y-101444900D01*
X140104857Y-101444900D02*
X140033429Y-101373471D01*
X142247714Y-100016328D02*
X141533428Y-100016328D01*
X141533428Y-100016328D02*
X141462000Y-100730614D01*
X141462000Y-100730614D02*
X141533428Y-100659185D01*
X141533428Y-100659185D02*
X141676286Y-100587757D01*
X141676286Y-100587757D02*
X142033428Y-100587757D01*
X142033428Y-100587757D02*
X142176286Y-100659185D01*
X142176286Y-100659185D02*
X142247714Y-100730614D01*
X142247714Y-100730614D02*
X142319143Y-100873471D01*
X142319143Y-100873471D02*
X142319143Y-101230614D01*
X142319143Y-101230614D02*
X142247714Y-101373471D01*
X142247714Y-101373471D02*
X142176286Y-101444900D01*
X142176286Y-101444900D02*
X142033428Y-101516328D01*
X142033428Y-101516328D02*
X141676286Y-101516328D01*
X141676286Y-101516328D02*
X141533428Y-101444900D01*
X141533428Y-101444900D02*
X141462000Y-101373471D01*
X143105428Y-87482900D02*
X144248286Y-87482900D01*
X143676857Y-88054328D02*
X143676857Y-86911471D01*
X145034000Y-88054328D02*
X145319714Y-88054328D01*
X145319714Y-88054328D02*
X145462571Y-87982900D01*
X145462571Y-87982900D02*
X145534000Y-87911471D01*
X145534000Y-87911471D02*
X145676857Y-87697185D01*
X145676857Y-87697185D02*
X145748286Y-87411471D01*
X145748286Y-87411471D02*
X145748286Y-86840042D01*
X145748286Y-86840042D02*
X145676857Y-86697185D01*
X145676857Y-86697185D02*
X145605429Y-86625757D01*
X145605429Y-86625757D02*
X145462571Y-86554328D01*
X145462571Y-86554328D02*
X145176857Y-86554328D01*
X145176857Y-86554328D02*
X145034000Y-86625757D01*
X145034000Y-86625757D02*
X144962571Y-86697185D01*
X144962571Y-86697185D02*
X144891143Y-86840042D01*
X144891143Y-86840042D02*
X144891143Y-87197185D01*
X144891143Y-87197185D02*
X144962571Y-87340042D01*
X144962571Y-87340042D02*
X145034000Y-87411471D01*
X145034000Y-87411471D02*
X145176857Y-87482900D01*
X145176857Y-87482900D02*
X145462571Y-87482900D01*
X145462571Y-87482900D02*
X145605429Y-87411471D01*
X145605429Y-87411471D02*
X145676857Y-87340042D01*
X145676857Y-87340042D02*
X145748286Y-87197185D01*
X146176857Y-86554328D02*
X146676857Y-88054328D01*
X146676857Y-88054328D02*
X147176857Y-86554328D01*
X123988856Y-130448614D02*
X123488856Y-130448614D01*
X123488856Y-131234328D02*
X123488856Y-129734328D01*
X123488856Y-129734328D02*
X124203142Y-129734328D01*
X124774570Y-131234328D02*
X124774570Y-130234328D01*
X124774570Y-130520042D02*
X124845999Y-130377185D01*
X124845999Y-130377185D02*
X124917428Y-130305757D01*
X124917428Y-130305757D02*
X125060285Y-130234328D01*
X125060285Y-130234328D02*
X125203142Y-130234328D01*
X125703141Y-131234328D02*
X125703141Y-130234328D01*
X125703141Y-129734328D02*
X125631713Y-129805757D01*
X125631713Y-129805757D02*
X125703141Y-129877185D01*
X125703141Y-129877185D02*
X125774570Y-129805757D01*
X125774570Y-129805757D02*
X125703141Y-129734328D01*
X125703141Y-129734328D02*
X125703141Y-129877185D01*
X126203142Y-130234328D02*
X126774570Y-130234328D01*
X126417427Y-129734328D02*
X126417427Y-131020042D01*
X126417427Y-131020042D02*
X126488856Y-131162900D01*
X126488856Y-131162900D02*
X126631713Y-131234328D01*
X126631713Y-131234328D02*
X126774570Y-131234328D01*
X127131713Y-130234328D02*
X127917428Y-130234328D01*
X127917428Y-130234328D02*
X127131713Y-131234328D01*
X127131713Y-131234328D02*
X127917428Y-131234328D01*
X129060285Y-131162900D02*
X128917428Y-131234328D01*
X128917428Y-131234328D02*
X128631714Y-131234328D01*
X128631714Y-131234328D02*
X128488856Y-131162900D01*
X128488856Y-131162900D02*
X128417428Y-131020042D01*
X128417428Y-131020042D02*
X128417428Y-130448614D01*
X128417428Y-130448614D02*
X128488856Y-130305757D01*
X128488856Y-130305757D02*
X128631714Y-130234328D01*
X128631714Y-130234328D02*
X128917428Y-130234328D01*
X128917428Y-130234328D02*
X129060285Y-130305757D01*
X129060285Y-130305757D02*
X129131714Y-130448614D01*
X129131714Y-130448614D02*
X129131714Y-130591471D01*
X129131714Y-130591471D02*
X128417428Y-130734328D01*
X129774570Y-130234328D02*
X129774570Y-131234328D01*
X129774570Y-130377185D02*
X129845999Y-130305757D01*
X129845999Y-130305757D02*
X129988856Y-130234328D01*
X129988856Y-130234328D02*
X130203142Y-130234328D01*
X130203142Y-130234328D02*
X130345999Y-130305757D01*
X130345999Y-130305757D02*
X130417428Y-130448614D01*
X130417428Y-130448614D02*
X130417428Y-131234328D01*
X131845999Y-131234328D02*
X131131713Y-131234328D01*
X131131713Y-131234328D02*
X131131713Y-129734328D01*
X132988857Y-131234328D02*
X132988857Y-130448614D01*
X132988857Y-130448614D02*
X132917428Y-130305757D01*
X132917428Y-130305757D02*
X132774571Y-130234328D01*
X132774571Y-130234328D02*
X132488857Y-130234328D01*
X132488857Y-130234328D02*
X132345999Y-130305757D01*
X132988857Y-131162900D02*
X132845999Y-131234328D01*
X132845999Y-131234328D02*
X132488857Y-131234328D01*
X132488857Y-131234328D02*
X132345999Y-131162900D01*
X132345999Y-131162900D02*
X132274571Y-131020042D01*
X132274571Y-131020042D02*
X132274571Y-130877185D01*
X132274571Y-130877185D02*
X132345999Y-130734328D01*
X132345999Y-130734328D02*
X132488857Y-130662900D01*
X132488857Y-130662900D02*
X132845999Y-130662900D01*
X132845999Y-130662900D02*
X132988857Y-130591471D01*
X133703142Y-131234328D02*
X133703142Y-129734328D01*
X133703142Y-130305757D02*
X133846000Y-130234328D01*
X133846000Y-130234328D02*
X134131714Y-130234328D01*
X134131714Y-130234328D02*
X134274571Y-130305757D01*
X134274571Y-130305757D02*
X134346000Y-130377185D01*
X134346000Y-130377185D02*
X134417428Y-130520042D01*
X134417428Y-130520042D02*
X134417428Y-130948614D01*
X134417428Y-130948614D02*
X134346000Y-131091471D01*
X134346000Y-131091471D02*
X134274571Y-131162900D01*
X134274571Y-131162900D02*
X134131714Y-131234328D01*
X134131714Y-131234328D02*
X133846000Y-131234328D01*
X133846000Y-131234328D02*
X133703142Y-131162900D01*
X135060285Y-131091471D02*
X135131714Y-131162900D01*
X135131714Y-131162900D02*
X135060285Y-131234328D01*
X135060285Y-131234328D02*
X134988857Y-131162900D01*
X134988857Y-131162900D02*
X135060285Y-131091471D01*
X135060285Y-131091471D02*
X135060285Y-131234328D01*
X136417429Y-131162900D02*
X136274571Y-131234328D01*
X136274571Y-131234328D02*
X135988857Y-131234328D01*
X135988857Y-131234328D02*
X135846000Y-131162900D01*
X135846000Y-131162900D02*
X135774571Y-131091471D01*
X135774571Y-131091471D02*
X135703143Y-130948614D01*
X135703143Y-130948614D02*
X135703143Y-130520042D01*
X135703143Y-130520042D02*
X135774571Y-130377185D01*
X135774571Y-130377185D02*
X135846000Y-130305757D01*
X135846000Y-130305757D02*
X135988857Y-130234328D01*
X135988857Y-130234328D02*
X136274571Y-130234328D01*
X136274571Y-130234328D02*
X136417429Y-130305757D01*
X137274571Y-131234328D02*
X137131714Y-131162900D01*
X137131714Y-131162900D02*
X137060285Y-131091471D01*
X137060285Y-131091471D02*
X136988857Y-130948614D01*
X136988857Y-130948614D02*
X136988857Y-130520042D01*
X136988857Y-130520042D02*
X137060285Y-130377185D01*
X137060285Y-130377185D02*
X137131714Y-130305757D01*
X137131714Y-130305757D02*
X137274571Y-130234328D01*
X137274571Y-130234328D02*
X137488857Y-130234328D01*
X137488857Y-130234328D02*
X137631714Y-130305757D01*
X137631714Y-130305757D02*
X137703143Y-130377185D01*
X137703143Y-130377185D02*
X137774571Y-130520042D01*
X137774571Y-130520042D02*
X137774571Y-130948614D01*
X137774571Y-130948614D02*
X137703143Y-131091471D01*
X137703143Y-131091471D02*
X137631714Y-131162900D01*
X137631714Y-131162900D02*
X137488857Y-131234328D01*
X137488857Y-131234328D02*
X137274571Y-131234328D01*
X138417428Y-131234328D02*
X138417428Y-130234328D01*
X138417428Y-130377185D02*
X138488857Y-130305757D01*
X138488857Y-130305757D02*
X138631714Y-130234328D01*
X138631714Y-130234328D02*
X138846000Y-130234328D01*
X138846000Y-130234328D02*
X138988857Y-130305757D01*
X138988857Y-130305757D02*
X139060286Y-130448614D01*
X139060286Y-130448614D02*
X139060286Y-131234328D01*
X139060286Y-130448614D02*
X139131714Y-130305757D01*
X139131714Y-130305757D02*
X139274571Y-130234328D01*
X139274571Y-130234328D02*
X139488857Y-130234328D01*
X139488857Y-130234328D02*
X139631714Y-130305757D01*
X139631714Y-130305757D02*
X139703143Y-130448614D01*
X139703143Y-130448614D02*
X139703143Y-131234328D01*
X140417428Y-131091471D02*
X140488857Y-131162900D01*
X140488857Y-131162900D02*
X140417428Y-131234328D01*
X140417428Y-131234328D02*
X140346000Y-131162900D01*
X140346000Y-131162900D02*
X140417428Y-131091471D01*
X140417428Y-131091471D02*
X140417428Y-131234328D01*
X141131714Y-131234328D02*
X141131714Y-129734328D01*
X141131714Y-130305757D02*
X141274572Y-130234328D01*
X141274572Y-130234328D02*
X141560286Y-130234328D01*
X141560286Y-130234328D02*
X141703143Y-130305757D01*
X141703143Y-130305757D02*
X141774572Y-130377185D01*
X141774572Y-130377185D02*
X141846000Y-130520042D01*
X141846000Y-130520042D02*
X141846000Y-130948614D01*
X141846000Y-130948614D02*
X141774572Y-131091471D01*
X141774572Y-131091471D02*
X141703143Y-131162900D01*
X141703143Y-131162900D02*
X141560286Y-131234328D01*
X141560286Y-131234328D02*
X141274572Y-131234328D01*
X141274572Y-131234328D02*
X141131714Y-131162900D01*
X142488857Y-131234328D02*
X142488857Y-130234328D01*
X142488857Y-130520042D02*
X142560286Y-130377185D01*
X142560286Y-130377185D02*
X142631715Y-130305757D01*
X142631715Y-130305757D02*
X142774572Y-130234328D01*
X142774572Y-130234328D02*
X142917429Y-130234328D01*
X134885757Y-90804856D02*
X134814328Y-90947714D01*
X134814328Y-90947714D02*
X134814328Y-91161999D01*
X134814328Y-91161999D02*
X134885757Y-91376285D01*
X134885757Y-91376285D02*
X135028614Y-91519142D01*
X135028614Y-91519142D02*
X135171471Y-91590571D01*
X135171471Y-91590571D02*
X135457185Y-91661999D01*
X135457185Y-91661999D02*
X135671471Y-91661999D01*
X135671471Y-91661999D02*
X135957185Y-91590571D01*
X135957185Y-91590571D02*
X136100042Y-91519142D01*
X136100042Y-91519142D02*
X136242900Y-91376285D01*
X136242900Y-91376285D02*
X136314328Y-91161999D01*
X136314328Y-91161999D02*
X136314328Y-91019142D01*
X136314328Y-91019142D02*
X136242900Y-90804856D01*
X136242900Y-90804856D02*
X136171471Y-90733428D01*
X136171471Y-90733428D02*
X135671471Y-90733428D01*
X135671471Y-90733428D02*
X135671471Y-91019142D01*
X136314328Y-90090571D02*
X134814328Y-90090571D01*
X134814328Y-90090571D02*
X136314328Y-89233428D01*
X136314328Y-89233428D02*
X134814328Y-89233428D01*
X136314328Y-88519142D02*
X134814328Y-88519142D01*
X134814328Y-88519142D02*
X134814328Y-88161999D01*
X134814328Y-88161999D02*
X134885757Y-87947713D01*
X134885757Y-87947713D02*
X135028614Y-87804856D01*
X135028614Y-87804856D02*
X135171471Y-87733427D01*
X135171471Y-87733427D02*
X135457185Y-87661999D01*
X135457185Y-87661999D02*
X135671471Y-87661999D01*
X135671471Y-87661999D02*
X135957185Y-87733427D01*
X135957185Y-87733427D02*
X136100042Y-87804856D01*
X136100042Y-87804856D02*
X136242900Y-87947713D01*
X136242900Y-87947713D02*
X136314328Y-88161999D01*
X136314328Y-88161999D02*
X136314328Y-88519142D01*
X124667047Y-126544400D02*
X124476571Y-126639638D01*
X124476571Y-126639638D02*
X124095618Y-126639638D01*
X124095618Y-126639638D02*
X123905142Y-126544400D01*
X123905142Y-126544400D02*
X123809904Y-126449161D01*
X123809904Y-126449161D02*
X123714666Y-126258685D01*
X123714666Y-126258685D02*
X123714666Y-125687257D01*
X123714666Y-125687257D02*
X123809904Y-125496780D01*
X123809904Y-125496780D02*
X123905142Y-125401542D01*
X123905142Y-125401542D02*
X124095618Y-125306304D01*
X124095618Y-125306304D02*
X124476571Y-125306304D01*
X124476571Y-125306304D02*
X124667047Y-125401542D01*
X125809904Y-126639638D02*
X125619428Y-126544400D01*
X125619428Y-126544400D02*
X125524190Y-126449161D01*
X125524190Y-126449161D02*
X125428952Y-126258685D01*
X125428952Y-126258685D02*
X125428952Y-125687257D01*
X125428952Y-125687257D02*
X125524190Y-125496780D01*
X125524190Y-125496780D02*
X125619428Y-125401542D01*
X125619428Y-125401542D02*
X125809904Y-125306304D01*
X125809904Y-125306304D02*
X126095619Y-125306304D01*
X126095619Y-125306304D02*
X126286095Y-125401542D01*
X126286095Y-125401542D02*
X126381333Y-125496780D01*
X126381333Y-125496780D02*
X126476571Y-125687257D01*
X126476571Y-125687257D02*
X126476571Y-126258685D01*
X126476571Y-126258685D02*
X126381333Y-126449161D01*
X126381333Y-126449161D02*
X126286095Y-126544400D01*
X126286095Y-126544400D02*
X126095619Y-126639638D01*
X126095619Y-126639638D02*
X125809904Y-126639638D01*
X127333714Y-126639638D02*
X127333714Y-125306304D01*
X127333714Y-125496780D02*
X127428952Y-125401542D01*
X127428952Y-125401542D02*
X127619428Y-125306304D01*
X127619428Y-125306304D02*
X127905143Y-125306304D01*
X127905143Y-125306304D02*
X128095619Y-125401542D01*
X128095619Y-125401542D02*
X128190857Y-125592019D01*
X128190857Y-125592019D02*
X128190857Y-126639638D01*
X128190857Y-125592019D02*
X128286095Y-125401542D01*
X128286095Y-125401542D02*
X128476571Y-125306304D01*
X128476571Y-125306304D02*
X128762285Y-125306304D01*
X128762285Y-125306304D02*
X128952762Y-125401542D01*
X128952762Y-125401542D02*
X129048000Y-125592019D01*
X129048000Y-125592019D02*
X129048000Y-126639638D01*
X132476572Y-124639638D02*
X131524191Y-124639638D01*
X131524191Y-124639638D02*
X131428953Y-125592019D01*
X131428953Y-125592019D02*
X131524191Y-125496780D01*
X131524191Y-125496780D02*
X131714667Y-125401542D01*
X131714667Y-125401542D02*
X132190858Y-125401542D01*
X132190858Y-125401542D02*
X132381334Y-125496780D01*
X132381334Y-125496780D02*
X132476572Y-125592019D01*
X132476572Y-125592019D02*
X132571810Y-125782495D01*
X132571810Y-125782495D02*
X132571810Y-126258685D01*
X132571810Y-126258685D02*
X132476572Y-126449161D01*
X132476572Y-126449161D02*
X132381334Y-126544400D01*
X132381334Y-126544400D02*
X132190858Y-126639638D01*
X132190858Y-126639638D02*
X131714667Y-126639638D01*
X131714667Y-126639638D02*
X131524191Y-126544400D01*
X131524191Y-126544400D02*
X131428953Y-126449161D01*
X134381334Y-124639638D02*
X133428953Y-124639638D01*
X133428953Y-124639638D02*
X133333715Y-125592019D01*
X133333715Y-125592019D02*
X133428953Y-125496780D01*
X133428953Y-125496780D02*
X133619429Y-125401542D01*
X133619429Y-125401542D02*
X134095620Y-125401542D01*
X134095620Y-125401542D02*
X134286096Y-125496780D01*
X134286096Y-125496780D02*
X134381334Y-125592019D01*
X134381334Y-125592019D02*
X134476572Y-125782495D01*
X134476572Y-125782495D02*
X134476572Y-126258685D01*
X134476572Y-126258685D02*
X134381334Y-126449161D01*
X134381334Y-126449161D02*
X134286096Y-126544400D01*
X134286096Y-126544400D02*
X134095620Y-126639638D01*
X134095620Y-126639638D02*
X133619429Y-126639638D01*
X133619429Y-126639638D02*
X133428953Y-126544400D01*
X133428953Y-126544400D02*
X133333715Y-126449161D01*
X136286096Y-124639638D02*
X135333715Y-124639638D01*
X135333715Y-124639638D02*
X135238477Y-125592019D01*
X135238477Y-125592019D02*
X135333715Y-125496780D01*
X135333715Y-125496780D02*
X135524191Y-125401542D01*
X135524191Y-125401542D02*
X136000382Y-125401542D01*
X136000382Y-125401542D02*
X136190858Y-125496780D01*
X136190858Y-125496780D02*
X136286096Y-125592019D01*
X136286096Y-125592019D02*
X136381334Y-125782495D01*
X136381334Y-125782495D02*
X136381334Y-126258685D01*
X136381334Y-126258685D02*
X136286096Y-126449161D01*
X136286096Y-126449161D02*
X136190858Y-126544400D01*
X136190858Y-126544400D02*
X136000382Y-126639638D01*
X136000382Y-126639638D02*
X135524191Y-126639638D01*
X135524191Y-126639638D02*
X135333715Y-126544400D01*
X135333715Y-126544400D02*
X135238477Y-126449161D01*
X117825903Y-121337638D02*
X118206856Y-121337638D01*
X118206856Y-121337638D02*
X118397332Y-121432876D01*
X118397332Y-121432876D02*
X118587808Y-121623352D01*
X118587808Y-121623352D02*
X118683046Y-122004304D01*
X118683046Y-122004304D02*
X118683046Y-122670971D01*
X118683046Y-122670971D02*
X118587808Y-123051923D01*
X118587808Y-123051923D02*
X118397332Y-123242400D01*
X118397332Y-123242400D02*
X118206856Y-123337638D01*
X118206856Y-123337638D02*
X117825903Y-123337638D01*
X117825903Y-123337638D02*
X117635427Y-123242400D01*
X117635427Y-123242400D02*
X117444951Y-123051923D01*
X117444951Y-123051923D02*
X117349713Y-122670971D01*
X117349713Y-122670971D02*
X117349713Y-122004304D01*
X117349713Y-122004304D02*
X117444951Y-121623352D01*
X117444951Y-121623352D02*
X117635427Y-121432876D01*
X117635427Y-121432876D02*
X117825903Y-121337638D01*
X119444951Y-123242400D02*
X119635427Y-123337638D01*
X119635427Y-123337638D02*
X120016379Y-123337638D01*
X120016379Y-123337638D02*
X120206856Y-123242400D01*
X120206856Y-123242400D02*
X120302094Y-123051923D01*
X120302094Y-123051923D02*
X120302094Y-122956685D01*
X120302094Y-122956685D02*
X120206856Y-122766209D01*
X120206856Y-122766209D02*
X120016379Y-122670971D01*
X120016379Y-122670971D02*
X119730665Y-122670971D01*
X119730665Y-122670971D02*
X119540189Y-122575733D01*
X119540189Y-122575733D02*
X119444951Y-122385257D01*
X119444951Y-122385257D02*
X119444951Y-122290019D01*
X119444951Y-122290019D02*
X119540189Y-122099542D01*
X119540189Y-122099542D02*
X119730665Y-122004304D01*
X119730665Y-122004304D02*
X120016379Y-122004304D01*
X120016379Y-122004304D02*
X120206856Y-122099542D01*
X122016380Y-123242400D02*
X121825904Y-123337638D01*
X121825904Y-123337638D02*
X121444951Y-123337638D01*
X121444951Y-123337638D02*
X121254475Y-123242400D01*
X121254475Y-123242400D02*
X121159237Y-123147161D01*
X121159237Y-123147161D02*
X121063999Y-122956685D01*
X121063999Y-122956685D02*
X121063999Y-122385257D01*
X121063999Y-122385257D02*
X121159237Y-122194780D01*
X121159237Y-122194780D02*
X121254475Y-122099542D01*
X121254475Y-122099542D02*
X121444951Y-122004304D01*
X121444951Y-122004304D02*
X121825904Y-122004304D01*
X121825904Y-122004304D02*
X122016380Y-122099542D01*
X122873523Y-123337638D02*
X122873523Y-122004304D01*
X122873523Y-121337638D02*
X122778285Y-121432876D01*
X122778285Y-121432876D02*
X122873523Y-121528114D01*
X122873523Y-121528114D02*
X122968761Y-121432876D01*
X122968761Y-121432876D02*
X122873523Y-121337638D01*
X122873523Y-121337638D02*
X122873523Y-121528114D01*
X124111618Y-123337638D02*
X123921142Y-123242400D01*
X123921142Y-123242400D02*
X123825904Y-123051923D01*
X123825904Y-123051923D02*
X123825904Y-121337638D01*
X125730666Y-123337638D02*
X125730666Y-122290019D01*
X125730666Y-122290019D02*
X125635428Y-122099542D01*
X125635428Y-122099542D02*
X125444952Y-122004304D01*
X125444952Y-122004304D02*
X125063999Y-122004304D01*
X125063999Y-122004304D02*
X124873523Y-122099542D01*
X125730666Y-123242400D02*
X125540190Y-123337638D01*
X125540190Y-123337638D02*
X125063999Y-123337638D01*
X125063999Y-123337638D02*
X124873523Y-123242400D01*
X124873523Y-123242400D02*
X124778285Y-123051923D01*
X124778285Y-123051923D02*
X124778285Y-122861447D01*
X124778285Y-122861447D02*
X124873523Y-122670971D01*
X124873523Y-122670971D02*
X125063999Y-122575733D01*
X125063999Y-122575733D02*
X125540190Y-122575733D01*
X125540190Y-122575733D02*
X125730666Y-122480495D01*
X127540190Y-123337638D02*
X127540190Y-121337638D01*
X127540190Y-123242400D02*
X127349714Y-123337638D01*
X127349714Y-123337638D02*
X126968761Y-123337638D01*
X126968761Y-123337638D02*
X126778285Y-123242400D01*
X126778285Y-123242400D02*
X126683047Y-123147161D01*
X126683047Y-123147161D02*
X126587809Y-122956685D01*
X126587809Y-122956685D02*
X126587809Y-122385257D01*
X126587809Y-122385257D02*
X126683047Y-122194780D01*
X126683047Y-122194780D02*
X126778285Y-122099542D01*
X126778285Y-122099542D02*
X126968761Y-122004304D01*
X126968761Y-122004304D02*
X127349714Y-122004304D01*
X127349714Y-122004304D02*
X127540190Y-122099542D01*
X128778285Y-123337638D02*
X128587809Y-123242400D01*
X128587809Y-123242400D02*
X128492571Y-123147161D01*
X128492571Y-123147161D02*
X128397333Y-122956685D01*
X128397333Y-122956685D02*
X128397333Y-122385257D01*
X128397333Y-122385257D02*
X128492571Y-122194780D01*
X128492571Y-122194780D02*
X128587809Y-122099542D01*
X128587809Y-122099542D02*
X128778285Y-122004304D01*
X128778285Y-122004304D02*
X129064000Y-122004304D01*
X129064000Y-122004304D02*
X129254476Y-122099542D01*
X129254476Y-122099542D02*
X129349714Y-122194780D01*
X129349714Y-122194780D02*
X129444952Y-122385257D01*
X129444952Y-122385257D02*
X129444952Y-122956685D01*
X129444952Y-122956685D02*
X129349714Y-123147161D01*
X129349714Y-123147161D02*
X129254476Y-123242400D01*
X129254476Y-123242400D02*
X129064000Y-123337638D01*
X129064000Y-123337638D02*
X128778285Y-123337638D01*
X130302095Y-123337638D02*
X130302095Y-122004304D01*
X130302095Y-122385257D02*
X130397333Y-122194780D01*
X130397333Y-122194780D02*
X130492571Y-122099542D01*
X130492571Y-122099542D02*
X130683047Y-122004304D01*
X130683047Y-122004304D02*
X130873524Y-122004304D01*
X133064000Y-122004304D02*
X133064000Y-124004304D01*
X133064000Y-122099542D02*
X133254476Y-122004304D01*
X133254476Y-122004304D02*
X133635429Y-122004304D01*
X133635429Y-122004304D02*
X133825905Y-122099542D01*
X133825905Y-122099542D02*
X133921143Y-122194780D01*
X133921143Y-122194780D02*
X134016381Y-122385257D01*
X134016381Y-122385257D02*
X134016381Y-122956685D01*
X134016381Y-122956685D02*
X133921143Y-123147161D01*
X133921143Y-123147161D02*
X133825905Y-123242400D01*
X133825905Y-123242400D02*
X133635429Y-123337638D01*
X133635429Y-123337638D02*
X133254476Y-123337638D01*
X133254476Y-123337638D02*
X133064000Y-123242400D01*
X134873524Y-123337638D02*
X134873524Y-122004304D01*
X134873524Y-121337638D02*
X134778286Y-121432876D01*
X134778286Y-121432876D02*
X134873524Y-121528114D01*
X134873524Y-121528114D02*
X134968762Y-121432876D01*
X134968762Y-121432876D02*
X134873524Y-121337638D01*
X134873524Y-121337638D02*
X134873524Y-121528114D01*
X135730667Y-123242400D02*
X135921143Y-123337638D01*
X135921143Y-123337638D02*
X136302095Y-123337638D01*
X136302095Y-123337638D02*
X136492572Y-123242400D01*
X136492572Y-123242400D02*
X136587810Y-123051923D01*
X136587810Y-123051923D02*
X136587810Y-122956685D01*
X136587810Y-122956685D02*
X136492572Y-122766209D01*
X136492572Y-122766209D02*
X136302095Y-122670971D01*
X136302095Y-122670971D02*
X136016381Y-122670971D01*
X136016381Y-122670971D02*
X135825905Y-122575733D01*
X135825905Y-122575733D02*
X135730667Y-122385257D01*
X135730667Y-122385257D02*
X135730667Y-122290019D01*
X135730667Y-122290019D02*
X135825905Y-122099542D01*
X135825905Y-122099542D02*
X136016381Y-122004304D01*
X136016381Y-122004304D02*
X136302095Y-122004304D01*
X136302095Y-122004304D02*
X136492572Y-122099542D01*
X138302096Y-123242400D02*
X138111620Y-123337638D01*
X138111620Y-123337638D02*
X137730667Y-123337638D01*
X137730667Y-123337638D02*
X137540191Y-123242400D01*
X137540191Y-123242400D02*
X137444953Y-123147161D01*
X137444953Y-123147161D02*
X137349715Y-122956685D01*
X137349715Y-122956685D02*
X137349715Y-122385257D01*
X137349715Y-122385257D02*
X137444953Y-122194780D01*
X137444953Y-122194780D02*
X137540191Y-122099542D01*
X137540191Y-122099542D02*
X137730667Y-122004304D01*
X137730667Y-122004304D02*
X138111620Y-122004304D01*
X138111620Y-122004304D02*
X138302096Y-122099542D01*
X140016382Y-123337638D02*
X140016382Y-122290019D01*
X140016382Y-122290019D02*
X139921144Y-122099542D01*
X139921144Y-122099542D02*
X139730668Y-122004304D01*
X139730668Y-122004304D02*
X139349715Y-122004304D01*
X139349715Y-122004304D02*
X139159239Y-122099542D01*
X140016382Y-123242400D02*
X139825906Y-123337638D01*
X139825906Y-123337638D02*
X139349715Y-123337638D01*
X139349715Y-123337638D02*
X139159239Y-123242400D01*
X139159239Y-123242400D02*
X139064001Y-123051923D01*
X139064001Y-123051923D02*
X139064001Y-122861447D01*
X139064001Y-122861447D02*
X139159239Y-122670971D01*
X139159239Y-122670971D02*
X139349715Y-122575733D01*
X139349715Y-122575733D02*
X139825906Y-122575733D01*
X139825906Y-122575733D02*
X140016382Y-122480495D01*
X140968763Y-122004304D02*
X140968763Y-123337638D01*
X140968763Y-122194780D02*
X141064001Y-122099542D01*
X141064001Y-122099542D02*
X141254477Y-122004304D01*
X141254477Y-122004304D02*
X141540192Y-122004304D01*
X141540192Y-122004304D02*
X141730668Y-122099542D01*
X141730668Y-122099542D02*
X141825906Y-122290019D01*
X141825906Y-122290019D02*
X141825906Y-123337638D01*
X142492573Y-122004304D02*
X143254477Y-122004304D01*
X142778287Y-121337638D02*
X142778287Y-123051923D01*
X142778287Y-123051923D02*
X142873525Y-123242400D01*
X142873525Y-123242400D02*
X143064001Y-123337638D01*
X143064001Y-123337638D02*
X143254477Y-123337638D01*
X144683049Y-123242400D02*
X144492573Y-123337638D01*
X144492573Y-123337638D02*
X144111620Y-123337638D01*
X144111620Y-123337638D02*
X143921144Y-123242400D01*
X143921144Y-123242400D02*
X143825906Y-123051923D01*
X143825906Y-123051923D02*
X143825906Y-122290019D01*
X143825906Y-122290019D02*
X143921144Y-122099542D01*
X143921144Y-122099542D02*
X144111620Y-122004304D01*
X144111620Y-122004304D02*
X144492573Y-122004304D01*
X144492573Y-122004304D02*
X144683049Y-122099542D01*
X144683049Y-122099542D02*
X144778287Y-122290019D01*
X144778287Y-122290019D02*
X144778287Y-122480495D01*
X144778287Y-122480495D02*
X143825906Y-122670971D01*
X144538000Y-90340328D02*
X144538000Y-89554614D01*
X144538000Y-89554614D02*
X144466571Y-89411757D01*
X144466571Y-89411757D02*
X144323714Y-89340328D01*
X144323714Y-89340328D02*
X144038000Y-89340328D01*
X144038000Y-89340328D02*
X143895142Y-89411757D01*
X144538000Y-90268900D02*
X144395142Y-90340328D01*
X144395142Y-90340328D02*
X144038000Y-90340328D01*
X144038000Y-90340328D02*
X143895142Y-90268900D01*
X143895142Y-90268900D02*
X143823714Y-90126042D01*
X143823714Y-90126042D02*
X143823714Y-89983185D01*
X143823714Y-89983185D02*
X143895142Y-89840328D01*
X143895142Y-89840328D02*
X144038000Y-89768900D01*
X144038000Y-89768900D02*
X144395142Y-89768900D01*
X144395142Y-89768900D02*
X144538000Y-89697471D01*
X145038000Y-89340328D02*
X145609428Y-89340328D01*
X145252285Y-88840328D02*
X145252285Y-90126042D01*
X145252285Y-90126042D02*
X145323714Y-90268900D01*
X145323714Y-90268900D02*
X145466571Y-90340328D01*
X145466571Y-90340328D02*
X145609428Y-90340328D01*
X146680857Y-90268900D02*
X146538000Y-90340328D01*
X146538000Y-90340328D02*
X146252286Y-90340328D01*
X146252286Y-90340328D02*
X146109428Y-90268900D01*
X146109428Y-90268900D02*
X146038000Y-90126042D01*
X146038000Y-90126042D02*
X146038000Y-89554614D01*
X146038000Y-89554614D02*
X146109428Y-89411757D01*
X146109428Y-89411757D02*
X146252286Y-89340328D01*
X146252286Y-89340328D02*
X146538000Y-89340328D01*
X146538000Y-89340328D02*
X146680857Y-89411757D01*
X146680857Y-89411757D02*
X146752286Y-89554614D01*
X146752286Y-89554614D02*
X146752286Y-89697471D01*
X146752286Y-89697471D02*
X146038000Y-89840328D01*
X146538000Y-88768900D02*
X146323714Y-88983185D01*
D11*
X121499333Y-114754819D02*
X121166000Y-114278628D01*
X120927905Y-114754819D02*
X120927905Y-113754819D01*
X120927905Y-113754819D02*
X121308857Y-113754819D01*
X121308857Y-113754819D02*
X121404095Y-113802438D01*
X121404095Y-113802438D02*
X121451714Y-113850057D01*
X121451714Y-113850057D02*
X121499333Y-113945295D01*
X121499333Y-113945295D02*
X121499333Y-114088152D01*
X121499333Y-114088152D02*
X121451714Y-114183390D01*
X121451714Y-114183390D02*
X121404095Y-114231009D01*
X121404095Y-114231009D02*
X121308857Y-114278628D01*
X121308857Y-114278628D02*
X120927905Y-114278628D01*
X121880286Y-113850057D02*
X121927905Y-113802438D01*
X121927905Y-113802438D02*
X122023143Y-113754819D01*
X122023143Y-113754819D02*
X122261238Y-113754819D01*
X122261238Y-113754819D02*
X122356476Y-113802438D01*
X122356476Y-113802438D02*
X122404095Y-113850057D01*
X122404095Y-113850057D02*
X122451714Y-113945295D01*
X122451714Y-113945295D02*
X122451714Y-114040533D01*
X122451714Y-114040533D02*
X122404095Y-114183390D01*
X122404095Y-114183390D02*
X121832667Y-114754819D01*
X121832667Y-114754819D02*
X122451714Y-114754819D01*
X150709333Y-109420819D02*
X150376000Y-108944628D01*
X150137905Y-109420819D02*
X150137905Y-108420819D01*
X150137905Y-108420819D02*
X150518857Y-108420819D01*
X150518857Y-108420819D02*
X150614095Y-108468438D01*
X150614095Y-108468438D02*
X150661714Y-108516057D01*
X150661714Y-108516057D02*
X150709333Y-108611295D01*
X150709333Y-108611295D02*
X150709333Y-108754152D01*
X150709333Y-108754152D02*
X150661714Y-108849390D01*
X150661714Y-108849390D02*
X150614095Y-108897009D01*
X150614095Y-108897009D02*
X150518857Y-108944628D01*
X150518857Y-108944628D02*
X150137905Y-108944628D01*
X151566476Y-108754152D02*
X151566476Y-109420819D01*
X151328381Y-108373200D02*
X151090286Y-109087485D01*
X151090286Y-109087485D02*
X151709333Y-109087485D01*
X133016666Y-93942819D02*
X133016666Y-94657104D01*
X133016666Y-94657104D02*
X132969047Y-94799961D01*
X132969047Y-94799961D02*
X132873809Y-94895200D01*
X132873809Y-94895200D02*
X132730952Y-94942819D01*
X132730952Y-94942819D02*
X132635714Y-94942819D01*
X134016666Y-94942819D02*
X133445238Y-94942819D01*
X133730952Y-94942819D02*
X133730952Y-93942819D01*
X133730952Y-93942819D02*
X133635714Y-94085676D01*
X133635714Y-94085676D02*
X133540476Y-94180914D01*
X133540476Y-94180914D02*
X133445238Y-94228533D01*
X146986666Y-94196819D02*
X146986666Y-94911104D01*
X146986666Y-94911104D02*
X146939047Y-95053961D01*
X146939047Y-95053961D02*
X146843809Y-95149200D01*
X146843809Y-95149200D02*
X146700952Y-95196819D01*
X146700952Y-95196819D02*
X146605714Y-95196819D01*
X147415238Y-94292057D02*
X147462857Y-94244438D01*
X147462857Y-94244438D02*
X147558095Y-94196819D01*
X147558095Y-94196819D02*
X147796190Y-94196819D01*
X147796190Y-94196819D02*
X147891428Y-94244438D01*
X147891428Y-94244438D02*
X147939047Y-94292057D01*
X147939047Y-94292057D02*
X147986666Y-94387295D01*
X147986666Y-94387295D02*
X147986666Y-94482533D01*
X147986666Y-94482533D02*
X147939047Y-94625390D01*
X147939047Y-94625390D02*
X147367619Y-95196819D01*
X147367619Y-95196819D02*
X147986666Y-95196819D01*
X150455333Y-117548819D02*
X150122000Y-117072628D01*
X149883905Y-117548819D02*
X149883905Y-116548819D01*
X149883905Y-116548819D02*
X150264857Y-116548819D01*
X150264857Y-116548819D02*
X150360095Y-116596438D01*
X150360095Y-116596438D02*
X150407714Y-116644057D01*
X150407714Y-116644057D02*
X150455333Y-116739295D01*
X150455333Y-116739295D02*
X150455333Y-116882152D01*
X150455333Y-116882152D02*
X150407714Y-116977390D01*
X150407714Y-116977390D02*
X150360095Y-117025009D01*
X150360095Y-117025009D02*
X150264857Y-117072628D01*
X150264857Y-117072628D02*
X149883905Y-117072628D01*
X151407714Y-117548819D02*
X150836286Y-117548819D01*
X151122000Y-117548819D02*
X151122000Y-116548819D01*
X151122000Y-116548819D02*
X151026762Y-116691676D01*
X151026762Y-116691676D02*
X150931524Y-116786914D01*
X150931524Y-116786914D02*
X150836286Y-116834533D01*
X121499333Y-118310819D02*
X121166000Y-117834628D01*
X120927905Y-118310819D02*
X120927905Y-117310819D01*
X120927905Y-117310819D02*
X121308857Y-117310819D01*
X121308857Y-117310819D02*
X121404095Y-117358438D01*
X121404095Y-117358438D02*
X121451714Y-117406057D01*
X121451714Y-117406057D02*
X121499333Y-117501295D01*
X121499333Y-117501295D02*
X121499333Y-117644152D01*
X121499333Y-117644152D02*
X121451714Y-117739390D01*
X121451714Y-117739390D02*
X121404095Y-117787009D01*
X121404095Y-117787009D02*
X121308857Y-117834628D01*
X121308857Y-117834628D02*
X120927905Y-117834628D01*
X121832667Y-117310819D02*
X122451714Y-117310819D01*
X122451714Y-117310819D02*
X122118381Y-117691771D01*
X122118381Y-117691771D02*
X122261238Y-117691771D01*
X122261238Y-117691771D02*
X122356476Y-117739390D01*
X122356476Y-117739390D02*
X122404095Y-117787009D01*
X122404095Y-117787009D02*
X122451714Y-117882247D01*
X122451714Y-117882247D02*
X122451714Y-118120342D01*
X122451714Y-118120342D02*
X122404095Y-118215580D01*
X122404095Y-118215580D02*
X122356476Y-118263200D01*
X122356476Y-118263200D02*
X122261238Y-118310819D01*
X122261238Y-118310819D02*
X121975524Y-118310819D01*
X121975524Y-118310819D02*
X121880286Y-118263200D01*
X121880286Y-118263200D02*
X121832667Y-118215580D01*
X135890095Y-102070819D02*
X135890095Y-102880342D01*
X135890095Y-102880342D02*
X135937714Y-102975580D01*
X135937714Y-102975580D02*
X135985333Y-103023200D01*
X135985333Y-103023200D02*
X136080571Y-103070819D01*
X136080571Y-103070819D02*
X136271047Y-103070819D01*
X136271047Y-103070819D02*
X136366285Y-103023200D01*
X136366285Y-103023200D02*
X136413904Y-102975580D01*
X136413904Y-102975580D02*
X136461523Y-102880342D01*
X136461523Y-102880342D02*
X136461523Y-102070819D01*
X137461523Y-103070819D02*
X136890095Y-103070819D01*
X137175809Y-103070819D02*
X137175809Y-102070819D01*
X137175809Y-102070819D02*
X137080571Y-102213676D01*
X137080571Y-102213676D02*
X136985333Y-102308914D01*
X136985333Y-102308914D02*
X136890095Y-102356533D01*
X125753905Y-105356819D02*
X125753905Y-104356819D01*
X125753905Y-104356819D02*
X125992000Y-104356819D01*
X125992000Y-104356819D02*
X126134857Y-104404438D01*
X126134857Y-104404438D02*
X126230095Y-104499676D01*
X126230095Y-104499676D02*
X126277714Y-104594914D01*
X126277714Y-104594914D02*
X126325333Y-104785390D01*
X126325333Y-104785390D02*
X126325333Y-104928247D01*
X126325333Y-104928247D02*
X126277714Y-105118723D01*
X126277714Y-105118723D02*
X126230095Y-105213961D01*
X126230095Y-105213961D02*
X126134857Y-105309200D01*
X126134857Y-105309200D02*
X125992000Y-105356819D01*
X125992000Y-105356819D02*
X125753905Y-105356819D01*
X126658667Y-104356819D02*
X127277714Y-104356819D01*
X127277714Y-104356819D02*
X126944381Y-104737771D01*
X126944381Y-104737771D02*
X127087238Y-104737771D01*
X127087238Y-104737771D02*
X127182476Y-104785390D01*
X127182476Y-104785390D02*
X127230095Y-104833009D01*
X127230095Y-104833009D02*
X127277714Y-104928247D01*
X127277714Y-104928247D02*
X127277714Y-105166342D01*
X127277714Y-105166342D02*
X127230095Y-105261580D01*
X127230095Y-105261580D02*
X127182476Y-105309200D01*
X127182476Y-105309200D02*
X127087238Y-105356819D01*
X127087238Y-105356819D02*
X126801524Y-105356819D01*
X126801524Y-105356819D02*
X126706286Y-105309200D01*
X126706286Y-105309200D02*
X126658667Y-105261580D01*
X133183333Y-102721580D02*
X133135714Y-102769200D01*
X133135714Y-102769200D02*
X132992857Y-102816819D01*
X132992857Y-102816819D02*
X132897619Y-102816819D01*
X132897619Y-102816819D02*
X132754762Y-102769200D01*
X132754762Y-102769200D02*
X132659524Y-102673961D01*
X132659524Y-102673961D02*
X132611905Y-102578723D01*
X132611905Y-102578723D02*
X132564286Y-102388247D01*
X132564286Y-102388247D02*
X132564286Y-102245390D01*
X132564286Y-102245390D02*
X132611905Y-102054914D01*
X132611905Y-102054914D02*
X132659524Y-101959676D01*
X132659524Y-101959676D02*
X132754762Y-101864438D01*
X132754762Y-101864438D02*
X132897619Y-101816819D01*
X132897619Y-101816819D02*
X132992857Y-101816819D01*
X132992857Y-101816819D02*
X133135714Y-101864438D01*
X133135714Y-101864438D02*
X133183333Y-101912057D01*
X134135714Y-102816819D02*
X133564286Y-102816819D01*
X133850000Y-102816819D02*
X133850000Y-101816819D01*
X133850000Y-101816819D02*
X133754762Y-101959676D01*
X133754762Y-101959676D02*
X133659524Y-102054914D01*
X133659524Y-102054914D02*
X133564286Y-102102533D01*
X140823333Y-118941580D02*
X140775714Y-118989200D01*
X140775714Y-118989200D02*
X140632857Y-119036819D01*
X140632857Y-119036819D02*
X140537619Y-119036819D01*
X140537619Y-119036819D02*
X140394762Y-118989200D01*
X140394762Y-118989200D02*
X140299524Y-118893961D01*
X140299524Y-118893961D02*
X140251905Y-118798723D01*
X140251905Y-118798723D02*
X140204286Y-118608247D01*
X140204286Y-118608247D02*
X140204286Y-118465390D01*
X140204286Y-118465390D02*
X140251905Y-118274914D01*
X140251905Y-118274914D02*
X140299524Y-118179676D01*
X140299524Y-118179676D02*
X140394762Y-118084438D01*
X140394762Y-118084438D02*
X140537619Y-118036819D01*
X140537619Y-118036819D02*
X140632857Y-118036819D01*
X140632857Y-118036819D02*
X140775714Y-118084438D01*
X140775714Y-118084438D02*
X140823333Y-118132057D01*
X141204286Y-118132057D02*
X141251905Y-118084438D01*
X141251905Y-118084438D02*
X141347143Y-118036819D01*
X141347143Y-118036819D02*
X141585238Y-118036819D01*
X141585238Y-118036819D02*
X141680476Y-118084438D01*
X141680476Y-118084438D02*
X141728095Y-118132057D01*
X141728095Y-118132057D02*
X141775714Y-118227295D01*
X141775714Y-118227295D02*
X141775714Y-118322533D01*
X141775714Y-118322533D02*
X141728095Y-118465390D01*
X141728095Y-118465390D02*
X141156667Y-119036819D01*
X141156667Y-119036819D02*
X141775714Y-119036819D01*
D12*
X124738000Y-114808000D02*
X125508000Y-114808000D01*
X125508000Y-113438000D02*
X125508000Y-116178000D01*
X125508000Y-116178000D02*
X132048000Y-116178000D01*
X132048000Y-113438000D02*
X125508000Y-113438000D01*
X132048000Y-116178000D02*
X132048000Y-113438000D01*
X132818000Y-114808000D02*
X132048000Y-114808000D01*
X151916000Y-111252000D02*
X152686000Y-111252000D01*
X152686000Y-109882000D02*
X152686000Y-112622000D01*
X152686000Y-112622000D02*
X159226000Y-112622000D01*
X159226000Y-109882000D02*
X152686000Y-109882000D01*
X159226000Y-112622000D02*
X159226000Y-109882000D01*
X159996000Y-111252000D02*
X159226000Y-111252000D01*
X122944000Y-85574000D02*
X124944000Y-85574000D01*
X122944000Y-86824000D02*
X122944000Y-85574000D01*
X123334000Y-85964000D02*
X123334000Y-93434000D01*
X123334000Y-93434000D02*
X133714000Y-93434000D01*
X124484000Y-86924000D02*
X127484000Y-86924000D01*
X124484000Y-88274000D02*
X125234000Y-88274000D01*
X124484000Y-92574000D02*
X124484000Y-88274000D01*
X124734000Y-87924000D02*
X124484000Y-86924000D01*
X125234000Y-87924000D02*
X124734000Y-87924000D01*
X125234000Y-88274000D02*
X125234000Y-87924000D01*
X125234000Y-92574000D02*
X124484000Y-92574000D01*
X126734000Y-87924000D02*
X126734000Y-88274000D01*
X126734000Y-88274000D02*
X127484000Y-88274000D01*
X127234000Y-87924000D02*
X126734000Y-87924000D01*
X127484000Y-86924000D02*
X127234000Y-87924000D01*
X127484000Y-88274000D02*
X127484000Y-92574000D01*
X127484000Y-92574000D02*
X126734000Y-92574000D01*
X129564000Y-86924000D02*
X132564000Y-86924000D01*
X129564000Y-88274000D02*
X130314000Y-88274000D01*
X129564000Y-92574000D02*
X129564000Y-88274000D01*
X129814000Y-87924000D02*
X129564000Y-86924000D01*
X130314000Y-87924000D02*
X129814000Y-87924000D01*
X130314000Y-88274000D02*
X130314000Y-87924000D01*
X130314000Y-92574000D02*
X129564000Y-92574000D01*
X131814000Y-87924000D02*
X131814000Y-88274000D01*
X131814000Y-88274000D02*
X132564000Y-88274000D01*
X132314000Y-87924000D02*
X131814000Y-87924000D01*
X132564000Y-86924000D02*
X132314000Y-87924000D01*
X132564000Y-88274000D02*
X132564000Y-92574000D01*
X132564000Y-92574000D02*
X131814000Y-92574000D01*
X133714000Y-85964000D02*
X123334000Y-85964000D01*
X133714000Y-93434000D02*
X133714000Y-85964000D01*
X125234000Y-92574000D02*
G75*
G02*
X126733647Y-92573844I750000J-1700000D01*
G01*
X130314000Y-92574000D02*
G75*
G02*
X131813647Y-92573844I750000J-1700000D01*
G01*
X147836000Y-85574000D02*
X149836000Y-85574000D01*
X147836000Y-86824000D02*
X147836000Y-85574000D01*
X148226000Y-85964000D02*
X148226000Y-93434000D01*
X148226000Y-93434000D02*
X158606000Y-93434000D01*
X149376000Y-86924000D02*
X152376000Y-86924000D01*
X149376000Y-88274000D02*
X150126000Y-88274000D01*
X149376000Y-92574000D02*
X149376000Y-88274000D01*
X149626000Y-87924000D02*
X149376000Y-86924000D01*
X150126000Y-87924000D02*
X149626000Y-87924000D01*
X150126000Y-88274000D02*
X150126000Y-87924000D01*
X150126000Y-92574000D02*
X149376000Y-92574000D01*
X151626000Y-87924000D02*
X151626000Y-88274000D01*
X151626000Y-88274000D02*
X152376000Y-88274000D01*
X152126000Y-87924000D02*
X151626000Y-87924000D01*
X152376000Y-86924000D02*
X152126000Y-87924000D01*
X152376000Y-88274000D02*
X152376000Y-92574000D01*
X152376000Y-92574000D02*
X151626000Y-92574000D01*
X154456000Y-86924000D02*
X157456000Y-86924000D01*
X154456000Y-88274000D02*
X155206000Y-88274000D01*
X154456000Y-92574000D02*
X154456000Y-88274000D01*
X154706000Y-87924000D02*
X154456000Y-86924000D01*
X155206000Y-87924000D02*
X154706000Y-87924000D01*
X155206000Y-88274000D02*
X155206000Y-87924000D01*
X155206000Y-92574000D02*
X154456000Y-92574000D01*
X156706000Y-87924000D02*
X156706000Y-88274000D01*
X156706000Y-88274000D02*
X157456000Y-88274000D01*
X157206000Y-87924000D02*
X156706000Y-87924000D01*
X157456000Y-86924000D02*
X157206000Y-87924000D01*
X157456000Y-88274000D02*
X157456000Y-92574000D01*
X157456000Y-92574000D02*
X156706000Y-92574000D01*
X158606000Y-85964000D02*
X148226000Y-85964000D01*
X158606000Y-93434000D02*
X158606000Y-85964000D01*
X150126000Y-92574000D02*
G75*
G02*
X151625647Y-92573844I750000J-1700000D01*
G01*
X155206000Y-92574000D02*
G75*
G02*
X156705647Y-92573844I750000J-1700000D01*
G01*
X151916000Y-114554000D02*
X152686000Y-114554000D01*
X152686000Y-113184000D02*
X152686000Y-115924000D01*
X152686000Y-115924000D02*
X159226000Y-115924000D01*
X159226000Y-113184000D02*
X152686000Y-113184000D01*
X159226000Y-115924000D02*
X159226000Y-113184000D01*
X159996000Y-114554000D02*
X159226000Y-114554000D01*
X124738000Y-118110000D02*
X125508000Y-118110000D01*
X125508000Y-116740000D02*
X125508000Y-119480000D01*
X125508000Y-119480000D02*
X132048000Y-119480000D01*
X132048000Y-116740000D02*
X125508000Y-116740000D01*
X132048000Y-119480000D02*
X132048000Y-116740000D01*
X132818000Y-118110000D02*
X132048000Y-118110000D01*
X135720000Y-103512000D02*
X135720000Y-113912000D01*
X135720000Y-113912000D02*
X146220000Y-113912000D01*
X138720000Y-103572000D02*
X138720000Y-113852000D01*
X138720000Y-113852000D02*
X143220000Y-113852000D01*
X139970000Y-103572000D02*
X138720000Y-103572000D01*
X143220000Y-103572000D02*
X141970000Y-103572000D01*
X143220000Y-113852000D02*
X143220000Y-103572000D01*
X146220000Y-103512000D02*
X135720000Y-103512000D01*
X146220000Y-113912000D02*
X146220000Y-103512000D01*
X141970000Y-103572000D02*
G75*
G02*
X139970000Y-103572000I-1000000J0D01*
G01*
X129053000Y-106152000D02*
X125963000Y-106152000D01*
X127508462Y-111702000D02*
G75*
G02*
X125963170Y-106152000I-462J2990000D01*
G01*
X129052830Y-106152000D02*
G75*
G02*
X127507538Y-111702000I-1544830J-2560000D01*
G01*
X130008000Y-108712000D02*
G75*
G02*
X125008000Y-108712000I-2500000J0D01*
G01*
X125008000Y-108712000D02*
G75*
G02*
X130008000Y-108712000I2500000J0D01*
G01*
X132230000Y-103810000D02*
X132295000Y-103810000D01*
X132230000Y-107050000D02*
X132230000Y-103810000D01*
X132230000Y-107050000D02*
X132295000Y-107050000D01*
X134405000Y-103810000D02*
X134470000Y-103810000D01*
X134405000Y-107050000D02*
X134470000Y-107050000D01*
X134470000Y-107050000D02*
X134470000Y-103810000D01*
X139370000Y-115277000D02*
X139370000Y-115212000D01*
X139370000Y-117452000D02*
X139370000Y-117387000D01*
X142610000Y-115212000D02*
X139370000Y-115212000D01*
X142610000Y-115277000D02*
X142610000Y-115212000D01*
X142610000Y-117452000D02*
X139370000Y-117452000D01*
X142610000Y-117452000D02*
X142610000Y-117387000D01*
M02*
