G04 #@! TF.GenerationSoftware,KiCad,Pcbnew,8.0.6*
G04 #@! TF.CreationDate,2024-11-03T17:10:04-03:00*
G04 #@! TF.ProjectId,555-Oscilador-pisca-r01,3535352d-4f73-4636-996c-61646f722d70,rev?*
G04 #@! TF.SameCoordinates,Original*
G04 #@! TF.FileFunction,Copper,L2,Bot*
G04 #@! TF.FilePolarity,Positive*
%FSLAX46Y46*%
G04 Gerber Fmt 4.6, Leading zero omitted, Abs format (unit mm)*
G04 Created by KiCad (PCBNEW 8.0.6) date 2024-11-03 17:10:04*
%MOMM*%
%LPD*%
G01*
G04 APERTURE LIST*
G04 Aperture macros list*
%AMRoundRect*
0 Rectangle with rounded corners*
0 $1 Rounding radius*
0 $2 $3 $4 $5 $6 $7 $8 $9 X,Y pos of 4 corners*
0 Add a 4 corners polygon primitive as box body*
4,1,4,$2,$3,$4,$5,$6,$7,$8,$9,$2,$3,0*
0 Add four circle primitives for the rounded corners*
1,1,$1+$1,$2,$3*
1,1,$1+$1,$4,$5*
1,1,$1+$1,$6,$7*
1,1,$1+$1,$8,$9*
0 Add four rect primitives between the rounded corners*
20,1,$1+$1,$2,$3,$4,$5,0*
20,1,$1+$1,$4,$5,$6,$7,0*
20,1,$1+$1,$6,$7,$8,$9,0*
20,1,$1+$1,$8,$9,$2,$3,0*%
G04 Aperture macros list end*
G04 #@! TA.AperFunction,ComponentPad*
%ADD10C,1.600000*%
G04 #@! TD*
G04 #@! TA.AperFunction,ComponentPad*
%ADD11O,1.600000X1.600000*%
G04 #@! TD*
G04 #@! TA.AperFunction,ComponentPad*
%ADD12RoundRect,0.250000X-0.650000X-1.550000X0.650000X-1.550000X0.650000X1.550000X-0.650000X1.550000X0*%
G04 #@! TD*
G04 #@! TA.AperFunction,ComponentPad*
%ADD13O,1.800000X3.600000*%
G04 #@! TD*
G04 #@! TA.AperFunction,ComponentPad*
%ADD14R,2.400000X1.600000*%
G04 #@! TD*
G04 #@! TA.AperFunction,ComponentPad*
%ADD15O,2.400000X1.600000*%
G04 #@! TD*
G04 #@! TA.AperFunction,ComponentPad*
%ADD16R,1.800000X1.800000*%
G04 #@! TD*
G04 #@! TA.AperFunction,ComponentPad*
%ADD17C,1.800000*%
G04 #@! TD*
G04 #@! TA.AperFunction,ViaPad*
%ADD18C,3.500000*%
G04 #@! TD*
G04 #@! TA.AperFunction,Conductor*
%ADD19C,1.000000*%
G04 #@! TD*
G04 APERTURE END LIST*
D10*
X123698000Y-114808000D03*
D11*
X133858000Y-114808000D03*
D10*
X161036000Y-111252000D03*
D11*
X150876000Y-111252000D03*
D12*
X125984000Y-90424000D03*
D13*
X131064000Y-90424000D03*
D12*
X150876000Y-90424000D03*
D13*
X155956000Y-90424000D03*
D10*
X161036000Y-114554000D03*
D11*
X150876000Y-114554000D03*
D10*
X123698000Y-118110000D03*
D11*
X133858000Y-118110000D03*
D14*
X137160000Y-104902000D03*
D15*
X137160000Y-107442000D03*
X137160000Y-109982000D03*
X137160000Y-112522000D03*
X144780000Y-112522000D03*
X144780000Y-109982000D03*
X144780000Y-107442000D03*
X144780000Y-104902000D03*
D16*
X127508000Y-107442000D03*
D17*
X127508000Y-109982000D03*
D10*
X133350000Y-106680000D03*
X133350000Y-104180000D03*
X142240000Y-116332000D03*
X139740000Y-116332000D03*
D18*
X118872000Y-130556000D03*
X162814000Y-130556000D03*
X118872000Y-86868000D03*
X162814000Y-86868000D03*
D19*
X150944000Y-99274000D02*
X150876000Y-99206000D01*
X141986000Y-104902000D02*
X140970000Y-105918000D01*
X140970000Y-105918000D02*
X140970000Y-108312000D01*
X150876000Y-99206000D02*
X145180000Y-104902000D01*
X150876000Y-90424000D02*
X150876000Y-99206000D01*
X137560000Y-112522000D02*
X139954000Y-112522000D01*
X158456000Y-99274000D02*
X150944000Y-99274000D01*
X139954000Y-112522000D02*
X140970000Y-111506000D01*
X145180000Y-104902000D02*
X144780000Y-104902000D01*
X161036000Y-114554000D02*
X163068000Y-114554000D01*
X158456000Y-99274000D02*
X163830000Y-104648000D01*
X137160000Y-112522000D02*
X137560000Y-112522000D01*
X163830000Y-104648000D02*
X163830000Y-113792000D01*
X144780000Y-104902000D02*
X141986000Y-104902000D01*
X163068000Y-114554000D02*
X163830000Y-113792000D01*
X140970000Y-111506000D02*
X140970000Y-108312000D01*
X132334000Y-120142000D02*
X131064000Y-118872000D01*
X146980000Y-109982000D02*
X144780000Y-109982000D01*
X140462000Y-114300000D02*
X138430000Y-114300000D01*
X131064000Y-108966000D02*
X133350000Y-106680000D01*
X135382000Y-120142000D02*
X132334000Y-120142000D01*
X131064000Y-118872000D02*
X131064000Y-108966000D01*
X137160000Y-107442000D02*
X134112000Y-107442000D01*
X144780000Y-109982000D02*
X144191070Y-109982000D01*
X143937070Y-110236000D02*
X143256000Y-110236000D01*
X138430000Y-114300000D02*
X136652000Y-116078000D01*
X150876000Y-111252000D02*
X148250000Y-111252000D01*
X136652000Y-116078000D02*
X136652000Y-118872000D01*
X134112000Y-107442000D02*
X133350000Y-106680000D01*
X142494000Y-110998000D02*
X142494000Y-112268000D01*
X142494000Y-112268000D02*
X140462000Y-114300000D01*
X148250000Y-111252000D02*
X146980000Y-109982000D01*
X136652000Y-118872000D02*
X135382000Y-120142000D01*
X144191070Y-109982000D02*
X143937070Y-110236000D01*
X143256000Y-110236000D02*
X142494000Y-110998000D01*
X142240000Y-116332000D02*
X142240000Y-115062000D01*
X142240000Y-115062000D02*
X144780000Y-112522000D01*
X123698000Y-114808000D02*
X123698000Y-113792000D01*
X123698000Y-113792000D02*
X127508000Y-109982000D01*
X120142000Y-114554000D02*
X123698000Y-118110000D01*
X120142000Y-100213002D02*
X120142000Y-114554000D01*
X125985001Y-91870001D02*
X125985001Y-94370001D01*
X125985001Y-94370001D02*
X120142000Y-100213002D01*
X131065001Y-101895001D02*
X133350000Y-104180000D01*
X128778000Y-107442000D02*
X129540000Y-108204000D01*
X131065001Y-101984999D02*
X131065001Y-101895001D01*
X129540000Y-108204000D02*
X129540000Y-120904000D01*
X137922000Y-122174000D02*
X139740000Y-120356000D01*
X131065001Y-91870001D02*
X131065001Y-101895001D01*
X155956000Y-88302680D02*
X154775320Y-87122000D01*
X130810000Y-122174000D02*
X137922000Y-122174000D01*
X137160000Y-104902000D02*
X134072000Y-104902000D01*
X134072000Y-104902000D02*
X133350000Y-104180000D01*
X127508000Y-107442000D02*
X128778000Y-107442000D01*
X137160000Y-90170000D02*
X137160000Y-104902000D01*
X155956000Y-90424000D02*
X155956000Y-88302680D01*
X129540000Y-120904000D02*
X130810000Y-122174000D01*
X139740000Y-120356000D02*
X139740000Y-116332000D01*
X154775320Y-87122000D02*
X140208000Y-87122000D01*
X140208000Y-87122000D02*
X137160000Y-90170000D01*
X127508000Y-107442000D02*
X127508000Y-105542000D01*
X127508000Y-105542000D02*
X131065001Y-101984999D01*
X150876000Y-114554000D02*
X153670000Y-111760000D01*
X152400000Y-107442000D02*
X144780000Y-107442000D01*
X153670000Y-111760000D02*
X153670000Y-111252000D01*
X153670000Y-108712000D02*
X152400000Y-107442000D01*
X161036000Y-111252000D02*
X153670000Y-111252000D01*
X153670000Y-111252000D02*
X153670000Y-108712000D01*
X133858000Y-118110000D02*
X133858000Y-114808000D01*
X133858000Y-110744000D02*
X133858000Y-114808000D01*
X137160000Y-109982000D02*
X134620000Y-109982000D01*
X134620000Y-109982000D02*
X133858000Y-110744000D01*
G04 #@! TA.AperFunction,Conductor*
G36*
X141171718Y-115127281D02*
G01*
X141219161Y-115180098D01*
X141231500Y-115234478D01*
X141231500Y-115451259D01*
X141211498Y-115519380D01*
X141208713Y-115523530D01*
X141102474Y-115675253D01*
X141099726Y-115680015D01*
X141097931Y-115678978D01*
X141056942Y-115725480D01*
X140988653Y-115744903D01*
X140920705Y-115724324D01*
X140881655Y-115679217D01*
X140879839Y-115680266D01*
X140877086Y-115675498D01*
X140827100Y-115604110D01*
X140827098Y-115604110D01*
X140140000Y-116291208D01*
X140140000Y-116279339D01*
X140112741Y-116177606D01*
X140060080Y-116086394D01*
X139985606Y-116011920D01*
X139894394Y-115959259D01*
X139792661Y-115932000D01*
X139780790Y-115932000D01*
X140367385Y-115345405D01*
X140429697Y-115311379D01*
X140456480Y-115308500D01*
X140561328Y-115308500D01*
X140561329Y-115308500D01*
X140756169Y-115269744D01*
X140939704Y-115193721D01*
X141035498Y-115129712D01*
X141103251Y-115108498D01*
X141171718Y-115127281D01*
G37*
G04 #@! TD.AperFunction*
G04 #@! TA.AperFunction,Conductor*
G36*
X165449621Y-84194502D02*
G01*
X165496114Y-84248158D01*
X165507500Y-84300500D01*
X165507500Y-133123500D01*
X165487498Y-133191621D01*
X165433842Y-133238114D01*
X165381500Y-133249500D01*
X116304500Y-133249500D01*
X116236379Y-133229498D01*
X116189886Y-133175842D01*
X116178500Y-133123500D01*
X116178500Y-130555996D01*
X116608654Y-130555996D01*
X116608654Y-130556003D01*
X116628016Y-130851421D01*
X116628018Y-130851435D01*
X116685776Y-131141795D01*
X116685778Y-131141805D01*
X116780938Y-131422137D01*
X116780944Y-131422151D01*
X116911883Y-131687670D01*
X117076359Y-131933827D01*
X117076361Y-131933830D01*
X117076367Y-131933838D01*
X117271573Y-132156427D01*
X117494162Y-132351633D01*
X117740327Y-132516115D01*
X118005855Y-132647059D01*
X118286203Y-132742224D01*
X118576574Y-132799983D01*
X118745388Y-132811047D01*
X118871997Y-132819346D01*
X118872000Y-132819346D01*
X118872003Y-132819346D01*
X118982784Y-132812084D01*
X119167426Y-132799983D01*
X119457797Y-132742224D01*
X119738145Y-132647059D01*
X120003673Y-132516115D01*
X120249838Y-132351633D01*
X120472427Y-132156427D01*
X120667633Y-131933838D01*
X120832115Y-131687673D01*
X120963059Y-131422145D01*
X121058224Y-131141797D01*
X121115983Y-130851426D01*
X121135346Y-130556000D01*
X121135346Y-130555996D01*
X160550654Y-130555996D01*
X160550654Y-130556003D01*
X160570016Y-130851421D01*
X160570018Y-130851435D01*
X160627776Y-131141795D01*
X160627778Y-131141805D01*
X160722938Y-131422137D01*
X160722944Y-131422151D01*
X160853883Y-131687670D01*
X161018359Y-131933827D01*
X161018361Y-131933830D01*
X161018367Y-131933838D01*
X161213573Y-132156427D01*
X161436162Y-132351633D01*
X161682327Y-132516115D01*
X161947855Y-132647059D01*
X162228203Y-132742224D01*
X162518574Y-132799983D01*
X162687388Y-132811047D01*
X162813997Y-132819346D01*
X162814000Y-132819346D01*
X162814003Y-132819346D01*
X162924784Y-132812084D01*
X163109426Y-132799983D01*
X163399797Y-132742224D01*
X163680145Y-132647059D01*
X163945673Y-132516115D01*
X164191838Y-132351633D01*
X164414427Y-132156427D01*
X164609633Y-131933838D01*
X164774115Y-131687673D01*
X164905059Y-131422145D01*
X165000224Y-131141797D01*
X165057983Y-130851426D01*
X165077346Y-130556000D01*
X165057983Y-130260574D01*
X165000224Y-129970203D01*
X164905059Y-129689855D01*
X164774115Y-129424327D01*
X164609633Y-129178162D01*
X164414427Y-128955573D01*
X164191838Y-128760367D01*
X164191830Y-128760361D01*
X164191827Y-128760359D01*
X163945670Y-128595883D01*
X163680151Y-128464944D01*
X163680145Y-128464941D01*
X163680140Y-128464939D01*
X163680137Y-128464938D01*
X163399805Y-128369778D01*
X163399799Y-128369776D01*
X163399797Y-128369776D01*
X163302566Y-128350435D01*
X163109435Y-128312018D01*
X163109421Y-128312016D01*
X162814003Y-128292654D01*
X162813997Y-128292654D01*
X162518578Y-128312016D01*
X162518564Y-128312018D01*
X162276818Y-128360105D01*
X162228203Y-128369776D01*
X162228201Y-128369776D01*
X162228194Y-128369778D01*
X161947862Y-128464938D01*
X161947848Y-128464944D01*
X161682329Y-128595883D01*
X161436172Y-128760359D01*
X161436165Y-128760364D01*
X161436162Y-128760367D01*
X161213573Y-128955573D01*
X161018367Y-129178162D01*
X161018364Y-129178165D01*
X161018359Y-129178172D01*
X160853883Y-129424329D01*
X160722944Y-129689848D01*
X160722938Y-129689862D01*
X160627778Y-129970194D01*
X160627776Y-129970204D01*
X160570018Y-130260564D01*
X160570016Y-130260578D01*
X160550654Y-130555996D01*
X121135346Y-130555996D01*
X121115983Y-130260574D01*
X121058224Y-129970203D01*
X120963059Y-129689855D01*
X120832115Y-129424327D01*
X120667633Y-129178162D01*
X120472427Y-128955573D01*
X120249838Y-128760367D01*
X120249830Y-128760361D01*
X120249827Y-128760359D01*
X120003670Y-128595883D01*
X119738151Y-128464944D01*
X119738145Y-128464941D01*
X119738140Y-128464939D01*
X119738137Y-128464938D01*
X119457805Y-128369778D01*
X119457799Y-128369776D01*
X119457797Y-128369776D01*
X119360566Y-128350435D01*
X119167435Y-128312018D01*
X119167421Y-128312016D01*
X118872003Y-128292654D01*
X118871997Y-128292654D01*
X118576578Y-128312016D01*
X118576564Y-128312018D01*
X118334818Y-128360105D01*
X118286203Y-128369776D01*
X118286201Y-128369776D01*
X118286194Y-128369778D01*
X118005862Y-128464938D01*
X118005848Y-128464944D01*
X117740329Y-128595883D01*
X117494172Y-128760359D01*
X117494165Y-128760364D01*
X117494162Y-128760367D01*
X117271573Y-128955573D01*
X117076367Y-129178162D01*
X117076364Y-129178165D01*
X117076359Y-129178172D01*
X116911883Y-129424329D01*
X116780944Y-129689848D01*
X116780938Y-129689862D01*
X116685778Y-129970194D01*
X116685776Y-129970204D01*
X116628018Y-130260564D01*
X116628016Y-130260578D01*
X116608654Y-130555996D01*
X116178500Y-130555996D01*
X116178500Y-100113670D01*
X119133500Y-100113670D01*
X119133500Y-114653331D01*
X119164266Y-114808000D01*
X119172256Y-114848169D01*
X119236490Y-115003243D01*
X119248279Y-115031704D01*
X119358647Y-115196881D01*
X119358649Y-115196883D01*
X122362881Y-118201115D01*
X122396907Y-118263427D01*
X122399306Y-118279226D01*
X122404455Y-118338078D01*
X122404456Y-118338083D01*
X122404456Y-118338086D01*
X122404457Y-118338087D01*
X122463716Y-118559243D01*
X122560477Y-118766749D01*
X122691802Y-118954300D01*
X122853700Y-119116198D01*
X123041251Y-119247523D01*
X123248757Y-119344284D01*
X123469913Y-119403543D01*
X123698000Y-119423498D01*
X123926087Y-119403543D01*
X124147243Y-119344284D01*
X124354749Y-119247523D01*
X124542300Y-119116198D01*
X124704198Y-118954300D01*
X124835523Y-118766749D01*
X124932284Y-118559243D01*
X124991543Y-118338087D01*
X125011498Y-118110000D01*
X124991543Y-117881913D01*
X124932284Y-117660757D01*
X124835523Y-117453251D01*
X124704198Y-117265700D01*
X124542300Y-117103802D01*
X124479584Y-117059888D01*
X124354749Y-116972477D01*
X124147246Y-116875717D01*
X124147240Y-116875715D01*
X123926083Y-116816456D01*
X123926078Y-116816455D01*
X123867226Y-116811306D01*
X123801109Y-116785442D01*
X123789115Y-116774881D01*
X123318661Y-116304427D01*
X123284635Y-116242115D01*
X123289700Y-116171300D01*
X123332247Y-116114464D01*
X123398767Y-116089653D01*
X123440365Y-116093625D01*
X123469913Y-116101543D01*
X123698000Y-116121498D01*
X123926087Y-116101543D01*
X124147243Y-116042284D01*
X124354749Y-115945523D01*
X124542300Y-115814198D01*
X124704198Y-115652300D01*
X124835523Y-115464749D01*
X124932284Y-115257243D01*
X124991543Y-115036087D01*
X125011498Y-114808000D01*
X124991543Y-114579913D01*
X124932284Y-114358757D01*
X124850374Y-114183100D01*
X124839714Y-114112911D01*
X124868694Y-114048099D01*
X124875462Y-114040771D01*
X127488830Y-111427405D01*
X127551142Y-111393379D01*
X127577925Y-111390500D01*
X127624708Y-111390500D01*
X127624712Y-111390500D01*
X127854951Y-111352080D01*
X128075727Y-111276287D01*
X128281017Y-111165190D01*
X128465220Y-111021818D01*
X128475638Y-111010502D01*
X128623314Y-110850083D01*
X128654232Y-110802759D01*
X128750984Y-110654669D01*
X128844749Y-110440907D01*
X128902051Y-110214626D01*
X128921327Y-109982000D01*
X128902051Y-109749374D01*
X128844749Y-109523093D01*
X128750984Y-109309331D01*
X128623314Y-109113917D01*
X128537789Y-109021013D01*
X128506370Y-108957351D01*
X128514356Y-108886805D01*
X128530771Y-108866668D01*
X130055500Y-108866668D01*
X130055500Y-118971331D01*
X130087758Y-119133500D01*
X130094256Y-119166169D01*
X130127954Y-119247523D01*
X130170279Y-119349704D01*
X130280647Y-119514881D01*
X131550647Y-120784881D01*
X131691119Y-120925353D01*
X131856296Y-121035721D01*
X132039831Y-121111744D01*
X132234671Y-121150500D01*
X132234672Y-121150500D01*
X135481328Y-121150500D01*
X135481329Y-121150500D01*
X135676169Y-121111744D01*
X135859704Y-121035721D01*
X136024881Y-120925353D01*
X136165353Y-120784881D01*
X137435353Y-119514881D01*
X137545721Y-119349704D01*
X137621744Y-119166169D01*
X137660500Y-118971329D01*
X137660500Y-118772671D01*
X137660500Y-116547924D01*
X137680502Y-116479803D01*
X137697405Y-116458829D01*
X138245333Y-115910901D01*
X138258920Y-115897314D01*
X138321231Y-115863289D01*
X138392046Y-115868354D01*
X138448882Y-115910901D01*
X138473693Y-115977421D01*
X138469721Y-116019021D01*
X138446951Y-116103997D01*
X138427004Y-116332000D01*
X138446951Y-116560002D01*
X138506186Y-116781068D01*
X138506188Y-116781073D01*
X138602913Y-116988501D01*
X138652898Y-117059888D01*
X138652900Y-117059888D01*
X139340000Y-116372789D01*
X139340000Y-116384661D01*
X139367259Y-116486394D01*
X139419920Y-116577606D01*
X139494394Y-116652080D01*
X139585606Y-116704741D01*
X139687339Y-116732000D01*
X139699210Y-116732000D01*
X139012110Y-117419098D01*
X139012110Y-117419100D01*
X139083498Y-117469086D01*
X139290926Y-117565811D01*
X139290931Y-117565813D01*
X139511999Y-117625048D01*
X139511995Y-117625048D01*
X139740000Y-117644995D01*
X139968002Y-117625048D01*
X140189068Y-117565813D01*
X140189073Y-117565811D01*
X140396497Y-117469088D01*
X140467888Y-117419099D01*
X140467888Y-117419097D01*
X139780791Y-116732000D01*
X139792661Y-116732000D01*
X139894394Y-116704741D01*
X139985606Y-116652080D01*
X140060080Y-116577606D01*
X140112741Y-116486394D01*
X140140000Y-116384661D01*
X140140000Y-116372791D01*
X140827097Y-117059888D01*
X140827099Y-117059888D01*
X140877088Y-116988496D01*
X140879841Y-116983730D01*
X140881729Y-116984820D01*
X140922384Y-116938594D01*
X140990651Y-116919094D01*
X141058622Y-116939597D01*
X141097989Y-116984987D01*
X141099726Y-116983985D01*
X141102474Y-116988746D01*
X141233799Y-117176296D01*
X141233802Y-117176300D01*
X141395700Y-117338198D01*
X141583251Y-117469523D01*
X141790757Y-117566284D01*
X142011913Y-117625543D01*
X142240000Y-117645498D01*
X142468087Y-117625543D01*
X142689243Y-117566284D01*
X142896749Y-117469523D01*
X143084300Y-117338198D01*
X143246198Y-117176300D01*
X143377523Y-116988749D01*
X143474284Y-116781243D01*
X143533543Y-116560087D01*
X143553498Y-116332000D01*
X143533543Y-116103913D01*
X143474284Y-115882757D01*
X143377523Y-115675251D01*
X143304506Y-115570972D01*
X143281819Y-115503700D01*
X143299104Y-115434840D01*
X143318621Y-115409612D01*
X144860829Y-113867405D01*
X144923141Y-113833379D01*
X144949924Y-113830500D01*
X145282978Y-113830500D01*
X145282981Y-113830500D01*
X145486408Y-113798280D01*
X145682290Y-113734634D01*
X145865803Y-113641129D01*
X146032430Y-113520068D01*
X146178068Y-113374430D01*
X146299129Y-113207803D01*
X146392634Y-113024290D01*
X146456280Y-112828408D01*
X146488500Y-112624981D01*
X146488500Y-112419019D01*
X146456280Y-112215592D01*
X146392634Y-112019710D01*
X146299129Y-111836197D01*
X146178068Y-111669570D01*
X146178065Y-111669567D01*
X146178063Y-111669564D01*
X146032435Y-111523936D01*
X146032432Y-111523934D01*
X146032430Y-111523932D01*
X145899571Y-111427405D01*
X145865806Y-111402873D01*
X145865805Y-111402872D01*
X145865803Y-111402871D01*
X145790034Y-111364265D01*
X145738422Y-111315519D01*
X145721356Y-111246604D01*
X145744257Y-111179402D01*
X145790034Y-111139735D01*
X145865803Y-111101129D01*
X145883508Y-111088266D01*
X145984952Y-111014564D01*
X146051819Y-110990705D01*
X146059012Y-110990500D01*
X146510076Y-110990500D01*
X146578197Y-111010502D01*
X146599170Y-111027404D01*
X147607119Y-112035353D01*
X147772296Y-112145721D01*
X147955831Y-112221744D01*
X148150671Y-112260500D01*
X148349329Y-112260500D01*
X149995260Y-112260500D01*
X150063381Y-112280502D01*
X150067530Y-112283287D01*
X150175082Y-112358595D01*
X150219251Y-112389523D01*
X150426757Y-112486284D01*
X150647913Y-112545543D01*
X150876000Y-112565498D01*
X151104087Y-112545543D01*
X151133629Y-112537627D01*
X151204605Y-112539316D01*
X151263401Y-112579109D01*
X151291350Y-112644373D01*
X151279577Y-112714387D01*
X151255336Y-112748428D01*
X150784883Y-113218881D01*
X150722571Y-113252907D01*
X150706772Y-113255306D01*
X150647921Y-113260455D01*
X150647916Y-113260456D01*
X150426759Y-113319715D01*
X150426753Y-113319717D01*
X150219250Y-113416477D01*
X150031703Y-113547799D01*
X150031697Y-113547804D01*
X149869804Y-113709697D01*
X149869799Y-113709703D01*
X149738477Y-113897250D01*
X149641717Y-114104753D01*
X149641715Y-114104759D01*
X149582457Y-114325913D01*
X149562502Y-114554000D01*
X149582457Y-114782087D01*
X149641716Y-115003243D01*
X149700690Y-115129713D01*
X149738477Y-115210749D01*
X149771032Y-115257243D01*
X149869802Y-115398300D01*
X150031700Y-115560198D01*
X150219251Y-115691523D01*
X150426757Y-115788284D01*
X150647913Y-115847543D01*
X150876000Y-115867498D01*
X151104087Y-115847543D01*
X151325243Y-115788284D01*
X151532749Y-115691523D01*
X151720300Y-115560198D01*
X151882198Y-115398300D01*
X152013523Y-115210749D01*
X152110284Y-115003243D01*
X152169543Y-114782087D01*
X152174692Y-114723226D01*
X152200556Y-114657110D01*
X152211110Y-114645122D01*
X154453354Y-112402881D01*
X154511073Y-112316497D01*
X154565549Y-112270971D01*
X154615838Y-112260500D01*
X160155260Y-112260500D01*
X160223381Y-112280502D01*
X160227530Y-112283287D01*
X160335082Y-112358595D01*
X160379251Y-112389523D01*
X160586757Y-112486284D01*
X160807913Y-112545543D01*
X161036000Y-112565498D01*
X161264087Y-112545543D01*
X161485243Y-112486284D01*
X161692749Y-112389523D01*
X161880300Y-112258198D01*
X162042198Y-112096300D01*
X162173523Y-111908749D01*
X162270284Y-111701243D01*
X162329543Y-111480087D01*
X162349498Y-111252000D01*
X162329543Y-111023913D01*
X162270284Y-110802757D01*
X162173523Y-110595251D01*
X162042198Y-110407700D01*
X161880300Y-110245802D01*
X161877012Y-110243500D01*
X161692749Y-110114477D01*
X161485246Y-110017717D01*
X161485240Y-110017715D01*
X161351950Y-109982000D01*
X161264087Y-109958457D01*
X161036000Y-109938502D01*
X160807913Y-109958457D01*
X160586759Y-110017715D01*
X160586753Y-110017717D01*
X160379252Y-110114476D01*
X160379250Y-110114477D01*
X160227530Y-110220713D01*
X160160257Y-110243401D01*
X160155260Y-110243500D01*
X154804500Y-110243500D01*
X154736379Y-110223498D01*
X154689886Y-110169842D01*
X154678500Y-110117500D01*
X154678500Y-108612672D01*
X154678499Y-108612668D01*
X154639744Y-108417831D01*
X154563721Y-108234296D01*
X154453353Y-108069119D01*
X154312881Y-107928647D01*
X153042881Y-106658647D01*
X152877704Y-106548279D01*
X152842024Y-106533500D01*
X152745220Y-106493402D01*
X152694172Y-106472257D01*
X152694170Y-106472256D01*
X152694169Y-106472256D01*
X152591898Y-106451913D01*
X152499331Y-106433500D01*
X152499329Y-106433500D01*
X146059012Y-106433500D01*
X145990891Y-106413498D01*
X145984952Y-106409436D01*
X145865809Y-106322874D01*
X145859782Y-106319803D01*
X145790034Y-106284265D01*
X145738422Y-106235519D01*
X145721356Y-106166604D01*
X145744257Y-106099402D01*
X145790034Y-106059735D01*
X145865803Y-106021129D01*
X146032430Y-105900068D01*
X146178068Y-105754430D01*
X146299129Y-105587803D01*
X146392634Y-105404290D01*
X146456280Y-105208408D01*
X146479319Y-105062942D01*
X146509730Y-104998792D01*
X146514654Y-104993578D01*
X151188829Y-100319405D01*
X151251141Y-100285379D01*
X151277924Y-100282500D01*
X157986076Y-100282500D01*
X158054197Y-100302502D01*
X158075171Y-100319405D01*
X162784595Y-105028829D01*
X162818621Y-105091141D01*
X162821500Y-105117924D01*
X162821500Y-113322074D01*
X162801498Y-113390195D01*
X162784596Y-113411169D01*
X162687171Y-113508595D01*
X162624859Y-113542620D01*
X162598075Y-113545500D01*
X161916740Y-113545500D01*
X161848619Y-113525498D01*
X161844470Y-113522713D01*
X161692749Y-113416477D01*
X161692747Y-113416476D01*
X161485246Y-113319717D01*
X161485240Y-113319715D01*
X161391771Y-113294670D01*
X161264087Y-113260457D01*
X161036000Y-113240502D01*
X160807913Y-113260457D01*
X160586759Y-113319715D01*
X160586753Y-113319717D01*
X160379250Y-113416477D01*
X160191703Y-113547799D01*
X160191697Y-113547804D01*
X160029804Y-113709697D01*
X160029799Y-113709703D01*
X159898477Y-113897250D01*
X159801717Y-114104753D01*
X159801715Y-114104759D01*
X159742457Y-114325913D01*
X159722502Y-114554000D01*
X159742457Y-114782087D01*
X159801716Y-115003243D01*
X159860690Y-115129713D01*
X159898477Y-115210749D01*
X159931032Y-115257243D01*
X160029802Y-115398300D01*
X160191700Y-115560198D01*
X160379251Y-115691523D01*
X160586757Y-115788284D01*
X160807913Y-115847543D01*
X161036000Y-115867498D01*
X161264087Y-115847543D01*
X161485243Y-115788284D01*
X161692749Y-115691523D01*
X161780448Y-115630115D01*
X161844470Y-115585287D01*
X161911743Y-115562599D01*
X161916740Y-115562500D01*
X163167328Y-115562500D01*
X163167329Y-115562500D01*
X163362169Y-115523744D01*
X163545704Y-115447721D01*
X163710881Y-115337353D01*
X163851353Y-115196881D01*
X163851352Y-115196881D01*
X163910880Y-115137353D01*
X163910879Y-115137353D01*
X164613354Y-114434881D01*
X164723722Y-114269703D01*
X164784213Y-114123664D01*
X164799744Y-114086169D01*
X164838500Y-113891329D01*
X164838500Y-104548671D01*
X164799744Y-104353831D01*
X164742734Y-104216197D01*
X164723722Y-104170297D01*
X164613354Y-104005119D01*
X159098881Y-98490647D01*
X158933704Y-98380279D01*
X158750169Y-98304256D01*
X158555331Y-98265500D01*
X158555329Y-98265500D01*
X152010500Y-98265500D01*
X151942379Y-98245498D01*
X151895886Y-98191842D01*
X151884500Y-98139500D01*
X151884500Y-92714379D01*
X151904502Y-92646258D01*
X151944354Y-92607138D01*
X151948850Y-92604364D01*
X151999652Y-92573030D01*
X152125030Y-92447652D01*
X152218115Y-92296738D01*
X152273887Y-92128426D01*
X152284500Y-92024545D01*
X152284499Y-89413191D01*
X154548000Y-89413191D01*
X154548000Y-90170000D01*
X155409827Y-90170000D01*
X155396889Y-90192409D01*
X155356000Y-90345009D01*
X155356000Y-90502991D01*
X155396889Y-90655591D01*
X155409827Y-90678000D01*
X154548000Y-90678000D01*
X154548000Y-91434808D01*
X154582670Y-91653710D01*
X154651155Y-91864483D01*
X154651156Y-91864485D01*
X154751772Y-92061956D01*
X154882039Y-92241253D01*
X155038746Y-92397960D01*
X155218043Y-92528227D01*
X155415514Y-92628843D01*
X155415516Y-92628844D01*
X155626289Y-92697329D01*
X155702000Y-92709320D01*
X155702000Y-90970173D01*
X155724409Y-90983111D01*
X155877009Y-91024000D01*
X156034991Y-91024000D01*
X156187591Y-90983111D01*
X156210000Y-90970173D01*
X156210000Y-92709320D01*
X156285709Y-92697329D01*
X156285711Y-92697329D01*
X156496483Y-92628844D01*
X156496485Y-92628843D01*
X156693956Y-92528227D01*
X156873253Y-92397960D01*
X157029960Y-92241253D01*
X157160227Y-92061956D01*
X157260843Y-91864485D01*
X157260844Y-91864483D01*
X157329329Y-91653710D01*
X157364000Y-91434808D01*
X157364000Y-90678000D01*
X156502173Y-90678000D01*
X156515111Y-90655591D01*
X156556000Y-90502991D01*
X156556000Y-90345009D01*
X156515111Y-90192409D01*
X156502173Y-90170000D01*
X157364000Y-90170000D01*
X157364000Y-89413191D01*
X157329329Y-89194289D01*
X157260844Y-88983516D01*
X157260843Y-88983514D01*
X157160227Y-88786043D01*
X157029960Y-88606746D01*
X156873253Y-88450039D01*
X156693956Y-88319772D01*
X156496485Y-88219156D01*
X156496483Y-88219155D01*
X156285709Y-88150669D01*
X156210000Y-88138678D01*
X156210000Y-89877826D01*
X156187591Y-89864889D01*
X156034991Y-89824000D01*
X155877009Y-89824000D01*
X155724409Y-89864889D01*
X155702000Y-89877826D01*
X155702000Y-88138678D01*
X155626290Y-88150669D01*
X155415516Y-88219155D01*
X155415514Y-88219156D01*
X155218043Y-88319772D01*
X155038746Y-88450039D01*
X154882039Y-88606746D01*
X154751772Y-88786043D01*
X154651156Y-88983514D01*
X154651155Y-88983516D01*
X154582670Y-89194289D01*
X154548000Y-89413191D01*
X152284499Y-89413191D01*
X152284499Y-88823456D01*
X152273887Y-88719574D01*
X152218115Y-88551262D01*
X152125030Y-88400348D01*
X152125029Y-88400347D01*
X152125024Y-88400341D01*
X151999658Y-88274975D01*
X151999652Y-88274970D01*
X151848738Y-88181885D01*
X151754533Y-88150669D01*
X151680427Y-88126113D01*
X151680420Y-88126112D01*
X151576553Y-88115500D01*
X150175455Y-88115500D01*
X150071574Y-88126112D01*
X149903261Y-88181885D01*
X149752347Y-88274970D01*
X149752341Y-88274975D01*
X149626975Y-88400341D01*
X149626970Y-88400347D01*
X149533885Y-88551262D01*
X149478113Y-88719572D01*
X149478112Y-88719579D01*
X149467500Y-88823446D01*
X149467500Y-92024544D01*
X149478112Y-92128425D01*
X149533885Y-92296738D01*
X149626970Y-92447652D01*
X149626975Y-92447658D01*
X149752341Y-92573024D01*
X149752345Y-92573027D01*
X149752348Y-92573030D01*
X149752350Y-92573031D01*
X149807646Y-92607138D01*
X149855125Y-92659923D01*
X149867500Y-92714379D01*
X149867500Y-98736076D01*
X149847498Y-98804197D01*
X149830595Y-98825171D01*
X145099171Y-103556595D01*
X145036859Y-103590621D01*
X145010076Y-103593500D01*
X144277019Y-103593500D01*
X144073592Y-103625720D01*
X144073590Y-103625720D01*
X144073587Y-103625721D01*
X143877714Y-103689364D01*
X143877708Y-103689367D01*
X143694190Y-103782874D01*
X143575048Y-103869436D01*
X143508181Y-103893295D01*
X143500988Y-103893500D01*
X141886668Y-103893500D01*
X141741529Y-103922370D01*
X141691831Y-103932256D01*
X141691830Y-103932256D01*
X141691827Y-103932257D01*
X141644172Y-103951997D01*
X141543976Y-103993500D01*
X141508295Y-104008279D01*
X141343123Y-104118644D01*
X141343116Y-104118649D01*
X140186649Y-105275116D01*
X140186644Y-105275123D01*
X140076279Y-105440296D01*
X140000258Y-105623825D01*
X140000256Y-105623830D01*
X139961500Y-105818668D01*
X139961500Y-111036076D01*
X139941498Y-111104197D01*
X139924595Y-111125171D01*
X139573171Y-111476595D01*
X139510859Y-111510621D01*
X139484076Y-111513500D01*
X138439012Y-111513500D01*
X138370891Y-111493498D01*
X138364952Y-111489436D01*
X138245809Y-111402874D01*
X138227174Y-111393379D01*
X138170034Y-111364265D01*
X138118422Y-111315519D01*
X138101356Y-111246604D01*
X138124257Y-111179402D01*
X138170034Y-111139735D01*
X138245803Y-111101129D01*
X138412430Y-110980068D01*
X138558068Y-110834430D01*
X138679129Y-110667803D01*
X138772634Y-110484290D01*
X138836280Y-110288408D01*
X138868500Y-110084981D01*
X138868500Y-109879019D01*
X138836280Y-109675592D01*
X138772634Y-109479710D01*
X138679129Y-109296197D01*
X138558068Y-109129570D01*
X138558065Y-109129567D01*
X138558063Y-109129564D01*
X138412435Y-108983936D01*
X138412432Y-108983934D01*
X138412430Y-108983932D01*
X138286999Y-108892802D01*
X138245806Y-108862873D01*
X138245805Y-108862872D01*
X138245803Y-108862871D01*
X138170034Y-108824265D01*
X138118422Y-108775519D01*
X138101356Y-108706604D01*
X138124257Y-108639402D01*
X138170034Y-108599735D01*
X138245803Y-108561129D01*
X138412430Y-108440068D01*
X138558068Y-108294430D01*
X138679129Y-108127803D01*
X138772634Y-107944290D01*
X138836280Y-107748408D01*
X138868500Y-107544981D01*
X138868500Y-107339019D01*
X138836280Y-107135592D01*
X138772634Y-106939710D01*
X138679129Y-106756197D01*
X138558068Y-106589570D01*
X138558065Y-106589567D01*
X138558063Y-106589564D01*
X138412436Y-106443937D01*
X138412432Y-106443934D01*
X138412430Y-106443932D01*
X138396066Y-106432043D01*
X138352715Y-106375822D01*
X138346640Y-106305086D01*
X138379772Y-106242294D01*
X138441592Y-106207383D01*
X138456663Y-106204831D01*
X138469093Y-106203494D01*
X138605964Y-106152444D01*
X138605965Y-106152444D01*
X138722904Y-106064904D01*
X138810444Y-105947965D01*
X138810444Y-105947964D01*
X138861494Y-105811093D01*
X138867999Y-105750597D01*
X138868000Y-105750585D01*
X138868000Y-105156000D01*
X137471686Y-105156000D01*
X137480080Y-105147606D01*
X137532741Y-105056394D01*
X137560000Y-104954661D01*
X137560000Y-104849339D01*
X137532741Y-104747606D01*
X137480080Y-104656394D01*
X137471686Y-104648000D01*
X138868000Y-104648000D01*
X138868000Y-104053414D01*
X138867999Y-104053402D01*
X138861494Y-103992906D01*
X138810444Y-103856035D01*
X138810444Y-103856034D01*
X138722904Y-103739095D01*
X138605965Y-103651555D01*
X138469093Y-103600505D01*
X138408597Y-103594000D01*
X137414000Y-103594000D01*
X137414000Y-104590314D01*
X137405606Y-104581920D01*
X137314394Y-104529259D01*
X137212661Y-104502000D01*
X137107339Y-104502000D01*
X137005606Y-104529259D01*
X136914394Y-104581920D01*
X136906000Y-104590314D01*
X136906000Y-103594000D01*
X135911402Y-103594000D01*
X135850906Y-103600505D01*
X135714035Y-103651555D01*
X135714034Y-103651555D01*
X135597095Y-103739095D01*
X135509555Y-103856034D01*
X135509555Y-103856035D01*
X135458505Y-103992906D01*
X135452000Y-104053402D01*
X135452000Y-104648000D01*
X136848314Y-104648000D01*
X136839920Y-104656394D01*
X136787259Y-104747606D01*
X136760000Y-104849339D01*
X136760000Y-104954661D01*
X136787259Y-105056394D01*
X136839920Y-105147606D01*
X136848314Y-105156000D01*
X135452000Y-105156000D01*
X135452000Y-105750597D01*
X135458505Y-105811093D01*
X135509555Y-105947964D01*
X135509555Y-105947965D01*
X135597095Y-106064904D01*
X135714034Y-106152444D01*
X135813235Y-106189444D01*
X135870071Y-106231991D01*
X135894882Y-106298511D01*
X135879791Y-106367885D01*
X135829588Y-106418088D01*
X135769203Y-106433500D01*
X134735292Y-106433500D01*
X134667171Y-106413498D01*
X134620678Y-106359842D01*
X134613585Y-106340111D01*
X134612412Y-106335734D01*
X134584284Y-106230757D01*
X134487523Y-106023251D01*
X134356198Y-105835700D01*
X134194300Y-105673802D01*
X134194296Y-105673799D01*
X134006746Y-105542474D01*
X134001985Y-105539726D01*
X134003023Y-105537927D01*
X133956532Y-105496963D01*
X133937095Y-105428679D01*
X133957661Y-105360726D01*
X134002782Y-105321664D01*
X134001730Y-105319841D01*
X134006496Y-105317088D01*
X134077888Y-105267099D01*
X134077888Y-105267097D01*
X133390791Y-104580000D01*
X133402661Y-104580000D01*
X133504394Y-104552741D01*
X133595606Y-104500080D01*
X133670080Y-104425606D01*
X133722741Y-104334394D01*
X133750000Y-104232661D01*
X133750000Y-104220791D01*
X134437097Y-104907888D01*
X134437099Y-104907888D01*
X134487088Y-104836497D01*
X134583811Y-104629073D01*
X134583813Y-104629068D01*
X134643048Y-104408002D01*
X134662995Y-104180000D01*
X134643048Y-103951997D01*
X134583813Y-103730931D01*
X134583811Y-103730926D01*
X134487086Y-103523498D01*
X134437100Y-103452110D01*
X134437098Y-103452110D01*
X133750000Y-104139208D01*
X133750000Y-104127339D01*
X133722741Y-104025606D01*
X133670080Y-103934394D01*
X133595606Y-103859920D01*
X133504394Y-103807259D01*
X133402661Y-103780000D01*
X133390790Y-103780000D01*
X134077888Y-103092899D01*
X134077888Y-103092898D01*
X134006501Y-103042913D01*
X133799073Y-102946188D01*
X133799068Y-102946186D01*
X133578000Y-102886951D01*
X133578004Y-102886951D01*
X133350000Y-102867004D01*
X133121997Y-102886951D01*
X132900931Y-102946186D01*
X132900926Y-102946188D01*
X132693500Y-103042913D01*
X132622109Y-103092900D01*
X133309209Y-103780000D01*
X133297339Y-103780000D01*
X133195606Y-103807259D01*
X133104394Y-103859920D01*
X133029920Y-103934394D01*
X132977259Y-104025606D01*
X132950000Y-104127339D01*
X132950000Y-104139209D01*
X132262900Y-103452109D01*
X132212913Y-103523500D01*
X132116188Y-103730926D01*
X132116186Y-103730931D01*
X132056951Y-103951997D01*
X132037004Y-104180000D01*
X132056951Y-104408002D01*
X132116186Y-104629068D01*
X132116188Y-104629073D01*
X132212913Y-104836501D01*
X132262899Y-104907888D01*
X132950000Y-104220788D01*
X132950000Y-104232661D01*
X132977259Y-104334394D01*
X133029920Y-104425606D01*
X133104394Y-104500080D01*
X133195606Y-104552741D01*
X133297339Y-104580000D01*
X133309210Y-104580000D01*
X132622110Y-105267098D01*
X132622110Y-105267100D01*
X132693498Y-105317086D01*
X132698266Y-105319839D01*
X132697178Y-105321721D01*
X132743420Y-105362409D01*
X132762904Y-105430680D01*
X132742386Y-105498647D01*
X132697015Y-105537995D01*
X132698015Y-105539726D01*
X132693253Y-105542474D01*
X132505703Y-105673799D01*
X132505697Y-105673804D01*
X132343804Y-105835697D01*
X132343799Y-105835703D01*
X132212477Y-106023250D01*
X132115717Y-106230753D01*
X132115715Y-106230759D01*
X132056456Y-106451916D01*
X132056455Y-106451921D01*
X132051306Y-106510772D01*
X132025442Y-106576890D01*
X132014881Y-106588883D01*
X130421119Y-108182647D01*
X130280649Y-108323116D01*
X130280644Y-108323123D01*
X130170279Y-108488296D01*
X130094258Y-108671825D01*
X130094256Y-108671830D01*
X130055500Y-108866668D01*
X128530771Y-108866668D01*
X128559215Y-108831776D01*
X128586460Y-108817622D01*
X128653965Y-108792444D01*
X128770904Y-108704904D01*
X128858444Y-108587965D01*
X128858444Y-108587964D01*
X128909494Y-108451093D01*
X128915999Y-108390597D01*
X128916000Y-108390585D01*
X128916000Y-107696000D01*
X127880968Y-107696000D01*
X127927333Y-107615694D01*
X127958000Y-107501244D01*
X127958000Y-107382756D01*
X127927333Y-107268306D01*
X127880968Y-107188000D01*
X128916000Y-107188000D01*
X128916000Y-106493414D01*
X128915999Y-106493402D01*
X128909494Y-106432906D01*
X128858444Y-106296035D01*
X128858444Y-106296034D01*
X128770904Y-106179095D01*
X128653965Y-106091555D01*
X128517093Y-106040505D01*
X128456597Y-106034000D01*
X127762000Y-106034000D01*
X127762000Y-107069031D01*
X127681694Y-107022667D01*
X127567244Y-106992000D01*
X127448756Y-106992000D01*
X127334306Y-107022667D01*
X127254000Y-107069031D01*
X127254000Y-106034000D01*
X126559402Y-106034000D01*
X126498906Y-106040505D01*
X126362035Y-106091555D01*
X126362034Y-106091555D01*
X126245095Y-106179095D01*
X126157555Y-106296034D01*
X126157555Y-106296035D01*
X126106505Y-106432906D01*
X126100000Y-106493402D01*
X126100000Y-107188000D01*
X127135032Y-107188000D01*
X127088667Y-107268306D01*
X127058000Y-107382756D01*
X127058000Y-107501244D01*
X127088667Y-107615694D01*
X127135032Y-107696000D01*
X126100000Y-107696000D01*
X126100000Y-108390597D01*
X126106505Y-108451093D01*
X126157555Y-108587964D01*
X126157555Y-108587965D01*
X126245095Y-108704904D01*
X126362034Y-108792444D01*
X126429539Y-108817622D01*
X126486375Y-108860169D01*
X126511186Y-108926689D01*
X126496095Y-108996063D01*
X126478208Y-109021016D01*
X126392683Y-109113920D01*
X126265015Y-109309331D01*
X126171252Y-109523089D01*
X126171249Y-109523096D01*
X126113950Y-109749366D01*
X126113949Y-109749372D01*
X126113949Y-109749374D01*
X126110412Y-109792064D01*
X126099653Y-109921896D01*
X126074093Y-109988132D01*
X126063178Y-110000585D01*
X123055120Y-113008646D01*
X122914649Y-113149116D01*
X122914644Y-113149123D01*
X122804279Y-113314296D01*
X122728258Y-113497825D01*
X122728256Y-113497830D01*
X122689500Y-113692668D01*
X122689500Y-113927259D01*
X122669498Y-113995380D01*
X122666713Y-113999530D01*
X122560477Y-114151250D01*
X122463717Y-114358753D01*
X122463715Y-114358759D01*
X122443318Y-114434881D01*
X122404457Y-114579913D01*
X122384502Y-114808000D01*
X122401583Y-115003242D01*
X122404457Y-115036086D01*
X122412374Y-115065632D01*
X122410684Y-115136609D01*
X122370890Y-115195404D01*
X122305625Y-115223352D01*
X122235611Y-115211578D01*
X122201572Y-115187338D01*
X121187405Y-114173171D01*
X121153379Y-114110859D01*
X121150500Y-114084076D01*
X121150500Y-100682926D01*
X121170502Y-100614805D01*
X121187405Y-100593831D01*
X123641736Y-98139500D01*
X126768354Y-95012882D01*
X126878722Y-94847705D01*
X126954745Y-94664170D01*
X126993501Y-94469330D01*
X126993501Y-94270672D01*
X126993501Y-92713762D01*
X127013503Y-92645641D01*
X127053353Y-92606521D01*
X127107652Y-92573030D01*
X127233030Y-92447652D01*
X127326115Y-92296738D01*
X127381887Y-92128426D01*
X127392500Y-92024545D01*
X127392499Y-89413191D01*
X129656000Y-89413191D01*
X129656000Y-90170000D01*
X130517827Y-90170000D01*
X130504889Y-90192409D01*
X130464000Y-90345009D01*
X130464000Y-90502991D01*
X130504889Y-90655591D01*
X130517827Y-90678000D01*
X129656000Y-90678000D01*
X129656000Y-91434808D01*
X129690670Y-91653710D01*
X129759155Y-91864483D01*
X129759156Y-91864485D01*
X129859772Y-92061956D01*
X129990039Y-92241253D01*
X130146746Y-92397960D01*
X130326043Y-92528227D01*
X130523514Y-92628843D01*
X130523516Y-92628844D01*
X130734289Y-92697329D01*
X130810000Y-92709320D01*
X130810000Y-90970173D01*
X130832409Y-90983111D01*
X130985009Y-91024000D01*
X131142991Y-91024000D01*
X131295591Y-90983111D01*
X131318000Y-90970173D01*
X131318000Y-92709320D01*
X131393709Y-92697329D01*
X131393711Y-92697329D01*
X131604483Y-92628844D01*
X131604485Y-92628843D01*
X131801956Y-92528227D01*
X131981253Y-92397960D01*
X132137960Y-92241253D01*
X132268227Y-92061956D01*
X132368843Y-91864485D01*
X132368844Y-91864483D01*
X132437329Y-91653710D01*
X132472000Y-91434808D01*
X132472000Y-90678000D01*
X131610173Y-90678000D01*
X131623111Y-90655591D01*
X131664000Y-90502991D01*
X131664000Y-90345009D01*
X131623111Y-90192409D01*
X131610173Y-90170000D01*
X132472000Y-90170000D01*
X132472000Y-89413191D01*
X132437329Y-89194289D01*
X132368844Y-88983516D01*
X132368843Y-88983514D01*
X132268227Y-88786043D01*
X132137960Y-88606746D01*
X131981253Y-88450039D01*
X131801956Y-88319772D01*
X131604485Y-88219156D01*
X131604483Y-88219155D01*
X131393709Y-88150669D01*
X131318000Y-88138678D01*
X131318000Y-89877826D01*
X131295591Y-89864889D01*
X131142991Y-89824000D01*
X130985009Y-89824000D01*
X130832409Y-89864889D01*
X130810000Y-89877826D01*
X130810000Y-88138678D01*
X130734290Y-88150669D01*
X130523516Y-88219155D01*
X130523514Y-88219156D01*
X130326043Y-88319772D01*
X130146746Y-88450039D01*
X129990039Y-88606746D01*
X129859772Y-88786043D01*
X129759156Y-88983514D01*
X129759155Y-88983516D01*
X129690670Y-89194289D01*
X129656000Y-89413191D01*
X127392499Y-89413191D01*
X127392499Y-88823456D01*
X127381887Y-88719574D01*
X127326115Y-88551262D01*
X127233030Y-88400348D01*
X127233029Y-88400347D01*
X127233024Y-88400341D01*
X127107658Y-88274975D01*
X127107652Y-88274970D01*
X126956738Y-88181885D01*
X126862533Y-88150669D01*
X126788427Y-88126113D01*
X126788420Y-88126112D01*
X126684553Y-88115500D01*
X125283455Y-88115500D01*
X125179574Y-88126112D01*
X125011261Y-88181885D01*
X124860347Y-88274970D01*
X124860341Y-88274975D01*
X124734975Y-88400341D01*
X124734970Y-88400347D01*
X124641885Y-88551262D01*
X124586113Y-88719572D01*
X124586112Y-88719579D01*
X124575500Y-88823446D01*
X124575500Y-92024544D01*
X124586112Y-92128425D01*
X124641885Y-92296738D01*
X124734970Y-92447652D01*
X124734975Y-92447658D01*
X124860341Y-92573024D01*
X124860347Y-92573029D01*
X124860348Y-92573030D01*
X124915646Y-92607138D01*
X124916648Y-92607756D01*
X124964126Y-92660542D01*
X124976501Y-92714997D01*
X124976501Y-93900077D01*
X124956499Y-93968198D01*
X124939596Y-93989172D01*
X119358649Y-99570118D01*
X119358644Y-99570125D01*
X119248279Y-99735298D01*
X119172258Y-99918827D01*
X119172256Y-99918832D01*
X119133500Y-100113670D01*
X116178500Y-100113670D01*
X116178500Y-86867996D01*
X116608654Y-86867996D01*
X116608654Y-86868003D01*
X116628016Y-87163421D01*
X116628018Y-87163435D01*
X116685776Y-87453795D01*
X116685778Y-87453805D01*
X116780938Y-87734137D01*
X116780944Y-87734151D01*
X116911883Y-87999670D01*
X117076359Y-88245827D01*
X117076361Y-88245830D01*
X117076367Y-88245838D01*
X117271573Y-88468427D01*
X117494162Y-88663633D01*
X117740327Y-88828115D01*
X118005855Y-88959059D01*
X118286203Y-89054224D01*
X118576574Y-89111983D01*
X118745388Y-89123047D01*
X118871997Y-89131346D01*
X118872000Y-89131346D01*
X118872003Y-89131346D01*
X118982784Y-89124084D01*
X119167426Y-89111983D01*
X119457797Y-89054224D01*
X119738145Y-88959059D01*
X120003673Y-88828115D01*
X120249838Y-88663633D01*
X120472427Y-88468427D01*
X120667633Y-88245838D01*
X120832115Y-87999673D01*
X120963059Y-87734145D01*
X121058224Y-87453797D01*
X121115983Y-87163426D01*
X121135346Y-86868000D01*
X121135346Y-86867996D01*
X160550654Y-86867996D01*
X160550654Y-86868003D01*
X160570016Y-87163421D01*
X160570018Y-87163435D01*
X160627776Y-87453795D01*
X160627778Y-87453805D01*
X160722938Y-87734137D01*
X160722944Y-87734151D01*
X160853883Y-87999670D01*
X161018359Y-88245827D01*
X161018361Y-88245830D01*
X161018367Y-88245838D01*
X161213573Y-88468427D01*
X161436162Y-88663633D01*
X161682327Y-88828115D01*
X161947855Y-88959059D01*
X162228203Y-89054224D01*
X162518574Y-89111983D01*
X162687388Y-89123047D01*
X162813997Y-89131346D01*
X162814000Y-89131346D01*
X162814003Y-89131346D01*
X162924784Y-89124084D01*
X163109426Y-89111983D01*
X163399797Y-89054224D01*
X163680145Y-88959059D01*
X163945673Y-88828115D01*
X164191838Y-88663633D01*
X164414427Y-88468427D01*
X164609633Y-88245838D01*
X164774115Y-87999673D01*
X164905059Y-87734145D01*
X165000224Y-87453797D01*
X165057983Y-87163426D01*
X165077346Y-86868000D01*
X165057983Y-86572574D01*
X165000224Y-86282203D01*
X164905059Y-86001855D01*
X164774115Y-85736327D01*
X164609633Y-85490162D01*
X164414427Y-85267573D01*
X164191838Y-85072367D01*
X164191830Y-85072361D01*
X164191827Y-85072359D01*
X163945670Y-84907883D01*
X163680151Y-84776944D01*
X163680145Y-84776941D01*
X163680140Y-84776939D01*
X163680137Y-84776938D01*
X163399805Y-84681778D01*
X163399799Y-84681776D01*
X163399797Y-84681776D01*
X163302566Y-84662435D01*
X163109435Y-84624018D01*
X163109421Y-84624016D01*
X162814003Y-84604654D01*
X162813997Y-84604654D01*
X162518578Y-84624016D01*
X162518564Y-84624018D01*
X162276818Y-84672105D01*
X162228203Y-84681776D01*
X162228201Y-84681776D01*
X162228194Y-84681778D01*
X161947862Y-84776938D01*
X161947848Y-84776944D01*
X161682329Y-84907883D01*
X161436172Y-85072359D01*
X161436165Y-85072364D01*
X161436162Y-85072367D01*
X161213573Y-85267573D01*
X161018367Y-85490162D01*
X161018364Y-85490165D01*
X161018359Y-85490172D01*
X160853883Y-85736329D01*
X160722944Y-86001848D01*
X160722938Y-86001862D01*
X160627778Y-86282194D01*
X160627776Y-86282204D01*
X160570018Y-86572564D01*
X160570016Y-86572578D01*
X160550654Y-86867996D01*
X121135346Y-86867996D01*
X121115983Y-86572574D01*
X121058224Y-86282203D01*
X120963059Y-86001855D01*
X120832115Y-85736327D01*
X120667633Y-85490162D01*
X120472427Y-85267573D01*
X120249838Y-85072367D01*
X120249830Y-85072361D01*
X120249827Y-85072359D01*
X120003670Y-84907883D01*
X119738151Y-84776944D01*
X119738145Y-84776941D01*
X119738140Y-84776939D01*
X119738137Y-84776938D01*
X119457805Y-84681778D01*
X119457799Y-84681776D01*
X119457797Y-84681776D01*
X119360566Y-84662435D01*
X119167435Y-84624018D01*
X119167421Y-84624016D01*
X118872003Y-84604654D01*
X118871997Y-84604654D01*
X118576578Y-84624016D01*
X118576564Y-84624018D01*
X118334818Y-84672105D01*
X118286203Y-84681776D01*
X118286201Y-84681776D01*
X118286194Y-84681778D01*
X118005862Y-84776938D01*
X118005848Y-84776944D01*
X117740329Y-84907883D01*
X117494172Y-85072359D01*
X117494165Y-85072364D01*
X117494162Y-85072367D01*
X117271573Y-85267573D01*
X117076367Y-85490162D01*
X117076364Y-85490165D01*
X117076359Y-85490172D01*
X116911883Y-85736329D01*
X116780944Y-86001848D01*
X116780938Y-86001862D01*
X116685778Y-86282194D01*
X116685776Y-86282204D01*
X116628018Y-86572564D01*
X116628016Y-86572578D01*
X116608654Y-86867996D01*
X116178500Y-86867996D01*
X116178500Y-84300500D01*
X116198502Y-84232379D01*
X116252158Y-84185886D01*
X116304500Y-84174500D01*
X165381500Y-84174500D01*
X165449621Y-84194502D01*
G37*
G04 #@! TD.AperFunction*
M02*
